<?xml version="1.0" standalone="no"?>
<!DOCTYPE svg PUBLIC "-//W3C//DTD SVG 1.1//EN" "http://www.w3.org/Graphics/SVG/1.1/DTD/svg11.dtd" >
<svg xmlns="http://www.w3.org/2000/svg" xmlns:xlink="http://www.w3.org/1999/xlink" version="1.1">
<metadata>
Created by FontForge 20170731 at Thu Mar  2 22:41:21 2023
 By Aleksey,,,
Copyright (c) 2020 by Stinglabs. All rights reserved.
</metadata>
<defs>
<font id="AvalenRekas-Regular" horiz-adv-x="694" >
  <font-face 
    font-family="Avalen Rekas"
    font-weight="400"
    font-stretch="normal"
    units-per-em="2048"
    panose-1="2 0 5 3 0 0 0 2 0 4"
    ascent="1536"
    descent="-512"
    x-height="1024"
    cap-height="1466"
    bbox="-1159.75 -727 2042 1810"
    underline-thickness="102"
    underline-position="-307"
    unicode-range="U+000D-FB00"
  />
<missing-glyph horiz-adv-x="512" 
 />
    <glyph glyph-name="t_t" unicode="tt" horiz-adv-x="929" 
d="M854 119q6 -103 76 -121h-924q68 18 74 121v672q0 45 -20 74.5t-40 36.5l-20 7l2 2q2 2 4 2q3 1 11 5.5t10 5.5q15 7 53 24v201q-16 8 -24.5 21.5t-9.5 23.5l-1 10q43 0 82.5 19.5t64.5 48t44 56.5t28 48l8 19v-379q7 1 20.5 3t20.5 3q37 4 58 2v125q-16 8 -24.5 21.5
t-9.5 23.5l-1 10q43 0 82.5 19.5t64.5 48t44 56.5t27 48l9 19v-379q7 1 20.5 3t20.5 3q46 4 70 2q3 -1 9 -2t9 -2h4l4 -2q1 0 4.5 -1t4.5 -1q8 -3 32 -17q13 -8 27 -22q10 -12 18 -33q4 -23 2 -33q-2 -12 -10 -28q-11 -21 -30 -33q-10 -7 -31 -12q-14 -3 -23 0h-4h-2h2
q2 0 4 2q10 0 19 6q8 4 22 18q13 17 15 31q0 10 -2 16q0 8 -7 15q-2 5 -12 8q-6 6 -16 6q-6 2 -21 2h-2h-2h-2h-2v0h-2h-10q-25 -4 -45 -12q-12 -4 -49 -23q-6 -3 -15 -6v-59v-764h99v141q0 34 -7 57.5t-17 33t-20 14.5t-17 4h-7q34 21 73 3t66.5 -48t68.5 -59t79 -29
q-27 -27 -27 -64v-12zM272 78h99v862q-10 -2 -35 -10q-12 -4 -49 -23q-6 -3 -15 -6v-59v-764z" />
    <glyph glyph-name="f_f" unicode="ff" horiz-adv-x="1048" 
d="M1049 1434q-70 -18 -76 -121v-15q0 -35 26 -61q-32 0 -63.5 -15t-54.5 -34.5t-51.5 -38t-54 -26.5t-62.5 1q3 0 7.5 0.5t16 6.5t20.5 18t16 40t7 66v97h-159v-334q7 1 22.5 3t22.5 3h47q30 -4 45 -8q21 -6 39 -15l30 -18q4 -4 11 -10.5t10 -9.5q2 -1 5 -5l3 -4q2 -4 6 -8
t4 -6q1 -1 2 -3t2 -3l2 -4q-2 2 -4 2l-4 4l-8 4l-8 4q-1 0 -4.5 1t-5.5 1q-6 4 -25 8q-2 0 -8 0.5t-11.5 0.5t-9.5 -1q-20 0 -30 -4q-12 -2 -31 -10q-7 -3 -29 -16q-17 -9 -53 -41q-3 -3 -10 -10.5t-10 -10.5v-743q6 -103 73 -121h-342q70 18 76 121v835q-11 0 -27 -4
q-10 -2 -30 -10q-16 -7 -29 -16q-14 -7 -53 -41l-21 -21v-743q0 -21 4.5 -43t22.5 -46.5t47 -31.5h-342q40 11 57 48t17 73v1194q0 36 -17 73t-57 48h1049zM403 1016q18 -4 25 -8v344h-160v-334q21 3 45 6h47q33 -5 43 -8z" />
    <glyph glyph-name="o_o" unicode="oo" horiz-adv-x="1048" 
d="M975 119q0 -21 4.5 -43t22.5 -46.5t47 -31.5h-1049q40 11 57 48t17 73v784q0 36 -17 73t-57 48h1049q-41 -11 -57.5 -47.5t-16.5 -73.5v-784zM268 78h160v864h-160v-864zM780 78v864h-159v-864h159z" />
    <glyph glyph-name=".notdef" horiz-adv-x="512" 
 />
    <glyph glyph-name=".null" horiz-adv-x="0" 
 />
    <glyph glyph-name="nonmarkingreturn" horiz-adv-x="682" 
 />
    <glyph glyph-name="NULL" horiz-adv-x="0" 
 />
    <glyph glyph-name="NULL" horiz-adv-x="0" 
 />
    <glyph glyph-name="CR" unicode="&#xd;" horiz-adv-x="512" 
 />
    <glyph glyph-name="space" unicode=" " horiz-adv-x="512" 
 />
    <glyph glyph-name="exclam" unicode="!" horiz-adv-x="342" 
d="M0 1434h342q-68 -18 -74 -117l-55 -1319h-88l-51 1315q0 36 -17 73t-57 48zM170 -137q43 0 73.5 -30t30.5 -73t-30.5 -72.5t-73.5 -29.5q-42 0 -72 30t-30 72t30 72.5t72 30.5z" />
    <glyph glyph-name="quotedbl" unicode="&#x22;" horiz-adv-x="475" 
d="M119 1434h164l-183 -379h-100zM313 1434h162l-180 -379h-102z" />
    <glyph glyph-name="numbersign" unicode="#" horiz-adv-x="2015" 
d="M1972 737h-493l-109 -477h494l-43 -192h-494l-92 -410h-197l92 410h-417l-92 -410h-197l92 410h-516l43 192h516l107 477h-514l43 195h514l112 502h199l-113 -502l416 -2l113 504h198l-112 -504h493zM1174 260l106 477h-416l-108 -477h418z" />
    <glyph glyph-name="dollar" unicode="$" horiz-adv-x="821" 
d="M733 119q6 -103 76 -121h-338v-170h-123v170h-348q40 11 57 48t17 73v131q0 30 -25 59q32 0 63 19.5t56 45.5t50.5 51.5t55.5 38t62 3.5q-3 0 -7.5 -0.5t-16 -7t-20.5 -18.5t-16.5 -40t-7.5 -67v-256h80v608l-184 121q-33 22 -49 37.5t-28.5 47t-12.5 79.5v342
q0 36 -17 73t-57 48h348v170h123v-170h350q-70 -18 -76 -121v-131q0 -35 27 -62q-32 0 -63 -19t-56 -45t-50.5 -50.5t-55.5 -37t-62 -3.5q3 0 7.5 0.5t16 6.5t20.5 18t16.5 40t7.5 66v256h-82v-516l131 -84q71 -47 102 -97t31 -149zM326 932l22 -14v434h-80v-312
q0 -44 13.5 -66.5t44.5 -41.5zM541 78v354q0 70 -16.5 106.5t-53.5 65.5v-526h70z" />
    <glyph glyph-name="percent" unicode="%" horiz-adv-x="811" 
d="M643 408q69 0 118.5 -70.5t49.5 -169.5t-49.5 -169.5t-118.5 -70.5t-118.5 70.5t-49.5 169.5t49.5 169.5t118.5 70.5zM643 -18q55 0 55 186q0 184 -55 184t-55 -184q0 -186 55 -186zM336 895q0 -99 -49.5 -169.5t-118.5 -70.5t-118.5 70.5t-49.5 169.5q0 98 49.5 169
t118.5 71t118.5 -71t49.5 -169zM113 895q0 -186 55 -186t55 186q0 184 -55 184t-55 -184zM516 1434h197l-398 -1776h-198z" />
    <glyph glyph-name="ampersand" unicode="&#x26;" horiz-adv-x="993" 
d="M870 594q91 -8 123 43q-4 -6 -4 -27q-2 -11 -6 -32t-6 -33q-3 -28 -10 -64q-1 -2 -2.5 -12.5t-3.5 -13.5q-1 -2 -3 -2q-32 -49 -124 -41q-54 6 -101 18v-311q6 -103 76 -121h-809q40 11 57 48t17 73v549q0 76 19.5 123t58.5 81q-40 35 -59 81t-19 124v236q0 36 -17 73
t-57 48h809q-70 -18 -76 -121v-131q0 -35 27 -62q-32 0 -63 -19t-56 -45t-50.5 -50.5t-55.5 -37t-62 -3.5q3 0 7.5 0.5t16 6.5t20.5 18t16.5 40t7.5 66v256h-273v-267q0 -40 18 -80t44 -69t52 -52t44 -34l18 -12q-7 -3 -19 -8.5t-42.5 -27t-53.5 -47t-42 -69t-19 -92.5v-516
h273v407q-45 11 -72 13q-83 4 -96 -43q1 4 2 13t2 13q2 25 10 64q2 10 6.5 42t9.5 50q3 0 3 2q14 48 98 39q61 -6 178 -43q10 -3 44.5 -12t51 -13.5t43.5 -9.5t49 -6z" />
    <glyph glyph-name="quotesingle" unicode="'" horiz-adv-x="282" 
d="M100 1055h-100l119 379h164z" />
    <glyph glyph-name="parenleft" unicode="(" horiz-adv-x="350" 
d="M197 545q0 -191 9.5 -337.5t24 -233.5t35 -142t40.5 -74.5t42 -19.5l2 -80q-79 0 -140.5 49t-97 127t-60.5 172.5t-34.5 189.5t-13.5 173t-3 127l1 49q0 11 -0.5 31t0.5 80.5t4.5 119.5t14 139t26 149t42.5 139t61.5 119.5t86 80.5t113.5 31l-2 -82q-23 0 -43 -19.5
t-40.5 -74t-35 -141.5t-23.5 -233.5t-9 -338.5z" />
    <glyph glyph-name="parenright" unicode=")" horiz-adv-x="348" 
d="M154 545q0 807 -154 807v82q62 0 113 -30.5t86 -82t62 -118t42 -140t25.5 -147.5t13.5 -140.5t4.5 -118t0.5 -81.5l-1 -31q0 -11 0.5 -31t0 -80.5t-4.5 -119t-14 -138.5t-25 -148.5t-42 -138.5t-62 -119.5t-86 -80.5t-113 -31v80q23 0 43 19.5t41 74.5t36 142t24.5 233.5
t9.5 337.5z" />
    <glyph glyph-name="asterisk" unicode="*" horiz-adv-x="344" 
d="M344 1315l-117 -86l117 -88l-55 -84l-78 78l10 -111h-98l10 111l-78 -78l-55 84l117 88l-117 86l55 86l78 -80l-10 113h98l-10 -113l78 80z" />
    <glyph glyph-name="plus" unicode="+" horiz-adv-x="1026" 
d="M1026 606v-192h-416v-416h-194v416h-416v192h416v418h194v-418h416z" />
    <glyph glyph-name="comma" unicode="," horiz-adv-x="206" 
d="M205 100q0 -6 -0.5 -15.5t-6.5 -35.5t-17.5 -47.5t-38.5 -43.5t-64 -32v33q21 10 33 39h-9q-43 0 -72.5 29.5t-29.5 72.5t29.5 73t72.5 30t73 -30t30 -73z" />
    <glyph glyph-name="hyphen" unicode="-" horiz-adv-x="757" 
d="M758 414h-758v192h758v-192z" />
    <glyph glyph-name="period" unicode="." horiz-adv-x="204" 
d="M205 100q0 -43 -30 -72.5t-73 -29.5t-72.5 29.5t-29.5 72.5t29.5 73t72.5 30t73 -30t30 -73z" />
    <glyph glyph-name="slash" unicode="/" horiz-adv-x="595" 
d="M399 1434h197l-397 -1776h-199z" />
    <glyph glyph-name="zero" unicode="0" horiz-adv-x="808" 
d="M733 119q6 -103 76 -121h-809q40 11 57 48t17 73v1194q0 36 -17 73t-57 48h809q-70 -18 -76 -121v-1194zM541 78v1274h-273v-1274h273z" />
    <glyph glyph-name="one" unicode="1" horiz-adv-x="342" 
d="M268 115q6 -101 74 -117h-342q40 11 57 48t17 73v1194q0 21 -4.5 43t-22.5 46.5t-47 31.5h342q-68 -18 -74 -117v-1202z" />
    <glyph glyph-name="two" unicode="2" horiz-adv-x="821" 
d="M745 119q6 -103 76 -121h-821q40 11 57 48t17 73v340q0 70 20.5 101.5t69.5 62.5l270 178q32 22 45.5 33t31.5 34t24 53.5t6 75.5v355h-273v-256q0 -38 7 -66t17 -40t20 -18.5t17 -6.5h7q-32 -9 -62 3.5t-55.5 37t-50.5 50.5t-56 45t-63 19q25 29 25 62v131q0 36 -17 73
t-57 48h809q-70 -18 -76 -121v-387q0 -69 -17 -116t-42 -73t-72 -57l-276 -180q-31 -21 -44.5 -43t-13.5 -66v-313h285v256q0 39 -7 67t-17 40t-20 19t-17 7h-7q32 9 62 -3.5t55.5 -38t50.5 -51.5t56 -45.5t63 -19.5q-27 -27 -27 -59v-131z" />
    <glyph glyph-name="three" unicode="3" horiz-adv-x="808" 
d="M733 119q6 -103 76 -121h-809q40 11 57 48t17 73v131q0 30 -25 59q32 0 63 19.5t56 45.5t50.5 51.5t55.5 38t62 3.5q-3 0 -7.5 -0.5t-16 -7t-20.5 -18.5t-16.5 -40t-7.5 -67v-256h273v516q0 49 -18 92t-44 69.5t-52 46t-44 28.5l-18 8q7 4 19 12t42.5 33.5t53.5 53t42 68
t19 80.5v267h-273v-256q0 -38 7 -66t17 -40t20 -18.5t17 -6.5h7q-32 -9 -62 3.5t-55.5 37t-50.5 50.5t-56 45t-63 19q25 29 25 62v131q0 36 -17 73t-57 48h809q-70 -18 -76 -121v-236q0 -78 -19 -124t-59 -81q39 -34 58.5 -81t19.5 -123v-549z" />
    <glyph glyph-name="four" unicode="4" horiz-adv-x="806" 
d="M733 115q1 -22 6.5 -43t23 -44.5t44.5 -29.5h-342q70 18 76 121v325q-1 42 -8 71t-23.5 50t-31.5 33t-44 31l-270 178q-33 22 -49 37.5t-28.5 47t-12.5 79.5v342q0 36 -17 73t-57 48h342q-40 -11 -57 -48t-17 -73v-273q0 -44 13.5 -66.5t44.5 -41.5l215 -141v522
q-6 103 -76 121h342q-39 -11 -55.5 -46t-18.5 -71v-1202z" />
    <glyph glyph-name="five" unicode="5" horiz-adv-x="821" 
d="M745 1313v-131q0 -35 27 -62q-32 0 -63 -19t-56 -45t-50.5 -50.5t-55.5 -37t-62 -3.5q3 0 7.5 0.5t16 6.5t20.5 18t16.5 40t7.5 66v256h-285v-312q0 -44 13.5 -66.5t44.5 -41.5l276 -180q47 -31 72 -57t42 -73t17 -116v-387q6 -103 76 -121h-809q40 11 57 48t17 73v131
q0 30 -25 59q32 0 63 19.5t56 45.5t50.5 51.5t55.5 38t62 3.5q-3 0 -7.5 -0.5t-16 -7t-20.5 -18.5t-16.5 -40t-7.5 -67v-256h273v354q0 46 -6.5 77.5t-23.5 53.5t-31.5 34t-45.5 32l-270 178q-33 22 -49 37.5t-28.5 47t-12.5 79.5v342q0 36 -17 73t-57 48h821
q-70 -18 -76 -121z" />
    <glyph glyph-name="six" unicode="6" horiz-adv-x="808" 
d="M733 119q6 -103 76 -121h-809q70 18 76 121l-2 1194q0 36 -17 73t-57 48h809q-70 -18 -76 -121v-131q0 -35 27 -62q-32 0 -63 -19t-56 -45t-50.5 -50.5t-55.5 -37t-62 -3.5q3 0 7.5 0.5t16 6.5t20.5 18t16.5 40t7.5 66v256h-273v-230q2 -36 9.5 -61.5t24.5 -45.5
t29.5 -30.5t41.5 -30.5l272 -178q48 -30 68 -62t20 -102v-493zM541 78v467q0 43 -14 64.5t-46 43.5l-213 140v-715h273z" />
    <glyph glyph-name="seven" unicode="7" horiz-adv-x="808" 
d="M0 1434h809q-70 -18 -76 -121v-387q0 -69 -17 -116t-42 -73t-72 -57l-65 -43q-35 -21 -35 -64v-458q6 -102 73 -117h-342q68 18 74 121v518q0 53 15.5 77t52.5 48l59 39q32 22 45.5 33t31.5 34t24 53.5t6 75.5v355h-273v-256q0 -38 7 -66t17 -40t20 -18.5t17 -6.5h7
q-32 -9 -62 3.5t-55.5 37t-50.5 50.5t-56 45t-63 19q25 29 25 62v131q0 36 -17 73t-57 48z" />
    <glyph glyph-name="eight" unicode="8" horiz-adv-x="808" 
d="M733 119q6 -103 76 -121h-809q40 11 57 48t17 73v549q0 76 19.5 123t58.5 81q-40 35 -59 81t-19 124v236q0 36 -17 73t-57 48h809q-70 -18 -76 -121v-236q0 -78 -19 -124t-59 -81q39 -34 58.5 -81t19.5 -123v-549zM541 78v536q0 83 -42.5 122.5t-95.5 39.5q-51 0 -93 -40
t-42 -122v-536h273zM541 1085v267h-273v-267q0 -69 41.5 -106t93.5 -37q54 0 96 37t42 106z" />
    <glyph glyph-name="nine" unicode="9" horiz-adv-x="808" 
d="M733 119q6 -103 76 -121h-809q40 11 57 48t17 73v131q0 30 -25 59q32 0 63 19.5t56 45.5t50.5 51.5t55.5 38t62 3.5q-3 0 -7.5 -0.5t-16 -7t-20.5 -18.5t-16.5 -40t-7.5 -67v-256h273v354q0 46 -6.5 77.5t-23.5 53.5t-31.5 34t-45.5 32l-270 178q-33 22 -49 37.5
t-28.5 47t-12.5 79.5v342q0 36 -17 73t-57 48h809q-70 -18 -76 -121v-1194zM326 932l215 -141v561h-273v-312q0 -44 13.5 -66.5t44.5 -41.5z" />
    <glyph glyph-name="colon" unicode=":" horiz-adv-x="204" 
d="M102 203q43 0 73 -30t30 -73t-30 -72.5t-73 -29.5t-72.5 29.5t-29.5 72.5t29.5 73t72.5 30zM102 819q-43 0 -72.5 30t-29.5 73q0 42 30 72t72 30t72.5 -30t30.5 -72q0 -43 -30 -73t-73 -30z" />
    <glyph glyph-name="semicolon" unicode=";" horiz-adv-x="206" 
d="M102 819q-43 0 -72.5 30t-29.5 73q0 42 30 72t72 30t72.5 -30t30.5 -72q0 -43 -30 -73t-73 -30zM205 100q0 -6 -0.5 -15.5t-6.5 -35.5t-17.5 -47.5t-38.5 -43.5t-64 -32v33q21 10 33 39h-9q-43 0 -72.5 29.5t-29.5 72.5t29.5 73t72.5 30t73 -30t30 -73z" />
    <glyph glyph-name="less" unicode="&#x3c;" horiz-adv-x="618" 
d="M618 1024l-378 -514l378 -512h-239l-379 512l379 514h239z" />
    <glyph glyph-name="equal" unicode="=" horiz-adv-x="757" 
d="M0 801h758v-195h-758v195zM0 221v193h758v-193h-758z" />
    <glyph glyph-name="greater" unicode="&#x3e;" horiz-adv-x="618" 
d="M0 1024h240l378 -514l-378 -512h-240l379 512z" />
    <glyph glyph-name="question" unicode="?" horiz-adv-x="808" 
d="M403 -137q43 0 73 -30t30 -73t-30 -72.5t-73 -29.5q-42 0 -72 30t-30 72t30.5 72.5t71.5 30.5zM0 1434h809q-70 -18 -76 -121v-387q0 -69 -17 -116t-42 -73t-72 -57l-65 -43q-35 -21 -35 -64l-56 -575h-88l-51 639q0 53 15.5 77t52.5 48l59 39q32 22 45.5 33t31.5 34
t24 53.5t6 75.5v355h-273v-256q0 -38 7 -66t17 -40t20 -18.5t17 -6.5h7q-32 -9 -62 3.5t-55.5 37t-50.5 50.5t-56 45t-63 19q25 29 25 62v131q0 36 -17 73t-57 48z" />
    <glyph glyph-name="at" unicode="@" horiz-adv-x="1529" 
d="M1530 545v0v0q0 -110 -21.5 -200.5t-58 -150.5t-85 -103.5t-102 -64t-109.5 -26t-108 6t-96.5 34.5t-75.5 57l-65 -69q-28 -31 -70 -31h-321q40 11 57 48t17 73v784q0 36 -17 73t-57 48h694q-29 -7 -47 -33t-22.5 -48.5t-4.5 -43.5v-18v-633q0 -128 59 -172
q49 -36 108 12q83 68 116 253q16 92 16 204q0 137 -20 254t-54 200.5t-81 149.5t-98 107.5t-108 68.5t-108.5 38t-101.5 11v0q-50 0 -101.5 -11t-108.5 -38t-108.5 -68.5t-98.5 -107.5t-81 -149.5t-54.5 -200.5t-20.5 -254q0 -189 39 -338.5t98.5 -239.5t138.5 -149t152 -81
t145 -22v0q98 0 201 45.5t186 143.5l109 -41q-208 -205 -496 -205q-162 0 -305.5 70.5t-244 190t-158.5 283t-58 343.5v0v0q0 242 98.5 445.5t275 323.5t392.5 120q162 0 305 -70.5t243 -190.5t158 -283.5t58 -344.5zM846 186v756h-160v-864h21q40 0 65 28z" />
    <glyph glyph-name="A" unicode="A" horiz-adv-x="1292" 
d="M1237 51q15 -4 27.5 -18t17.5 -25l6 -12q-38 5 -70 -10t-54.5 -42t-45 -60.5t-41 -65.5t-44 -56.5t-52 -34.5t-66.5 1h19q64 12 92 137q18 82 18 207v440q-4 2 -13 6t-13 6q-20 8 -76 37q-68 35 -84 43q-53 27 -88 41v-575q0 -78 -20 -142.5t-50.5 -106.5t-72.5 -74
t-81.5 -48.5t-81.5 -27t-67.5 -13t-44.5 -2.5q-74 0 -133 22q-43 15 -82 43q-6 5 -18.5 15.5t-18.5 15.5q-5 5 -30 35q-19 28 -25 39q-3 6 -18 41q-18 49 -23 82q-4 29 -4 82v4v2v4v4l2 4q0 15 2 21q1 6 3 19.5t3 19.5q17 71 64 127q24 27 45 43q31 19 49 26q43 20 86 23
q25 2 57 2q6 -2 15 -2h4h-4q-9 0 -15 -2q-15 0 -55 -7q-36 -6 -80 -30q-47 -26 -76 -74q-34 -49 -43 -117q0 -5 -1 -16t-1 -16v-17v-4v-6v-8q4 -42 11 -70q17 -78 63 -127q4 -5 13.5 -13.5t11.5 -10.5q10 -10 28 -21q37 -22 66 -29q42 -10 76 -10q51 0 92 18.5t67 48
t45 65.5t28 72t14.5 65.5t6.5 48.5l1 18v610q-13 0 -19 2q-56 3 -106 -6q-24 -6 -45 -18q-21 -9 -39 -27q-15 -12 -27 -37q-10 -18 -14 -43q-6 -46 10 -86q13 -35 41 -63q21 -21 49 -33q27 -10 39 -10q4 -2 10 -2h4h-4h-10q-23 0 -41 6q-29 7 -57 27q-35 27 -56 63
q-10 24 -16 47q-8 21 -8 53q0 28 10 58q10 29 29 55q20 27 47 45q31 21 57 31q61 21 127 24h19v262q-16 8 -24.5 22t-9.5 24l-1 10q120 0 202 141h-270q-42 0 -75.5 -15t-51.5 -36.5t-30 -42.5t-16 -36l-3 -15q0 49 16.5 88t42 62.5t54 48t52.5 45t37.5 53t8.5 73.5
q32 -32 80 -32h579q40 0 70.5 12t41.5 24l11 11q0 -18 -8 -35t-18 -31t-19 -47.5t-10 -79.5v-1237zM999 688q35 -13 45 -16v569h-274v-479q18 -3 33 -6q18 -5 106 -35q10 -3 41.5 -15t48.5 -18z" />
    <glyph glyph-name="B" unicode="B" horiz-adv-x="1165" 
d="M809 709q54 -19 105 -49.5t99.5 -78t83.5 -105t53.5 -135t12.5 -163.5q-5 -76 -28.5 -149t-69.5 -140.5t-110 -118t-155.5 -80.5t-199.5 -30q-19 0 -29 2h-4h-2h-2h-6h-6h-8q-4 2 -13 2q-3 0 -7.5 1t-6.5 1q-9 0 -29 4q-45 5 -104 23q-99 26 -186 86q-39 26 -72 59
q-36 36 -55 70q-41 59 -60 139q-10 45 -10 115q0 23 4 51q2 22 16.5 36.5t36.5 14.5t38 -15.5t16 -37.5q0 -23 -16 -38t-38 -15q-34 0 -47 26q0 -14 2 -22q3 -52 23 -107q25 -73 67 -123q20 -23 58 -53q25 -22 69 -47q73 -39 172 -55q62 -8 97 -8h24h13h10h6h8q8 0 12 2h23
q61 7 94 18q48 13 88 33q32 17 76 51q18 15 33 33q6 6 15.5 18.5t12.5 16.5q51 72 66 157q4 40 4 62q0 95 -32 172.5t-80.5 123.5t-107.5 76.5t-112 40t-96 5.5v-410q15 -4 27.5 -17.5t17.5 -24.5l6 -11q-38 5 -70 -10t-54.5 -42t-45 -60.5t-41 -65.5t-44 -57t-52 -35
t-66.5 1h19q64 12 92 137q18 83 18 207v854q-16 8 -24.5 22t-9.5 24v10q120 0 202 141h-292q-42 0 -75.5 -15t-52 -36.5t-30.5 -42.5t-16 -36l-3 -15q0 49 16.5 88t42 62.5t54 48t52.5 45t37.5 53t8.5 73.5q37 -32 80 -32h545h35q40 0 71 12t41 24l11 11q0 -19 -8.5 -36
t-19.5 -31.5t-19.5 -51.5t-8.5 -90v-31v-186q0 -5 -2 -13v-8v-10q-2 -4 -2 -12q0 -1 -1 -3t-1 -3v-7l-6 -30q-2 -4 -2 -8q-2 -4 -2 -11l-6 -18q-13 -39 -35 -80q-25 -45 -61 -84q-2 -1 -11 -10q-6 -6 -10 -8q-16 -16 -20 -19q-1 -1 -5.5 -4.5t-5.5 -5.5q-8 -4 -12 -8t-8 -4z
M807 1241h-252v-534q252 56 252 376v158z" />
    <glyph glyph-name="C" unicode="C" horiz-adv-x="1110" 
d="M1108 274q2 -10 2 -32q0 -196 -128 -302q-106 -89 -252 -80q-152 9 -260 118q-138 138 -138 376v60q0 10 -2 16v604q-15 8 -23 22t-9 24l-1 10q122 0 207 151h-277q-50 0 -89 -14.5t-62 -38t-39 -52t-22 -57t-9 -52t-2 -37.5v-15q-9 71 2 128t34.5 92.5t54 64.5t62 50.5
t57 43t40 49.5t10.5 63q32 -32 78 -32h582q39 0 69 12t41 24l10 11q0 -19 -8.5 -36t-19 -31.5t-19 -51.5t-8.5 -90q15 -4 27.5 -18t17.5 -26l6 -11q-51 7 -92 -23.5t-69 -76.5t-56 -91t-67 -69t-88 -9h21q64 11 90 126q16 67 16 167h-271v-913q0 -239 123 -337
q90 -71 208 -41q109 27 178 125q61 87 61 199v21v4v4v10v2q-14 -28 -47 -28q-23 0 -38.5 15.5t-15.5 37.5t15.5 37.5t38.5 15.5q22 0 36.5 -14.5t16.5 -36.5q1 -4 2 -14t2 -15q0 -1 1 -4t1 -4v-4v-6q2 -6 2 -21z" />
    <glyph glyph-name="D" unicode="D" horiz-adv-x="1044" 
d="M922 1434q40 0 70.5 12t41.5 24l10 11q0 -19 -8.5 -36t-19 -31.5t-19 -51.5t-8.5 -90v-31v-948v-64q-2 -16 -2 -55v-6v-2v-2v0v-2v-4q0 -2 -1 -7.5t-1 -7.5v-4v-2v-2v-10q-2 -6 -2 -19q-8 -50 -14 -79q-14 -47 -29 -86q-15 -37 -49 -86q-1 -2 -3 -5.5t-3 -5.5
q-6 -6 -8 -10q-11 -11 -17 -20q-2 -2 -5 -5.5t-5 -5.5q-6 -6 -8 -10q-6 -3 -11 -8l-10 -10q-89 -79 -198 -105q-32 -7 -58 -10q-20 -2 -59 -2q-24 0 -60 4q-33 3 -59 12q-30 9 -57 21l-8 4q-1 1 -3.5 2t-3.5 2l-8 4q-1 0 -3 1t-3 1l-14 8l-13 9q-58 41 -88 90q-19 26 -28 55
q-13 29 -19 59t-6 60v14v4v2v2v8v7v4v4q2 4 2 14q10 66 37 113q5 12 33 49q19 22 43 37q41 30 82 41v755q-16 8 -24.5 22t-9.5 24l-1 10q68 0 119.5 42.5t83.5 98.5h-271q-50 0 -89 -14.5t-62 -38t-39 -52t-22 -57t-9 -52t-2 -37.5v-15q-9 71 1.5 128t34 92.5t54 64.5
t62 50.5t57 43t39.5 49.5t10 63q32 -32 80 -32h543h37zM633 -205q26 14 48 34.5t38 42t28.5 51t20.5 53.5t13.5 58.5t8.5 56.5t4 57.5t1.5 51.5t0 48t-0.5 39v954h-273v-958q10 -3 23 -9q38 -16 73 -51q21 -21 27 -33q11 -13 21 -34q16 -40 16 -72q4 -41 -4 -64
q-5 -27 -19 -51q0 -2 -4 -6q-15 -29 -47 -29q-22 0 -37.5 16t-15.5 38t15.5 37.5t37.5 15.5t37.5 -13.5t16.5 -33.5q6 15 6 29q6 28 0 59q-2 28 -21 65q-14 24 -20 31q-3 5 -25 27q-35 28 -70 41q-34 13 -83 16q-54 0 -89 -12q-40 -10 -81 -43q-34 -27 -56 -72
q-20 -48 -20 -92q-2 -4 -2 -12v-2v-4v-7v-6v-2h2v-4v-12q4 -34 8 -47q5 -18 16 -45q6 -10 25 -39q29 -37 72 -62l10 -6l10 -4q2 -2 4 -2l6 -2q1 -1 3 -2t3 -2l5 -2q7 -2 22.5 -6t22.5 -6q4 -1 21 -4t26 -3q23 -3 47 0q20 0 45 7q16 2 43 10q21 6 41 16z" />
    <glyph glyph-name="E" unicode="E" horiz-adv-x="1110" 
d="M1108 274q2 -10 2 -32q0 -196 -128 -302q-106 -89 -252 -80q-152 9 -260 118q-138 138 -138 376v60q0 10 -2 16v604q-15 8 -23 22t-9 24l-1 10q122 0 207 151h-277q-50 0 -89 -14.5t-62 -38t-39 -52t-22 -57t-9 -52t-2 -37.5v-15q-9 71 2 128t34.5 92.5t54 64.5t62 50.5
t57 43t40 49.5t10.5 63q32 -32 78 -32h582q39 0 69 12t41 24l10 11q0 -19 -8.5 -36t-19 -31.5t-19 -51.5t-8.5 -90q15 -4 27.5 -18t17.5 -26l6 -11q-51 7 -92 -23.5t-69 -76.5t-56 -91t-67 -69t-88 -9h21q64 11 90 126q16 67 16 167h-271v-379h238q24 0 39.5 8t19.5 16l4 7
q0 -35 -21 -71t-46.5 -61.5t-46.5 -60.5t-21 -69q-16 12 -24.5 27.5t-8.5 25.5v10h-34h-99v-366q0 -239 123 -337q90 -71 208 -41q109 27 178 125q61 87 61 199v21v4v4v10v2q-14 -28 -47 -28q-23 0 -38.5 15.5t-15.5 37.5t15.5 37.5t38.5 15.5q22 0 36.5 -14.5t16.5 -36.5
q1 -4 2 -14t2 -15q0 -1 1 -4t1 -4v-4v-6q2 -6 2 -21z" />
    <glyph glyph-name="F" unicode="F" horiz-adv-x="1044" 
d="M989 1272q15 -4 27.5 -18t17.5 -26l6 -11q-51 7 -92 -23.5t-69 -76.5t-56 -91t-67 -69t-88 -9h21q64 11 90 126q16 67 16 167h-275v-379h213q24 0 40 8t20 16l4 7q0 -35 -21 -71t-46.5 -61.5t-46.5 -60.5t-21 -69q-16 12 -24.5 27.5t-8.5 25.5v10h-35h-74v-643
q15 -4 27.5 -18t18.5 -25l5 -12q-51 7 -92 -23.5t-69 -76t-56 -90.5t-67 -69t-88 -9h19q64 12 92 137q18 83 18 207v981q-16 8 -24.5 21.5t-9.5 23.5l-1 10q114 0 196 133h-262q-50 0 -89 -14.5t-62 -38t-39 -52t-22 -57t-9 -52t-2 -37.5v-15q-9 71 2 128t34.5 92.5t54 64.5
t62 50.5t57 43t40 49.5t10.5 63q32 -32 78 -32h582q39 0 69 12t41 24l10 11q0 -19 -8.5 -36t-19 -31.5t-19 -51.5t-8.5 -90z" />
    <glyph glyph-name="G" unicode="G" horiz-adv-x="1044" 
d="M668 948h21q64 11 90 126q16 67 16 167h-275v-958q10 -3 23 -9q38 -16 73 -51q21 -21 27 -33q11 -13 21 -34q16 -40 16 -72q4 -41 -4 -64q-5 -27 -19 -51q0 -2 -4 -6q-15 -29 -47 -29q-22 0 -37.5 16t-15.5 38t15.5 37.5t37.5 15.5t36.5 -13.5t16.5 -33.5q7 18 7 29
q6 28 0 59q-2 28 -21 65q-14 24 -20 31q-3 5 -25 27q-35 28 -70 41q-34 13 -84 16q-53 0 -88 -12q-42 -11 -82 -43q-33 -25 -55 -72q-20 -48 -20 -92q-2 -4 -2 -12v-2v-4v-7v-6v-2h2v-4v-12q4 -34 8 -47q5 -18 16 -45q6 -10 25 -39q29 -37 72 -62l10 -6l10 -4q2 -2 4 -2
l6 -2q1 -1 3 -2t3 -2l4 -2q7 -2 23 -6t23 -6q4 -1 21 -4t26 -3q23 -3 47 0q20 0 45 7q16 2 43 10q21 6 41 16q26 14 48 34.5t38 42t28.5 51t20.5 53.5t13.5 58.5t8.5 56.5t4 57.5t1.5 51.5t0 48t-0.5 39v223h-162q-19 0 -39 -12t-30 -24l-11 -11l74 201q6 16 10.5 22.5
t16.5 12.5t32 6h109h157q47 4 72 24q-35 -55 -35 -121v-315v-64q-2 -16 -2 -55v-6v-2v-2v0v-2v-4q0 -2 -1 -7.5t-1 -7.5v-4v-2v-2v-10q-2 -6 -2 -19q-8 -50 -14 -79q-14 -47 -29 -86q-15 -37 -49 -86q-1 -2 -3 -5.5t-3 -5.5q-8 -8 -9 -10q-8 -8 -16 -20q-2 -2 -5 -5.5
t-5 -5.5q-6 -6 -8 -10q-6 -3 -11 -8l-10 -10q-89 -79 -198 -105q-32 -7 -58 -10q-20 -2 -59 -2q-24 0 -60 4q-33 3 -59 12q-30 9 -57 21l-9 4q-1 1 -3 2t-3 2l-8 4q-1 0 -3 1t-3 1l-14 8l-13 9q-58 41 -88 90q-19 26 -28 55q-13 29 -19 59t-6 60v14v4v2v2v8v7v4v4q2 4 2 14
q10 66 37 113q5 12 33 49q19 22 43 37q41 30 82 41v764q-16 8 -24.5 21.5t-9.5 23.5l-1 10q114 0 196 133h-262q-50 0 -89 -14.5t-62 -38t-39 -52t-22 -57t-9 -52t-2 -37.5v-15q-9 71 2 128t34.5 92.5t54 64.5t62 50.5t57 43t40 49.5t10.5 63q32 -32 78 -32h582q39 0 69 12
t41 24l10 11q0 -19 -8.5 -36t-19 -31.5t-19 -51.5t-8.5 -90q15 -4 27.5 -18t17.5 -26l6 -11q-51 7 -92 -23.5t-69 -76.5t-56 -91t-67 -69t-88 -9z" />
    <glyph glyph-name="H" unicode="H" horiz-adv-x="1310" 
d="M1237 51q15 -4 27.5 -18t17.5 -25l6 -12q-38 5 -70 -10t-54.5 -42t-45 -60.5t-41 -65.5t-44 -56.5t-52 -34.5t-66.5 1h19q64 12 92 137q18 82 18 207v440q-4 2 -13 6t-13 6q-20 8 -76 37q-68 35 -84 43q-53 27 -88 41v-575q0 -78 -20 -142.5t-50.5 -106.5t-72.5 -74
t-81.5 -48.5t-81.5 -27t-67.5 -13t-44.5 -2.5q-74 0 -133 22q-43 15 -82 43q-6 5 -18.5 15.5t-18.5 15.5q-5 5 -30 35q-19 28 -25 39q-3 6 -18 41q-18 49 -23 82q-4 29 -4 82v4v2v4v4l2 4q0 15 2 21q1 6 3 19.5t3 19.5q17 71 64 127q24 27 45 43q31 19 49 26q43 20 86 23
l33 2q22 0 37.5 -16t15.5 -38t-15.5 -37.5t-37.5 -15.5q-23 0 -38.5 15.5t-15.5 37.5q0 26 21 43q-45 -12 -78 -30q-47 -26 -76 -74q-34 -49 -43 -117q0 -5 -1 -16t-1 -16v-17v-4v-6v-8q4 -42 11 -70q17 -78 63 -127q4 -5 13.5 -13.5t11.5 -10.5q10 -10 28 -21
q37 -22 66 -29q42 -10 76 -10q51 0 92 18.5t67 48t45 65.5t28 72t14.5 65.5t6.5 48.5l1 18v610q-13 0 -19 2q-56 3 -106 -6q-24 -6 -45 -18q-21 -9 -39 -27q-15 -12 -27 -37q-10 -18 -14 -43q-6 -46 10 -86q13 -35 41 -63q21 -21 49 -33q27 -10 39 -10q4 -2 10 -2h4h-4h-10
q-23 0 -41 6q-29 7 -57 27q-35 27 -56 63q-10 24 -16 47q-8 21 -8 53q0 28 10 58q10 29 29 55q20 27 47 45q31 21 57 31q61 21 127 24h19v262q-16 8 -24.5 22t-9.5 24l-1 10q120 0 202 141h-270q-44 0 -78 -12t-52 -31t-30 -42.5t-15 -46.5t-4 -42t1 -31l2 -12
q-18 57 -8.5 104.5t35 79t59 63t63.5 57.5t48.5 62t13.5 76q32 -32 80 -32h280q-43 -11 -71.5 -62.5t-28.5 -130.5v-479q18 -3 33 -6q18 -5 106 -35q10 -3 41.5 -15t48.5 -18q35 -13 45 -16v639q-7 107 -75 123h75h56h82h55h74q-68 -18 -74 -121v-1262z" />
    <glyph glyph-name="I" unicode="I" horiz-adv-x="628" 
d="M264 1466q32 -32 78 -32h287q-31 0 -70 -69t-39 -124v-1190q15 -4 27.5 -18t18.5 -25l5 -12q-51 7 -92 -22.5t-69 -75.5t-56 -90.5t-67 -68.5t-88 -9h19q64 12 92 137q18 83 18 207v979q-16 8 -24.5 21.5t-9.5 23.5l-1 10q114 0 196 133h-262q-50 0 -89 -14.5t-62 -38
t-39 -52t-22 -57t-9 -52t-2 -37.5v-15q-9 71 2 128t34.5 92.5t54 64.5t62 50.5t57 43t40 49.5t10.5 63z" />
    <glyph glyph-name="J" unicode="J" horiz-adv-x="962" 
d="M963 1434q-31 0 -69 -69t-38 -124v-1012q0 -35 -2 -55v-6v-2v-2v0v-2v-4v-15q0 -1 -1 -2t-1 -2v-2v-2v-10q0 -3 -1 -9.5t-1 -9.5q-8 -50 -14 -79q-6 -26 -29 -86q-13 -31 -47 -86q-5 -5 -8 -11q-1 -2 -4.5 -5t-4.5 -5q-3 -3 -8 -10t-8 -10q-2 -2 -5 -5.5t-5 -5.5
q-6 -6 -8 -10q-2 -1 -5.5 -4t-5.5 -4l-10 -10q-84 -78 -199 -105q-33 -7 -57 -10q-20 -2 -59 -2q-20 0 -60 4q-33 3 -59 12q-30 9 -57 21l-9 4q-1 1 -3 2t-3 2l-6 4q-2 0 -4.5 1t-3.5 1l-12 8l-15 9q-61 46 -88 90q-13 17 -28 55q-13 29 -19 59t-6 60v14v4v2v2v8v7q0 2 2 4
v4v14q10 66 37 113q5 12 33 49q22 22 43 37q49 36 100 45q53 12 102 6q40 -2 95 -25q38 -16 73 -51q21 -21 29 -33q11 -14 18 -34q16 -41 19 -72q0 -46 -4 -64q-4 -22 -21 -51q-5 -11 -24 -35q-11 -11 -13 -12q-14 -14 -36 -14t-38 15t-16 38q0 22 16 37.5t38 15.5
t37.5 -15.5t15.5 -37.5q0 -8 -4 -20q16 28 18 32q10 17 17 50q3 31 -2 59q-3 35 -21 65q-1 3 -18 31q-12 15 -27 27q-35 28 -70 41q-34 13 -84 16q-53 0 -88 -12q-45 -12 -80 -43q-36 -26 -55 -72q-19 -39 -22 -92v-12v-2v-4v-7v-6v-2v-4v-12q4 -34 8 -47q15 -39 18 -45
q8 -19 25 -39q27 -37 69 -62l11 -6l10 -4q2 -2 6 -2l4 -2q1 -1 3 -2t3 -2l6 -2q14 -4 46 -12q2 0 19.5 -3.5t25.5 -3.5q24 -3 47 0q21 0 45 7q23 3 43 10q21 6 41 16q40 21 70.5 56.5t47 75.5t28 86.5t14 90t4.5 85t0 72.5v26v766q-16 8 -24.5 21.5t-9.5 23.5l-1 10
q114 0 196 133h-432q-50 0 -89 -14.5t-62 -38t-39 -52t-22 -57t-9 -52t-2 -37.5v-15q-9 71 1.5 128t34 92.5t54 64.5t62 50.5t57 43t39.5 49.5t10 63q32 -32 80 -32h455z" />
    <glyph glyph-name="K" unicode="K" horiz-adv-x="1675" 
d="M1432 -43q98 -254 197 -279q29 -8 46 5q-29 -23 -61.5 -25t-61.5 13.5t-61 37t-62 46t-64 40t-65.5 19t-68.5 -16.5q0 50 29 70l-228 655q-24 40 -50 69.5t-45 44t-37.5 23t-27 10t-14.5 1.5h-2v-441q0 -35 -2 -55v-6v-2v-2v0v-2v-4v-15q0 -1 -1 -2t-1 -2v-2v-2v-10
q0 -3 -1 -9.5t-1 -9.5q-8 -50 -14 -79q-6 -26 -29 -86q-13 -31 -47 -86q-5 -5 -8 -11q-1 -2 -4.5 -5t-4.5 -5q-3 -3 -8 -10t-8 -10q-2 -2 -5 -5.5t-5 -5.5q-6 -6 -8 -10q-2 -1 -5.5 -4t-5.5 -4l-10 -10q-84 -78 -199 -105q-33 -7 -57 -10q-20 -2 -59 -2q-20 0 -60 4
q-33 3 -59 12q-30 9 -57 21l-9 4q-1 1 -3 2t-3 2l-6 4q-2 0 -4.5 1t-3.5 1l-12 8l-15 9q-61 46 -88 90q-13 17 -28 55q-13 29 -19 59t-6 60v14v4v2v2v8v7q0 2 2 4v4v14q10 66 37 113q5 12 33 49q22 22 43 37q49 36 100 45q53 12 102 6q40 -2 95 -25q38 -16 73 -51
q21 -21 29 -33q11 -14 18 -34q16 -41 19 -72q0 -46 -4 -64q-4 -22 -21 -51q-5 -11 -24 -35q-11 -11 -13 -12q-14 -14 -36 -14t-38 15t-16 38q0 22 16 37.5t38 15.5t37.5 -15.5t15.5 -37.5q0 -8 -4 -20q16 28 18 32q10 17 17 50q3 31 -2 59q-3 35 -21 65q-1 3 -18 31
q-12 15 -27 27q-35 28 -70 41q-34 13 -84 16q-53 0 -88 -12q-45 -12 -80 -43q-36 -26 -55 -72q-19 -39 -22 -92v-12v-2v-4v-7v-6v-2v-4v-12q4 -34 8 -47q15 -39 18 -45q8 -19 25 -39q27 -37 69 -62l11 -6l10 -4q2 -2 6 -2l4 -2q1 -1 3 -2t3 -2l6 -2q14 -4 46 -12
q2 0 19.5 -3.5t25.5 -3.5q24 -3 47 0q21 0 45 7q23 3 43 10q21 6 41 16q40 21 70.5 56.5t47 75.5t28 86.5t14 90t4.5 85t0 72.5v26v766q-16 8 -24.5 21.5t-9.5 23.5l-1 10q114 0 196 133h-432q-50 0 -89 -14.5t-62 -38t-39 -52t-22 -57t-9 -52t-2 -37.5v-15q-9 71 1.5 128
t34 92.5t54 64.5t62 50.5t57 43t39.5 49.5t10 63q32 -32 80 -32h455q-31 0 -69 -69t-38 -124v-457v-47q64 0 114 22t80 57t49.5 83.5t26.5 96t7 100.5v213q-7 108 -76 125h342q-68 -18 -74 -121v-213v-13q-2 -2 -2 -6v-10q-2 -4 -2 -12q0 -4 -2 -8v-7q-3 -12 -6 -30
q-2 -2 -2 -8q-2 -2 -2 -9l-6 -18q-14 -44 -35 -82q-25 -42 -62 -82l-10 -10q-1 -2 -4 -5t-4 -5q-4 -3 -11.5 -9.5t-11.5 -9.5q-2 -1 -5 -4t-5 -4t-6 -4t-6 -4q-3 -3 -13 -8q-6 -6 -12 -9l-2 -2q-1 -1 -4 -3t-4 -3q-6 -2 -14 -6q-22 -11 -27 -12q-3 -3 -27 -12q-1 -1 -3 -2
t-3.5 -1.5t-3.5 -1.5l-4 -2q-4 0 -6 -2l-6 -2q-3 -1 -8 -2t-7 -2t-7 -2t-7 -2h-2q120 -81 209 -45z" />
    <glyph glyph-name="L" unicode="L" horiz-adv-x="751" 
d="M2042 -408v0q0 -1 -1 -4t-1 -4q0 -8 -2 -16q-3 -20 -19 -68q-22 -53 -61 -92q-21 -24 -51 -45q-7 -6 -31 -20q-15 -9 -35 -19q-57 -23 -78 -29q-60 -12 -88 -16q-47 -6 -94 -6h-22h-25q-4 0 -12.5 1t-12.5 1q-16 0 -24 2h-12h-5h-2l-6 2q-5 0 -13.5 1t-12.5 1
q-24 3 -52 10q-38 7 -100 29q-86 31 -192 96q-114 71 -175 117q-32 24 -86.5 66.5t-70.5 54.5q-40 32 -148 108q-65 46 -133 82q-14 7 -59 27q-33 11 -53 16q-27 7 -80.5 11.5t-115.5 -7t-67 -47.5q13 86 76 137t150 54v1018q-16 8 -24.5 21.5t-9.5 23.5l-1 10
q114 0 196 133h-262q-50 0 -89 -14.5t-62 -38t-39 -52t-22 -57t-9 -52t-2 -37.5v-15q-9 71 2 128t34.5 92.5t54 64.5t62 50.5t57 43t40 49.5t10.5 63q32 -32 78 -32h287q-31 0 -70 -69t-39 -124v-1221q6 -4 22.5 -14t20.5 -12q63 -40 144 -107q63 -52 141 -127
q6 -5 60.5 -55.5t84.5 -77.5q75 -69 154 -127q74 -57 166 -104q34 -16 88 -35q24 -9 45 -12q16 -4 22 -6h7h2l4 -2q6 0 12 -3q92 -15 178 -12q30 0 84 8q36 6 74 19q66 22 117 67q39 34 65 84q15 29 25 64q0 2 2 4q-6 -15 -20 -24t-29 -9q-23 0 -38.5 15t-15.5 38
q0 22 15.5 38t38.5 16q21 0 36 -16t17 -38z" />
    <glyph glyph-name="M" unicode="M" horiz-adv-x="1767" 
d="M1712 39q15 -4 27.5 -15t18.5 -20l5 -8q-52 7 -93 -22.5t-69.5 -75.5t-56.5 -90.5t-67 -68.5t-88 -9h21q66 10 92 124q15 63 16 156v1231h-140q-37 0 -65.5 -25.5t-43 -66.5t-22 -77t-10.5 -73v-833q0 -60 -33 -105.5t-79 -65.5t-96.5 -20t-84.5 23l18 -4q51 -1 71 97
q11 54 11 136v1014h-274v-1169q0 -78 -20 -142.5t-50.5 -106.5t-72.5 -74t-81.5 -48.5t-81.5 -27t-67.5 -13t-44.5 -2.5q-71 0 -133 23q-43 15 -82 43q-6 5 -18.5 15t-18.5 15q-5 5 -30 35q-19 29 -25 39q-3 6 -18 41q-18 49 -23 82q-4 29 -4 82v4v4v2v4l2 6q0 13 2 19
q3 21 6 39q17 71 64 127q24 27 45 43q14 11 49 28q38 17 86 21q10 2 29 2h4q22 0 37.5 -15t15.5 -38q0 -22 -15.5 -38t-37.5 -16q-23 0 -38.5 16t-15.5 38q0 25 21 43q-36 -6 -78 -31q-47 -26 -76 -74q-34 -49 -43 -117q0 -5 -1 -15.5t-1 -16.5v-17v-4v-6v-8q4 -42 11 -70
q17 -78 63 -127q4 -5 13.5 -13.5t11.5 -10.5q10 -11 28 -21q37 -22 66 -29q42 -10 76 -10q51 0 92 18.5t67 48t45 65.5t28 72t14.5 65.5t6.5 48.5l1 18v956q-16 8 -24.5 22t-9.5 24l-1 10q120 0 202 141h-317q-50 0 -89 -14.5t-62 -38t-39 -52t-22 -57t-9 -52t-3 -37.5
l1 -15q-9 71 1.5 128t34 92.5t54 64.5t62 50.5t57 43t39.5 49.5t10 63q32 -32 80 -32h590h36q40 0 70.5 12t41.5 24l11 11q0 -18 -8 -35t-18 -31t-19 -47.5t-10 -79.5v-135q11 43 35 87.5t43.5 72.5t32.5 69t8 84q32 -32 78 -32h211q40 0 70.5 12t40.5 24l11 11
q0 -22 -13.5 -42.5t-27.5 -59.5t-14 -107v-1233z" />
    <glyph glyph-name="N" unicode="N" horiz-adv-x="1312" 
d="M1239 51q14 -4 26.5 -18t18.5 -25l6 -12q-44 6 -81 -15t-60.5 -56t-49.5 -74.5t-49.5 -72t-58 -48t-76.5 -2.5h19q64 12 92 137q18 82 18 207v211v2q0 7 -4 77q-3 53 -12 119q-14 112 -22 156q-14 74 -37 180q-24 95 -62 195q-43 113 -92 194q-21 35 -43 66v-1202
q0 -78 -20 -142.5t-50.5 -106.5t-72.5 -74t-81.5 -48.5t-81.5 -27t-67.5 -13t-44.5 -2.5q-74 0 -133 22q-38 12 -84 43q-24 20 -35 31q-15 13 -30 35q-17 20 -25 39q-7 10 -20 41q-15 40 -21 82q-7 48 -4 82v4v2v4v4v4q0 4 1 11t1 10q5 30 8 39q17 71 64 127q16 21 45 43
q30 19 47 26q46 20 88 23q12 2 33 2q22 0 37.5 -16t15.5 -38t-15.5 -37.5t-37.5 -15.5q-23 0 -38 15.5t-15 37.5q0 26 20 43q-39 -7 -78 -30q-50 -27 -78 -74q-36 -59 -41 -117q-1 -5 -2 -16t-2 -16q0 -13 2 -17v-4v-6v-8q4 -42 11 -70q16 -77 61 -127q4 -4 12.5 -12
t12.5 -12t9 -7.5t10.5 -7.5t8.5 -6q35 -21 66 -29q65 -17 141 -4q5 2 16.5 5.5t16.5 5.5q48 18 82 64.5t48 100t21.5 103.5t6.5 83v34v989q-16 8 -24.5 21.5t-9.5 23.5l-1 10q108 0 188 121q-21 26 -57 55q-43 37 -90 60q-46 17 -49 18q-2 1 -6.5 2t-6.5 2t-7 2t-7 2l-6 2
h-6l-6 2l-9 2h-6l-6 2q-8 0 -12 2q-19 0 -27 2q-35 0 -53 -2q-53 -3 -96 -24q-40 -18 -80 -58q-21 -21 -31 -36q-14 -25 -22 -43q-21 -44 -27 -88q-6 -45 0 -86q6 -40 22 -78q23 -44 41 -62q21 -27 47 -43q19 -14 50 -26q38 -14 43 -15q5 -2 11 -3.5t12.5 -2.5t8.5 -2
q4 0 12 -1t9 -1h8h-8h-21q-20 4 -32 6t-45 10q-28 10 -54 25q-29 16 -53 43q-31 27 -47 61q-22 40 -31 82q-9 47 -6 97q3 51 21 100q10 27 24 49q11 21 31 45q6 8 41 43q19 14 49 33q59 30 115 39q9 2 19 3t22.5 1.5t19.5 1.5q6 0 17 -1t16 -1h14q1 0 4 -1t4 -1h9l6 -2h2h2
h4l8 -2h8q2 -1 7.5 -2t7.5 -2q4 0 16 -4q30 -6 59 -19q66 -27 111 -61q46 -33 94 -84q43 -46 78 -96q60 -84 115 -205q5 -14 30 -76v330q0 20 -4.5 42t-22 48t-46.5 33h73h58h80h57h74q-41 -11 -57.5 -47.5t-16.5 -73.5v-1262z" />
    <glyph glyph-name="O" unicode="O" horiz-adv-x="1081" 
d="M1079 1143q0 -8 2 -10v-732q0 -49 -2 -85t-9 -80.5t-20 -76.5t-36 -64t-54.5 -52t-79 -32.5t-106.5 -12.5h-51q-59 0 -106.5 12.5t-79 32.5t-54.5 52t-36 64t-20 76.5t-9 80.5t-2 85v793q-16 8 -24.5 22t-9.5 24l-1 9q44 0 84 18.5t63 41.5t50 49.5t43 36.5
q-66 16 -168 12q-90 -3 -172 -33q-89 -39 -140 -98q-31 -35 -47 -72q-15 -32 -26 -80q0 -3 -3.5 -19t-3.5 -24q-2 -12 -2 -41v-10v-6v-4q0 -15 2 -21q0 -17 7 -38q11 -44 26 -70q22 -32 47 -51q23 -18 60 -29q28 -9 57 -6q26 0 53 10q23 13 37 27q12 10 23 28q8 20 8 27
q4 12 4 16v5v2v-2v-5v-16q-6 -24 -8 -29q-7 -18 -21 -32q-15 -18 -39 -33q-24 -14 -55 -19q-34 -3 -65 2q-37 6 -72 27q-36 22 -62 55q-28 40 -41 78q-2 7 -6 22.5t-6 22.5q-1 4 -2 11.5t-2 11.5v6v6l-2 2v0v4v6q-2 14 -2 47q0 34 2 50q6 52 23 98q18 49 49 94q29 42 73 80
q43 34 91 59q98 49 204 64q109 12 207 -2q103 -15 191 -60q30 -14 82 -51q35 -26 69 -65q31 -39 49 -76q22 -50 29 -78q2 -7 8 -37q0 -3 1 -9t1 -9zM748 39q50 0 78.5 21t44.5 85t16 183v653q-24 -2 -45.5 9t-31.5 22l-9 12q41 0 62 52q28 69 -7 149q-52 115 -203 161
q-5 -2 -12.5 -8t-20 -39.5t-12.5 -85.5v-6h2v-919q0 -119 16 -182.5t44 -85t78 -21.5z" />
    <glyph glyph-name="P" unicode="P" horiz-adv-x="1292" 
d="M1171 1434q39 0 69.5 12t41.5 24l10 11q0 -19 -8.5 -36t-19 -31.5t-19 -51.5t-8.5 -90v-31v-399v-15q0 -4 -2 -6v-10q0 -2 -1 -6t-1 -6v-6q0 -1 -1 -4t-1 -5t-2 -12t-4 -16q0 -2 -1 -4.5t-1 -3.5q0 -2 -1 -5.5t-1 -5.5q-1 -2 -3.5 -7.5t-3.5 -10.5q-14 -44 -34 -80
q-20 -39 -60 -82l-10 -10l-10 -10q-13 -13 -21 -19q-8 -4 -10 -8q-2 -1 -6 -4t-6 -4t-6.5 -4t-6.5 -4t-6 -4.5t-6 -4.5l-2 -2q-8 -4 -10 -4q-2 -1 -6 -4t-6 -4q-12 -6 -27 -12q-22 -11 -27 -13q-2 -1 -6 -2t-6 -2q-2 -2 -8 -2l-6 -2q-2 -1 -7.5 -3t-7.5 -3q-2 0 -7 -1t-7 -1
q-8 -4 -14 -4l-6 -2l-9 -2q-54 -6 -57 -6q-14 -2 -41 -2v-344q0 -78 -20 -142.5t-50.5 -106.5t-72.5 -74t-81.5 -48.5t-81.5 -27t-67.5 -13t-44.5 -2.5q-74 0 -133 22q-38 12 -84 43q-24 20 -35 31q-15 13 -30 35q-17 20 -25 39q-7 10 -20 41q-15 40 -21 82q-7 48 -4 82v4v2
v4v4v4q0 4 1 11t1 10q5 30 8 39q17 71 64 127q16 21 45 43q30 19 47 26q46 20 88 23q10 2 31 2q29 0 49 -20.5t20 -49.5q0 -28 -20 -47.5t-49 -19.5q-28 0 -48 19.5t-20 47.5q0 35 29 57q-31 -6 -70 -28q-50 -27 -78 -74q-36 -59 -41 -117q-1 -5 -2 -16t-2 -16q0 -13 2 -17
v-4v-6v-8q4 -42 11 -70q16 -77 61 -127q4 -4 12.5 -12t12.5 -12t9 -7.5t10.5 -7.5t8.5 -6q35 -21 66 -29q42 -10 78 -10q51 0 92 18.5t67 48t45 65.5t28 72t14.5 65.5t6.5 48.5l1 18v369q-6 3 -15 6q-2 2 -10 6q-1 0 -3 1t-3 1q-1 1 -3 2t-3 2q-1 0 -2 1t-2 1q-1 1 -3.5 2
t-3.5 2q-4 2 -10 8q-6 3 -12 9q-2 2 -4 2l-4 4q-12 10 -35 33q-8 12 -14 18t-7 8q-1 1 -3 4t-3 4q-19 35 -30 70q0 1 -1 4t-1 4t-1 4t-1 4q0 2 -1.5 7.5t-1.5 7.5q-2 4 -2 14q0 1 -1 3t-1 3v6v11v10v8v8v12q0 -4 2 -12v-8q0 -4 2 -8v-8q3 -6 3 -13l2 -4q0 -1 1 -3t1 -3
q0 -6 4 -14q0 -5 4 -13q0 -4 4 -8q0 -1 1 -3t1 -3q13 -32 37 -59l8 -8q1 -1 3 -3.5t3 -3.5l14 -14q25 -20 35 -25q1 0 2 -1t2 -1l4 -4q2 -1 6 -2t5 -2q8 -4 10 -6q4 0 6 -2q1 0 2 -1t2 -1t3 -1t3 -1l4 -2q1 0 3.5 -1t3.5 -1v538q-16 8 -24.5 22t-9.5 24l-1 10
q68 0 119.5 42.5t83.5 98.5h-306q-50 0 -89 -14.5t-62 -38t-39 -52t-22 -57t-9 -52t-3 -37.5l1 -15q-9 71 1.5 128t34 92.5t54 64.5t62 50.5t57 43t39.5 49.5t10 63q32 -32 80 -32h578h36zM772 492q79 13 135.5 50t85.5 91.5t41.5 112t12.5 124.5v371h-275v-749z" />
    <glyph glyph-name="Q" unicode="Q" horiz-adv-x="1136" 
d="M1495 -164q3 -15 0 -43q-10 -43 -20 -65q-8 -17 -23 -35q-14 -16 -37 -33q-6 -4 -22 -12l-25 -10q-21 -8 -53 -15q-4 -1 -14 -2t-15 -2h-6h-4l-4 -2h-6h-2v0h-2h-5h-30q-4 0 -15 1t-16 1q-63 6 -123 37q-55 24 -110 76q-32 30 -86 100q-14 20 -37.5 54.5t-32.5 47.5
q-7 14 -22 37.5t-17 26.5h-45q-59 0 -106.5 12.5t-79 32.5t-54.5 52t-36 64t-20 76.5t-9 80.5t-2 85v793q-16 8 -24.5 22t-9.5 24l-1 9q44 0 84 18.5t63 41.5t50 49.5t43 36.5q-66 16 -168 12q-90 -3 -172 -33q-89 -39 -140 -98q-31 -35 -47 -72q-15 -32 -26 -80
q0 -3 -3.5 -19t-3.5 -24q-2 -12 -2 -41v-10v-6v-4q0 -15 2 -21q0 -17 7 -38q11 -44 26 -70q22 -32 47 -51q23 -18 60 -29q28 -9 57 -6q26 0 53 10q23 13 37 27q12 10 23 28q8 20 8 27q4 12 4 16v5v2v-2v-5v-16q-6 -24 -8 -29q-7 -18 -21 -32q-15 -18 -39 -33
q-24 -14 -55 -19q-34 -3 -65 2q-37 6 -72 27q-36 22 -62 55q-28 40 -41 78q-2 7 -6 22.5t-6 22.5q-1 4 -2 11.5t-2 11.5v6v6l-2 2v0v4v6q-2 14 -2 47q0 34 2 50q6 52 23 98q18 49 49 94q29 42 73 80q43 34 91 59q98 49 204 64q109 12 207 -2q103 -15 191 -60q30 -14 82 -51
q35 -26 69 -65q31 -39 49 -76q22 -50 29 -78q2 -7 8 -37q0 -3 1 -9t1 -9q0 -8 2 -10v-732q0 -49 -2.5 -86.5t-9.5 -82t-21.5 -78t-37.5 -64.5t-59 -52.5t-83 -31.5q5 -12 15 -29q22 -43 57 -104q31 -51 70 -96q49 -53 88 -74q46 -28 106 -41q4 -1 13.5 -2t13.5 -2
q10 -2 26 -2h9q1 0 3 -1t3 -1h4h2h8q17 0 25 2q53 3 92 25q24 10 35 24q8 6 26 29q18 29 25 59q2 10 3.5 25t2.5 18v14v-14zM608 1253v-6h2v-919v-33q3 -1 23 -6q5 -2 17.5 -8t19.5 -9q29 -19 37 -26q36 -28 67 -74q40 -64 55 -92q1 -2 3.5 -6t3.5 -6q51 54 51 260v653
q-24 -2 -45.5 9t-31.5 22l-9 12q41 0 62 52q28 69 -7 149q-52 115 -203 161q-5 -2 -12.5 -8t-20 -39.5t-12.5 -85.5zM621 168q11 -71 40 -99t80 -30q-17 29 -51 67q-24 31 -51 50q-4 3 -10 6.5t-8 5.5z" />
    <glyph glyph-name="R" unicode="R" horiz-adv-x="1392" 
d="M1341 -43q100 -254 199 -279q29 -8 47 5q-29 -23 -61.5 -25t-61.5 13.5t-61 37t-62 46t-64 40t-65.5 19t-68.5 -16.5q-1 50 26 70l-143 424q-22 64 -86 92l-86 37q-28 -4 -41 -4q-14 -2 -41 -2v-344q0 -78 -20 -142.5t-50.5 -106.5t-72.5 -74t-81.5 -48.5t-81.5 -27
t-67.5 -13t-44.5 -2.5q-74 0 -133 22q-38 12 -84 43q-24 20 -35 31q-15 13 -30 35q-17 20 -25 39q-7 10 -20 41q-15 40 -21 82q-7 48 -4 82v4v2v4v4v4q0 4 1 11t1 10q5 30 8 39q17 71 64 127q16 21 45 43q30 19 47 26q46 20 88 23q10 2 31 2q29 0 49 -20.5t20 -49.5
q0 -28 -20 -47.5t-49 -19.5q-28 0 -48 19.5t-20 47.5q0 35 29 57q-31 -6 -70 -28q-50 -27 -78 -74q-36 -59 -41 -117q-1 -5 -2 -16t-2 -16q0 -13 2 -17v-4v-6v-8q4 -42 11 -70q16 -77 61 -127q4 -4 12.5 -12t12.5 -12t9 -7.5t10.5 -7.5t8.5 -6q35 -21 66 -29q42 -10 78 -10
q51 0 92 18.5t67 48t45 65.5t28 72t14.5 65.5t6.5 48.5l1 18v369q-6 3 -15 6q-2 2 -10 6q-1 0 -3 1t-3 1q-1 1 -3 2t-3 2q-1 0 -2 1t-2 1q-1 1 -3.5 2t-3.5 2q-4 2 -10 8q-6 3 -12 9q-2 2 -4 2l-4 4q-12 10 -35 33q-8 12 -14 18t-7 8q-1 1 -3 4t-3 4q-19 35 -30 70q0 1 -1 4
t-1 4t-1 4t-1 4q0 2 -1.5 7.5t-1.5 7.5q-2 4 -2 14q0 1 -1 3t-1 3v6v11v10v8v8v12q0 -4 2 -12v-8q0 -4 2 -8v-8q3 -6 3 -13l2 -4q0 -1 1 -3t1 -3q0 -6 4 -14q0 -5 4 -13q0 -4 4 -8q0 -1 1 -3t1 -3q13 -32 37 -59l8 -8q1 -1 3 -3.5t3 -3.5l14 -14q25 -20 35 -25q1 0 2 -1
t2 -1l4 -4q2 -1 6 -2t5 -2q8 -4 10 -6q4 0 6 -2q1 0 2 -1t2 -1t3 -1t3 -1l4 -2q1 0 3.5 -1t3.5 -1v538q-16 8 -24.5 22t-9.5 24l-1 10q68 0 119.5 42.5t83.5 98.5h-306q-50 0 -89 -14.5t-62 -38t-39 -52t-22 -57t-9 -52t-3 -37.5l1 -15q-9 71 1.5 128t34 92.5t54 64.5
t62 50.5t57 43t39.5 49.5t10 63q32 -32 80 -32h578h36q39 0 69.5 12t41.5 24l10 11q0 -19 -8.5 -36t-19 -31.5t-19 -51.5t-8.5 -90v-31v-399v-15q0 -4 -2 -6v-10q0 -2 -1 -6t-1 -6v-6q0 -1 -1 -4t-1 -5t-2 -12t-4 -16q0 -2 -1 -4.5t-1 -3.5q0 -2 -1 -5.5t-1 -5.5
q-1 -2 -3.5 -7.5t-3.5 -10.5q-14 -44 -34 -80q-20 -39 -60 -82l-10 -10l-10 -10q-13 -13 -21 -19q-8 -4 -10 -8q-2 -1 -6 -4t-6 -4t-6.5 -4t-6.5 -4t-6 -4.5t-6 -4.5l-2 -2q-8 -4 -10 -4q-2 -1 -6 -4t-6 -4q-12 -6 -27 -12q-22 -11 -27 -13q-2 0 -10 -4q122 -57 238 -24z
M772 492q79 13 135.5 50t85.5 91.5t41.5 112t12.5 124.5v371h-275v-749z" />
    <glyph glyph-name="S" unicode="S" horiz-adv-x="1103" 
d="M727 948h21q64 11 90 126q16 67 16 167h-270v-403q39 5 88 -3.5t103.5 -28.5t106.5 -58t94.5 -87.5t70.5 -121.5t32 -156q15 -300 -165 -482q-137 -138 -341 -167q-192 -28 -349 51q-159 81 -206 240q-18 59 -18 125q0 64 16 120q13 41 27 66q14 31 49 31q23 0 38 -16
t15 -38t-15 -37.5t-38 -15.5q-19 0 -33.5 12t-17.5 31q-8 -23 -10 -37q-4 -22 -4 -114q0 -160 130 -262q115 -91 277 -94q174 -3 297 98q158 131 158 382q0 53 -4 84q-6 80 -39.5 145t-83.5 104.5t-110 65t-122.5 29.5t-118.5 -5.5t-100 -36.5t-65 -66q0 36 40.5 93.5
t102.5 88.5v258q-15 8 -23 22t-9 24l-1 10q49 0 93.5 27t69.5 57t44 65h-276q-50 0 -89 -14.5t-62 -38t-39.5 -52t-22.5 -57t-9 -52t-3 -37.5l1 -15q-9 71 2 128t34.5 92.5t54.5 64.5t62.5 50.5t57 43t40 49.5t10.5 63q32 -32 77 -32h582q39 0 69.5 12t41.5 24l10 11
q0 -19 -8.5 -36t-19 -31.5t-19 -51.5t-8.5 -90q15 -4 27.5 -18t17.5 -26l6 -11q-38 5 -70 -10t-54 -42t-45 -60.5t-41 -65.5t-43.5 -57t-52.5 -35t-67 1z" />
    <glyph glyph-name="T" unicode="T" horiz-adv-x="1372" 
d="M1108 1466q-4 -35 10.5 -63t40 -49.5t57 -43t61.5 -50.5t54 -64.5t34 -92.5t1 -128q0 6 0.5 15.5t-2 37t-8.5 52.5t-21.5 56t-38.5 53t-62 37t-89 15h-195v-1190q15 -4 27.5 -18t18.5 -25l5 -12q-38 5 -70 -10t-54 -42t-45 -60.5t-41.5 -65.5t-44 -56.5t-52.5 -34.5
t-67 1h19q64 12 92 137q18 82 18 207v981q-15 8 -23 21.5t-9 23.5l-1 10q57 0 108.5 35.5t83.5 97.5h-546q-54 0 -105 -19t-94.5 -56t-70.5 -101t-27 -145q0 -20 4 -56q5 -38 22 -80q15 -38 43 -69q8 -10 27 -29q17 -14 31 -22q16 -13 34 -19q9 -5 35 -14q50 -13 72 -13
q1 0 4 -1t4 -1h4h6h4h5h8q5 0 35 5q24 2 59 18q18 8 47 33q15 15 31 39q5 8 12 23.5t8 17.5q10 34 13 51q-13 -33 -50 -33q-23 0 -38 15t-15 38q0 22 15 38t38 16q22 0 38 -16t16 -38v-2v-8q0 -3 -1 -13t-1 -16q0 -2 -3 -14.5t-4 -19.5q-9 -30 -16 -45q-20 -35 -31 -46
q-19 -26 -47 -41q-33 -20 -65 -28q-18 -6 -39 -6q-2 -2 -8 -2h-11q-4 0 -4 -2h-6h-10q-34 0 -82 10q-7 2 -20.5 6t-20.5 6q-27 11 -41 21q-21 9 -39 24q-25 20 -35 33q-31 31 -57 78q-21 42 -33 94q-10 41 -10 100q0 103 33 186.5t87 137.5t126.5 90.5t147.5 52t155 15.5
h481q46 0 78 32z" />
    <glyph glyph-name="U" unicode="U" horiz-adv-x="1062" 
d="M721 1434h342q-41 -11 -57.5 -47.5t-16.5 -73.5l-2 -1020q0 -5 0.5 -16.5t0.5 -23.5t-1 -24v-55v-6v-2v-2v0v-2v-4q-2 -4 -2 -15v-4v-2v-2q0 -6 -2 -10v-19q-8 -50 -14 -79q-14 -47 -29 -86q-15 -37 -49 -86q-3 -6 -8 -11q-1 -2 -3 -5t-3 -5q-3 -3 -9.5 -10t-9.5 -10
q-1 -2 -4 -5.5t-4 -5.5l-10 -10q-1 -1 -4.5 -4t-4.5 -4l-10 -10q-89 -79 -198 -105q-40 -8 -60 -10q-18 -2 -57 -2q-22 0 -62 4q-30 3 -59 12q-39 13 -57 21l-6 4q-1 1 -3.5 2t-3.5 2l-8 4q-1 0 -3 1t-3 1l-14 8l-13 9q-58 41 -88 90q-17 23 -30 55q-13 39 -17 59
q-6 30 -6 60v14v4v2v2v8v7v4v4q2 4 2 14q6 56 35 113q5 9 35 49q19 22 43 37q41 30 82 41v755q-16 8 -24.5 22t-9.5 24l-1 10q68 0 119.5 42.5t83.5 98.5h-271q-50 0 -89 -14.5t-62 -38t-39 -52t-22 -57t-9 -52t-2 -37.5v-15q-9 71 1.5 128t34 92.5t54 64.5t62 50.5t57 43
t39.5 49.5t10 63q32 -32 80 -32h254q-3 -2 -8 -6.5t-18 -21.5t-22.5 -37.5t-17.5 -55.5t-8 -74v-956q10 -3 23 -9q38 -16 73 -51q15 -15 27 -33q11 -13 21 -34q12 -31 16 -72q3 -33 -4 -64q-5 -27 -19 -51q-1 -1 -2 -3t-2 -3q-15 -29 -47 -29q-22 0 -37.5 16t-15.5 38
t15.5 37.5t37.5 15.5q21 0 36 -13t18 -34q1 5 3 14.5t3 14.5q3 28 0 59q-6 35 -21 65q-14 24 -20 31q-6 10 -27 27q-28 25 -68 41q-34 13 -83 16q-54 0 -91 -12q-39 -11 -79 -43q-39 -30 -56 -72q-19 -47 -22 -92v-12v-2v-4v-7v-6v-2v-4l2 -12q4 -34 8 -47q5 -18 16 -45
q6 -10 25 -39q31 -39 70 -62l10 -6l12 -4q0 -2 4 -2l6 -2l4 -4l7 -2q7 -2 22.5 -6t22.5 -6q4 -1 21 -4t26 -3q23 -3 45 0q19 0 47 7q16 2 43 10q21 6 41 16q26 14 48 34.5t38 42t28.5 51t20.5 53.5t13.5 58.5t8.5 56.5t4 57.5t1.5 51.5t0 48t-0.5 39v1024q0 20 -4.5 42
t-22.5 48t-47 33z" />
    <glyph glyph-name="V" unicode="V" horiz-adv-x="1191" 
d="M850 1434h342q-40 -11 -57 -48t-17 -73v-942l-303 -586q-4 12 -10.5 33t-30.5 82t-51 116t-71 122.5t-90.5 116t-110 81.5t-129.5 33q-32 0 -78 -11q-21 -3 -39 -12q-15 -6 -35 -16q-21 -11 -59 -49q-26 -29 -41 -64q-17 -32 -23 -72q-7 -31 -4 -73q3 -41 14 -68
q10 -29 31 -57q16 -23 43 -43q23 -17 49 -27q23 -9 47 -12q24 -4 35 -4q-31 14 -31 47q0 23 16 38t38 15q23 0 38 -15t15 -38q0 -20 -13.5 -35t-33.5 -16q-3 -1 -10.5 -2t-10.5 -2h-43q-37 5 -51 10q-26 6 -55 22q-30 20 -53 43q-28 35 -39 64q-15 29 -25 74q-13 89 16 172
q12 34 43 81q32 40 70 68q7 4 21.5 12.5t21.5 12.5q16 9 45 20q50 16 96 19q4 2 13 2h12h6h6h13q19 0 51 -4q19 -3 41 -9v604q-16 8 -24.5 22t-9.5 24l-1 10q68 0 119.5 42.5t83.5 98.5h-271q-50 0 -89 -14.5t-62 -38t-39 -52t-22 -57t-9 -52t-3 -37.5l1 -15q-9 71 1.5 128
t34 92.5t54 64.5t62 50.5t57 43t39.5 49.5t10 63q32 -32 80 -32h254q-3 -2 -8 -6.5t-18 -21.5t-22.5 -37.5t-17.5 -55.5t-8 -74v-907q3 -3 10.5 -9.5t10.5 -9.5q56 -56 108 -135q4 -5 11.5 -16.5t11.5 -16.5q86 176 121 263v903q0 14 -2.5 29.5t-9.5 36t-23 36t-39 21.5z
" />
    <glyph glyph-name="W" unicode="W" horiz-adv-x="1658" 
d="M1317 1434h342q-70 -18 -76 -121v-942l-301 -586q-3 11 -9.5 30.5t-28.5 76t-47 109t-65.5 118t-84.5 114.5l-232 -448q-4 12 -10.5 33t-30.5 82t-51 116t-71 122.5t-90.5 116t-110 81.5t-129.5 33q-32 0 -78 -11q-21 -3 -39 -12q-15 -6 -35 -16q-21 -11 -59 -49
q-26 -29 -41 -64q-17 -32 -23 -72q-7 -31 -4 -73q3 -41 14 -68q10 -29 31 -57q16 -23 43 -43q23 -17 49 -27q23 -9 47 -12q24 -4 35 -4q-31 14 -31 47q0 23 16 38t38 15q23 0 38 -15t15 -38q0 -20 -13.5 -35t-33.5 -16q-3 -1 -10.5 -2t-10.5 -2h-43q-37 5 -51 10
q-26 6 -55 22q-30 20 -53 43q-28 35 -39 64q-15 29 -25 74q-13 89 16 172q12 34 43 81q32 40 70 68q7 4 21.5 12.5t21.5 12.5q16 9 45 20q50 16 96 19q4 2 13 2h12h6h6h13q19 0 51 -4q19 -3 41 -9v604q-16 8 -24.5 22t-9.5 24l-1 10q68 0 119.5 42.5t83.5 98.5h-271
q-50 0 -89 -14.5t-62 -38t-39 -52t-22 -57t-9 -52t-3 -37.5l1 -15q-9 71 1.5 128t34 92.5t54 64.5t62 50.5t57 43t39.5 49.5t10 63q32 -32 80 -32h254q-3 -2 -8 -6.5t-18 -21.5t-22.5 -37.5t-17.5 -55.5t-8 -74v-907q3 -3 10.5 -9.5t10.5 -9.5q56 -56 108 -135
q4 -5 11.5 -16.5t11.5 -16.5q25 47 86 181q-64 40 -135 20q6 5 18 13t55 20t91 10q1 3 3 9.5t3 9.5v903q0 14 -2.5 29.5t-9.5 36t-23 36t-39 21.5h342q-40 -11 -57 -48t-17 -73v-926v-55l19 -19q57 -54 110 -135q3 -5 10.5 -16.5t10.5 -16.5q81 158 123 263v903
q-7 106 -74 123z" />
    <glyph glyph-name="X" unicode="X" horiz-adv-x="1310" 
d="M1237 51q15 -4 27.5 -18t17.5 -25l6 -12q-38 5 -70 -10t-54.5 -42t-45 -60.5t-41 -65.5t-44 -56.5t-52 -34.5t-66.5 1h19q64 12 92 137q18 82 18 207v192v340l-135 76l-2 -2v2l-137 -76v-534q0 -78 -20 -142.5t-50.5 -106.5t-72.5 -74t-81.5 -48.5t-81.5 -27t-67.5 -13
t-44.5 -2.5q-74 0 -133 22q-43 15 -82 43q-6 5 -18.5 15.5t-18.5 15.5q-5 5 -30 35q-19 28 -25 39q-3 6 -18 41q-18 49 -23 82q-4 29 -4 82v4v2v4v4l2 4q0 15 2 21q1 6 3 19.5t3 19.5q17 71 64 127q24 27 45 43q31 19 49 26q43 20 86 23l33 2q22 0 37.5 -16t15.5 -38
t-15.5 -37.5t-37.5 -15.5q-23 0 -38.5 15.5t-15.5 37.5q0 26 21 43q-45 -12 -78 -30q-47 -26 -76 -74q-34 -49 -43 -117q0 -5 -1 -16t-1 -16v-17v-4v-6v-8q4 -42 11 -70q17 -78 63 -127q4 -5 13.5 -13.5t11.5 -10.5q10 -10 28 -21q37 -22 66 -29q42 -10 76 -10q51 0 92 18.5
t67 48t45 65.5t28 72t14.5 65.5t6.5 48.5l1 18v553q-41 -3 -74 4.5t-51 19.5t-30 25t-16 22l-4 9q23 -25 66.5 -25t76.5 12l32 13l129 69l-129 72v184q-16 8 -24.5 22t-9.5 24l-1 10q118 0 205 141h-273q-54 0 -93.5 -22.5t-57 -54.5t-27.5 -63.5t-11 -54.5l-1 -22
q-8 59 6 108t41 80t59.5 62t61 56t45.5 60.5t12 75.5q37 -32 80 -32h280q-43 -11 -71.5 -62.5t-28.5 -130.5v-266l137 -76h2l135 76v336q-7 107 -75 123h342q-68 -18 -74 -121v-453l-129 -72l129 -69v-615v-53z" />
    <glyph glyph-name="Y" unicode="Y" horiz-adv-x="1062" 
d="M721 1434h342q-40 -11 -57 -48t-17 -73v-1084q0 -7 -1 -26t-1 -29v-6v-2v-2v0v-2v-4q0 -2 -1 -7.5t-1 -7.5v-4v-2v-2v-10q-2 -6 -2 -19q-8 -50 -14 -79q-14 -47 -29 -86q-15 -37 -49 -86q-1 -2 -3 -5.5t-3 -5.5q-6 -6 -8 -10q-11 -11 -17 -20q-2 -2 -5 -5.5t-5 -5.5
q-6 -6 -8 -10q-6 -3 -11 -8l-10 -10q-89 -79 -198 -105q-32 -7 -58 -10q-20 -2 -59 -2q-24 0 -60 4q-33 3 -59 12q-30 9 -57 21l-8 4q-1 1 -3.5 2t-3.5 2l-8 4q-1 0 -3 1t-3 1l-14 8l-13 9q-58 41 -88 90q-19 26 -28 55q-13 29 -19 59t-6 60v14v4v2v2v8v7v4v4q2 4 2 14
q10 66 37 113q5 12 33 49q19 22 43 37q49 36 100 45q53 12 103 6q39 -2 94 -25q38 -16 73 -51q21 -21 29 -33q12 -20 19 -34q16 -40 16 -72q4 -41 -4 -64q-5 -27 -19 -51q-10 -18 -24 -35q-1 -1 -3.5 -4t-4.5 -5t-4 -3q-14 -14 -37 -14t-38.5 15t-15.5 38q0 22 15.5 37.5
t38.5 15.5q22 0 37.5 -15.5t15.5 -37.5q0 -8 -4 -20q12 20 18 32q13 30 15 50q6 28 0 59q-3 35 -21 65q-3 5 -9 15.5t-9 15.5l-27 27q-35 28 -70 41q-34 13 -83 16q-54 0 -89 -12q-40 -10 -81 -43q-34 -27 -56 -72q-17 -41 -20 -92q0 -8 -2 -12v-2v-4v-7v-6h2v-2v-4v-12
q4 -34 8 -47q5 -18 16 -45q12 -21 27 -39q26 -36 70 -62l10 -6l10 -4q2 -2 4 -2l6 -2q1 -1 3 -2t3 -2l5 -2q7 -2 22.5 -6t22.5 -6q4 -1 21 -4t26 -3q23 -3 47 0q20 0 45 7q16 2 43 10q21 6 41 16q26 14 48 34.5t38 42t28.5 51t20.5 53.5t13.5 58.5t8.5 56.5t4 57.5t1.5 51.5
t0 48t-0.5 39v61q0 54 -22.5 100.5t-59.5 78t-84.5 56.5t-98.5 35t-100.5 13t-89.5 -8q-78 -23 -96 -91q-1 5 -1.5 14.5t2.5 35.5t10.5 50t26.5 52t48 47v313q-16 8 -24.5 22t-9.5 24l-1 10q68 0 119.5 42.5t83.5 98.5h-271q-50 0 -89 -14.5t-62 -38t-39 -52t-22 -57t-9 -52
t-2 -37.5v-15q-9 71 1.5 128t34 92.5t54 64.5t62 50.5t57 43t39.5 49.5t10 63q32 -32 80 -32h254q-3 -2 -8 -6.5t-18 -21.5t-22.5 -37.5t-17.5 -55.5t-8 -74v-467q178 -41 273 -160v6v693q0 14 -2.5 29.5t-9.5 36t-23 36t-39 21.5z" />
    <glyph glyph-name="Z" unicode="Z" horiz-adv-x="1136" 
d="M1937 -408v-8q0 -2 -1 -7t-1 -9q-4 -28 -20 -68q-15 -44 -60 -92q-21 -24 -51 -45q-10 -8 -30 -20q-20 -10 -35 -19q-56 -22 -80 -29q-49 -11 -86 -16q-46 -6 -94 -6h-25h-24q-4 0 -12 1t-13 1q-17 0 -25 2h-10h-4h-2h-2l-6 2q-4 0 -12.5 1t-12.5 1q-20 2 -51 10
q-42 7 -102 29q-96 36 -191 96q-91 56 -174 117q-70 52 -160 121q-46 38 -145 108q-52 37 -133 82q-6 3 -60 27q-33 11 -53 16q-27 7 -78 11t-112.5 -7.5t-71.5 -46.5q22 80 85 131.5t136 59.5l608 1206h-485q-50 0 -89 -14.5t-62 -38t-39 -52t-22 -57t-9 -52t-3 -37.5
l1 -15q-9 71 1.5 128t34 92.5t54 64.5t62 50.5t57 43t39.5 49.5t10 63q37 -32 80 -32h684l-68 -136q-8 -16 -12 -26l-637 -1258q6 -3 17.5 -10t17.5 -10q59 -39 141 -107q63 -52 141 -127q26 -23 146 -133q79 -73 153 -127q70 -54 168 -104q41 -20 88 -35q21 -9 45 -12
q3 -1 23 -6h6v0h2l2 -2q7 0 13 -3q92 -15 180 -12q28 0 82 8q29 4 75 19q66 22 117 67q44 38 64 84q17 33 26 64v4q-13 -33 -49 -33q-22 0 -37.5 15t-15.5 38q0 22 15.5 38t37.5 16t37.5 -16t15.5 -38v0z" />
    <glyph glyph-name="bracketleft" unicode="[" horiz-adv-x="329" 
d="M193 -262h98l39 -80h-330v1776h330l-39 -82h-98v-1614z" />
    <glyph glyph-name="backslash" unicode="\" horiz-adv-x="595" 
d="M199 1434l397 -1776h-197l-399 1776h199z" />
    <glyph glyph-name="bracketright" unicode="]" horiz-adv-x="329" 
d="M137 -262v1614h-98l-39 82h330v-1776h-330l39 80h98z" />
    <glyph glyph-name="underscore" unicode="_" horiz-adv-x="1775" 
d="M0 -150h1776v-192h-1776v192z" />
    <glyph glyph-name="a" unicode="a" 
d="M621 119q6 -103 73 -121h-694q40 11 57 48t17 73v213q0 56 9 93t31.5 60t42.5 34.5t60 27.5l211 90v305h-160v-139q0 -34 7 -57.5t17 -33t20 -14.5t17 -4h7q-25 -15 -51 -11t-46 19t-43.5 36.5t-44 41t-48 33.5t-54.5 14q25 25 25 62v14q0 36 -17 73t-57 48h694
q-67 -18 -73 -121v-784zM428 78v377v100l-78 -33q-44 -17 -63 -41.5t-19 -83.5v-319h160z" />
    <glyph glyph-name="b" unicode="b" 
d="M621 119q6 -103 73 -121h-694q29 7 47 33t22.5 48t4.5 42v20v1149q-16 8 -24.5 22t-9.5 24l-1 10q43 0 82.5 19.5t64.5 47.5t44 56t28 47l8 20v-512h428q-67 -18 -73 -121v-784zM428 78v864h-162v-864h162z" />
    <glyph glyph-name="c" unicode="c" 
d="M621 119q6 -103 73 -121h-694q40 11 57 48t17 73v784q0 34 -17 72t-57 49h694q-66 -17 -73 -121v-14q0 -36 26 -62q-32 0 -63.5 -19.5t-56.5 -45.5t-50 -51t-55 -37.5t-62 -3.5q3 0 7.5 0.5t16 7t20.5 18.5t16.5 40t7.5 67v139h-160v-864h160v141q0 39 -7 67t-17 39.5
t-20 18t-17 6.5h-7q32 9 62 -3.5t55 -37t50 -50.5t56.5 -45t63.5 -19q-26 -26 -26 -64v-12z" />
    <glyph glyph-name="d" unicode="d" 
d="M0 -2q68 18 74 121v784q-6 103 -74 121h428v266q-16 8 -24.5 22t-9.5 24l-1 10q43 0 82.5 19.5t65 47.5t44.5 56t27 47l9 20v-1395v-20q0 -20 4.5 -42t22 -48t46.5 -33h-694zM266 942v-864h162v864h-162z" />
    <glyph glyph-name="e" unicode="e" 
d="M74 903q-6 103 -74 121h694q-67 -18 -73 -121v-215q0 -45 -7.5 -78t-17 -53t-31.5 -37t-38 -25t-50 -22l-209 -88v-307h160v141q0 34 -7 57.5t-17 33t-20 14.5t-17 4h-7q24 14 49.5 10t45.5 -19t43.5 -36t44.5 -40.5t49 -33.5t55 -14q-26 -26 -26 -64v-12q6 -103 73 -121
h-694q68 18 74 121v391v393zM268 942v-377v-100l76 33q24 11 35.5 18t25 20.5t18.5 34.5t5 52v319h-160z" />
    <glyph glyph-name="f" unicode="f" horiz-adv-x="696" 
d="M696 1434q-69 -17 -75 -121v-15q0 -35 26 -61q-38 0 -77.5 -22t-67 -47t-65.5 -40t-77 -4q3 0 7.5 0.5t16 6.5t20.5 18t16.5 40t7.5 66v97h-160v-334q7 1 22.5 3t22.5 3h47q32 -4 46 -8q19 -5 38 -15q5 -3 15.5 -9t15.5 -9q4 -4 11 -10.5t10 -9.5q2 -1 5 -5l3 -4
q2 -4 6 -8t4 -6q1 -1 2 -3t2 -3l2 -4q-2 2 -4 2l-4 4l-8 4l-8 4q-1 0 -5 1t-6 1q-7 5 -24 8q-2 0 -8 0.5t-11.5 0.5t-9.5 -1q-21 0 -31 -4q-10 -2 -30 -10q-7 -3 -29 -16q-17 -9 -53 -41l-21 -21v-743q6 -103 74 -121h-342q70 18 76 121v1194q-6 103 -76 121h696z" />
    <glyph glyph-name="g" unicode="g" horiz-adv-x="696" 
d="M696 1024q-29 -7 -46.5 -31.5t-22 -46t-4.5 -43.5v-733v-391q0 -22 4.5 -43.5t22 -46t46.5 -31.5h-696q70 18 76 121v12q0 37 -27 64q38 0 79 29t68.5 59t66.5 48t73 -3q-1 -2 -7.5 0t-16.5 -3.5t-20 -14.5t-17 -33t-7 -58v-141h160v307l-209 88q-33 14 -49.5 22t-38 25
t-31 37t-17 53t-7.5 78v555q-6 103 -76 121h696zM428 225v717h-160v-659q0 -31 5 -52t18.5 -35t24.5 -20.5t34 -17.5l78 -33v100z" />
    <glyph glyph-name="h" unicode="h" horiz-adv-x="696" 
d="M623 51q15 -4 27.5 -18t17.5 -25l6 -12q-44 6 -81 -15t-60.5 -56t-49.5 -74.5t-49.5 -72t-58 -48t-76.5 -2.5h19q64 12 92 137q18 83 18 207v870h-160v-821q7 -106 76 -123h-344q69 17 76 123v1169q-16 8 -24.5 22t-9.5 24l-1 10q43 0 82.5 19.5t64.5 47.5t44 56t28 47
l8 20v-512h428q-29 -7 -46.5 -31.5t-22 -46t-4.5 -43.5v-852z" />
    <glyph glyph-name="i" unicode="i" horiz-adv-x="342" 
d="M170 1145q-40 0 -68 28t-28 68t28 68t68 28t68 -28t28 -68t-28 -68t-68 -28zM268 119q0 -21 4.5 -43t22.5 -46.5t47 -31.5h-342q23 6 39 21.5t23 36t9.5 36t2.5 29.5v657q-15 8 -23 22t-9 24l-1 10q43 0 82.5 19.5t64.5 47.5t44 56t28 47l8 20v-905z" />
    <glyph glyph-name="j" unicode="j" horiz-adv-x="311" 
d="M238 -221q0 -22 4.5 -43.5t22 -46t46.5 -31.5h-696q70 18 76 121v12q0 37 -27 64q38 0 79 29t68.5 59t66.5 48t73 -3q-1 -2 -7.5 0t-16.5 -3.5t-20 -14.5t-17 -33t-7 -58v-141h160v1040q-15 8 -23 22t-9 24l-1 10q43 0 82.5 19.5t65 47.5t44.5 56t28 47l8 20v-1245z
M141 1145q-40 0 -68 28t-28 68t28 68t68 28t68.5 -28t28.5 -68t-28.5 -68t-68.5 -28z" />
    <glyph glyph-name="k" unicode="k" horiz-adv-x="696" 
d="M696 705q-29 -7 -46.5 -32t-22 -46.5t-4.5 -42.5v-533q15 -4 27.5 -18t17.5 -25l6 -12q-44 6 -81 -15t-60.5 -56t-49.5 -74.5t-49.5 -72t-58 -48t-76.5 -2.5h19q64 12 92 137q18 83 18 207v551h-160v-502q7 -106 76 -123h-344q69 17 76 123v1169q-16 8 -24.5 22t-9.5 24
l-1 10q43 0 82.5 19.5t64.5 47.5t44 56t28 47l8 20v-831h49l111 63v113v18q0 15 -2.5 31t-9.5 36.5t-23 36t-39 21.5h74h57h80h58h73q-29 -7 -46.5 -31.5t-22 -46t-4.5 -43.5v-69q0 -27 22 -33l-166 -96h217z" />
    <glyph glyph-name="l" unicode="l" horiz-adv-x="342" 
d="M268 119q0 -21 4.5 -43t22.5 -46.5t47 -31.5h-342q23 6 39 21.5t23 36t9.5 36t2.5 29.5v1169q-15 8 -23 22t-9 24l-1 10q43 0 82.5 19.5t64.5 47.5t44 56t28 47l8 20v-1417z" />
    <glyph glyph-name="m" unicode="m" horiz-adv-x="1048" 
d="M975 51q15 -4 27.5 -18t17.5 -25l6 -12q-38 5 -70 -10t-54.5 -42t-45 -60.5t-41 -65.5t-44 -56.5t-52 -34.5t-66.5 1h19q64 12 92 137q18 82 18 207v870h-159v-821q0 -15 2.5 -30t9 -35.5t22.5 -36t39 -21.5h-342q23 6 39 21.5t23 36t9.5 36t2.5 29.5v311v510h-160v-821
q7 -106 76 -123h-344q69 17 76 123v657q-16 8 -24.5 22t-9.5 24l-1 10q43 0 82.5 19.5t64.5 47.5t44 56t28 47l8 20h781q-68 -18 -74 -121v-852z" />
    <glyph glyph-name="n" unicode="n" horiz-adv-x="696" 
d="M623 51q15 -4 27.5 -18t17.5 -25l6 -12q-44 6 -81 -15t-60.5 -56t-49.5 -74.5t-49.5 -72t-58 -48t-76.5 -2.5h19q64 12 92 137q18 83 18 207v870h-160v-821q7 -106 76 -123h-344q69 17 76 123v657q-16 8 -24.5 22t-9.5 24l-1 10q43 0 82.5 19.5t64.5 47.5t44 56t28 47
l8 20h428q-29 -7 -46.5 -31.5t-22 -46t-4.5 -43.5v-852z" />
    <glyph glyph-name="o" unicode="o" horiz-adv-x="696" 
d="M623 119q0 -22 4.5 -43.5t22 -46t46.5 -31.5h-696q70 18 76 121v784q-6 103 -76 121h696q-29 -7 -46.5 -31.5t-22 -46t-4.5 -43.5v-784zM428 78v864h-160v-864h160z" />
    <glyph glyph-name="p" unicode="p" horiz-adv-x="696" 
d="M623 119q0 -22 4.5 -43.5t22 -46t46.5 -31.5h-428v-219q7 -106 74 -125h-342q69 19 76 125v1124q-6 103 -76 121h696q-29 -7 -46.5 -31.5t-22 -46t-4.5 -43.5v-784zM428 78v864h-160v-864h160z" />
    <glyph glyph-name="q" unicode="q" horiz-adv-x="696" 
d="M0 -2q70 18 76 121v784q-6 103 -76 121h696q-69 -17 -75 -121l2 -1124q0 -15 2.5 -30t9 -36t22.5 -37t39 -22h-342q30 8 48 34.5t22 48t4 42.5v219h-428zM268 942v-864h160v864h-160z" />
    <glyph glyph-name="r" unicode="r" horiz-adv-x="696" 
d="M696 1024q-29 -7 -46.5 -31.5t-22 -46t-4.5 -43.5v-14q0 -38 24 -62q-27 0 -54.5 -14t-48 -33.5t-44 -41t-43.5 -36.5t-46 -19t-51 11q1 2 7.5 0t16.5 3.5t20 14.5t17 33t7 58v139h-160v-823q6 -103 74 -121h-131h-78h-133q70 18 76 121v784q-6 103 -76 121h696z" />
    <glyph glyph-name="s" unicode="s" 
d="M621 119q6 -103 73 -121h-694q41 11 57.5 47.5t16.5 73.5v213q0 33 -7 56.5t-17 33t-20 14.5t-17 4h-7q36 15 60.5 7.5t54 -30.5t52.5 -48t55.5 -44.5t64.5 -19.5q-25 -22 -25 -59v-168h160v319q0 41 -11.5 66.5t-26.5 36t-44 22.5l-321 140q22 6 35.5 24t13.5 41v176
q0 21 -4.5 43t-22.5 46.5t-47 31.5h694q-67 -18 -73 -121v-14q0 -36 26 -62q-32 0 -64.5 -19.5t-56.5 -44.5t-53 -48t-53.5 -30t-59.5 9q1 2 7.5 0t16.5 3.5t20 14.5t17 33t7 58v139h-160v-305l209 -90q32 -13 49.5 -21.5t38.5 -25t31 -36.5t17.5 -53.5t7.5 -78.5v-213z" />
    <glyph glyph-name="t" unicode="t" horiz-adv-x="638" 
d="M565 119q6 -103 74 -121h-633q41 11 57.5 47.5t16.5 73.5v672q0 45 -20 74.5t-40 36.5l-20 7q2 0 2 2q1 0 3 1t3 1q2 1 8 5t11 6q35 15 53 24l2 201q-16 8 -24.5 21.5t-9.5 23.5l-1 10q43 0 82.5 19.5t64.5 48t44 56.5t28 48l8 19v-379q6 1 41 6q42 4 68 2q3 -1 9 -2
t9 -2h7l4 -2q1 0 3.5 -1t4.5 -1q8 -3 31 -17q15 -9 28 -22q14 -17 17 -33q5 -16 2 -33q0 -10 -9 -28q-11 -23 -32 -33q-8 -6 -31 -12q-13 -3 -20 0h-7v0q5 0 7 2q6 0 18 6q13 9 20 18q12 12 15 31q3 8 0 16q-3 9 -6 15q-3 3 -13 8q-6 6 -16 6q-6 2 -21 2h-4v0h-2h-4v0v0h-2
h-10q-23 -4 -45 -12q-4 -1 -47 -23q-2 -1 -7.5 -3t-7.5 -3v-59v-764h99v141q0 34 -7 57.5t-17 33t-20 14.5t-17 4h-7q24 14 49.5 10t45.5 -19t43.5 -36t44.5 -40.5t49 -33.5t55 -14q-27 -27 -27 -64v-12z" />
    <glyph glyph-name="u" unicode="u" 
d="M0 -2q41 11 57.5 47.5t16.5 73.5v784q0 20 -4.5 42t-22.5 47t-47 32h342q-67 -18 -74 -119v-827h160v747q0 33 -27 60q38 0 79 29t68.5 59t66.5 48t73 -3q-1 -2 -7 0t-16.5 -3.5t-20 -14.5t-16.5 -33t-7 -58v-790q6 -103 73 -121h-694z" />
    <glyph glyph-name="v" unicode="v" horiz-adv-x="688" 
d="M401 885q38 0 79 29t68.5 59t66.5 48t73 -3q-1 -2 -7 0t-16.5 -3.5t-20 -14.5t-16.5 -33t-7 -58v-557q0 -31 24 -49l-299 -313l-297 313q25 19 25 51v549q0 20 -4.5 42t-22.5 47t-47 32h342q-67 -18 -74 -119v-676q0 -40 27 -67l51 -56l53 56q29 29 29 69v594
q0 33 -27 60z" />
    <glyph glyph-name="w" unicode="w" horiz-adv-x="1042" 
d="M756 885q38 0 78.5 29t67.5 59t66 48t74 -3q-1 -2 -7 0t-16.5 -3.5t-20 -14.5t-16.5 -33t-7 -58v-557q0 -30 22 -49l-297 -313l-176 186l-178 -186l-297 313q25 19 25 51v549q0 20 -4.5 42t-22.5 47t-47 32h342q-67 -18 -74 -119v-676q0 -40 27 -67l51 -56l53 56
q29 29 29 69v672q-7 103 -74 121h340q-66 -17 -73 -119v-676q0 -39 28 -67l51 -56l54 56q26 26 26 69v594q0 36 -24 60z" />
    <glyph glyph-name="x" unicode="x" horiz-adv-x="688" 
d="M621 -29q0 -33 7 -56.5t16.5 -33t19.5 -14.5t17 -5l7 1q-35 -15 -59.5 -7.5t-53.5 30.5t-53 48t-56.5 44.5t-64.5 19.5q27 24 27 59v346l-82 58l-78 -55v-289q0 -35 17 -71.5t57 -47.5h-342q40 11 57 48t17 73v207q0 32 -25 51l215 137l-215 137q25 19 25 54v198
q0 34 -17 72t-57 49h342q-40 -11 -57 -48t-17 -71v-282l78 -56l82 58v200q0 33 -27 60q38 0 79 29t68.5 59t66.5 48t73 -3q-1 -2 -7 0t-16.5 -3.5t-20 -14.5t-16.5 -33t-7 -58v-209q0 -31 24 -49l-215 -137l215 -137q-24 -18 -24 -49v-357z" />
    <glyph glyph-name="y" unicode="y" 
d="M621 -221q6 -103 73 -121h-694q40 11 57 48t17 73v12q0 39 -25 64q27 0 54.5 14t48 33.5t44 40.5t43.5 36t46 19t51 -10q-1 -2 -7.5 0t-16.5 -3.5t-20 -14.5t-17 -33t-7 -58v-141h160v307l-211 88q-33 14 -48.5 22t-38 25t-32 36.5t-17 53t-7.5 78.5v557q0 33 -7 56.5
t-17 33.5t-20 15t-17 4h-7q36 15 60.5 7.5t54 -30.5t52.5 -48t55.5 -44.5t64.5 -19.5q-25 -25 -25 -62v-534q0 -59 18.5 -82t63.5 -43l78 -33v100v678q-6 103 -76 121h111h26h205q-67 -18 -73 -121v-733v-391z" />
    <glyph glyph-name="z" unicode="z" 
d="M74 119v213q0 56 9 93t31.5 60t42.5 34.5t60 27.5l211 90v305h-160v-139q0 -34 7 -57.5t17 -33t20 -14.5t17 -4h7q-25 -15 -51 -11t-46 19t-43.5 36.5t-44 41t-48 33.5t-54.5 14q25 25 25 62v14q0 21 -4.5 43t-22.5 46.5t-47 31.5h694q-67 -18 -73 -121v-176
q0 -23 14 -41t37 -24l-322 -140q-29 -12 -44 -22.5t-26.5 -36t-11.5 -66.5v-319h160v168q0 35 -27 59q32 0 64.5 19.5t56.5 44.5t53 48t53.5 30.5t59.5 -7.5q-1 -2 -7 0t-16.5 -4t-20 -14.5t-16.5 -32.5t-7 -57v-135v-78q6 -103 73 -121h-694q41 11 57.5 47.5t16.5 73.5z
" />
    <glyph glyph-name="braceleft" unicode="{" horiz-adv-x="413" 
d="M276 -262h99l39 -80h-330v719q0 38 -13 63t-29 35t-29 27.5t-13 42.5q0 21 8.5 35.5t21 24.5t25 22t21 34t8.5 54v719h330l-39 -82h-99v-633q0 -35 -14.5 -59t-35.5 -36.5t-42.5 -22.5t-36 -23.5t-14.5 -32.5q0 -23 22.5 -39.5t49 -26.5t49 -37t22.5 -69v-635z" />
    <glyph glyph-name="bar" unicode="|" horiz-adv-x="192" 
d="M0 -342v1776h193v-1776h-193z" />
    <glyph glyph-name="braceright" unicode="}" horiz-adv-x="413" 
d="M137 -262v635q0 42 22.5 69t49.5 37t49.5 26.5t22.5 39.5q0 19 -15 32.5t-36 23.5t-42 22.5t-36 36.5t-15 59v633h-98l-39 82h330v-719q0 -32 8.5 -54t21 -34t25 -22t21 -24.5t8.5 -35.5q0 -25 -13 -42.5t-29 -27.5t-29 -35t-13 -63v-719h-330l39 80h98z" />
    <glyph glyph-name="asciitilde" unicode="~" horiz-adv-x="913" 
d="M825 557q50 18 88 59q0 -2 -1 -6.5t-1 -7.5q-1 -2 -2 -7.5t-2 -8.5q-2 -12 -7 -36.5t-7 -37.5q-12 -52 -16 -74q-1 -1 -4 -14.5t-5 -15.5l-2 -2q-40 -43 -90 -60q-44 -17 -96 -14q-74 6 -217 57q-155 57 -230 66q-131 16 -233 -47l6 30q2 12 7 36.5t7 37.5q15 64 17 74
q1 1 4 15t4 15l2 2q104 62 234 46q17 -2 33 -5t35.5 -8t31 -8t35 -11t30.5 -10.5t34.5 -12.5t31.5 -11q139 -51 215 -55q51 -3 98 14z" />
    <glyph glyph-name="exclamdown" unicode="&#xa1;" horiz-adv-x="342" 
d="M0 -342q40 11 57 48t17 73l51 1315h88l55 -1319q6 -101 74 -117h-342zM170 1229q-42 0 -72 30t-30 72q0 41 30.5 72t71.5 31q42 0 73 -31t31 -72q0 -43 -30.5 -72.5t-73.5 -29.5z" />
    <glyph glyph-name="cent" unicode="&#xa2;" 
d="M621 119q6 -103 73 -121h-313v-113l-68 -45v158h-313q40 11 57 48t17 73v784q0 34 -17 72t-57 49h313v113l68 45v-158h313q-66 -17 -73 -121v-14q0 -36 26 -62q-33 0 -61.5 -17.5t-50 -42t-42.5 -48.5t-47.5 -38.5t-56.5 -10.5q4 2 10.5 7.5t17.5 39t11 86.5v139h-47
v-864h47v141q0 44 -9 77t-17 44l-9 10q32 3 59 -12t47 -38.5l40 -47t47.5 -40.5t60.5 -17q-26 -26 -26 -64v-12zM268 78h45v864h-45v-864z" />
    <glyph glyph-name="sterling" unicode="&#xa3;" horiz-adv-x="890" 
d="M780 96q38 15 78 62l-51 -189q-16 -62 -68 -84q-43 -15 -88 -12q-69 4 -188 57q-138 57 -203 64q-119 17 -205 -47v2l66 198q10 29 37 43v416h-158v195h158v397q0 53 9.5 92t34 73.5t72.5 52.5t119 18h498q-40 -11 -57 -48t-17 -73v-131q0 -33 25 -62q-32 0 -63 -19
t-56 -45t-50.5 -50.5t-55.5 -37t-62 -3.5q3 0 7.5 0.5t16 6.5t20.5 18t16.5 40t7.5 66v256h-127q-49 0 -80 -10.5t-44.5 -33t-17.5 -44t-4 -58.5v-405h180v-195h-180v-411q48 -13 154 -56q3 -1 18 -7.5t19 -8t18 -7t19.5 -7.5t18.5 -6l19.5 -6t18.5 -5t20.5 -4t18.5 -2.5
t20 -1.5q49 -3 86 12z" />
    <glyph glyph-name="yen" unicode="&#xa5;" horiz-adv-x="804" 
d="M500 723v-92h200v-172h-200v-72h200v-172h-200v-96q0 -36 16.5 -73t56.5 -48h-342q40 11 57 48t17 73v96h-201v172h201v72h-201v172h201v92h-305q40 11 57 48t17 73v469q0 36 -17 73t-57 48h74h194h74q-40 -11 -57 -48t-17 -73v-510h271v577q0 39 -7 67t-17.5 40t-21 19
t-17.5 7h-7q32 9 62 -3.5t55.5 -37.5t50.5 -51t57 -45.5t64 -19.5q-27 -24 -27 -62v-450q6 -103 74 -121h-305z" />
    <glyph glyph-name="section" unicode="&#xa7;" 
d="M524 936q36 -16 52.5 -27t30.5 -41.5t14 -79.5v-548v-121q6 -103 73 -121h-694q40 11 57 48t17 73v213q0 33 -7 56.5t-17 33t-20 14.5t-17 4h-7q35 15 59.5 7.5t53.5 -30.5t53 -48t56.5 -44.5t64.5 -19.5q-25 -22 -25 -59v-168h160v319q0 59 -19.5 83t-64.5 42l-319 140
q22 6 35.5 24t13.5 41v586q0 36 -17 73t-57 48h694q-67 -18 -73 -121v-15q0 -35 26 -61q-27 0 -55 -14t-49 -33.5t-44.5 -41t-43.5 -36.5t-45.5 -19t-49.5 11q1 2 7.5 -0.5t16.5 3.5t20 14.5t17 32.5t7 58v140h-160v-305zM428 569v275q0 24 -6.5 38.5t-14.5 20t-26 12.5
l-113 52v-330z" />
    <glyph glyph-name="copyright" unicode="&#xa9;" horiz-adv-x="772" 
d="M512 819q0 -38 29 -45h-308q27 7 27 45v455q0 40 -27 47h308q-29 -7 -29 -47v-29q0 -12 10 -22q-21 0 -53.5 -34t-56.5 -28h3t6.5 2.5t7.5 7.5t6 15.5t3 25.5v78h-104v-485h104v80q0 24 -6.5 36.5t-13.5 13.5l-6 1q24 6 56.5 -28t53.5 -34q-10 -10 -10 -22v-33zM387 662
q-160 0 -273.5 112.5t-113.5 272.5t113.5 273.5t273.5 113.5t272.5 -113.5t112.5 -273.5t-112.5 -272.5t-272.5 -112.5zM387 1413q-152 0 -259.5 -107t-107.5 -259q0 -151 107.5 -258t259.5 -107q151 0 258 107t107 258q0 152 -107 259t-258 107z" />
    <glyph glyph-name="ordfeminine" unicode="&#xaa;" horiz-adv-x="264" 
d="M236 1090q7 -43 28 -48h-264q29 7 29 48v79q0 41 12 56.5t41 25.5l80 35v117h-60v-53q0 -21 6 -31t12 -10h7q-18 -10 -35 2t-36.5 29.5t-37.5 17.5q11 11 11 24v4q0 41 -29 48h264q-21 -5 -28 -48v-296zM162 1073v144v38l-29 -12q-11 -5 -16.5 -8.5t-10 -13t-4.5 -25.5
v-123h60z" />
    <glyph glyph-name="guillemotleft" unicode="&#xab;" horiz-adv-x="966" 
d="M618 1024l-378 -514l378 -512h-239l-379 512l379 514h239zM967 1024l-379 -514l379 -512h-240l-379 512l379 514h240z" />
    <glyph glyph-name="registered" unicode="&#xae;" horiz-adv-x="772" 
d="M512 846q0 -26 6 -41t12 -17l7 -2q-7 -9 -30.5 -12.5t-46 10.5t-22.5 50v120q0 26 -4 40t-7.5 17.5t-14.5 10.5l-35 20h-43v-223q0 -1 1 -6l1.5 -7.5l1.5 -7.5t3 -8t5 -6.5t7 -6t9 -3.5h-129q27 7 27 45v455q0 40 -27 47h308q-29 -7 -29 -47v-148q0 -84 -72 -84h-4
l49 -28q8 -5 11.5 -7.5t8 -8t6 -13.5t1.5 -20v-119zM412 1073q5 0 8.5 1t6.5 2.5t5 3t3 5t1.5 5t1 5.5t0.5 5.5v5v4.5v180h-104v-217h78zM387 662q-160 0 -273.5 112.5t-113.5 272.5t113.5 273.5t273.5 113.5t272.5 -113.5t112.5 -273.5t-112.5 -272.5t-272.5 -112.5z
M387 1413q-152 0 -259.5 -107t-107.5 -259q0 -151 107.5 -258t259.5 -107q151 0 258 107t107 258q0 152 -107 259t-258 107z" />
    <glyph glyph-name="degree" unicode="&#xb0;" horiz-adv-x="307" 
d="M279 932q7 -39 28 -45h-307q29 7 29 45v454q0 41 -29 48h307q-21 -5 -28 -48v-454zM205 918v485h-103v-485h103z" />
    <glyph glyph-name="twosuperior" unicode="&#xb2;" horiz-adv-x="311" 
d="M285 932q0 -38 26 -45h-311q29 7 29 45v131q0 27 7.5 39t24.5 22l105 68q15 11 22 17.5t12 21t5 37.5v135h-103v-98q0 -15 2.5 -25.5t6 -15t7.5 -7t6 -2.5h3q-18 -5 -35.5 10t-36.5 32.5t-37 17.5q11 11 11 22v49q0 41 -29 48h307q-21 -5 -28 -48v-147q0 -37 -12 -56
t-38 -36l-104 -70q-23 -13 -23 -41v-118h109v98q0 23 -6.5 35t-13.5 13l-7 1q23 6 56 -26.5t53 -32.5q-8 -8 -8 -23v-51z" />
    <glyph glyph-name="threesuperior" unicode="&#xb3;" horiz-adv-x="307" 
d="M279 932q7 -39 28 -45h-307q29 7 29 45v51q0 12 -11 23q18 0 37 17.5t36.5 32t35.5 9.5q-3 0 -7 -1t-11 -13t-7 -35v-98h103v196q0 29 -16.5 52t-32.5 32l-17 8q7 4 18 12t29.5 33t18.5 49v103h-103v-98q0 -15 2.5 -25.5t6 -15t7.5 -7t6 -2.5h3q-18 -5 -35.5 10
t-36.5 32.5t-37 17.5q11 11 11 22v49q0 41 -29 48h307q-21 -5 -28 -48v-88q0 -51 -29 -77q29 -29 29 -80v-209z" />
    <glyph glyph-name="onesuperior" unicode="&#xb9;" horiz-adv-x="131" 
d="M102 932q0 -38 29 -45h-131q22 5 29 45v454q0 41 -29 48h131q-29 -7 -29 -45v-457z" />
    <glyph glyph-name="ordmasculine" unicode="&#xba;" horiz-adv-x="264" 
d="M236 1090q7 -43 28 -48h-264q29 7 29 48v296q0 41 -29 48h264q-21 -5 -28 -48v-296zM162 1073v330h-60v-330h60z" />
    <glyph glyph-name="guillemotright" unicode="&#xbb;" horiz-adv-x="966" 
d="M348 1024h240l379 -514l-379 -512h-240l379 512zM0 1024h240l378 -514l-378 -512h-240l379 512z" />
    <glyph glyph-name="questiondown" unicode="&#xbf;" horiz-adv-x="808" 
d="M403 1229q-42 0 -72 30t-30 72q0 41 30.5 72t71.5 31q42 0 72.5 -30.5t30.5 -72.5q0 -43 -30 -72.5t-73 -29.5zM809 -342h-809q40 11 57 48t17 73v387q0 99 31 149t102 97l65 43q35 21 35 63l53 576h91l49 -639q0 -38 -9 -62.5t-21 -35.5t-38 -29l-59 -39
q-31 -20 -45.5 -32t-31 -34t-22.5 -53.5t-6 -77.5v-354h273v256q0 39 -7 67t-17 40t-20 19t-17 7h-7q32 9 62 -3.5t55.5 -38t50.5 -51.5t56 -45.5t63 -19.5q-27 -27 -27 -59v-131q6 -103 76 -121z" />
    <glyph glyph-name="Agrave" unicode="&#xc0;" horiz-adv-x="1292" 
d="M1075 1516h-94l-182 253h151zM1237 51q15 -4 27.5 -18t17.5 -25l6 -12q-38 5 -70 -10t-54.5 -42t-45 -60.5t-41 -65.5t-44 -56.5t-52 -34.5t-66.5 1h19q64 12 92 137q18 82 18 207v440q-4 2 -13 6t-13 6q-20 8 -76 37q-68 35 -84 43q-53 27 -88 41v-575q0 -78 -20 -142.5
t-50.5 -106.5t-72.5 -74t-81.5 -48.5t-81.5 -27t-67.5 -13t-44.5 -2.5q-74 0 -133 22q-43 15 -82 43q-6 5 -18.5 15.5t-18.5 15.5q-5 5 -30 35q-19 28 -25 39q-3 6 -18 41q-18 49 -23 82q-4 29 -4 82v4v2v4v4l2 4q0 15 2 21q1 6 3 19.5t3 19.5q17 71 64 127q24 27 45 43
q31 19 49 26q43 20 86 23q25 2 57 2q6 -2 15 -2h4h-4q-9 0 -15 -2q-15 0 -55 -7q-36 -6 -80 -30q-47 -26 -76 -74q-34 -49 -43 -117q0 -5 -1 -16t-1 -16v-17v-4v-6v-8q4 -42 11 -70q17 -78 63 -127q4 -5 13.5 -13.5t11.5 -10.5q10 -10 28 -21q37 -22 66 -29q42 -10 76 -10
q51 0 92 18.5t67 48t45 65.5t28 72t14.5 65.5t6.5 48.5l1 18v610q-13 0 -19 2q-56 3 -106 -6q-24 -6 -45 -18q-21 -9 -39 -27q-15 -12 -27 -37q-10 -18 -14 -43q-6 -46 10 -86q13 -35 41 -63q21 -21 49 -33q27 -10 39 -10q4 -2 10 -2h4h-4h-10q-23 0 -41 6q-29 7 -57 27
q-35 27 -56 63q-10 24 -16 47q-8 21 -8 53q0 28 10 58q10 29 29 55q20 27 47 45q31 21 57 31q61 21 127 24h19v262q-16 8 -24.5 22t-9.5 24l-1 10q120 0 202 141h-270q-42 0 -75.5 -15t-51.5 -36.5t-30 -42.5t-16 -36l-3 -15q0 49 16.5 88t42 62.5t54 48t52.5 45t37.5 53
t8.5 73.5q32 -32 80 -32h579q40 0 70.5 12t41.5 24l11 11q0 -18 -8 -35t-18 -31t-19 -47.5t-10 -79.5v-1237zM999 688q35 -13 45 -16v569h-274v-479q18 -3 33 -6q18 -5 106 -35q10 -3 41.5 -15t48.5 -18z" />
    <glyph glyph-name="Aacute" unicode="&#xc1;" horiz-adv-x="1292" 
d="M799 1516l125 253h151l-182 -253h-94zM1237 51q15 -4 27.5 -18t17.5 -25l6 -12q-38 5 -70 -10t-54.5 -42t-45 -60.5t-41 -65.5t-44 -56.5t-52 -34.5t-66.5 1h19q64 12 92 137q18 82 18 207v440q-4 2 -13 6t-13 6q-20 8 -76 37q-68 35 -84 43q-53 27 -88 41v-575
q0 -78 -20 -142.5t-50.5 -106.5t-72.5 -74t-81.5 -48.5t-81.5 -27t-67.5 -13t-44.5 -2.5q-74 0 -133 22q-43 15 -82 43q-6 5 -18.5 15.5t-18.5 15.5q-5 5 -30 35q-19 28 -25 39q-3 6 -18 41q-18 49 -23 82q-4 29 -4 82v4v2v4v4l2 4q0 15 2 21q1 6 3 19.5t3 19.5
q17 71 64 127q24 27 45 43q31 19 49 26q43 20 86 23q25 2 57 2q6 -2 15 -2h4h-4q-9 0 -15 -2q-15 0 -55 -7q-36 -6 -80 -30q-47 -26 -76 -74q-34 -49 -43 -117q0 -5 -1 -16t-1 -16v-17v-4v-6v-8q4 -42 11 -70q17 -78 63 -127q4 -5 13.5 -13.5t11.5 -10.5q10 -10 28 -21
q37 -22 66 -29q42 -10 76 -10q51 0 92 18.5t67 48t45 65.5t28 72t14.5 65.5t6.5 48.5l1 18v610q-13 0 -19 2q-56 3 -106 -6q-24 -6 -45 -18q-21 -9 -39 -27q-15 -12 -27 -37q-10 -18 -14 -43q-6 -46 10 -86q13 -35 41 -63q21 -21 49 -33q27 -10 39 -10q4 -2 10 -2h4h-4h-10
q-23 0 -41 6q-29 7 -57 27q-35 27 -56 63q-10 24 -16 47q-8 21 -8 53q0 28 10 58q10 29 29 55q20 27 47 45q31 21 57 31q61 21 127 24h19v262q-16 8 -24.5 22t-9.5 24l-1 10q120 0 202 141h-270q-42 0 -75.5 -15t-51.5 -36.5t-30 -42.5t-16 -36l-3 -15q0 49 16.5 88t42 62.5
t54 48t52.5 45t37.5 53t8.5 73.5q32 -32 80 -32h579q40 0 70.5 12t41.5 24l11 11q0 -18 -8 -35t-18 -31t-19 -47.5t-10 -79.5v-1237zM999 688q35 -13 45 -16v569h-274v-479q18 -3 33 -6q18 -5 106 -35q10 -3 41.5 -15t48.5 -18z" />
    <glyph glyph-name="Acircumflex" unicode="&#xc2;" horiz-adv-x="1292" 
d="M631 1516l125 253h153l-184 -253h-94zM1065 1769l127 -253h-94l-185 253h152zM1237 51q15 -4 27.5 -18t17.5 -25l6 -12q-38 5 -70 -10t-54.5 -42t-45 -60.5t-41 -65.5t-44 -56.5t-52 -34.5t-66.5 1h19q64 12 92 137q18 82 18 207v440q-4 2 -13 6t-13 6q-20 8 -76 37
q-68 35 -84 43q-53 27 -88 41v-575q0 -78 -20 -142.5t-50.5 -106.5t-72.5 -74t-81.5 -48.5t-81.5 -27t-67.5 -13t-44.5 -2.5q-74 0 -133 22q-43 15 -82 43q-6 5 -18.5 15.5t-18.5 15.5q-5 5 -30 35q-19 28 -25 39q-3 6 -18 41q-18 49 -23 82q-4 29 -4 82v4v2v4v4l2 4
q0 15 2 21q1 6 3 19.5t3 19.5q17 71 64 127q24 27 45 43q31 19 49 26q43 20 86 23q25 2 57 2q6 -2 15 -2h4h-4q-9 0 -15 -2q-15 0 -55 -7q-36 -6 -80 -30q-47 -26 -76 -74q-34 -49 -43 -117q0 -5 -1 -16t-1 -16v-17v-4v-6v-8q4 -42 11 -70q17 -78 63 -127q4 -5 13.5 -13.5
t11.5 -10.5q10 -10 28 -21q37 -22 66 -29q42 -10 76 -10q51 0 92 18.5t67 48t45 65.5t28 72t14.5 65.5t6.5 48.5l1 18v610q-13 0 -19 2q-56 3 -106 -6q-24 -6 -45 -18q-21 -9 -39 -27q-15 -12 -27 -37q-10 -18 -14 -43q-6 -46 10 -86q13 -35 41 -63q21 -21 49 -33
q27 -10 39 -10q4 -2 10 -2h4h-4h-10q-23 0 -41 6q-29 7 -57 27q-35 27 -56 63q-10 24 -16 47q-8 21 -8 53q0 28 10 58q10 29 29 55q20 27 47 45q31 21 57 31q61 21 127 24h19v262q-16 8 -24.5 22t-9.5 24l-1 10q120 0 202 141h-270q-42 0 -75.5 -15t-51.5 -36.5t-30 -42.5
t-16 -36l-3 -15q0 49 16.5 88t42 62.5t54 48t52.5 45t37.5 53t8.5 73.5q32 -32 80 -32h579q40 0 70.5 12t41.5 24l11 11q0 -18 -8 -35t-18 -31t-19 -47.5t-10 -79.5v-1237zM999 688q35 -13 45 -16v569h-274v-479q18 -3 33 -6q18 -5 106 -35q10 -3 41.5 -15t48.5 -18z" />
    <glyph glyph-name="Atilde" unicode="&#xc3;" horiz-adv-x="1292" 
d="M1141 1642q1 2 8 9h-2q-6 -8 -19 -21q-4 -4 -30.5 -32t-42.5 -42q-7 -7 -21 -14q-18 -12 -43 -12q-36 0 -86 26q-9 4 -27 12.5t-32.5 14t-28.5 8.5q-48 9 -84 -20l-2 -2l-2 -2l-2 -2q4 4 11 10.5t10 9.5q27 30 59 62q39 39 84 34q36 -5 84 -30q5 -2 19.5 -9t22 -10
t19.5 -7t23 -5q44 -9 80 22v0h2zM1237 51q15 -4 27.5 -18t17.5 -25l6 -12q-38 5 -70 -10t-54.5 -42t-45 -60.5t-41 -65.5t-44 -56.5t-52 -34.5t-66.5 1h19q64 12 92 137q18 82 18 207v440q-4 2 -13 6t-13 6q-20 8 -76 37q-68 35 -84 43q-53 27 -88 41v-575q0 -78 -20 -142.5
t-50.5 -106.5t-72.5 -74t-81.5 -48.5t-81.5 -27t-67.5 -13t-44.5 -2.5q-74 0 -133 22q-43 15 -82 43q-6 5 -18.5 15.5t-18.5 15.5q-5 5 -30 35q-19 28 -25 39q-3 6 -18 41q-18 49 -23 82q-4 29 -4 82v4v2v4v4l2 4q0 15 2 21q1 6 3 19.5t3 19.5q17 71 64 127q24 27 45 43
q31 19 49 26q43 20 86 23q25 2 57 2q6 -2 15 -2h4h-4q-9 0 -15 -2q-15 0 -55 -7q-36 -6 -80 -30q-47 -26 -76 -74q-34 -49 -43 -117q0 -5 -1 -16t-1 -16v-17v-4v-6v-8q4 -42 11 -70q17 -78 63 -127q4 -5 13.5 -13.5t11.5 -10.5q10 -10 28 -21q37 -22 66 -29q42 -10 76 -10
q51 0 92 18.5t67 48t45 65.5t28 72t14.5 65.5t6.5 48.5l1 18v610q-13 0 -19 2q-56 3 -106 -6q-24 -6 -45 -18q-21 -9 -39 -27q-15 -12 -27 -37q-10 -18 -14 -43q-6 -46 10 -86q13 -35 41 -63q21 -21 49 -33q27 -10 39 -10q4 -2 10 -2h4h-4h-10q-23 0 -41 6q-29 7 -57 27
q-35 27 -56 63q-10 24 -16 47q-8 21 -8 53q0 28 10 58q10 29 29 55q20 27 47 45q31 21 57 31q61 21 127 24h19v262q-16 8 -24.5 22t-9.5 24l-1 10q120 0 202 141h-270q-42 0 -75.5 -15t-51.5 -36.5t-30 -42.5t-16 -36l-3 -15q0 49 16.5 88t42 62.5t54 48t52.5 45t37.5 53
t8.5 73.5q32 -32 80 -32h579q40 0 70.5 12t41.5 24l11 11q0 -18 -8 -35t-18 -31t-19 -47.5t-10 -79.5v-1237zM999 688q35 -13 45 -16v569h-274v-479q18 -3 33 -6q18 -5 106 -35q10 -3 41.5 -15t48.5 -18z" />
    <glyph glyph-name="Adieresis" unicode="&#xc4;" horiz-adv-x="1292" 
d="M807 1700q38 0 65 -27t27 -65t-27 -65t-65 -27t-65 27t-27 65t27 65t65 27zM995 1700q39 0 67 -27t28 -65t-28 -65t-67 -27q-37 0 -64.5 27t-27.5 65t27.5 65t64.5 27zM1237 51q15 -4 27.5 -18t17.5 -25l6 -12q-38 5 -70 -10t-54.5 -42t-45 -60.5t-41 -65.5t-44 -56.5
t-52 -34.5t-66.5 1h19q64 12 92 137q18 82 18 207v440q-4 2 -13 6t-13 6q-20 8 -76 37q-68 35 -84 43q-53 27 -88 41v-575q0 -78 -20 -142.5t-50.5 -106.5t-72.5 -74t-81.5 -48.5t-81.5 -27t-67.5 -13t-44.5 -2.5q-74 0 -133 22q-43 15 -82 43q-6 5 -18.5 15.5t-18.5 15.5
q-5 5 -30 35q-19 28 -25 39q-3 6 -18 41q-18 49 -23 82q-4 29 -4 82v4v2v4v4l2 4q0 15 2 21q1 6 3 19.5t3 19.5q17 71 64 127q24 27 45 43q31 19 49 26q43 20 86 23q25 2 57 2q6 -2 15 -2h4h-4q-9 0 -15 -2q-15 0 -55 -7q-36 -6 -80 -30q-47 -26 -76 -74q-34 -49 -43 -117
q0 -5 -1 -16t-1 -16v-17v-4v-6v-8q4 -42 11 -70q17 -78 63 -127q4 -5 13.5 -13.5t11.5 -10.5q10 -10 28 -21q37 -22 66 -29q42 -10 76 -10q51 0 92 18.5t67 48t45 65.5t28 72t14.5 65.5t6.5 48.5l1 18v610q-13 0 -19 2q-56 3 -106 -6q-24 -6 -45 -18q-21 -9 -39 -27
q-15 -12 -27 -37q-10 -18 -14 -43q-6 -46 10 -86q13 -35 41 -63q21 -21 49 -33q27 -10 39 -10q4 -2 10 -2h4h-4h-10q-23 0 -41 6q-29 7 -57 27q-35 27 -56 63q-10 24 -16 47q-8 21 -8 53q0 28 10 58q10 29 29 55q20 27 47 45q31 21 57 31q61 21 127 24h19v262
q-16 8 -24.5 22t-9.5 24l-1 10q120 0 202 141h-270q-42 0 -75.5 -15t-51.5 -36.5t-30 -42.5t-16 -36l-3 -15q0 49 16.5 88t42 62.5t54 48t52.5 45t37.5 53t8.5 73.5q32 -32 80 -32h579q40 0 70.5 12t41.5 24l11 11q0 -18 -8 -35t-18 -31t-19 -47.5t-10 -79.5v-1237zM999 688
q35 -13 45 -16v569h-274v-479q18 -3 33 -6q18 -5 106 -35q10 -3 41.5 -15t48.5 -18z" />
    <glyph glyph-name="Aring" unicode="&#xc5;" horiz-adv-x="1292" 
d="M911 1702q38 0 65.5 -27t27.5 -65t-27.5 -65t-65.5 -27t-65 27t-27 65t27 65t65 27zM911 1571q17 0 28 11t11 28q0 16 -11 27.5t-28 11.5t-28 -11.5t-11 -27.5q0 -17 11 -28t28 -11zM1237 51q15 -4 27.5 -18t17.5 -25l6 -12q-38 5 -70 -10t-54.5 -42t-45 -60.5t-41 -65.5
t-44 -56.5t-52 -34.5t-66.5 1h19q64 12 92 137q18 82 18 207v440q-4 2 -13 6t-13 6q-20 8 -76 37q-68 35 -84 43q-53 27 -88 41v-575q0 -78 -20 -142.5t-50.5 -106.5t-72.5 -74t-81.5 -48.5t-81.5 -27t-67.5 -13t-44.5 -2.5q-74 0 -133 22q-43 15 -82 43q-6 5 -18.5 15.5
t-18.5 15.5q-5 5 -30 35q-19 28 -25 39q-3 6 -18 41q-18 49 -23 82q-4 29 -4 82v4v2v4v4l2 4q0 15 2 21q1 6 3 19.5t3 19.5q17 71 64 127q24 27 45 43q31 19 49 26q43 20 86 23q25 2 57 2q6 -2 15 -2h4h-4q-9 0 -15 -2q-15 0 -55 -7q-36 -6 -80 -30q-47 -26 -76 -74
q-34 -49 -43 -117q0 -5 -1 -16t-1 -16v-17v-4v-6v-8q4 -42 11 -70q17 -78 63 -127q4 -5 13.5 -13.5t11.5 -10.5q10 -10 28 -21q37 -22 66 -29q42 -10 76 -10q51 0 92 18.5t67 48t45 65.5t28 72t14.5 65.5t6.5 48.5l1 18v610q-13 0 -19 2q-56 3 -106 -6q-24 -6 -45 -18
q-21 -9 -39 -27q-15 -12 -27 -37q-10 -18 -14 -43q-6 -46 10 -86q13 -35 41 -63q21 -21 49 -33q27 -10 39 -10q4 -2 10 -2h4h-4h-10q-23 0 -41 6q-29 7 -57 27q-35 27 -56 63q-10 24 -16 47q-8 21 -8 53q0 28 10 58q10 29 29 55q20 27 47 45q31 21 57 31q61 21 127 24h19
v262q-16 8 -24.5 22t-9.5 24l-1 10q120 0 202 141h-270q-42 0 -75.5 -15t-51.5 -36.5t-30 -42.5t-16 -36l-3 -15q0 49 16.5 88t42 62.5t54 48t52.5 45t37.5 53t8.5 73.5q32 -32 80 -32h579q40 0 70.5 12t41.5 24l11 11q0 -18 -8 -35t-18 -31t-19 -47.5t-10 -79.5v-1237z
M999 688q35 -13 45 -16v569h-274v-479q18 -3 33 -6q18 -5 106 -35q10 -3 41.5 -15t48.5 -18z" />
    <glyph glyph-name="AE" unicode="&#xc6;" horiz-adv-x="1273" 
d="M1200 119q6 -103 74 -121h-807q68 18 74 121v47v528h-275v-575q6 -103 76 -121h-342q68 18 74 121v1194q-6 103 -74 121h1274q-68 -18 -74 -121v-76q0 -39 27 -63q-32 0 -64 -19.5t-57 -45t-50.5 -50.5t-55.5 -37.5t-62 -3.5q3 0 7.5 0.5t16.5 6.5t21.5 18t17 40t7.5 66
l-2 203h-273v-490h209q24 0 40 8t20 16l4 7q0 -35 -21 -71t-47 -61.5t-47 -60.5t-21 -69q-16 12 -23.5 27.5t-6.5 25.5v10h-35h-72v-616h273q2 190 2 194q0 39 -7 67t-17.5 40.5t-21 19t-17.5 7.5h-7q32 9 62 -3.5t55.5 -38t50.5 -51.5t57 -45.5t64 -19.5q-27 -24 -27 -62
v-67zM266 862h275v490h-275v-490z" />
    <glyph glyph-name="Ccedilla" unicode="&#xc7;" horiz-adv-x="1110" 
d="M1110 242q0 -168 -92 -267.5t-227 -113.5v-15q88 -5 131 -45q32 -29 32 -73q0 -62 -63 -97q-46 -22 -111 -22q-105 0 -159 51l53 68q0 -12 31.5 -24.5t74.5 -12.5q50 0 72 14q20 10 20 23q0 8 -6 14q-14 12 -49 18t-65 4l-43 -2v43v58q-73 8 -139.5 42.5t-120 94
t-85.5 151t-32 203.5v60q0 10 -2 16v604q-15 8 -23 22t-9 24l-1 10q122 0 207 151h-277q-50 0 -89 -14.5t-62 -38t-39 -52t-22 -57t-9 -52t-2 -37.5v-15q-9 71 2 128t34.5 92.5t54 64.5t62 50.5t57 43t40 49.5t10.5 63q32 -32 78 -32h582q39 0 69 12t41 24l10 11
q0 -19 -8.5 -36t-19 -31.5t-19 -51.5t-8.5 -90q15 -4 27.5 -18t17.5 -26l6 -11q-51 7 -92 -23.5t-69 -76.5t-56 -91t-67 -69t-88 -9h21q64 11 90 126q16 67 16 167h-271v-913q0 -239 123 -337q90 -71 208 -41q109 27 178 125q61 87 61 199v21v4v4v10v2q-14 -28 -47 -28
q-23 0 -38.5 15.5t-15.5 37.5t15.5 37.5t38.5 15.5q22 0 36.5 -14.5t16.5 -36.5q1 -4 2 -14t2 -15q0 -1 1 -4t1 -4v-4v-6q2 -6 2 -21q2 -10 2 -32z" />
    <glyph glyph-name="Egrave" unicode="&#xc8;" horiz-adv-x="1110" 
d="M834 1516h-95l-184 253h152zM1108 274q2 -10 2 -32q0 -196 -128 -302q-106 -89 -252 -80q-152 9 -260 118q-138 138 -138 376v60q0 10 -2 16v604q-15 8 -23 22t-9 24l-1 10q122 0 207 151h-277q-50 0 -89 -14.5t-62 -38t-39 -52t-22 -57t-9 -52t-2 -37.5v-15q-9 71 2 128
t34.5 92.5t54 64.5t62 50.5t57 43t40 49.5t10.5 63q32 -32 78 -32h582q39 0 69 12t41 24l10 11q0 -19 -8.5 -36t-19 -31.5t-19 -51.5t-8.5 -90q15 -4 27.5 -18t17.5 -26l6 -11q-51 7 -92 -23.5t-69 -76.5t-56 -91t-67 -69t-88 -9h21q64 11 90 126q16 67 16 167h-271v-379
h238q24 0 39.5 8t19.5 16l4 7q0 -35 -21 -71t-46.5 -61.5t-46.5 -60.5t-21 -69q-16 12 -24.5 27.5t-8.5 25.5v10h-34h-99v-366q0 -239 123 -337q90 -71 208 -41q109 27 178 125q61 87 61 199v21v4v4v10v2q-14 -28 -47 -28q-23 0 -38.5 15.5t-15.5 37.5t15.5 37.5t38.5 15.5
q22 0 36.5 -14.5t16.5 -36.5q1 -4 2 -14t2 -15q0 -1 1 -4t1 -4v-4v-6q2 -6 2 -21z" />
    <glyph glyph-name="Eacute" unicode="&#xc9;" horiz-adv-x="1110" 
d="M522 1516l127 253h152l-183 -253h-96zM1108 274q2 -10 2 -32q0 -196 -128 -302q-106 -89 -252 -80q-152 9 -260 118q-138 138 -138 376v60q0 10 -2 16v604q-15 8 -23 22t-9 24l-1 10q122 0 207 151h-277q-50 0 -89 -14.5t-62 -38t-39 -52t-22 -57t-9 -52t-2 -37.5v-15
q-9 71 2 128t34.5 92.5t54 64.5t62 50.5t57 43t40 49.5t10.5 63q32 -32 78 -32h582q39 0 69 12t41 24l10 11q0 -19 -8.5 -36t-19 -31.5t-19 -51.5t-8.5 -90q15 -4 27.5 -18t17.5 -26l6 -11q-51 7 -92 -23.5t-69 -76.5t-56 -91t-67 -69t-88 -9h21q64 11 90 126q16 67 16 167
h-271v-379h238q24 0 39.5 8t19.5 16l4 7q0 -35 -21 -71t-46.5 -61.5t-46.5 -60.5t-21 -69q-16 12 -24.5 27.5t-8.5 25.5v10h-34h-99v-366q0 -239 123 -337q90 -71 208 -41q109 27 178 125q61 87 61 199v21v4v4v10v2q-14 -28 -47 -28q-23 0 -38.5 15.5t-15.5 37.5t15.5 37.5
t38.5 15.5q22 0 36.5 -14.5t16.5 -36.5q1 -4 2 -14t2 -15q0 -1 1 -4t1 -4v-4v-6q2 -6 2 -21z" />
    <glyph glyph-name="Ecircumflex" unicode="&#xca;" horiz-adv-x="1110" 
d="M408 1516l124 253h154l-184 -253h-94zM844 1769l125 -253h-95l-184 253h154zM1108 274q2 -10 2 -32q0 -196 -128 -302q-106 -89 -252 -80q-152 9 -260 118q-138 138 -138 376v60q0 10 -2 16v604q-15 8 -23 22t-9 24l-1 10q122 0 207 151h-277q-50 0 -89 -14.5t-62 -38
t-39 -52t-22 -57t-9 -52t-2 -37.5v-15q-9 71 2 128t34.5 92.5t54 64.5t62 50.5t57 43t40 49.5t10.5 63q32 -32 78 -32h582q39 0 69 12t41 24l10 11q0 -19 -8.5 -36t-19 -31.5t-19 -51.5t-8.5 -90q15 -4 27.5 -18t17.5 -26l6 -11q-51 7 -92 -23.5t-69 -76.5t-56 -91t-67 -69
t-88 -9h21q64 11 90 126q16 67 16 167h-271v-379h238q24 0 39.5 8t19.5 16l4 7q0 -35 -21 -71t-46.5 -61.5t-46.5 -60.5t-21 -69q-16 12 -24.5 27.5t-8.5 25.5v10h-34h-99v-366q0 -239 123 -337q90 -71 208 -41q109 27 178 125q61 87 61 199v21v4v4v10v2q-14 -28 -47 -28
q-23 0 -38.5 15.5t-15.5 37.5t15.5 37.5t38.5 15.5q22 0 36.5 -14.5t16.5 -36.5q1 -4 2 -14t2 -15q0 -1 1 -4t1 -4v-4v-6q2 -6 2 -21z" />
    <glyph glyph-name="Edieresis" unicode="&#xcb;" horiz-adv-x="1110" 
d="M561 1700q38 0 65 -27t27 -65t-27 -65t-65 -27t-65 27t-27 65t27 65t65 27zM750 1700q38 0 66 -27t28 -65t-28 -65t-66 -27q-37 0 -65 27t-28 65t28 65t65 27zM1108 274q2 -10 2 -32q0 -196 -128 -302q-106 -89 -252 -80q-152 9 -260 118q-138 138 -138 376v60
q0 10 -2 16v604q-15 8 -23 22t-9 24l-1 10q122 0 207 151h-277q-50 0 -89 -14.5t-62 -38t-39 -52t-22 -57t-9 -52t-2 -37.5v-15q-9 71 2 128t34.5 92.5t54 64.5t62 50.5t57 43t40 49.5t10.5 63q32 -32 78 -32h582q39 0 69 12t41 24l10 11q0 -19 -8.5 -36t-19 -31.5
t-19 -51.5t-8.5 -90q15 -4 27.5 -18t17.5 -26l6 -11q-51 7 -92 -23.5t-69 -76.5t-56 -91t-67 -69t-88 -9h21q64 11 90 126q16 67 16 167h-271v-379h238q24 0 39.5 8t19.5 16l4 7q0 -35 -21 -71t-46.5 -61.5t-46.5 -60.5t-21 -69q-16 12 -24.5 27.5t-8.5 25.5v10h-34h-99
v-366q0 -239 123 -337q90 -71 208 -41q109 27 178 125q61 87 61 199v21v4v4v10v2q-14 -28 -47 -28q-23 0 -38.5 15.5t-15.5 37.5t15.5 37.5t38.5 15.5q22 0 36.5 -14.5t16.5 -36.5q1 -4 2 -14t2 -15q0 -1 1 -4t1 -4v-4v-6q2 -6 2 -21z" />
    <glyph glyph-name="Igrave" unicode="&#xcc;" horiz-adv-x="628" 
d="M592 1516h-94l-183 253h152zM264 1466q32 -32 78 -32h287q-31 0 -70 -69t-39 -124v-1190q15 -4 27.5 -18t18.5 -25l5 -12q-51 7 -92 -22.5t-69 -75.5t-56 -90.5t-67 -68.5t-88 -9h19q64 12 92 137q18 83 18 207v979q-16 8 -24.5 21.5t-9.5 23.5l-1 10q114 0 196 133h-262
q-50 0 -89 -14.5t-62 -38t-39 -52t-22 -57t-9 -52t-2 -37.5v-15q-9 71 2 128t34.5 92.5t54 64.5t62 50.5t57 43t40 49.5t10.5 63z" />
    <glyph glyph-name="Iacute" unicode="&#xcd;" horiz-adv-x="628" 
d="M283 1516l125 253h151l-182 -253h-94zM264 1466q32 -32 78 -32h287q-31 0 -70 -69t-39 -124v-1190q15 -4 27.5 -18t18.5 -25l5 -12q-51 7 -92 -22.5t-69 -75.5t-56 -90.5t-67 -68.5t-88 -9h19q64 12 92 137q18 83 18 207v979q-16 8 -24.5 21.5t-9.5 23.5l-1 10
q114 0 196 133h-262q-50 0 -89 -14.5t-62 -38t-39 -52t-22 -57t-9 -52t-2 -37.5v-15q-9 71 2 128t34.5 92.5t54 64.5t62 50.5t57 43t40 49.5t10.5 63z" />
    <glyph glyph-name="Icircumflex" unicode="&#xce;" horiz-adv-x="704" 
d="M143 1516l125 253h154l-184 -253h-95zM580 1769l125 -253h-95l-184 253h154zM264 1466q32 -32 78 -32h287q-31 0 -70 -69t-39 -124v-1190q15 -4 27.5 -18t18.5 -25l5 -12q-51 7 -92 -22.5t-69 -75.5t-56 -90.5t-67 -68.5t-88 -9h19q64 12 92 137q18 83 18 207v979
q-16 8 -24.5 21.5t-9.5 23.5l-1 10q114 0 196 133h-262q-50 0 -89 -14.5t-62 -38t-39 -52t-22 -57t-9 -52t-2 -37.5v-15q-9 71 2 128t34.5 92.5t54 64.5t62 50.5t57 43t40 49.5t10.5 63z" />
    <glyph glyph-name="Idieresis" unicode="&#xcf;" horiz-adv-x="628" 
d="M344 1698q38 0 65 -27t27 -65t-27 -65.5t-65 -27.5t-65 27.5t-27 65.5t27 65t65 27zM532 1698q39 0 67 -27t28 -65t-28.5 -65.5t-66.5 -27.5t-65 27.5t-27 65.5t27 65t65 27zM264 1466q32 -32 78 -32h287q-31 0 -70 -69t-39 -124v-1190q15 -4 27.5 -18t18.5 -25l5 -12
q-51 7 -92 -22.5t-69 -75.5t-56 -90.5t-67 -68.5t-88 -9h19q64 12 92 137q18 83 18 207v979q-16 8 -24.5 21.5t-9.5 23.5l-1 10q114 0 196 133h-262q-50 0 -89 -14.5t-62 -38t-39 -52t-22 -57t-9 -52t-2 -37.5v-15q-9 71 2 128t34.5 92.5t54 64.5t62 50.5t57 43t40 49.5
t10.5 63z" />
    <glyph glyph-name="Ntilde" unicode="&#xd1;" horiz-adv-x="1312" 
d="M1239 51q14 -4 26.5 -18t18.5 -25l6 -12q-44 6 -81 -15t-60.5 -56t-49.5 -74.5t-49.5 -72t-58 -48t-76.5 -2.5h19q64 12 92 137q18 82 18 207v211v2q0 7 -4 77q-3 53 -12 119q-14 112 -22 156q-14 74 -37 180q-24 95 -62 195q-43 113 -92 194q-21 35 -43 66v-1202
q0 -78 -20 -142.5t-50.5 -106.5t-72.5 -74t-81.5 -48.5t-81.5 -27t-67.5 -13t-44.5 -2.5q-74 0 -133 22q-38 12 -84 43q-24 20 -35 31q-15 13 -30 35q-17 20 -25 39q-7 10 -20 41q-15 40 -21 82q-7 48 -4 82v4v2v4v4v4q0 4 1 11t1 10q5 30 8 39q17 71 64 127q16 21 45 43
q30 19 47 26q46 20 88 23q12 2 33 2q22 0 37.5 -16t15.5 -38t-15.5 -37.5t-37.5 -15.5q-23 0 -38 15.5t-15 37.5q0 26 20 43q-39 -7 -78 -30q-50 -27 -78 -74q-36 -59 -41 -117q-1 -5 -2 -16t-2 -16q0 -13 2 -17v-4v-6v-8q4 -42 11 -70q16 -77 61 -127q4 -4 12.5 -12
t12.5 -12t9 -7.5t10.5 -7.5t8.5 -6q35 -21 66 -29q65 -17 141 -4q5 2 16.5 5.5t16.5 5.5q48 18 82 64.5t48 100t21.5 103.5t6.5 83v34v989q-16 8 -24.5 21.5t-9.5 23.5l-1 10q108 0 188 121q-21 26 -57 55q-43 37 -90 60q-46 17 -49 18q-2 1 -6.5 2t-6.5 2t-7 2t-7 2l-6 2
h-6l-6 2l-9 2h-6l-6 2q-8 0 -12 2q-19 0 -27 2q-35 0 -53 -2q-53 -3 -96 -24q-40 -18 -80 -58q-21 -21 -31 -36q-14 -25 -22 -43q-21 -44 -27 -88q-6 -45 0 -86q6 -40 22 -78q23 -44 41 -62q21 -27 47 -43q19 -14 50 -26q38 -14 43 -15q5 -2 11 -3.5t12.5 -2.5t8.5 -2
q4 0 12 -1t9 -1h8h-8h-21q-20 4 -32 6t-45 10q-28 10 -54 25q-29 16 -53 43q-31 27 -47 61q-22 40 -31 82q-9 47 -6 97q3 51 21 100q10 27 24 49q11 21 31 45q6 8 41 43q19 14 49 33q59 30 115 39q9 2 19 3t22.5 1.5t19.5 1.5q6 0 17 -1t16 -1h14q1 0 4 -1t4 -1h9l6 -2h2h2
h4l8 -2h8q2 -1 7.5 -2t7.5 -2q4 0 16 -4q30 -6 59 -19q66 -27 111 -61q46 -33 94 -84q43 -46 78 -96q60 -84 115 -205q5 -14 30 -76v330q0 20 -4.5 42t-22 48t-46.5 33h73h58h80h57h74q-41 -11 -57.5 -47.5t-16.5 -73.5v-1262zM1016 1655q21 8 39 26v-6l-2 -6l-6 -37
q-4 -21 -9 -33q0 -1 -1 -7.5t-1 -8.5h-2q-18 -22 -39 -27q-16 -8 -41 -8q-35 2 -90 29q-74 27 -96 31q-52 6 -100 -25l2 16l6 33l8 37l2 12l2 2q46 30 98 21q20 -2 99 -31q65 -22 90 -24q29 0 41 6z" />
    <glyph glyph-name="Ograve" unicode="&#xd2;" horiz-adv-x="1081" 
d="M909 1556h-94l-182 254h151zM1079 1143q0 -8 2 -10v-732q0 -49 -2 -85t-9 -80.5t-20 -76.5t-36 -64t-54.5 -52t-79 -32.5t-106.5 -12.5h-51q-59 0 -106.5 12.5t-79 32.5t-54.5 52t-36 64t-20 76.5t-9 80.5t-2 85v793q-16 8 -24.5 22t-9.5 24l-1 9q44 0 84 18.5t63 41.5
t50 49.5t43 36.5q-66 16 -168 12q-90 -3 -172 -33q-89 -39 -140 -98q-31 -35 -47 -72q-15 -32 -26 -80q0 -3 -3.5 -19t-3.5 -24q-2 -12 -2 -41v-10v-6v-4q0 -15 2 -21q0 -17 7 -38q11 -44 26 -70q22 -32 47 -51q23 -18 60 -29q28 -9 57 -6q26 0 53 10q23 13 37 27
q12 10 23 28q8 20 8 27q4 12 4 16v5v2v-2v-5v-16q-6 -24 -8 -29q-7 -18 -21 -32q-15 -18 -39 -33q-24 -14 -55 -19q-34 -3 -65 2q-37 6 -72 27q-36 22 -62 55q-28 40 -41 78q-2 7 -6 22.5t-6 22.5q-1 4 -2 11.5t-2 11.5v6v6l-2 2v0v4v6q-2 14 -2 47q0 34 2 50q6 52 23 98
q18 49 49 94q29 42 73 80q43 34 91 59q98 49 204 64q109 12 207 -2q103 -15 191 -60q30 -14 82 -51q35 -26 69 -65q31 -39 49 -76q22 -50 29 -78q2 -7 8 -37q0 -3 1 -9t1 -9zM748 39q50 0 78.5 21t44.5 85t16 183v653q-24 -2 -45.5 9t-31.5 22l-9 12q41 0 62 52
q28 69 -7 149q-52 115 -203 161q-5 -2 -12.5 -8t-20 -39.5t-12.5 -85.5v-6h2v-919q0 -119 16 -182.5t44 -85t78 -21.5z" />
    <glyph glyph-name="Oacute" unicode="&#xd3;" horiz-adv-x="1081" 
d="M666 1556l125 254h151l-182 -254h-94zM1079 1143q0 -8 2 -10v-732q0 -49 -2 -85t-9 -80.5t-20 -76.5t-36 -64t-54.5 -52t-79 -32.5t-106.5 -12.5h-51q-59 0 -106.5 12.5t-79 32.5t-54.5 52t-36 64t-20 76.5t-9 80.5t-2 85v793q-16 8 -24.5 22t-9.5 24l-1 9q44 0 84 18.5
t63 41.5t50 49.5t43 36.5q-66 16 -168 12q-90 -3 -172 -33q-89 -39 -140 -98q-31 -35 -47 -72q-15 -32 -26 -80q0 -3 -3.5 -19t-3.5 -24q-2 -12 -2 -41v-10v-6v-4q0 -15 2 -21q0 -17 7 -38q11 -44 26 -70q22 -32 47 -51q23 -18 60 -29q28 -9 57 -6q26 0 53 10q23 13 37 27
q12 10 23 28q8 20 8 27q4 12 4 16v5v2v-2v-5v-16q-6 -24 -8 -29q-7 -18 -21 -32q-15 -18 -39 -33q-24 -14 -55 -19q-34 -3 -65 2q-37 6 -72 27q-36 22 -62 55q-28 40 -41 78q-2 7 -6 22.5t-6 22.5q-1 4 -2 11.5t-2 11.5v6v6l-2 2v0v4v6q-2 14 -2 47q0 34 2 50q6 52 23 98
q18 49 49 94q29 42 73 80q43 34 91 59q98 49 204 64q109 12 207 -2q103 -15 191 -60q30 -14 82 -51q35 -26 69 -65q31 -39 49 -76q22 -50 29 -78q2 -7 8 -37q0 -3 1 -9t1 -9zM748 39q50 0 78.5 21t44.5 85t16 183v653q-24 -2 -45.5 9t-31.5 22l-9 12q41 0 62 52
q28 69 -7 149q-52 115 -203 161q-5 -2 -12.5 -8t-20 -39.5t-12.5 -85.5v-6h2v-919q0 -119 16 -182.5t44 -85t78 -21.5z" />
    <glyph glyph-name="Ocircumflex" unicode="&#xd4;" horiz-adv-x="1081" 
d="M475 1556l125 254h152l-183 -254h-94zM909 1810l127 -254h-94l-184 254h151zM1079 1143q0 -8 2 -10v-732q0 -49 -2 -85t-9 -80.5t-20 -76.5t-36 -64t-54.5 -52t-79 -32.5t-106.5 -12.5h-51q-59 0 -106.5 12.5t-79 32.5t-54.5 52t-36 64t-20 76.5t-9 80.5t-2 85v793
q-16 8 -24.5 22t-9.5 24l-1 9q44 0 84 18.5t63 41.5t50 49.5t43 36.5q-66 16 -168 12q-90 -3 -172 -33q-89 -39 -140 -98q-31 -35 -47 -72q-15 -32 -26 -80q0 -3 -3.5 -19t-3.5 -24q-2 -12 -2 -41v-10v-6v-4q0 -15 2 -21q0 -17 7 -38q11 -44 26 -70q22 -32 47 -51
q23 -18 60 -29q28 -9 57 -6q26 0 53 10q23 13 37 27q12 10 23 28q8 20 8 27q4 12 4 16v5v2v-2v-5v-16q-6 -24 -8 -29q-7 -18 -21 -32q-15 -18 -39 -33q-24 -14 -55 -19q-34 -3 -65 2q-37 6 -72 27q-36 22 -62 55q-28 40 -41 78q-2 7 -6 22.5t-6 22.5q-1 4 -2 11.5t-2 11.5v6
v6l-2 2v0v4v6q-2 14 -2 47q0 34 2 50q6 52 23 98q18 49 49 94q29 42 73 80q43 34 91 59q98 49 204 64q109 12 207 -2q103 -15 191 -60q30 -14 82 -51q35 -26 69 -65q31 -39 49 -76q22 -50 29 -78q2 -7 8 -37q0 -3 1 -9t1 -9zM748 39q50 0 78.5 21t44.5 85t16 183v653
q-24 -2 -45.5 9t-31.5 22l-9 12q41 0 62 52q28 69 -7 149q-52 115 -203 161q-5 -2 -12.5 -8t-20 -39.5t-12.5 -85.5v-6h2v-919q0 -119 16 -182.5t44 -85t78 -21.5z" />
    <glyph glyph-name="Otilde" unicode="&#xd5;" horiz-adv-x="1081" 
d="M1079 1143q0 -8 2 -10v-732q0 -49 -2 -85t-9 -80.5t-20 -76.5t-36 -64t-54.5 -52t-79 -32.5t-106.5 -12.5h-51q-59 0 -106.5 12.5t-79 32.5t-54.5 52t-36 64t-20 76.5t-9 80.5t-2 85v793q-16 8 -24.5 22t-9.5 24l-1 9q44 0 84 18.5t63 41.5t50 49.5t43 36.5
q-66 16 -168 12q-90 -3 -172 -33q-89 -39 -140 -98q-31 -35 -47 -72q-15 -32 -26 -80q0 -3 -3.5 -19t-3.5 -24q-2 -12 -2 -41v-10v-6v-4q0 -15 2 -21q0 -17 7 -38q11 -44 26 -70q22 -32 47 -51q23 -18 60 -29q28 -9 57 -6q26 0 53 10q23 13 37 27q12 10 23 28q8 20 8 27
q4 12 4 16v5v2v-2v-5v-16q-6 -24 -8 -29q-7 -18 -21 -32q-15 -18 -39 -33q-24 -14 -55 -19q-34 -3 -65 2q-37 6 -72 27q-36 22 -62 55q-28 40 -41 78q-2 7 -6 22.5t-6 22.5q-1 4 -2 11.5t-2 11.5v6v6l-2 2v0v4v6q-2 14 -2 47q0 34 2 50q6 52 23 98q18 49 49 94q29 42 73 80
q43 34 91 59q98 49 204 64q109 12 207 -2q103 -15 191 -60q30 -14 82 -51q35 -26 69 -65q31 -39 49 -76q22 -50 29 -78q2 -7 8 -37q0 -3 1 -9t1 -9zM748 39q50 0 78.5 21t44.5 85t16 183v653q-24 -2 -45.5 9t-31.5 22l-9 12q41 0 62 52q28 69 -7 149q-52 115 -203 161
q-5 -2 -12.5 -8t-20 -39.5t-12.5 -85.5v-6h2v-919q0 -119 16 -182.5t44 -85t78 -21.5zM838 1710q19 7 39 27v-6l-3 -7l-6 -36q-5 -26 -8 -33q0 -1 -1 -8t-1 -9h-2q-17 -21 -39 -26q-16 -8 -41 -8q-37 2 -90 28q-74 27 -96 31q-53 6 -101 -25l3 17l6 33l8 36l2 13l2 2
q45 29 98 20q24 -3 99 -30q68 -24 90 -25q29 0 41 6z" />
    <glyph glyph-name="Odieresis" unicode="&#xd6;" horiz-adv-x="1081" 
d="M647 1755q38 0 65 -27t27 -65t-27 -65t-65 -27t-65 27t-27 65t27 65t65 27zM838 1755q38 0 65 -27t27 -65t-27 -65t-65 -27q-39 0 -67 27t-28 65t28 65t67 27zM1079 1143q0 -8 2 -10v-732q0 -49 -2 -85t-9 -80.5t-20 -76.5t-36 -64t-54.5 -52t-79 -32.5t-106.5 -12.5h-51
q-59 0 -106.5 12.5t-79 32.5t-54.5 52t-36 64t-20 76.5t-9 80.5t-2 85v793q-16 8 -24.5 22t-9.5 24l-1 9q44 0 84 18.5t63 41.5t50 49.5t43 36.5q-66 16 -168 12q-90 -3 -172 -33q-89 -39 -140 -98q-31 -35 -47 -72q-15 -32 -26 -80q0 -3 -3.5 -19t-3.5 -24q-2 -12 -2 -41
v-10v-6v-4q0 -15 2 -21q0 -17 7 -38q11 -44 26 -70q22 -32 47 -51q23 -18 60 -29q28 -9 57 -6q26 0 53 10q23 13 37 27q12 10 23 28q8 20 8 27q4 12 4 16v5v2v-2v-5v-16q-6 -24 -8 -29q-7 -18 -21 -32q-15 -18 -39 -33q-24 -14 -55 -19q-34 -3 -65 2q-37 6 -72 27
q-36 22 -62 55q-28 40 -41 78q-2 7 -6 22.5t-6 22.5q-1 4 -2 11.5t-2 11.5v6v6l-2 2v0v4v6q-2 14 -2 47q0 34 2 50q6 52 23 98q18 49 49 94q29 42 73 80q43 34 91 59q98 49 204 64q109 12 207 -2q103 -15 191 -60q30 -14 82 -51q35 -26 69 -65q31 -39 49 -76q22 -50 29 -78
q2 -7 8 -37q0 -3 1 -9t1 -9zM748 39q50 0 78.5 21t44.5 85t16 183v653q-24 -2 -45.5 9t-31.5 22l-9 12q41 0 62 52q28 69 -7 149q-52 115 -203 161q-5 -2 -12.5 -8t-20 -39.5t-12.5 -85.5v-6h2v-919q0 -119 16 -182.5t44 -85t78 -21.5z" />
    <glyph glyph-name="Oslash" unicode="&#xd8;" horiz-adv-x="808" 
d="M733 119q6 -103 76 -121h-576l-32 -104l-109 -17l37 121h-129q40 11 57 48t17 73v1194q0 36 -17 73t-57 48h569l25 82l108 14l-28 -96h135q-70 -18 -76 -121v-1194zM268 1352v-906l273 891v15h-273zM268 78h273v923l-273 -890v-33z" />
    <glyph glyph-name="Ugrave" unicode="&#xd9;" horiz-adv-x="1062" 
d="M809 1520h-94l-185 254h154zM721 1434h342q-41 -11 -57.5 -47.5t-16.5 -73.5l-2 -1020q0 -5 0.5 -16.5t0.5 -23.5t-1 -24v-55v-6v-2v-2v0v-2v-4q-2 -4 -2 -15v-4v-2v-2q0 -6 -2 -10v-19q-8 -50 -14 -79q-14 -47 -29 -86q-15 -37 -49 -86q-3 -6 -8 -11q-1 -2 -3 -5t-3 -5
q-3 -3 -9.5 -10t-9.5 -10q-1 -2 -4 -5.5t-4 -5.5l-10 -10q-1 -1 -4.5 -4t-4.5 -4l-10 -10q-89 -79 -198 -105q-40 -8 -60 -10q-18 -2 -57 -2q-22 0 -62 4q-30 3 -59 12q-39 13 -57 21l-6 4q-1 1 -3.5 2t-3.5 2l-8 4q-1 0 -3 1t-3 1l-14 8l-13 9q-58 41 -88 90q-17 23 -30 55
q-13 39 -17 59q-6 30 -6 60v14v4v2v2v8v7v4v4q2 4 2 14q6 56 35 113q5 9 35 49q19 22 43 37q41 30 82 41v755q-16 8 -24.5 22t-9.5 24l-1 10q68 0 119.5 42.5t83.5 98.5h-271q-50 0 -89 -14.5t-62 -38t-39 -52t-22 -57t-9 -52t-2 -37.5v-15q-9 71 1.5 128t34 92.5t54 64.5
t62 50.5t57 43t39.5 49.5t10 63q32 -32 80 -32h254q-3 -2 -8 -6.5t-18 -21.5t-22.5 -37.5t-17.5 -55.5t-8 -74v-956q10 -3 23 -9q38 -16 73 -51q15 -15 27 -33q11 -13 21 -34q12 -31 16 -72q3 -33 -4 -64q-5 -27 -19 -51q-1 -1 -2 -3t-2 -3q-15 -29 -47 -29q-22 0 -37.5 16
t-15.5 38t15.5 37.5t37.5 15.5q21 0 36 -13t18 -34q1 5 3 14.5t3 14.5q3 28 0 59q-6 35 -21 65q-14 24 -20 31q-6 10 -27 27q-28 25 -68 41q-34 13 -83 16q-54 0 -91 -12q-39 -11 -79 -43q-39 -30 -56 -72q-19 -47 -22 -92v-12v-2v-4v-7v-6v-2v-4l2 -12q4 -34 8 -47
q5 -18 16 -45q6 -10 25 -39q31 -39 70 -62l10 -6l12 -4q0 -2 4 -2l6 -2l4 -4l7 -2q7 -2 22.5 -6t22.5 -6q4 -1 21 -4t26 -3q23 -3 45 0q19 0 47 7q16 2 43 10q21 6 41 16q26 14 48 34.5t38 42t28.5 51t20.5 53.5t13.5 58.5t8.5 56.5t4 57.5t1.5 51.5t0 48t-0.5 39v1024
q0 20 -4.5 42t-22.5 48t-47 33z" />
    <glyph glyph-name="Uacute" unicode="&#xda;" horiz-adv-x="1062" 
d="M543 1520l125 254h151l-182 -254h-94zM721 1434h342q-41 -11 -57.5 -47.5t-16.5 -73.5l-2 -1020q0 -5 0.5 -16.5t0.5 -23.5t-1 -24v-55v-6v-2v-2v0v-2v-4q-2 -4 -2 -15v-4v-2v-2q0 -6 -2 -10v-19q-8 -50 -14 -79q-14 -47 -29 -86q-15 -37 -49 -86q-3 -6 -8 -11
q-1 -2 -3 -5t-3 -5q-3 -3 -9.5 -10t-9.5 -10q-1 -2 -4 -5.5t-4 -5.5l-10 -10q-1 -1 -4.5 -4t-4.5 -4l-10 -10q-89 -79 -198 -105q-40 -8 -60 -10q-18 -2 -57 -2q-22 0 -62 4q-30 3 -59 12q-39 13 -57 21l-6 4q-1 1 -3.5 2t-3.5 2l-8 4q-1 0 -3 1t-3 1l-14 8l-13 9
q-58 41 -88 90q-17 23 -30 55q-13 39 -17 59q-6 30 -6 60v14v4v2v2v8v7v4v4q2 4 2 14q6 56 35 113q5 9 35 49q19 22 43 37q41 30 82 41v755q-16 8 -24.5 22t-9.5 24l-1 10q68 0 119.5 42.5t83.5 98.5h-271q-50 0 -89 -14.5t-62 -38t-39 -52t-22 -57t-9 -52t-2 -37.5v-15
q-9 71 1.5 128t34 92.5t54 64.5t62 50.5t57 43t39.5 49.5t10 63q32 -32 80 -32h254q-3 -2 -8 -6.5t-18 -21.5t-22.5 -37.5t-17.5 -55.5t-8 -74v-956q10 -3 23 -9q38 -16 73 -51q15 -15 27 -33q11 -13 21 -34q12 -31 16 -72q3 -33 -4 -64q-5 -27 -19 -51q-1 -1 -2 -3t-2 -3
q-15 -29 -47 -29q-22 0 -37.5 16t-15.5 38t15.5 37.5t37.5 15.5q21 0 36 -13t18 -34q1 5 3 14.5t3 14.5q3 28 0 59q-6 35 -21 65q-14 24 -20 31q-6 10 -27 27q-28 25 -68 41q-34 13 -83 16q-54 0 -91 -12q-39 -11 -79 -43q-39 -30 -56 -72q-19 -47 -22 -92v-12v-2v-4v-7v-6
v-2v-4l2 -12q4 -34 8 -47q5 -18 16 -45q6 -10 25 -39q31 -39 70 -62l10 -6l12 -4q0 -2 4 -2l6 -2l4 -4l7 -2q7 -2 22.5 -6t22.5 -6q4 -1 21 -4t26 -3q23 -3 45 0q19 0 47 7q16 2 43 10q21 6 41 16q26 14 48 34.5t38 42t28.5 51t20.5 53.5t13.5 58.5t8.5 56.5t4 57.5
t1.5 51.5t0 48t-0.5 39v1024q0 20 -4.5 42t-22.5 48t-47 33z" />
    <glyph glyph-name="Ucircumflex" unicode="&#xdb;" horiz-adv-x="1062" 
d="M383 1520l125 254h151l-182 -254h-94zM817 1774l127 -254h-94l-184 254h151zM721 1434h342q-41 -11 -57.5 -47.5t-16.5 -73.5l-2 -1020q0 -5 0.5 -16.5t0.5 -23.5t-1 -24v-55v-6v-2v-2v0v-2v-4q-2 -4 -2 -15v-4v-2v-2q0 -6 -2 -10v-19q-8 -50 -14 -79q-14 -47 -29 -86
q-15 -37 -49 -86q-3 -6 -8 -11q-1 -2 -3 -5t-3 -5q-3 -3 -9.5 -10t-9.5 -10q-1 -2 -4 -5.5t-4 -5.5l-10 -10q-1 -1 -4.5 -4t-4.5 -4l-10 -10q-89 -79 -198 -105q-40 -8 -60 -10q-18 -2 -57 -2q-22 0 -62 4q-30 3 -59 12q-39 13 -57 21l-6 4q-1 1 -3.5 2t-3.5 2l-8 4
q-1 0 -3 1t-3 1l-14 8l-13 9q-58 41 -88 90q-17 23 -30 55q-13 39 -17 59q-6 30 -6 60v14v4v2v2v8v7v4v4q2 4 2 14q6 56 35 113q5 9 35 49q19 22 43 37q41 30 82 41v755q-16 8 -24.5 22t-9.5 24l-1 10q68 0 119.5 42.5t83.5 98.5h-271q-50 0 -89 -14.5t-62 -38t-39 -52
t-22 -57t-9 -52t-2 -37.5v-15q-9 71 1.5 128t34 92.5t54 64.5t62 50.5t57 43t39.5 49.5t10 63q32 -32 80 -32h254q-3 -2 -8 -6.5t-18 -21.5t-22.5 -37.5t-17.5 -55.5t-8 -74v-956q10 -3 23 -9q38 -16 73 -51q15 -15 27 -33q11 -13 21 -34q12 -31 16 -72q3 -33 -4 -64
q-5 -27 -19 -51q-1 -1 -2 -3t-2 -3q-15 -29 -47 -29q-22 0 -37.5 16t-15.5 38t15.5 37.5t37.5 15.5q21 0 36 -13t18 -34q1 5 3 14.5t3 14.5q3 28 0 59q-6 35 -21 65q-14 24 -20 31q-6 10 -27 27q-28 25 -68 41q-34 13 -83 16q-54 0 -91 -12q-39 -11 -79 -43q-39 -30 -56 -72
q-19 -47 -22 -92v-12v-2v-4v-7v-6v-2v-4l2 -12q4 -34 8 -47q5 -18 16 -45q6 -10 25 -39q31 -39 70 -62l10 -6l12 -4q0 -2 4 -2l6 -2l4 -4l7 -2q7 -2 22.5 -6t22.5 -6q4 -1 21 -4t26 -3q23 -3 45 0q19 0 47 7q16 2 43 10q21 6 41 16q26 14 48 34.5t38 42t28.5 51t20.5 53.5
t13.5 58.5t8.5 56.5t4 57.5t1.5 51.5t0 48t-0.5 39v1024q0 20 -4.5 42t-22.5 48t-47 33z" />
    <glyph glyph-name="Udieresis" unicode="&#xdc;" horiz-adv-x="1062" 
d="M561 1702q38 0 65 -27.5t27 -64.5q0 -38 -27 -66t-65 -28t-65 28t-27 66q0 37 27 64.5t65 27.5zM752 1702q38 0 65 -27.5t27 -64.5q0 -38 -27 -66t-65 -28t-65.5 28t-27.5 66q0 37 27.5 64.5t65.5 27.5zM721 1434h342q-41 -11 -57.5 -47.5t-16.5 -73.5l-2 -1020
q0 -5 0.5 -16.5t0.5 -23.5t-1 -24v-55v-6v-2v-2v0v-2v-4q-2 -4 -2 -15v-4v-2v-2q0 -6 -2 -10v-19q-8 -50 -14 -79q-14 -47 -29 -86q-15 -37 -49 -86q-3 -6 -8 -11q-1 -2 -3 -5t-3 -5q-3 -3 -9.5 -10t-9.5 -10q-1 -2 -4 -5.5t-4 -5.5l-10 -10q-1 -1 -4.5 -4t-4.5 -4l-10 -10
q-89 -79 -198 -105q-40 -8 -60 -10q-18 -2 -57 -2q-22 0 -62 4q-30 3 -59 12q-39 13 -57 21l-6 4q-1 1 -3.5 2t-3.5 2l-8 4q-1 0 -3 1t-3 1l-14 8l-13 9q-58 41 -88 90q-17 23 -30 55q-13 39 -17 59q-6 30 -6 60v14v4v2v2v8v7v4v4q2 4 2 14q6 56 35 113q5 9 35 49
q19 22 43 37q41 30 82 41v755q-16 8 -24.5 22t-9.5 24l-1 10q68 0 119.5 42.5t83.5 98.5h-271q-50 0 -89 -14.5t-62 -38t-39 -52t-22 -57t-9 -52t-2 -37.5v-15q-9 71 1.5 128t34 92.5t54 64.5t62 50.5t57 43t39.5 49.5t10 63q32 -32 80 -32h254q-3 -2 -8 -6.5t-18 -21.5
t-22.5 -37.5t-17.5 -55.5t-8 -74v-956q10 -3 23 -9q38 -16 73 -51q15 -15 27 -33q11 -13 21 -34q12 -31 16 -72q3 -33 -4 -64q-5 -27 -19 -51q-1 -1 -2 -3t-2 -3q-15 -29 -47 -29q-22 0 -37.5 16t-15.5 38t15.5 37.5t37.5 15.5q21 0 36 -13t18 -34q1 5 3 14.5t3 14.5
q3 28 0 59q-6 35 -21 65q-14 24 -20 31q-6 10 -27 27q-28 25 -68 41q-34 13 -83 16q-54 0 -91 -12q-39 -11 -79 -43q-39 -30 -56 -72q-19 -47 -22 -92v-12v-2v-4v-7v-6v-2v-4l2 -12q4 -34 8 -47q5 -18 16 -45q6 -10 25 -39q31 -39 70 -62l10 -6l12 -4q0 -2 4 -2l6 -2l4 -4
l7 -2q7 -2 22.5 -6t22.5 -6q4 -1 21 -4t26 -3q23 -3 45 0q19 0 47 7q16 2 43 10q21 6 41 16q26 14 48 34.5t38 42t28.5 51t20.5 53.5t13.5 58.5t8.5 56.5t4 57.5t1.5 51.5t0 48t-0.5 39v1024q0 20 -4.5 42t-22.5 48t-47 33z" />
    <glyph glyph-name="Yacute" unicode="&#xdd;" horiz-adv-x="1062" 
d="M530 1520l127 254h152l-182 -254h-97zM721 1434h342q-40 -11 -57 -48t-17 -73v-1084q0 -7 -1 -26t-1 -29v-6v-2v-2v0v-2v-4q0 -2 -1 -7.5t-1 -7.5v-4v-2v-2v-10q-2 -6 -2 -19q-8 -50 -14 -79q-14 -47 -29 -86q-15 -37 -49 -86q-1 -2 -3 -5.5t-3 -5.5q-6 -6 -8 -10
q-11 -11 -17 -20q-2 -2 -5 -5.5t-5 -5.5q-6 -6 -8 -10q-6 -3 -11 -8l-10 -10q-89 -79 -198 -105q-32 -7 -58 -10q-20 -2 -59 -2q-24 0 -60 4q-33 3 -59 12q-30 9 -57 21l-8 4q-1 1 -3.5 2t-3.5 2l-8 4q-1 0 -3 1t-3 1l-14 8l-13 9q-58 41 -88 90q-19 26 -28 55
q-13 29 -19 59t-6 60v14v4v2v2v8v7v4v4q2 4 2 14q10 66 37 113q5 12 33 49q19 22 43 37q49 36 100 45q53 12 103 6q39 -2 94 -25q38 -16 73 -51q21 -21 29 -33q12 -20 19 -34q16 -40 16 -72q4 -41 -4 -64q-5 -27 -19 -51q-10 -18 -24 -35q-1 -1 -3.5 -4t-4.5 -5t-4 -3
q-14 -14 -37 -14t-38.5 15t-15.5 38q0 22 15.5 37.5t38.5 15.5q22 0 37.5 -15.5t15.5 -37.5q0 -8 -4 -20q12 20 18 32q13 30 15 50q6 28 0 59q-3 35 -21 65q-3 5 -9 15.5t-9 15.5l-27 27q-35 28 -70 41q-34 13 -83 16q-54 0 -89 -12q-40 -10 -81 -43q-34 -27 -56 -72
q-17 -41 -20 -92q0 -8 -2 -12v-2v-4v-7v-6h2v-2v-4v-12q4 -34 8 -47q5 -18 16 -45q12 -21 27 -39q26 -36 70 -62l10 -6l10 -4q2 -2 4 -2l6 -2q1 -1 3 -2t3 -2l5 -2q7 -2 22.5 -6t22.5 -6q4 -1 21 -4t26 -3q23 -3 47 0q20 0 45 7q16 2 43 10q21 6 41 16q26 14 48 34.5t38 42
t28.5 51t20.5 53.5t13.5 58.5t8.5 56.5t4 57.5t1.5 51.5t0 48t-0.5 39v61q0 54 -22.5 100.5t-59.5 78t-84.5 56.5t-98.5 35t-100.5 13t-89.5 -8q-78 -23 -96 -91q-1 5 -1.5 14.5t2.5 35.5t10.5 50t26.5 52t48 47v313q-16 8 -24.5 22t-9.5 24l-1 10q68 0 119.5 42.5
t83.5 98.5h-271q-50 0 -89 -14.5t-62 -38t-39 -52t-22 -57t-9 -52t-2 -37.5v-15q-9 71 1.5 128t34 92.5t54 64.5t62 50.5t57 43t39.5 49.5t10 63q32 -32 80 -32h254q-3 -2 -8 -6.5t-18 -21.5t-22.5 -37.5t-17.5 -55.5t-8 -74v-467q178 -41 273 -160v6v693q0 14 -2.5 29.5
t-9.5 36t-23 36t-39 21.5z" />
    <glyph glyph-name="germandbls" unicode="&#xdf;" horiz-adv-x="733" 
d="M659 119q6 -103 74 -121h-475v80h209v536q0 82 -42.5 122t-94.5 40h-74v166h74q52 0 94.5 37t42.5 106v267h-213q-38 0 -49.5 -15t-11.5 -45v-1294h-193v1264q0 40 6 67.5t23 53t52.5 38.5t90.5 13h561q-68 -18 -74 -121v-236q0 -78 -19 -124.5t-58 -80.5q39 -34 58 -81
t19 -123v-549z" />
    <glyph glyph-name="agrave" unicode="&#xe0;" 
d="M621 119q6 -103 73 -121h-694q40 11 57 48t17 73v213q0 56 9 93t31.5 60t42.5 34.5t60 27.5l211 90v305h-160v-139q0 -34 7 -57.5t17 -33t20 -14.5t17 -4h7q-25 -15 -51 -11t-46 19t-43.5 36.5t-44 41t-48 33.5t-54.5 14q25 25 25 62v14q0 36 -17 73t-57 48h694
q-67 -18 -73 -121v-784zM428 78v377v100l-78 -33q-44 -17 -63 -41.5t-19 -83.5v-319h160zM487 1077h-96l-182 254h151z" />
    <glyph glyph-name="aacute" unicode="&#xe1;" 
d="M621 119q6 -103 73 -121h-694q40 11 57 48t17 73v213q0 56 9 93t31.5 60t42.5 34.5t60 27.5l211 90v305h-160v-139q0 -34 7 -57.5t17 -33t20 -14.5t17 -4h7q-25 -15 -51 -11t-46 19t-43.5 36.5t-44 41t-48 33.5t-54.5 14q25 25 25 62v14q0 36 -17 73t-57 48h694
q-67 -18 -73 -121v-784zM428 78v377v100l-78 -33q-44 -17 -63 -41.5t-19 -83.5v-319h160zM209 1077l125 254h153l-184 -254h-94z" />
    <glyph glyph-name="acircumflex" unicode="&#xe2;" 
d="M621 119q6 -103 73 -121h-694q40 11 57 48t17 73v213q0 56 9 93t31.5 60t42.5 34.5t60 27.5l211 90v305h-160v-139q0 -34 7 -57.5t17 -33t20 -14.5t17 -4h7q-25 -15 -51 -11t-46 19t-43.5 36.5t-44 41t-48 33.5t-54.5 14q25 25 25 62v14q0 36 -17 73t-57 48h694
q-67 -18 -73 -121v-784zM428 78v377v100l-78 -33q-44 -17 -63 -41.5t-19 -83.5v-319h160zM551 1077h-96l-107 150l-108 -150h-95l125 254h154z" />
    <glyph glyph-name="atilde" unicode="&#xe3;" 
d="M621 119q6 -103 73 -121h-694q40 11 57 48t17 73v213q0 56 9 93t31.5 60t42.5 34.5t60 27.5l211 90v305h-160v-139q0 -34 7 -57.5t17 -33t20 -14.5t17 -4h7q-25 -15 -51 -11t-46 19t-43.5 36.5t-44 41t-48 33.5t-54.5 14q25 25 25 62v14q0 36 -17 73t-57 48h694
q-67 -18 -73 -121v-784zM428 78v377v100l-78 -33q-44 -17 -63 -41.5t-19 -83.5v-319h160zM518 1190q19 7 39 27v-7l-2 -6l-6 -37q-5 -24 -8 -32q0 -1 -1 -8t-1 -9h-2q-17 -21 -39 -26q-18 -9 -41 -9q-35 2 -90 29q-73 27 -97 31q-52 6 -100 -25l2 17l6 32q4 22 8 37l2 13
l2 2q45 29 99 20q16 -2 30.5 -6t38.5 -13.5t29 -11.5q65 -22 90 -24q29 0 41 6z" />
    <glyph glyph-name="adieresis" unicode="&#xe4;" 
d="M621 119q6 -103 73 -121h-694q40 11 57 48t17 73v213q0 56 9 93t31.5 60t42.5 34.5t60 27.5l211 90v305h-160v-139q0 -34 7 -57.5t17 -33t20 -14.5t17 -4h7q-25 -15 -51 -11t-46 19t-43.5 36.5t-44 41t-48 33.5t-54.5 14q25 25 25 62v14q0 36 -17 73t-57 48h694
q-67 -18 -73 -121v-784zM428 78v377v100l-78 -33q-44 -17 -63 -41.5t-19 -83.5v-319h160zM252 1262q38 0 66 -27.5t28 -65.5t-28 -65t-66 -27t-65 27t-27 65t27 65.5t65 27.5zM442 1262q38 0 65.5 -27.5t27.5 -65.5t-27.5 -65t-65.5 -27t-65 27t-27 65t27 65.5t65 27.5z" />
    <glyph glyph-name="aring" unicode="&#xe5;" 
d="M621 119q6 -103 73 -121h-694q40 11 57 48t17 73v213q0 56 9 93t31.5 60t42.5 34.5t60 27.5l211 90v305h-160v-139q0 -34 7 -57.5t17 -33t20 -14.5t17 -4h7q-25 -15 -51 -11t-46 19t-43.5 36.5t-44 41t-48 33.5t-54.5 14q25 25 25 62v14q0 36 -17 73t-57 48h694
q-67 -18 -73 -121v-784zM428 78v377v100l-78 -33q-44 -17 -63 -41.5t-19 -83.5v-319h160zM346 1264q38 0 65 -27.5t27 -65.5t-27 -65t-65 -27t-65 27t-27 65t27 65.5t65 27.5zM346 1133q17 0 28 10.5t11 27.5q0 16 -11 27.5t-28 11.5t-28 -11.5t-11 -27.5q0 -17 11 -27.5
t28 -10.5z" />
    <glyph glyph-name="ae" unicode="&#xe6;" horiz-adv-x="1048" 
d="M975 119q0 -21 4.5 -43t22.5 -46.5t47 -31.5h-1049q40 11 57 48t17 73v213q0 56 9 93t31.5 60t42.5 34.5t60 27.5l211 90v305h-160v-139q0 -34 7 -57.5t17 -33t20 -14.5t17 -4h7q-25 -15 -51 -11t-46 19t-43.5 36.5t-44 41t-48 33.5t-54.5 14q25 25 25 62v14q0 36 -17 73
t-57 48h1049q-41 -11 -57.5 -47.5t-16.5 -73.5v-215q0 -56 -9 -92.5t-32.5 -60t-42 -34t-60.5 -28.5l-210 -88v-307h159v141q0 34 -7 57.5t-17 33t-19.5 14.5t-16.5 4h-7q35 21 74 3t66 -48t67.5 -59t78.5 -29q-24 -24 -24 -64v-12zM621 942v-477l77 33q23 11 34 17.5
t24.5 20.5t18.5 35t5 52v319h-159zM428 455v100l-78 -33q-44 -17 -63 -41.5t-19 -83.5v-319h160v377z" />
    <glyph glyph-name="ccedilla" unicode="&#xe7;" 
d="M694 -2h-305v-55q90 -5 131 -43q33 -33 33 -74q0 -65 -64 -96q-45 -25 -110 -25q-104 0 -160 53l53 68q0 -13 32 -26t75 -13q44 0 72 14q20 10 20 25q0 8 -6 14q-14 12 -49.5 18.5t-65.5 4.5l-43 -4v45v94h-307q40 11 57 48t17 73v784q0 34 -17 72t-57 49h694
q-66 -17 -73 -121v-14q0 -36 26 -62q-33 0 -61.5 -17.5t-50 -42t-42.5 -48.5t-47.5 -38.5t-56.5 -10.5q4 2 10.5 7.5t17.5 39t11 86.5v139h-160v-864h160v141q0 44 -9 77t-17 44l-9 10q32 3 59 -12t47 -38.5l40 -47t47.5 -40.5t60.5 -17q-26 -26 -26 -64v-12q6 -103 73 -121
z" />
    <glyph glyph-name="egrave" unicode="&#xe8;" 
d="M487 1077h-96l-182 254h151zM74 903q-6 103 -74 121h694q-67 -18 -73 -121v-215q0 -45 -7.5 -78t-17 -53t-31.5 -37t-38 -25t-50 -22l-209 -88v-307h160v141q0 34 -7 57.5t-17 33t-20 14.5t-17 4h-7q24 14 49.5 10t45.5 -19t43.5 -36t44.5 -40.5t49 -33.5t55 -14
q-26 -26 -26 -64v-12q6 -103 73 -121h-694q68 18 74 121v784zM268 942v-477l76 33q24 11 35.5 18t25 20.5t18.5 34.5t5 52v319h-160z" />
    <glyph glyph-name="eacute" unicode="&#xe9;" 
d="M205 1077l125 254h153l-184 -254h-94zM74 903q-6 103 -74 121h694q-67 -18 -73 -121v-215q0 -45 -7.5 -78t-17 -53t-31.5 -37t-38 -25t-50 -22l-209 -88v-307h160v141q0 34 -7 57.5t-17 33t-20 14.5t-17 4h-7q24 14 49.5 10t45.5 -19t43.5 -36t44.5 -40.5t49 -33.5
t55 -14q-26 -26 -26 -64v-12q6 -103 73 -121h-694q68 18 74 121v784zM268 942v-477l76 33q24 11 35.5 18t25 20.5t18.5 34.5t5 52v319h-160z" />
    <glyph glyph-name="ecircumflex" unicode="&#xea;" 
d="M551 1077h-96l-107 150l-108 -150h-95l125 254h154zM74 903q-6 103 -74 121h694q-67 -18 -73 -121v-215q0 -45 -7.5 -78t-17 -53t-31.5 -37t-38 -25t-50 -22l-209 -88v-307h160v141q0 34 -7 57.5t-17 33t-20 14.5t-17 4h-7q24 14 49.5 10t45.5 -19t43.5 -36t44.5 -40.5
t49 -33.5t55 -14q-26 -26 -26 -64v-12q6 -103 73 -121h-694q68 18 74 121v784zM268 942v-477l76 33q24 11 35.5 18t25 20.5t18.5 34.5t5 52v319h-160z" />
    <glyph glyph-name="edieresis" unicode="&#xeb;" 
d="M252 1262q38 0 65 -27.5t27 -65.5t-27 -65t-65 -27t-65 27t-27 65t27 65.5t65 27.5zM442 1262q38 0 65.5 -27.5t27.5 -65.5t-27.5 -65t-65.5 -27t-65 27t-27 65t27 65.5t65 27.5zM74 903q-6 103 -74 121h694q-67 -18 -73 -121v-215q0 -45 -7.5 -78t-17 -53t-31.5 -37
t-38 -25t-50 -22l-209 -88v-307h160v141q0 34 -7 57.5t-17 33t-20 14.5t-17 4h-7q24 14 49.5 10t45.5 -19t43.5 -36t44.5 -40.5t49 -33.5t55 -14q-26 -26 -26 -64v-12q6 -103 73 -121h-694q68 18 74 121v784zM268 942v-477l76 33q24 11 35.5 18t25 20.5t18.5 34.5t5 52v319
h-160z" />
    <glyph glyph-name="igrave" unicode="&#xec;" horiz-adv-x="342" 
d="M311 1077h-94l-184 254h151zM268 119q6 -103 74 -121h-342q69 17 76 123v657q-16 8 -24.5 22t-9.5 24l-1 10q43 0 82.5 19.5t64.5 47.5t44 56t28 47l8 20v-905z" />
    <glyph glyph-name="iacute" unicode="&#xed;" horiz-adv-x="342" 
d="M33 1077l125 254h153l-184 -254h-94zM268 119q6 -103 74 -121h-342q69 17 76 123v657q-16 8 -24.5 22t-9.5 24l-1 10q43 0 82.5 19.5t64.5 47.5t44 56t28 47l8 20v-905z" />
    <glyph glyph-name="icircumflex" unicode="&#xee;" horiz-adv-x="405" 
d="M406 1077h-95l-108 150l-109 -150h-94l125 254h154zM299 119q6 -103 74 -121h-342q68 16 75 123v657q-16 8 -24.5 22t-9.5 24v10q43 0 82.5 19.5t64.5 47.5t44 56t27 47l9 20v-905z" />
    <glyph glyph-name="idieresis" unicode="&#xef;" horiz-adv-x="374" 
d="M94 1262q37 0 64.5 -27.5t27.5 -65.5t-27.5 -65t-64.5 -27q-38 0 -66 27t-28 65t28 65.5t66 27.5zM283 1262q38 0 65 -27.5t27 -65.5t-27 -65t-65 -27t-65.5 27t-27.5 65t27.5 65.5t65.5 27.5zM285 119q6 -103 73 -121h-342q69 17 76 123v657q-16 8 -24.5 22t-9.5 24
l-1 10q43 0 82.5 19.5t65 47.5t44.5 56t27 47l9 20v-905z" />
    <glyph glyph-name="ntilde" unicode="&#xf1;" horiz-adv-x="696" 
d="M551 1206l8 8l-20 -20q-46 -51 -72 -74q-3 -3 -6.5 -5.5t-8 -5t-6.5 -3.5q-21 -12 -45 -12q-36 0 -86 26q-9 4 -26.5 12.5t-32 14t-29.5 8.5q-46 9 -82 -20l-3 -3l1 1l-5 -6l1 1q6 8 19 21q10 10 29.5 30.5t29.5 30.5q43 40 84 35q32 -4 84 -31q60 -27 84 -30
q45 -9 80 22h2v0zM623 51q15 -4 27.5 -18t17.5 -25l6 -12q-44 6 -81 -15t-60.5 -56t-49.5 -74.5t-49.5 -72t-58 -48t-76.5 -2.5h19q64 12 92 137q18 83 18 207v870h-160v-821q7 -106 76 -123h-344q69 17 76 123v657q-16 8 -24.5 22t-9.5 24l-1 10q43 0 82.5 19.5t64.5 47.5
t44 56t28 47l8 20h428q-29 -7 -46.5 -31.5t-22 -46t-4.5 -43.5v-852z" />
    <glyph glyph-name="ograve" unicode="&#xf2;" horiz-adv-x="696" 
d="M487 1077h-94l-184 254h153zM623 119q0 -22 4.5 -43.5t22 -46t46.5 -31.5h-696q70 18 76 121v784q-6 103 -76 121h696q-29 -7 -46.5 -31.5t-22 -46t-4.5 -43.5v-784zM428 78v864h-160v-864h160z" />
    <glyph glyph-name="oacute" unicode="&#xf3;" horiz-adv-x="696" 
d="M209 1077l127 254h151l-184 -254h-94zM623 119q0 -22 4.5 -43.5t22 -46t46.5 -31.5h-696q70 18 76 121v784q-6 103 -76 121h696q-29 -7 -46.5 -31.5t-22 -46t-4.5 -43.5v-784zM428 78v864h-160v-864h160z" />
    <glyph glyph-name="ocircumflex" unicode="&#xf4;" horiz-adv-x="696" 
d="M551 1077h-94l-109 150l-108 -150h-95l127 254h154zM623 119q0 -22 4.5 -43.5t22 -46t46.5 -31.5h-696q70 18 76 121v784q-6 103 -76 121h696q-29 -7 -46.5 -31.5t-22 -46t-4.5 -43.5v-784zM428 78v864h-160v-864h160z" />
    <glyph glyph-name="otilde" unicode="&#xf5;" horiz-adv-x="696" 
d="M553 1204l8 8q-3 -4 -6.5 -7.5t-7.5 -7t-6 -5.5q-46 -51 -72 -74q-2 -2 -20 -14q-21 -12 -46 -12q-36 0 -86 26q-9 4 -26.5 12.5t-32 14t-29.5 8.5q-46 9 -82 -20q-2 -2 -2 -3l-2 -2l-2 -2q6 8 19 21q10 10 29.5 30.5t29.5 30.5q43 40 84 35q32 -4 84 -31q60 -27 84 -30
q45 -9 80 22h2v0zM623 119q0 -22 4.5 -43.5t22 -46t46.5 -31.5h-696q70 18 76 121v784q-6 103 -76 121h696q-29 -7 -46.5 -31.5t-22 -46t-4.5 -43.5v-784zM428 78v864h-160v-864h160z" />
    <glyph glyph-name="odieresis" unicode="&#xf6;" horiz-adv-x="696" 
d="M254 1262q38 0 65 -27.5t27 -65.5t-27 -65t-65 -27t-65 27t-27 65t27 65.5t65 27.5zM444 1262q37 0 65 -27.5t28 -65.5t-28 -65t-65 -27q-38 0 -66 27t-28 65t28 65.5t66 27.5zM623 119q0 -22 4.5 -43.5t22 -46t46.5 -31.5h-696q70 18 76 121v784q-6 103 -76 121h696
q-29 -7 -46.5 -31.5t-22 -46t-4.5 -43.5v-784zM428 78v864h-160v-864h160z" />
    <glyph glyph-name="oslash" unicode="&#xf8;" horiz-adv-x="696" 
d="M623 119q0 -22 4.5 -43.5t22 -46t46.5 -31.5h-534l-60 -137l-79 -15l65 152h-88q70 18 76 121v784q-6 103 -76 121h535l61 139l80 15l-68 -154h88q-29 -7 -46.5 -31.5t-22 -46t-4.5 -43.5v-784zM268 942v-528l160 366v162h-160zM268 78h160v532l-160 -366v-166z" />
    <glyph glyph-name="ugrave" unicode="&#xf9;" 
d="M487 1077h-94l-184 254h151zM0 -2q41 11 57.5 47.5t16.5 73.5v784q0 20 -4.5 42t-22.5 47t-47 32h342q-67 -18 -74 -119v-827h160v747q0 33 -27 60q38 0 79 29t68.5 59t66.5 48t73 -3q-1 -2 -7 0t-16.5 -3.5t-20 -14.5t-16.5 -33t-7 -58v-790q6 -103 73 -121h-694z" />
    <glyph glyph-name="uacute" unicode="&#xfa;" 
d="M209 1077l125 254h153l-184 -254h-94zM0 -2q41 11 57.5 47.5t16.5 73.5v784q0 20 -4.5 42t-22.5 47t-47 32h342q-67 -18 -74 -119v-827h160v747q0 33 -27 60q38 0 79 29t68.5 59t66.5 48t73 -3q-1 -2 -7 0t-16.5 -3.5t-20 -14.5t-16.5 -33t-7 -58v-790q6 -103 73 -121
h-694z" />
    <glyph glyph-name="ucircumflex" unicode="&#xfb;" 
d="M551 1077h-94l-109 150l-108 -150h-95l125 254h154zM0 -2q41 11 57.5 47.5t16.5 73.5v784q0 20 -4.5 42t-22.5 47t-47 32h342q-67 -18 -74 -119v-827h160v747q0 33 -27 60q38 0 79 29t68.5 59t66.5 48t73 -3q-1 -2 -7 0t-16.5 -3.5t-20 -14.5t-16.5 -33t-7 -58v-790
q6 -103 73 -121h-694z" />
    <glyph glyph-name="udieresis" unicode="&#xfc;" 
d="M252 1262q38 0 66 -27.5t28 -65.5t-28 -65t-66 -27t-65 27t-27 65t27 65.5t65 27.5zM442 1262q38 0 65.5 -27.5t27.5 -65.5t-27.5 -65t-65.5 -27t-65 27t-27 65t27 65.5t65 27.5zM0 -2q41 11 57.5 47.5t16.5 73.5v784q0 20 -4.5 42t-22.5 47t-47 32h342q-67 -18 -74 -119
v-827h160v747q0 33 -27 60q38 0 79 29t68.5 59t66.5 48t73 -3q-1 -2 -7 0t-16.5 -3.5t-20 -14.5t-16.5 -33t-7 -58v-790q6 -103 73 -121h-694z" />
    <glyph glyph-name="yacute" unicode="&#xfd;" 
d="M209 1077l125 254h153l-184 -254h-94zM621 -221q6 -103 73 -121h-694q40 11 57 48t17 73v12q0 39 -25 64q27 0 54.5 14t48 33.5t44 40.5t43.5 36t46 19t51 -10q-1 -2 -7.5 0t-16.5 -3.5t-20 -14.5t-17 -33t-7 -58v-141h160v307l-211 88q-33 14 -48.5 22t-38 25t-32 36.5
t-17 53t-7.5 78.5v557q0 33 -7 56.5t-17 33.5t-20 15t-17 4h-7q36 15 60.5 7.5t54 -30.5t52.5 -48t55.5 -44.5t64.5 -19.5q-25 -25 -25 -62v-534q0 -59 18.5 -82t63.5 -43l78 -33v100v678q-6 103 -76 121h111h26h205q-67 -18 -73 -121v-733v-391z" />
    <glyph glyph-name="ydieresis" unicode="&#xff;" 
d="M252 1262q38 0 66 -27.5t28 -65.5t-28 -65t-66 -27t-65 27t-27 65t27 65.5t65 27.5zM442 1262q38 0 65.5 -27.5t27.5 -65.5t-27.5 -65t-65.5 -27t-65 27t-27 65t27 65.5t65 27.5zM621 -221q6 -103 73 -121h-694q40 11 57 48t17 73v12q0 39 -25 64q27 0 54.5 14t48 33.5
t44 40.5t43.5 36t46 19t51 -10q-1 -2 -7.5 0t-16.5 -3.5t-20 -14.5t-17 -33t-7 -58v-141h160v307l-211 88q-33 14 -48.5 22t-38 25t-32 36.5t-17 53t-7.5 78.5v557q0 33 -7 56.5t-17 33.5t-20 15t-17 4h-7q36 15 60.5 7.5t54 -30.5t52.5 -48t55.5 -44.5t64.5 -19.5
q-25 -25 -25 -62v-534q0 -59 18.5 -82t63.5 -43l78 -33v100v678q-6 103 -76 121h111h26h205q-67 -18 -73 -121v-733v-391z" />
    <glyph glyph-name="OE" unicode="&#x152;" horiz-adv-x="1273" 
d="M1200 119q6 -103 74 -121h-612h-195h-467q40 11 57 48t17 73v1202q0 35 -16.5 68.5t-57.5 44.5h467h172h635q-68 -18 -74 -121v-76q0 -39 27 -63q-32 0 -64 -19.5t-57 -45t-50.5 -50.5t-55.5 -37.5t-62 -3.5q3 0 7.5 0.5t16.5 6.5t21.5 18t17 40t7.5 66v203h-275v-490
h213q24 0 40 8t20 16l4 7q0 -35 -21 -71t-47 -61.5t-47 -60.5t-21 -69q-16 12 -24 27.5t-8 25.5v10h-35h-74v-616h275v194q0 39 -7 67t-17.5 40.5t-21 19t-17.5 7.5h-7q32 9 62 -3.5t55.5 -38t50.5 -51.5t57 -45.5t64 -19.5q-27 -24 -27 -62v-67zM541 78v1274h-273v-1274
h273z" />
    <glyph glyph-name="oe" unicode="&#x153;" horiz-adv-x="1048" 
d="M975 119q0 -21 4.5 -43t22.5 -46.5t47 -31.5h-1049q40 11 57 48t17 73v784q0 36 -17 73t-57 48h1049q-41 -11 -57.5 -47.5t-16.5 -73.5v-215q0 -56 -9 -92.5t-32.5 -60t-42 -34t-60.5 -28.5l-210 -88v-307h159v141q0 34 -7 57.5t-17 33t-19.5 14.5t-16.5 4h-7q35 21 74 3
t66 -48t67.5 -59t78.5 -29q-24 -24 -24 -64v-12zM621 942v-477l77 33q23 11 34 17.5t24.5 20.5t18.5 35t5 52v319h-159zM428 78v864h-160v-864h160z" />
    <glyph glyph-name="Scaron" unicode="&#x160;" horiz-adv-x="1103" 
d="M905 1769l-125 -253h-153l-125 253h94l106 -149l109 149h94zM727 948h21q64 11 90 126q16 67 16 167h-270v-403q39 5 88 -3.5t103.5 -28.5t106.5 -58t94.5 -87.5t70.5 -121.5t32 -156q15 -300 -165 -482q-137 -138 -341 -167q-192 -28 -349 51q-159 81 -206 240
q-18 59 -18 125q0 64 16 120q13 41 27 66q14 31 49 31q23 0 38 -16t15 -38t-15 -37.5t-38 -15.5q-19 0 -33.5 12t-17.5 31q-8 -23 -10 -37q-4 -22 -4 -114q0 -160 130 -262q115 -91 277 -94q174 -3 297 98q158 131 158 382q0 53 -4 84q-6 80 -39.5 145t-83.5 104.5t-110 65
t-122.5 29.5t-118.5 -5.5t-100 -36.5t-65 -66q0 36 40.5 93.5t102.5 88.5v258q-15 8 -23 22t-9 24l-1 10q49 0 93.5 27t69.5 57t44 65h-276q-50 0 -89 -14.5t-62 -38t-39.5 -52t-22.5 -57t-9 -52t-3 -37.5l1 -15q-9 71 2 128t34.5 92.5t54.5 64.5t62.5 50.5t57 43t40 49.5
t10.5 63q32 -32 77 -32h582q39 0 69.5 12t41.5 24l10 11q0 -19 -8.5 -36t-19 -31.5t-19 -51.5t-8.5 -90q15 -4 27.5 -18t17.5 -26l6 -11q-38 5 -70 -10t-54 -42t-45 -60.5t-41 -65.5t-43.5 -57t-52.5 -35t-67 1z" />
    <glyph glyph-name="scaron" unicode="&#x161;" 
d="M551 1331l-127 -254h-154l-125 254h95l108 -149l109 149h94zM621 119q6 -103 73 -121h-694q41 11 57.5 47.5t16.5 73.5v213q0 33 -7 56.5t-17 33t-20 14.5t-17 4h-7q36 15 60.5 7.5t54 -30.5t52.5 -48t55.5 -44.5t64.5 -19.5q-25 -22 -25 -59v-168h160v319
q0 41 -11.5 66.5t-26.5 36t-44 22.5l-321 140q22 6 35.5 24t13.5 41v176q0 21 -4.5 43t-22.5 46.5t-47 31.5h694q-67 -18 -73 -121v-14q0 -36 26 -62q-32 0 -64.5 -19.5t-56.5 -44.5t-53 -48t-53.5 -30t-59.5 9q1 2 7.5 0t16.5 3.5t20 14.5t17 33t7 58v139h-160v-305
l209 -90q32 -13 49.5 -21.5t38.5 -25t31 -36.5t17.5 -53.5t7.5 -78.5v-213z" />
    <glyph glyph-name="Ydieresis" unicode="&#x178;" horiz-adv-x="1062" 
d="M561 1702q38 0 65 -27.5t27 -64.5q0 -38 -27 -66t-65 -28t-65 28t-27 66q0 37 27 64.5t65 27.5zM752 1702q38 0 65 -27.5t27 -64.5q0 -38 -27 -66t-65 -28t-65.5 28t-27.5 66q0 37 27.5 64.5t65.5 27.5zM721 1434h342q-40 -11 -57 -48t-17 -73v-1084q0 -7 -1 -26t-1 -29
v-6v-2v-2v0v-2v-4q0 -2 -1 -7.5t-1 -7.5v-4v-2v-2v-10q-2 -6 -2 -19q-8 -50 -14 -79q-14 -47 -29 -86q-15 -37 -49 -86q-1 -2 -3 -5.5t-3 -5.5q-6 -6 -8 -10q-11 -11 -17 -20q-2 -2 -5 -5.5t-5 -5.5q-6 -6 -8 -10q-6 -3 -11 -8l-10 -10q-89 -79 -198 -105q-32 -7 -58 -10
q-20 -2 -59 -2q-24 0 -60 4q-33 3 -59 12q-30 9 -57 21l-8 4q-1 1 -3.5 2t-3.5 2l-8 4q-1 0 -3 1t-3 1l-14 8l-13 9q-58 41 -88 90q-19 26 -28 55q-13 29 -19 59t-6 60v14v4v2v2v8v7v4v4q2 4 2 14q10 66 37 113q5 12 33 49q19 22 43 37q49 36 100 45q53 12 103 6
q39 -2 94 -25q38 -16 73 -51q21 -21 29 -33q12 -20 19 -34q16 -40 16 -72q4 -41 -4 -64q-5 -27 -19 -51q-10 -18 -24 -35q-1 -1 -3.5 -4t-4.5 -5t-4 -3q-14 -14 -37 -14t-38.5 15t-15.5 38q0 22 15.5 37.5t38.5 15.5q22 0 37.5 -15.5t15.5 -37.5q0 -8 -4 -20q12 20 18 32
q13 30 15 50q6 28 0 59q-3 35 -21 65q-3 5 -9 15.5t-9 15.5l-27 27q-35 28 -70 41q-34 13 -83 16q-54 0 -89 -12q-40 -10 -81 -43q-34 -27 -56 -72q-17 -41 -20 -92q0 -8 -2 -12v-2v-4v-7v-6h2v-2v-4v-12q4 -34 8 -47q5 -18 16 -45q12 -21 27 -39q26 -36 70 -62l10 -6l10 -4
q2 -2 4 -2l6 -2q1 -1 3 -2t3 -2l5 -2q7 -2 22.5 -6t22.5 -6q4 -1 21 -4t26 -3q23 -3 47 0q20 0 45 7q16 2 43 10q21 6 41 16q26 14 48 34.5t38 42t28.5 51t20.5 53.5t13.5 58.5t8.5 56.5t4 57.5t1.5 51.5t0 48t-0.5 39v61q0 54 -22.5 100.5t-59.5 78t-84.5 56.5t-98.5 35
t-100.5 13t-89.5 -8q-78 -23 -96 -91q-1 5 -1.5 14.5t2.5 35.5t10.5 50t26.5 52t48 47v313q-16 8 -24.5 22t-9.5 24l-1 10q68 0 119.5 42.5t83.5 98.5h-271q-50 0 -89 -14.5t-62 -38t-39 -52t-22 -57t-9 -52t-2 -37.5v-15q-9 71 1.5 128t34 92.5t54 64.5t62 50.5t57 43
t39.5 49.5t10 63q32 -32 80 -32h254q-3 -2 -8 -6.5t-18 -21.5t-22.5 -37.5t-17.5 -55.5t-8 -74v-467q178 -41 273 -160v6v693q0 14 -2.5 29.5t-9.5 36t-23 36t-39 21.5z" />
    <glyph glyph-name="Zcaron" unicode="&#x17d;" horiz-adv-x="1937" 
d="M879 1769l-125 -253h-154l-125 253h94l107 -149l108 149h95zM1937 -408v-8q0 -2 -1 -7t-1 -9q-4 -28 -20 -68q-15 -44 -60 -92q-21 -24 -51 -45q-10 -8 -30 -20q-20 -10 -35 -19q-56 -22 -80 -29q-49 -11 -86 -16q-46 -6 -94 -6h-25h-24q-4 0 -12 1t-13 1q-17 0 -25 2
h-10h-4h-2h-2l-6 2q-4 0 -12.5 1t-12.5 1q-20 2 -51 10q-42 7 -102 29q-96 36 -191 96q-91 56 -174 117q-70 52 -160 121q-46 38 -145 108q-52 37 -133 82q-6 3 -60 27q-33 11 -53 16q-27 7 -78 11t-112.5 -7.5t-71.5 -46.5q22 80 85 131.5t136 59.5l608 1206h-485
q-50 0 -89 -14.5t-62 -38t-39 -52t-22 -57t-9 -52t-3 -37.5l1 -15q-9 71 1.5 128t34 92.5t54 64.5t62 50.5t57 43t39.5 49.5t10 63q37 -32 80 -32h684l-68 -136q-8 -16 -12 -26l-637 -1258q6 -3 17.5 -10t17.5 -10q59 -39 141 -107q63 -52 141 -127q26 -23 146 -133
q79 -73 153 -127q70 -54 168 -104q41 -20 88 -35q21 -9 45 -12q3 -1 23 -6h6v0h2l2 -2q7 0 13 -3q92 -15 180 -12q28 0 82 8q29 4 75 19q66 22 117 67q44 38 64 84q17 33 26 64v4q-13 -33 -49 -33q-22 0 -37.5 15t-15.5 38q0 22 15.5 38t37.5 16t37.5 -16t15.5 -38v0z" />
    <glyph glyph-name="zcaron" unicode="&#x17e;" 
d="M551 1331l-127 -254h-154l-125 254h95l108 -149l109 149h94zM74 119v213q0 56 9 93t31.5 60t42.5 34.5t60 27.5l211 90v305h-160v-139q0 -34 7 -57.5t17 -33t20 -14.5t17 -4h7q-25 -15 -51 -11t-46 19t-43.5 36.5t-44 41t-48 33.5t-54.5 14q25 25 25 62v14q0 21 -4.5 43
t-22.5 46.5t-47 31.5h694q-67 -18 -73 -121v-176q0 -23 14 -41t37 -24l-322 -140q-29 -12 -44 -22.5t-26.5 -36t-11.5 -66.5v-319h160v168q0 35 -27 59q32 0 64.5 19.5t56.5 44.5t53 48t53.5 30.5t59.5 -7.5q-1 -2 -7 0t-16.5 -4t-20 -14.5t-16.5 -32.5t-7 -57v-135v-78
q6 -103 73 -121h-694q41 11 57.5 47.5t16.5 73.5z" />
    <glyph glyph-name="endash" unicode="&#x2013;" horiz-adv-x="757" 
d="M0 608h758v-192h-758v192z" />
    <glyph glyph-name="emdash" unicode="&#x2014;" horiz-adv-x="1753" 
d="M0 608h1753v-192h-1753v192z" />
    <glyph glyph-name="quoteleft" unicode="&#x2018;" horiz-adv-x="206" 
d="M2 1260q0 6 0.5 15t7 35t18 47.5t38 44t63.5 32.5v-33q-21 -10 -33 -39h8q43 0 73 -29.5t30 -72.5t-30 -73t-73 -30t-72.5 30t-29.5 73z" />
    <glyph glyph-name="quoteright" unicode="&#x2019;" horiz-adv-x="206" 
d="M205 1331q0 -6 -0.5 -15.5t-6.5 -35.5t-17.5 -47.5t-38.5 -43.5t-64 -32v33q21 10 33 39h-9q-43 0 -72.5 29.5t-29.5 72.5q0 42 30 72.5t72 30.5t72.5 -30.5t30.5 -72.5z" />
    <glyph glyph-name="quotesinglbase" unicode="&#x201a;" horiz-adv-x="206" 
d="M205 100q0 -6 -0.5 -15.5t-6.5 -35.5t-17.5 -47.5t-38.5 -43.5t-64 -32v33q21 10 33 39h-9q-43 0 -72.5 29.5t-29.5 72.5t29.5 73t72.5 30t73 -30t30 -73z" />
    <glyph glyph-name="quotedblleft" unicode="&#x201c;" horiz-adv-x="425" 
d="M221 1260q0 6 0.5 15t7 35t18 47.5t38 44t63.5 32.5v-33q-21 -10 -33 -39h9q43 0 72.5 -29.5t29.5 -72.5t-29.5 -73t-72.5 -30t-73 30t-30 73zM2 1260q0 6 0.5 15t7 35t18 47.5t38 44t63.5 32.5v-33q-21 -10 -33 -39h8q43 0 73 -29.5t30 -72.5t-30 -73t-73 -30t-72.5 30
t-29.5 73z" />
    <glyph glyph-name="quotedblright" unicode="&#x201d;" horiz-adv-x="425" 
d="M205 1331q0 -6 -0.5 -15.5t-6.5 -35.5t-17.5 -47.5t-38.5 -43.5t-64 -32v33q21 10 33 39h-9q-43 0 -72.5 29.5t-29.5 72.5q0 42 30 72.5t72 30.5t72.5 -30.5t30.5 -72.5zM424 1331q0 -6 -0.5 -15.5t-6.5 -35.5t-17.5 -47.5t-38.5 -43.5t-64 -32v33q21 10 33 39h-8
q-43 0 -73 29.5t-30 72.5q0 42 30.5 72.5t72.5 30.5t72 -30.5t30 -72.5z" />
    <glyph glyph-name="quotedblbase" unicode="&#x201e;" horiz-adv-x="425" 
d="M205 100q0 -6 -0.5 -15.5t-6.5 -35.5t-17.5 -47.5t-38.5 -43.5t-64 -32v33q21 10 33 39h-9q-43 0 -72.5 29.5t-29.5 72.5t29.5 73t72.5 30t73 -30t30 -73zM424 100q0 -6 -0.5 -15.5t-6.5 -35.5t-17.5 -47.5t-38.5 -43.5t-64 -32v33q21 10 33 39h-8q-43 0 -73 29.5
t-30 72.5t30 73t73 30t72.5 -30t29.5 -73z" />
    <glyph glyph-name="bullet" unicode="&#x2022;" horiz-adv-x="313" 
d="M313 571q0 -65 -45.5 -110t-111.5 -45q-65 0 -110.5 45.5t-45.5 109.5q0 66 45.5 112t110.5 46q66 0 111.5 -46t45.5 -112z" />
    <glyph glyph-name="Euro" unicode="&#x20ac;" horiz-adv-x="892" 
d="M819 119q6 -103 74 -121h-805q40 11 57 48t17 73v307h-162v192h162v193h-162v195h162v315q0 35 -16.5 68.5t-57.5 44.5h805q-68 -18 -74 -121v-76q0 -39 27 -63q-32 0 -64 -19.5t-57 -45t-50.5 -50.5t-55.5 -37.5t-62 -3.5q3 0 7.5 0.5t16.5 6.5t21.5 18t17 40t7.5 66
v203h-271v-346h152v-195h-152v-193h152v-192h-152v-348h271v194q0 39 -7 67t-17.5 40.5t-21 19t-17.5 7.5h-7q32 9 62 -3.5t55.5 -38t50.5 -51.5t57 -45.5t64 -19.5q-27 -24 -27 -62v-67z" />
    <glyph glyph-name="g_alt" horiz-adv-x="698" 
d="M4 1024h694q-29 -7 -46.5 -31.5t-22 -46t-4.5 -43.5v-1024v-20v-2l-2 -2v-9q0 -3 -5 -28q-8 -38 -18 -64q-15 -34 -35 -63q-27 -38 -49 -58q-33 -33 -59 -51q-60 -45 -140 -78q-77 -30 -159 -51q-69 -16 -168 -26q-68 -5 -84 -5q-4 0 -11.5 1.5t-11.5 1.5h-4h-2h-2h-2
h-10q-3 0 -10.5 1t-10.5 1q-14 0 -22 2q-96 10 -160 34q-8 2 -21 7.5t-18 7.5q-6 3 -17.5 9t-17.5 9q-31 16 -61 43l-27 27q-13 13 -22 28q-22 29 -31 62q-1 2 -2 7t-2 7q0 1 -1 4t-1 4q0 5 -2 9q0 5 -1 14.5t-1 13.5q0 32 6 56q4 8 4 12q2 2 2 6q2 2 2 6q1 1 2 3t2 3
q0 2 2 4q4 8 4 11q14 21 25 32q1 1 3 3.5t3 3.5l6 6q8 8 12 10q5 5 11 8q1 1 4 3t4 3q4 0 8 4l4 2l6 3q-2 -1 -4 -3q-2 0 -6 -4q-2 0 -6 -4q-4 -2 -8 -6l-10 -10q-2 -1 -11 -10q-1 -1 -3 -3.5t-3 -3.5t-2 -3t-2 -3q-11 -13 -20 -32q-5 -10 -5 -11t-1 -3t-1 -3q-2 -2 -2 -4
q0 -1 -1 -3t-1 -3q0 -4 -2 -6q0 -6 -2 -10q-4 -33 -2 -52q1 -4 3 -13t3 -13q0 -4 2 -6q0 -7 2 -9q1 -2 2.5 -6t2.5 -6q13 -29 32 -51q12 -16 21 -25q1 -1 10.5 -8.5t15.5 -11.5q30 -23 60 -33q11 -7 33 -14q5 -2 17 -5t17 -5q74 -19 150 -19h20h19h10h4v0h2l4 2h19
q25 2 80 10q42 6 133 31q67 21 120 51t85 62t55.5 65.5t33.5 62.5t15.5 52.5t5.5 37.5v13v166l-209 88q-33 14 -49.5 22t-38 25t-31 37t-17 53t-7.5 78v555q-6 103 -74 121zM352 158l78 -33v100v717h-160v-659q0 -31 5 -52t18.5 -35t24.5 -20.5t34 -17.5z" />
    <glyph glyph-name="h_alt" horiz-adv-x="698" 
d="M270 1024h428q-67 -18 -73 -121v-799v-249q-3 -76 -21 -152q-9 -41 -24 -78q-10 -28 -41 -76q-25 -39 -60 -67q-39 -33 -76 -49q-50 -20 -86 -23q-52 -3 -88 4q-80 14 -149 76q-30 30 -49 61q-19 41 -27 72q-4 24 -4 37v35q7 41 16 63q17 38 29 52q13 21 37 38
q18 18 39 27q17 8 35 12q34 9 53 9h14h4q-2 -2 -4 -2h-14q-20 -3 -49 -15q-19 -8 -33 -16q-18 -12 -33 -27q-18 -22 -28 -39q-13 -23 -19 -49q-6 -24 -6 -55q0 -21 2 -29q5 -25 6 -29q10 -32 27 -55q20 -29 43 -47q52 -43 121 -49q12 -2 39 -2q47 0 80 35.5t46.5 86
t20.5 101t6 85.5v36v1116h-162v-821q7 -106 76 -123h-342q29 7 47 33t22.5 48t4.5 42v1169q-16 8 -24.5 22t-9.5 24l-1 10q43 0 82.5 19.5t64.5 47.5t44 56t28 47l8 20v-512z" />
    <glyph glyph-name="h_alt2" horiz-adv-x="698" 
d="M623 51q15 -4 28 -18t19 -25l6 -12q-44 6 -81 -15t-60.5 -56t-49.5 -74.5t-49.5 -72t-58 -48t-76.5 -2.5h19q64 12 92 137q18 83 18 207v870h-160v-821q0 -20 4.5 -42t22.5 -48t47 -33h-342q69 17 76 123v1169q-20 11 -27 29q-6 -3 -18.5 -9.5t-18.5 -9.5
q-83 -37 -164 -63q-39 -14 -88 -27q-64 -17 -94 -22q-114 -22 -190 -27q-66 -4 -96 -4q-34 0 -50 2q-31 0 -47 2q-101 6 -184 29q-43 14 -86 33q-32 14 -74 47q-32 25 -55 63q-24 39 -29 72q-9 37 -6 72q3 34 12 61q16 51 50 88q29 33 49 41q12 4 16 6h4v0q-2 0 -4 -2
q-4 0 -16 -6q-28 -19 -45 -43q-27 -44 -37 -88q-8 -24 -8 -59q0 -26 10 -64q9 -31 31 -59q25 -33 53 -52q33 -23 67 -34q50 -19 80 -23q64 -14 174 -14q31 0 45 2q7 0 22.5 1t22.5 1q10 1 29 3t34.5 4t29.5 5q72 10 176 39q44 12 84 27q47 16 80 32q73 27 147 72
q87 49 125 76q85 54 172 133l7 6q7 5 15.5 11t20 13t25.5 12t28 7q-3 -1 -8.5 -3t-19.5 -11.5t-24.5 -23.5t-19 -40t-8.5 -59v-92v-420h428q-69 -17 -75 -121v-852z" />
    <glyph glyph-name="k_alt" horiz-adv-x="688" 
d="M688 705q-69 -18 -76 -121v-533q15 -4 28.5 -18t19.5 -25l6 -12q-44 6 -81 -15t-60.5 -56t-49.5 -74.5t-49.5 -72t-58 -48t-76.5 -2.5h19q64 12 92 137q18 83 18 207v551h-160v-502q0 -20 4.5 -42t22.5 -48t47 -33h-342q69 17 76 123v1169q-20 11 -27 29
q-6 -3 -18.5 -9.5t-18.5 -9.5q-83 -37 -164 -63q-40 -14 -88 -27q-64 -17 -94 -22q-114 -22 -190 -27q-66 -4 -97 -4q-33 0 -49 2q-31 0 -47 2q-101 6 -184 29q-43 14 -86 33q-32 14 -74 47q-32 25 -55 63q-24 39 -29 72q-9 37 -6 72q3 34 12 61q17 52 49 88q29 33 49 41
q15 5 17 6h4v0q-2 0 -4 -2q-5 0 -17 -6q-28 -19 -45 -43q-25 -42 -36 -88q-9 -27 -9 -59q0 -22 11 -64q10 -33 30 -59q24 -31 54 -52q33 -23 67 -34q50 -19 80 -23q64 -14 174 -14q31 0 45 2q7 0 22.5 1t22.5 1q90 12 92 12q72 10 176 39q43 12 84 27q47 16 80 32
q75 28 148 72q87 49 125 76q85 54 172 133l7 6q7 5 15.5 11t20 13t25.5 12t28 7q-3 -1 -8.5 -3t-19.5 -11.5t-24.5 -23.5t-19 -40t-8.5 -59v-831h49l111 63v113v18q0 21 -4.5 43.5t-22.5 48.5t-47 33h74h55h82h55h76q-70 -18 -76 -121v-69q0 -26 25 -33l-166 -96h217z" />
    <glyph glyph-name="k_alt2" horiz-adv-x="698" 
d="M649 801l-168 -96h217q-66 -17 -73 -121v-729q-3 -76 -21 -152q-9 -41 -24 -78q-10 -28 -41 -76q-25 -39 -60 -67q-39 -33 -76 -49q-50 -20 -86 -23q-52 -3 -88 4q-80 14 -149 76q-30 30 -49 61q-19 41 -27 72q-4 24 -4 37v35q7 41 16 63q17 38 29 52q13 21 37 38
q18 18 39 27q17 8 35 12q34 9 53 9h14h4q-2 -2 -4 -2h-14q-20 -3 -49 -15q-19 -8 -33 -16q-18 -12 -33 -27q-18 -22 -28 -39q-13 -23 -19 -49q-6 -24 -6 -55q0 -21 2 -29q5 -25 6 -29q10 -32 27 -55q20 -29 43 -47q52 -43 121 -49q12 -2 39 -2q47 0 80 35.5t46.5 86
t20.5 101t6 85.5v36v797h-162v-502q7 -106 76 -123h-342q29 7 47 33t22.5 48t4.5 42v1169q-16 8 -24.5 22t-9.5 24l-1 10q43 0 82.5 19.5t64.5 47.5t44 56t28 47l8 20v-831h49l113 63v113v18q-7 108 -76 125h76h55h82h56h73q-67 -18 -73 -121v-69q0 -26 24 -33z" />
    <glyph glyph-name="l_alt" horiz-adv-x="356" 
d="M8 -2q69 17 76 123v1169q-20 11 -27 29q-6 -3 -18.5 -9.5t-18.5 -9.5q-85 -38 -163 -63q-40 -14 -88 -27q-62 -16 -95 -22q-114 -22 -190 -27q-66 -4 -96 -4q-34 0 -50 2q-31 0 -47 2q-101 6 -184 29q-43 14 -86 33q-32 14 -74 47q-32 25 -55 63q-24 39 -29 72
q-9 37 -6 72q3 30 13 61q17 52 49 88q29 33 49 41q12 4 16 6h4v0q-2 0 -4 -2q-4 0 -16 -6q-28 -19 -45 -43q-27 -44 -37 -88q-8 -24 -8 -59q0 -26 10 -64q9 -31 31 -59q25 -33 53 -52q33 -23 67 -34q50 -19 80 -23q64 -14 174 -14q31 0 45 2q7 0 23 1t23 1q90 12 92 12
q72 10 176 39q44 12 84 27q47 16 80 32q73 27 147 72q87 49 125 76q85 54 172 133l7 6q7 5 15.5 11t20 13t25.5 12t28 7q-3 -1 -8.5 -3t-19.5 -11.5t-24.5 -23.5t-19 -40t-8.5 -59v-1415q0 -20 4.5 -42t22.5 -48t47 -33h-342z" />
    <glyph glyph-name="n_alt" horiz-adv-x="688" 
d="M1051 -305q2 -12 2 -35q0 -1 -2 -15.5t-4 -21.5q-5 -33 -27 -72q-17 -32 -49 -61q-65 -61 -148 -76q-36 -7 -88 -4q-41 3 -86 23q-35 14 -78 49q-32 28 -57 67q-31 48 -41 76q-15 37 -24 78q-18 76 -21 152v1087h-160v-821q0 -14 2.5 -29.5t9.5 -36t23 -36t39 -21.5h-342
q23 6 39 21.5t23 36t9.5 36t2.5 29.5v657q-15 8 -23 22t-9 24l-1 10q43 0 82.5 19.5t64.5 47.5t44 56t28 47l8 20h426q-67 -18 -73 -121v-1077q0 -7 -0.5 -19.5t1.5 -48t6 -68t15 -72.5t26.5 -68.5t42 -48t60.5 -19.5q27 0 41 2q65 6 121 49q23 18 43 47q18 23 27 55
q1 4 6 29q2 8 2 29q0 31 -6 55q-6 26 -19 49q-8 13 -29 39q-7 7 -32 27q-14 8 -33 16q-26 10 -49 15h-15l-4 2h4h15q18 0 53 -9q18 -4 35 -12q21 -9 39 -27q24 -17 37 -38q13 -18 28 -52q12 -30 15 -63z" />
    <glyph glyph-name="s_alt" 
d="M688 694q-35 -16 -59.5 -9t-53.5 30t-53 48t-56.5 44.5t-64.5 19.5q27 27 27 62v53h-160v-258q171 -16 278 -103t126.5 -200t-9.5 -223.5t-127.5 -186t-230.5 -75.5q-72 0 -115 14q-57 16 -98 49q-41 28 -65 78q-20 41 -23 86v20v4v7q0 1 1 2t1 2v2v2q0 6 2 10v4v4
q5 15 6 17q4 9 15 26q9 14 14 17q13 20 41 20q22 0 37.5 -15.5t15.5 -37.5t-15.5 -37.5t-37.5 -15.5t-37.5 15.5t-15.5 37.5q-4 -8 -4 -14q-4 -8 -4 -15v-4v-4v-8v-2v-2v-4v-2v0v-2v-7q14 -85 79 -133.5t148 -48.5q124 0 189 82t65 199q0 159 -121 252q-92 69 -203 68
q-99 -1 -139 -60q-15 -23 -18 -51q0 10 0.5 27t13.5 55.5t37 62.5v307q0 34 -17 72t-57 49h74h57h563q-66 -17 -73 -121v-100q0 -34 7 -57.5t16.5 -33t19.5 -14.5t17 -4h7z" />
    <glyph glyph-name="x_alt" horiz-adv-x="679" 
d="M1051 -305q2 -12 2 -35q-1 -6 -3 -18.5t-3 -18.5q-5 -33 -27 -72q-17 -32 -49 -61q-65 -61 -148 -76q-36 -7 -88 -4q-41 3 -86 23q-41 17 -78 49q-32 28 -57 67q-31 48 -41 76q-15 37 -24 78q-17 63 -21 152v548l-82 58l-78 -55v-289q0 -35 17 -71.5t57 -47.5h-342
q40 11 57 48t17 73v207q0 32 -25 51l215 137l-215 137q25 19 25 54v198q0 34 -17 72t-57 49h342q-40 -11 -57 -48t-17 -71v-282l78 -56l82 58v200q0 33 -27 60q38 0 79 29t68.5 59t66.5 48t73 -3q-1 -2 -7 0t-16.5 -3.5t-20 -14.5t-16.5 -33t-7 -58v-209q0 -31 24 -49
l-215 -137l215 -137q-24 -18 -24 -49v-502q0 -7 -0.5 -19.5t1 -48t6 -68t15 -72.5t26 -68.5t42.5 -48t61 -19.5q27 0 41 2q65 6 121 49q23 18 43 47q18 23 27 55q1 4 6 29q0 4 1 14t1 15q0 31 -6 55q-4 20 -21 49q-6 14 -27 39q-7 7 -32 27q-28 14 -33 16q-28 11 -51 15h-13
l-6 2h6h15q16 0 51 -9q19 -3 37 -12q24 -12 39 -27q23 -19 37 -38q13 -18 28 -52q13 -45 15 -63z" />
    <glyph glyph-name="y_alt" horiz-adv-x="679" 
d="M475 1024h205q-41 -11 -57.5 -47.5t-16.5 -73.5v-733v-291v-20v-2l-2 -2v-9q0 -8 -4 -28q-8 -38 -18 -64q-15 -34 -35 -63q-27 -38 -49 -58q-30 -30 -60 -51q-61 -46 -139 -78q-75 -29 -160 -51q-69 -16 -168 -26q-68 -5 -84 -5q-4 0 -11 1.5t-11 1.5h-4h-2h-2h-2h-11
q-3 0 -10 1t-10 1q-15 0 -23 2q-95 10 -159 34q-8 2 -21 7.5t-18 7.5q-6 3 -17.5 9t-17.5 9q-33 17 -62 43q-6 5 -15 15t-11 12q-15 16 -23 28q-21 27 -30 62q-1 2 -2.5 7t-2.5 7q0 1 -1 4t-1 4q0 5 -2 9q0 5 -1 14.5t-1 13.5q0 32 6 56q5 10 5 12q2 2 2 6q2 2 2 6q1 1 2 3
t2 3q0 2 2 4q4 8 4 11q16 24 24 32l7 7l6 6q8 8 12 10q6 6 10 8q1 1 4 3t4 3q5 0 9 4l4 2l6 3q-2 -1 -4 -3q-2 0 -6 -4q-2 0 -6 -4q-6 -3 -9 -6l-10 -10l-10 -10q-1 -1 -3 -3.5t-3 -3.5t-2 -3t-2 -3q-13 -17 -21 -32q-4 -8 -4 -11q0 -1 -1 -3t-1 -3q-2 -2 -2 -4q0 -1 -1 -3
t-1 -3q0 -4 -2 -6q0 -6 -2 -10q-4 -33 -2 -52q1 -4 3 -13t3 -13q0 -4 2 -6q0 -7 2 -9q1 -2 2 -6t2 -6q12 -27 33 -51q15 -20 20 -25q25 -19 27 -20q31 -23 59 -33q11 -7 33 -14q5 -2 17.5 -5t17.5 -5q74 -19 149 -19h21h18h11h4v0h2l4 2h18q25 2 80 10q42 6 133 31
q67 21 120 51t85.5 62t55.5 65.5t33.5 62.5t16 52.5t5.5 37.5v13v166l-209 88q-34 14 -50 22t-38 25t-31.5 37t-17 53t-7.5 78v557q0 33 -7 56.5t-16.5 33.5t-19.5 15t-17 4h-7q35 15 59.5 7.5t53.5 -30.5t53 -48t56.5 -44.5t64.5 -19.5q-27 -27 -27 -62v-534q0 -31 5 -52
t18.5 -35t24.5 -20.5t34 -17.5l78 -33v100v678q0 21 -4.5 43t-22.5 46.5t-47 31.5h111h26z" />
    </font>
</defs>
</svg>
