<?xml version="1.0" standalone="no"?>
<!DOCTYPE svg PUBLIC "-//W3C//DTD SVG 1.1//EN" "http://www.w3.org/Graphics/SVG/1.1/DTD/svg11.dtd" >
<svg xmlns="http://www.w3.org/2000/svg" xmlns:xlink="http://www.w3.org/1999/xlink" version="1.1">
<metadata>
Created by FontForge 20170731 at Mon Aug 10 20:34:51 2020
 By Aleksey,,,
Copyright (c) 2020 by Stringlabs. All rights reserved.
</metadata>
<defs>
<font id="Rademos-Regular" horiz-adv-x="338" >
  <font-face 
    font-family="Rademos"
    font-weight="400"
    font-stretch="normal"
    units-per-em="1000"
    panose-1="2 0 5 6 5 0 0 2 0 4"
    ascent="750"
    descent="-250"
    x-height="500"
    cap-height="700"
    bbox="-662 -250 1024 860"
    underline-thickness="50"
    underline-position="-150"
    unicode-range="U+000D-FB00"
  />
<missing-glyph horiz-adv-x="238" 
 />
    <glyph glyph-name="f_f" unicode="ff" horiz-adv-x="498" 
d="M493 700l-2 -12q-10 -2 -15 -9t-7.5 -15t-2.5 -14.5v-7.5v-12v-4q-22 0 -37.5 -6t-26 -16.5t-17 -24t-10.5 -27.5l-11 5v68h-72q-2 -1 -4 -1t-4 -1l15 -7q9 -5 9 -15v-101h70l-27 -75h-69l20 -10q6 -3 6 -9v-349q0 -1 0.5 -7.5t3 -14.5t7.5 -15t14 -9l3 -12h-157l2 12
q10 2 15 9t7 15t2.5 14.5t0.5 7.5v368h-82l20 -10q7 -2 7 -9v-349v-7.5t2.5 -14.5t7.5 -15t15 -9l2 -12h-157l2 12q10 2 15 9t7 15t2.5 14.5t0.5 7.5v368h-43l27 75h16v142q0 1 -0.5 7.5t-2.5 14.5t-7 15t-15 9l-2 12h472zM206 625h-83l18 -9q10 -5 10 -15v-101h39h16v125z
" />
    <glyph glyph-name="s_s" unicode="ss" horiz-adv-x="482" 
d="M450 57v-7.5t2.5 -14.5t7.5 -15t15 -9l2 -12h-472l2 12q10 2 15 9t7 15t2.5 14.5t0.5 7.5v53q43 0 63 22t28 51l12 -5v-104h83l-21 9q-7 5 -7 12v113l-158 67v167q0 1 -0.5 7.5t-2.5 14.5t-7 15t-15 9l-2 12h472l-2 -12q-10 -2 -15 -9t-7.5 -15t-2.5 -14.5v-7.5v-49v-4
q-22 0 -37.5 -6t-26 -16.5t-17 -24t-10.5 -27.5l-12 5v105h-83l19 -9q9 -5 9 -15v-87q21 -9 43 -18.5t43 -18.5t39.5 -16.5t32.5 -13.5v-190zM125 416q10 -5 10 -15v-87q13 -6 27 -12l28 -12v135h-83zM375 74l-20 9q-8 5 -8 12v113l-55 24v-158h83z" />
    <glyph glyph-name="t_t" unicode="tt" horiz-adv-x="503" 
d="M498 -2h-472l2 12q10 2 15 9t7 15t2.5 14.5t0.5 7.5v369h-48l27 75h5q2 1 4 1t4 2q3 1 11 7q6 5 11 11l2 2l1 1q1 2 3 4t3 4l3 3q3 5 5.5 8.5t5.5 8.5q6 8 12 16.5t13 16.5q4 4 7 7.5t7 6.5q7 7 15 12q9 6 17 6q2 1 4 0.5t4 -0.5q2 -1 4 -1l2 -2q2 -1 4 -3t2 -3l2 -2h-1
q-1 0 -2 1h-1h-2q-1 0 -1.5 0.5t-2.5 -0.5h-2h-2l-1 -1h-1l-2 -2q-1 0 -1 -0.5t-1 -0.5l-1 -1v-1h-1v-1q-6 -6 -6 -15v-85h35h5q2 1 3.5 1t3.5 2q4 1 12 7q3 2 5.5 5t5.5 6q1 1 1 2q1 0 1 0.5t1 0.5q1 2 3 4t3 4q2 2 2 3q3 5 6 8.5t6 8.5q6 8 12 16.5t13 16.5q6 8 14 14
q7 7 15 12q9 6 17 6q2 1 4 0.5t4 -0.5q1 -1 3 -1q1 -1 1.5 -1t1.5 -1q2 -1 4 -3t2 -3q1 -1 1 -2l-2 1h-2h-1h-4h-2h-2l-1 -1h-1l-2 -2q-1 0 -1 -0.5t-1 -0.5l-1 -1v-1h-1v-1q-6 -6 -6 -15v-85h65l-27 -75h-65l22 -11q5 -2 5 -7v-333h83l-28 13v22q43 0 63.5 22.5t28.5 51.5
l11 -5v-122q0 -2 0.5 -8.5t2.5 -14t7.5 -14.5t14.5 -9zM238 74l-27 13v338h-48h-35l23 -11q4 -2 4 -7v-333h83z" />
    <glyph glyph-name="o_o" unicode="oo" horiz-adv-x="483" 
d="M450 57v-7.5t2.5 -14.5t7.5 -15t15 -9l3 -12h-473l2 12q10 2 15 9t7 15t2.5 14.5t0.5 7.5v385q0 1 -0.5 7.5t-2.5 14.5t-7 15t-15 9l-2 12h473l-3 -12q-10 -2 -15 -9t-7.5 -15t-2.5 -14.5v-7.5v-385zM218 74l-18 9q-10 3 -10 15v327h-83l18 -9q10 -5 10 -15v-327h83z
M375 74l-18 9q-9 4 -9 15v327h-83l18 -9q9 -5 9 -15v-327h83z" />
    <glyph glyph-name=".notdef" horiz-adv-x="238" 
 />
    <glyph glyph-name=".null" horiz-adv-x="0" 
 />
    <glyph glyph-name="nonmarkingreturn" unicode="&#xd;" horiz-adv-x="238" 
 />
    <glyph glyph-name="NULL" horiz-adv-x="0" 
 />
    <glyph glyph-name="NULL" horiz-adv-x="0" 
 />
    <glyph glyph-name="space" unicode=" " horiz-adv-x="238" 
 />
    <glyph glyph-name="exclam" unicode="!" horiz-adv-x="205" 
d="M199 -11l1 1l-1 -1q0 -1 -0.5 -1t-0.5 -1q-1 -1 -1 -1.5t-2 -1.5l-4 -4q-1 0 -1.5 -0.5t-1.5 -0.5q-1 -1 -4 -1q-2 -1 -9 -1q-9 0 -19 7q-5 2 -9 5.5t-9 7.5q-4 5 -7.5 8.5l-8.5 8.5q-8 9 -14.5 18.5t-13.5 19.5t-13 18q-1 2 -4 5q-1 1 -1.5 2t-1.5 2t-1.5 2t-1.5 2l-2 2
q0 1 -0.5 1t-0.5 1l-13 13q-4 2 -7 4l-6 4q-6 2 -14 4q-4 1 -12 1q-3 -1 -8 -1h-3l2 2l3 3q2 2 4 3l2 2q1 1 1.5 1t1.5 1q1 0 3 2q2 0 2.5 0.5t1.5 0.5q10 4 20 4q3 0 6 -0.5t7 -1.5v513q0 1 -0.5 7.5t-3 14.5t-7.5 15t-14 9l-3 12h157l-2 -12q-10 -2 -15 -9t-7.5 -15
t-2.5 -14.5v-7.5v-624v-2q3 -4 5.5 -7.5t4.5 -7.5q1 -2 4 -5l1 -1q1 -1 1 -2q1 0 1.5 -0.5t1.5 -0.5l2 -2h1q0 -1 1 -1q2 0 2 -1h3h4q1 0 2 1h2h2zM115 -31l69 -69l-69 -69l-69 69z" />
    <glyph glyph-name="quotedbl" unicode="&#x22;" horiz-adv-x="212" 
d="M57 700h67l-69 -141h-50zM140 700h67l-69 -141h-50z" />
    <glyph glyph-name="numbersign" unicode="#" horiz-adv-x="962" 
d="M942 387h-254l-47 -250h247l-15 -76h-246l-43 -228h-77l43 228h-189l-43 -228h-77l43 228h-279l15 75h278l47 250h-271l14 76h271l45 238h77l-45 -238h189l45 238h76l-44 -238h255zM564 137l47 250l-189 -1l-47 -250z" />
    <glyph glyph-name="dollar" unicode="$" 
d="M333 -1h-147v-89h-33v89h-148l2 12q10 2 15 9t7 15t2.5 14.5t0.5 7.5v94q21 -1 39 9q15 8 30 27.5t22 58.5l12 -3v-169h18v290l-139 48l2 7q16 5 16 22v201q0 1 -0.5 7.5t-2.5 14.5t-7 15t-15 9l-2 12h148v77h33v-77h147l-2 -12q-10 -2 -15 -9t-7.5 -15t-2.5 -14.5v-7.5
v-55q-21 0 -39 -9q-16 -8 -31 -24.5t-20 -48.5l-12 3v117h-18v-193l138 -48l-3 -11q-15 -5 -15 -21v-295v-7.5t2.5 -14.5t7.5 -15t15 -9zM153 443v182h-18h-28l18 -9q10 -5 10 -15v-151zM231 74l-18 9q-9 3 -9 15v28v220l-18 6v-278h45z" />
    <glyph glyph-name="percent" unicode="%" horiz-adv-x="399" 
d="M380 5v-4.5t1 -8t4 -8.5t8 -5l1 -7h-156l1 7q5 1 8 5t4 8.5t1 8v4.5v124v4.5t-1 8t-4 8.5t-8 5l-1 7h156l-1 -7q-5 -1 -8 -5t-4 -8.5t-1 -8v-4.5v-124zM340 15l-9 4q-5 3 -5 9v91h-35l10 -4q5 -3 5 -9v-91h34zM146 413q0 -1 0.5 -4.5t1.5 -8t4 -8.5t8 -5l1 -7h-156l1 7
q5 1 7.5 5t4 8.5t1.5 8v4.5v124v4.5t-1.5 8t-4 8.5t-7.5 5l-1 7h156l-1 -7q-5 -1 -8 -5t-4 -8.5t-1.5 -8t-0.5 -4.5v-124zM107 423l-9 4q-5 3 -5 9v91h-35l10 -4q5 -3 5 -9v-91h34zM322 700l-163 -867h-76l82 440l10 52l70 375h77z" />
    <glyph glyph-name="ampersand" unicode="&#x26;" horiz-adv-x="470" 
d="M460 224q1 -1 2 -6t3 -7q-3 3 -9 7q-15 10 -31.5 13.5t-33.5 2t-34 -6t-33 -8.5q-5 -1 -9 -2t-9 -2v-158v-7.5t2.5 -14.5t7.5 -15t15 -9l2 -12h-42h-286l2 12q10 2 15 9t7 15t2.5 14.5t0.5 7.5v285q0 5 -3 8t-6 5q-4 2 -9 2v6l108 51l-108 50v6q5 0 9 2q3 2 6 4.5t3 8.5
v157q0 1 -0.5 7.5t-2.5 14.5t-7 15t-15 9l-2 12h328l-2 -12q-10 -2 -15 -9t-7.5 -15t-2.5 -14.5v-7.5v-12v-30q-21 1 -39 -9q-15 -8 -30 -27.5t-21 -57.5l-12 2v93q0 10 9 15l18 9h-96v-133l69 -33l33 -89l-11 -5l-10 2q-5 0 -12 -0.5t-15 -5.5l-54 -26v-237q0 -12 -10 -15
l-18 -9h28h69v113l22 25q-14 4 -27 17q-2 2 -3.5 6t-2.5 6l-6 16l-6 16t-6 15.5t-6 15.5q0 1 -1.5 6t-3.5 7q2 -2 4 -3.5t4 -3.5q14 -10 30.5 -12.5t33 -1t33.5 5.5t32 8q16 4 33 7.5t34 3.5t33 -4.5t30 -17.5q2 -2 3 -6.5t2 -5.5q3 -8 6 -15.5t6 -15.5l6 -16z" />
    <glyph glyph-name="quotesingle" unicode="'" horiz-adv-x="129" 
d="M55 559h-50l52 141h67l-69 -141v0z" />
    <glyph glyph-name="parenleft" unicode="(" horiz-adv-x="200" 
d="M108 266v-116t7 -118.5t25.5 -100.5t54.5 -61l-10 -37q-66 13 -102.5 60t-53.5 110t-20.5 133t-3.5 130q0 40 1 85.5t6.5 90.5t16.5 87.5t31 77.5t50.5 59.5t74.5 33.5l10 -37q-36 -18 -54.5 -62t-25.5 -100.5t-7 -118.5v-116z" />
    <glyph glyph-name="parenright" unicode=")" horiz-adv-x="200" 
d="M92 266v116t-7 118.5t-25.5 100.5t-54.5 62l10 37q44 -9 74.5 -33.5t50.5 -59.5t31 -77.5t16.5 -87.5t6.5 -90.5t1 -85.5q0 -60 -3.5 -130t-20.5 -133t-53.5 -110t-102.5 -60l-10 37q36 17 54.5 61t25.5 100.5t7 118.5v116z" />
    <glyph glyph-name="asterisk" unicode="*" horiz-adv-x="154" 
d="M149 651l-53 -38l53 -38l-24 -34l-34 39l4 -53h-37l5 53l-34 -39l-24 34l53 38l-53 38l24 34l34 -39l-5 54h37l-4 -54l34 39l24 -34v0z" />
    <glyph glyph-name="plus" unicode="+" horiz-adv-x="512" 
d="M507 288v-78h-212v-213h-78v213h-212v78h212v212h78v-212h212v0z" />
    <glyph glyph-name="comma" unicode="," horiz-adv-x="148" 
d="M48 -60q5 17 9 32q3 13 3.5 26t-4.5 19l-51 51l69 69l69 -69l-95 -128v0z" />
    <glyph glyph-name="hyphen" unicode="-" horiz-adv-x="332" 
d="M327 288v-78h-322v78h322v0z" />
    <glyph glyph-name="period" unicode="." horiz-adv-x="148" 
d="M74 -4l-69 69l69 69l69 -69l-69 -69v0z" />
    <glyph glyph-name="slash" unicode="/" horiz-adv-x="249" 
d="M168 700h76l-162 -867h-77l82 440l10 52l71 375v0z" />
    <glyph glyph-name="zero" unicode="0" 
d="M306 57v-7.5t2.5 -14.5t7.5 -15t15 -9l2 -12h-328l2 12q10 2 15 9t7 15t2.5 14.5t0.5 7.5v585q0 1 -0.5 7.5t-2.5 14.5t-7 15t-15 9l-2 12h328l-2 -12q-10 -2 -15 -9t-7.5 -15t-2.5 -14.5v-7.5v-585zM231 74l-18 9q-9 3 -9 15v527h-97l18 -9q10 -5 10 -15v-527h96z" />
    <glyph glyph-name="one" unicode="1" horiz-adv-x="167" 
d="M32 569q0 11 -3.5 17t-8.5 8q-5 3 -12 3l-3 9q33 11 55 27t36 31q16 18 26 36h13v-643v-7.5t2.5 -14.5t7.5 -15t15 -9l2 -12h-157l2 12q10 2 15 9t7 15t2.5 14.5t0.5 7.5v512z" />
    <glyph glyph-name="two" unicode="2" 
d="M306 56v-7.5t2.5 -14.5t7.5 -15t15 -9l2 -12h-42h-286l2 12q10 2 15 9t7 15t2.5 14.5t0.5 7.5v295q0 16 -15 21l-2 11l189 66v175h-97l18 -9q10 -5 10 -15v-93l-12 -3q-6 32 -21 48.5t-31 24.5q-18 9 -39 9v55q0 1 -0.5 7.5t-2.5 14.5t-7 15t-15 9l-2 12h328l-2 -12
q-10 -2 -15 -9t-7.5 -15t-2.5 -14.5v-7.5v-201q0 -17 17 -22l1 -7l-189 -66v-272h96l-18 9q-9 3 -9 15v145l12 3q6 -39 21 -58.5t30 -27.5q18 -10 39 -9v-94v0z" />
    <glyph glyph-name="three" unicode="3" 
d="M306 57v-7.5t2.5 -14.5t7.5 -15t15 -9l2 -12h-328l2 12q10 2 15 9t7 15t2.5 14.5t0.5 7.5v76v18q21 -1 39 9q15 8 30 27.5t22 58.5l12 -3v-169h96l-18 9q-9 3 -9 15v237l-42 20q-4 2 -7.5 1.5t-5.5 -2.5q-4 -3 -6 -6l-8 4v89q0 18 16 26l53 25v133h-97l18 -9
q10 -5 10 -15v-93l-12 -2q-7 38 -22 57.5t-30 27.5q-18 10 -39 9v42q0 1 -0.5 7.5t-2.5 14.5t-7 15t-15 9l-2 12h328l-2 -12q-10 -2 -15 -9t-7.5 -15t-2.5 -14.5v-7.5v-157q0 -6 2.5 -8.5t6.5 -4.5t9 -2v-6l-108 -50l108 -51v-6q-5 0 -9 -2q-9 -4 -9 -13v-285v0z" />
    <glyph glyph-name="four" unicode="4" 
d="M306 56v-7.5t2.5 -14.5t7.5 -15t15 -9l2 -12h-157l2 12q10 2 15 9t7.5 15t3 14.5t0.5 7.5v266q0 10 10 10l19 1l-228 87l5 8q6 -1 11 0q4 1 7.5 4t3.5 9v127q0 11 -3.5 17t-8.5 8q-5 3 -12 3l-3 9q33 11 55 27t36 31q16 18 26 36h13v-250l69 -24v216q0 1 -0.5 7.5
t-3 14.5t-7.5 15t-15 9l-2 12h157l-2 -12q-10 -2 -15 -9t-7.5 -15t-2.5 -14.5v-7.5v-585v0z" />
    <glyph glyph-name="five" unicode="5" 
d="M306 57v-7.5t2.5 -14.5t7.5 -15t15 -9l2 -12h-328l2 12q10 2 15 9t7 15t2.5 14.5t0.5 7.5v94q21 -1 39 9q15 8 30 27.5t22 58.5l12 -3v-169h96l-18 9q-9 3 -9 15v248l-190 66l2 7q16 5 16 22v201q0 1 -0.5 7.5t-2.5 14.5t-7 15t-15 9l-2 12h328l-2 -12q-10 -2 -15 -9
t-7.5 -15t-2.5 -14.5v-7.5v-55q-21 0 -39 -9q-16 -8 -31 -24.5t-20 -48.5l-12 3v117h-97l18 -9q10 -5 10 -15v-151l189 -66l-3 -11q-15 -5 -15 -21v-295v0z" />
    <glyph glyph-name="six" unicode="6" 
d="M306 57v-7.5t2.5 -14.5t7.5 -15t15 -9l2 -12h-286h-42l2 12q10 2 15 9t7 15t2.5 14.5t0.5 7.5v585q0 1 -0.5 7.5t-2.5 14.5t-7 15t-15 9l-2 12h286h42l-2 -12q-10 -2 -15 -9t-7.5 -15t-2.5 -14.5v-7.5v-55q-21 0 -39 -9q-16 -8 -31 -24.5t-20 -48.5l-12 2v118h-69h-28
l18 -9q10 -5 10 -15v-151l189 -66l-3 -11q-15 -5 -15 -21v-295zM231 74l-18 9q-9 3 -9 15v28v220l-69 24v-296h96z" />
    <glyph glyph-name="seven" unicode="7" 
d="M331 688q-10 -2 -15 -9t-7.5 -15t-2.5 -14.5v-7.5v-201q0 -17 16 -22l2 -7l-104 -36v-319q0 -1 0.5 -7.5t3 -14.5t7.5 -15t14 -9l3 -12h-157l2 12q10 2 15 9t7 15t2.5 14.5t0.5 7.5l-1 327q0 7 -3 11t-6 6q-4 3 -9 4l-4 7l109 38v175h-97l18 -9q10 -5 10 -15v-94l-12 -2
q-6 32 -21 48.5t-31 24.5q-18 9 -39 9v55q0 1 -0.5 7.5t-2.5 14.5t-7 15t-15 9l-2 12h42h286l-2 -12v0z" />
    <glyph glyph-name="eight" unicode="8" 
d="M306 57v-7.5t2.5 -14.5t7.5 -15t15 -9l2 -12h-328l2 12q10 2 15 9t7 15t2.5 14.5t0.5 7.5v265q0 16 -15 21l-2 10l78 44l-79 44l2 6q16 5 16 23v172q0 1 -0.5 7.5t-2.5 14.5t-7 15t-15 9l-2 12h328l-2 -12q-10 -2 -15 -9t-7.5 -15t-2.5 -14.5v-7.5v-1v-171q0 -18 17 -23
l1 -6l-79 -44l79 -44l-3 -10q-15 -5 -15 -21v-265zM204 458v167h-97l18 -9q10 -5 10 -15v-143l34 -19zM231 74l-18 9q-9 3 -9 15v238l-35 19l-34 -19v-262h96z" />
    <glyph glyph-name="nine" unicode="9" 
d="M306 57v-7.5t2.5 -14.5t7.5 -15t15 -9l2 -12h-328l2 12q10 2 15 9t7 15t2.5 14.5t0.5 7.5v94q21 -1 39 9q15 8 30 27.5t22 57.5l12 -2v-169h96l-18 9q-9 3 -9 15v248l-190 66l2 7q16 5 16 22v201q0 1 -0.5 7.5t-2.5 14.5t-7 15t-15 9l-2 12h328l-2 -12q-10 -2 -15 -9
t-7.5 -15t-2.5 -14.5v-7.5v-585zM125 616q10 -5 10 -15v-151l69 -24v198h-97z" />
    <glyph glyph-name="colon" unicode=":" horiz-adv-x="148" 
d="M5 68l69 69l69 -69l-69 -69zM143 431l-69 -69l-69 69l69 69zM5 68l69 69l69 -69l-69 -69zM143 431l-69 -69l-69 69l69 69z" />
    <glyph glyph-name="semicolon" unicode=";" horiz-adv-x="148" 
d="M74 362l-69 69l69 69l69 -69zM48 -60l95 128l-69 69l-69 -69l51 -51q5 -6 4.5 -19t-3.5 -26q-4 -15 -9 -32z" />
    <glyph glyph-name="less" unicode="&#x3c;" horiz-adv-x="303" 
d="M298 500l-197 -251l197 -250h-96l-197 250l197 251h96v0z" />
    <glyph glyph-name="equal" unicode="=" horiz-adv-x="332" 
d="M5 366h322v-78h-322v78zM5 131v79h322v-79h-322z" />
    <glyph glyph-name="greater" unicode="&#x3e;" horiz-adv-x="303" 
d="M5 500h96l197 -251l-197 -250h-96l197 250l-197 251v0z" />
    <glyph glyph-name="question" unicode="?" 
d="M169 -31l69 -69l-69 -69l-69 69zM331 688q-10 -2 -15 -9t-7.5 -15t-2.5 -14.5v-7.5v-201q0 -17 17 -22l1 -7l-104 -36v-358l1 -2l9 -15q2 -2 2.5 -3t1.5 -2l1 -1h1q0 -1 1 -2l2 -1l2 -2h1l1 -1q2 0 3 -1h2h5l1 1h2h2l1 1l-1 -1q0 -1 -0.5 -1t-0.5 -1t-2 -3q-1 -1 -2 -1.5
t-3 -2.5l-1 -1h-2q-1 -1 -3 -1q-3 -1 -9 -1q-10 0 -20 7q-8 4 -17 13l-8.5 8.5t-7.5 8.5q-16 19 -29 38q-7 10 -13 18q-1 2 -1.5 2.5t-1.5 2.5q-1 1 -1.5 2t-1.5 2q-2 1 -2.5 2t-1.5 2q0 1 -0.5 1t-0.5 1l-2 2q-3 4 -6.5 7t-6.5 6q-6 4 -13 8q-3 2 -6.5 2.5t-6.5 1.5
q-5 1 -12 1q-4 -1 -9 -1h-3l2 2l3 3q2 2 4 3l2 2q1 1 1.5 1t1.5 1l4 2q1 0 1.5 0.5t1.5 0.5q5 2 9.5 3t10.5 1q3 0 5.5 -0.5t6.5 -1.5v255q0 7 -3 11t-6 6q-4 3 -9 4l-4 7l109 38v151q0 10 9 15l18 9h-27h-69v-117l-12 -3q-6 32 -21 48.5t-31 24.5q-18 9 -39 9v55
q0 1 -0.5 7.5t-2.5 14.5t-7 15t-15 9l-2 12h42h286z" />
    <glyph glyph-name="at" unicode="@" horiz-adv-x="551" 
d="M546 700v-701h-206q-17 0 -28.5 11.5t-11.5 28.5l-55 -40h-130l2 12q10 2 15 9t7 15t2.5 14.5t0.5 7.5v385q0 1 -0.5 7.5t-2.5 14.5t-7 15t-15 9l-2 12h315l-2 -12q-10 -2 -15 -9t-7.5 -15t-3 -14.5t-0.5 -7.5v-354q0 -20 5 -30t12 -14q7 -5 17 -4h32v582h-385v-711h463
l-37 -78h-504v867h541zM300 425h-55h-28l18 -9q10 -5 10 -15v-309l55 40v266v27z" />
    <glyph glyph-name="A" unicode="A" horiz-adv-x="365" 
d="M332 61q0 -12 3 -23q2 -9 7 -17t15 -10l3 -12h-158l3 12q10 2 15 9t7 15t2.5 14.5t0.5 7.5v291h-69h-28l21 -10q7 -4 7 -11v-278v-175v-2q3 -4 5.5 -7.5t4.5 -7.5q1 -2 4 -5l1 -1q1 -1 1 -2q1 0 1.5 -0.5t1.5 -0.5l2 -2h1q0 -1 1 -1q2 0 2 -1h3h4q1 0 2 1h2h2l1 1l-1 -1
q0 -1 -0.5 -1t-0.5 -1q-1 -1 -1 -1.5t-2 -1.5l-4 -4q-1 0 -1.5 -0.5t-1.5 -0.5q-1 -1 -4 -1q-4 -2 -9 -1q-9 0 -19 7q-5 2 -9 5.5t-9 7.5q-4 4 -7.5 8t-8.5 9q-8 9 -14.5 18.5t-13.5 19.5t-13 18q-1 2 -4 5q-1 1 -1.5 2t-1.5 2t-1.5 2t-1.5 2l-2 2q0 1 -0.5 1t-0.5 1l-13 13
q-4 2 -7 4l-6 4q-6 2 -14 4q-4 1 -12 1q-3 -1 -8 -1h-3l2 2l3 3q2 2 4 3l2 2q1 1 1.5 1t1.5 1q1 0 3 2q2 0 2.5 0.5t1.5 0.5q10 4 20 4q3 0 6 -0.5t7 -1.5v660q0 10 -3 19q-2 8 -7.5 15t-15.5 9l-2 12h329l-3 -12q-9 -2 -14.5 -9t-7.5 -14.5t-2.5 -13l-0.5 -5.5v-585z
M258 424l-28 13v188h-69h-28l18 -9q10 -5 10 -15v-177h69h28z" />
    <glyph glyph-name="B" unicode="B" 
d="M306 57v-7.5t2.5 -14.5t7.5 -15t15 -9l2 -12h-328l2 12q10 2 15 9t7 15t2.5 14.5t0.5 7.5v585q0 1 -0.5 7.5t-2.5 14.5t-7 15t-15 9l-2 12h328l-2 -12q-10 -2 -15 -9t-7.5 -15t-2.5 -14.5v-7.5v-157q0 -6 2.5 -8.5t6.5 -4.5t9 -2v-6l-108 -50l108 -51v-6q-5 0 -9 -2
q-9 -4 -9 -13v-285zM125 616q10 -5 10 -15v-141l69 32v133h-97zM231 74l-18 9q-9 3 -9 15v237l-69 32v-293h96z" />
    <glyph glyph-name="C" unicode="C" 
d="M306 57v-7.5t2.5 -14.5t7.5 -15t15 -9l2 -12h-328l2 12q10 2 15 9t7 15t2.5 14.5t0.5 7.5v585q0 1 -0.5 7.5t-2.5 14.5t-7 15t-15 9l-2 12h328l-2 -12q-10 -2 -15 -9t-7.5 -15t-2.5 -14.5v-7.5v-55q-21 0 -39 -9q-16 -8 -31 -24.5t-20 -48.5l-12 3v117h-97l18 -9
q10 -5 10 -15v-527h96l-18 9q-9 3 -9 15v145l12 3q6 -39 21 -58.5t30 -27.5q18 -10 39 -9v-94v0z" />
    <glyph glyph-name="D" unicode="D" 
d="M331 688q-8 -2 -12.5 -8t-7.5 -13.5t-4 -14.5t-1 -11v-437q0 -8 5.5 -11.5t12.5 -0.5l4 -7l-184 -178q-10 -8 -22 -8h-117l2 12q10 2 15 9t7.5 15t3 14.5t0.5 7.5v580q0 12 -3 23q-2 9 -7.5 17.5t-15.5 10.5l-2 12h328zM204 175v450h-69v-492q0 -14 -6 -24l-13 -24z" />
    <glyph glyph-name="E" unicode="E" 
d="M306 57v-7.5t2.5 -14.5t7.5 -15t15 -9l2 -12h-286h-42l2 12q10 2 15 9t7 15t2.5 14.5t0.5 7.5v585q0 1 -0.5 7.5t-2.5 14.5t-7 15t-15 9l-2 12h286h42l-2 -12q-10 -2 -15 -9t-7.5 -15t-2.5 -14.5v-7.5v-55q-21 0 -39 -9q-16 -8 -31 -24.5t-20 -48.5l-12 3v117h-69h-28
l18 -9q10 -5 10 -15v-178h114l3 -9q-20 -3 -38.5 -24t-27.5 -42h-79l21 -10q7 -4 7 -11v-253h69h27l-18 9q-9 3 -9 15v28v117l12 3q6 -39 21 -58.5t30 -27.5q18 -10 39 -9v-25v-69v0z" />
    <glyph glyph-name="F" unicode="F" horiz-adv-x="365" 
d="M360 700l-3 -12q-9 -2 -14.5 -9t-7.5 -15t-2.5 -14.5t-0.5 -7.5v-55q-21 0 -39 -9q-16 -8 -30.5 -24.5t-20.5 -48.5l-12 3v117h-97l18 -9q10 -5 10 -15v-178h115l2 -9q-10 -2 -19.5 -8.5t-18.5 -15.5t-16 -20.5t-11 -21.5h-52h-28l22 -10q6 -4 6 -10v-454v-2
q3 -4 5.5 -7.5t4.5 -7.5q1 -2 4 -5l1 -1q1 -1 1 -2q1 0 1.5 -0.5t1.5 -0.5l2 -2h1q0 -1 1 -1q2 0 2 -1h3h4q1 0 2 1h2h2l1 1l-1 -1q0 -1 -0.5 -1t-0.5 -1q-1 -1 -1 -1.5t-2 -1.5l-4 -4q-1 0 -1.5 -0.5t-1.5 -0.5q-1 -1 -4 -1q-2 -1 -9 -1q-9 0 -19 7q-5 2 -9 5.5t-9 7.5
q-4 5 -7.5 8.5l-8.5 8.5q-8 9 -14.5 18.5t-13.5 19.5t-13 18q-1 2 -4 5q-1 1 -1.5 2t-1.5 2t-1.5 2t-1.5 2l-2 2q0 1 -0.5 1t-0.5 1l-13 13q-4 2 -7 4l-6 4q-6 2 -14 4q-4 1 -12 1q-3 -1 -8 -1h-3l2 2l3 3q2 2 4 3l2 2q1 1 1.5 1t1.5 1q1 0 3 2q2 0 2.5 0.5t1.5 0.5
q10 4 20 4q3 0 6 -0.5t7 -1.5v657q0 1 -0.5 7.5t-3 14.5t-7.5 15t-15 9l-2 12h329z" />
    <glyph glyph-name="G" unicode="G" 
d="M330 413q-7 -2 -12 -7t-8.5 -12.5t-3.5 -19.5v-248v-69v-7.5t2.5 -14.5t7.5 -15t15 -9l2 -12h-286h-42l2 12q10 2 15 9t7 15t2.5 14.5t0.5 7.5v585q0 1 -0.5 7.5t-2.5 14.5t-7 15t-15 9l-2 12h286h42l-2 -12q-10 -2 -15 -9t-7.5 -15t-2.5 -14.5v-7.5v-55q-21 0 -39 -9
q-16 -8 -31 -24.5t-20 -48.5l-12 3v117h-69h-28l18 -9q10 -5 10 -15v-178h198zM231 74l-18 9q-9 3 -9 15v28v222h-69h-28l22 -11q6 -2 6 -8v-255h69h27z" />
    <glyph glyph-name="H" unicode="H" horiz-adv-x="364" 
d="M332 62q0 -13 3 -24q2 -9 7 -17t15 -10l2 -12h-157l2 12q10 2 15 9t7.5 15t3 14.5t0.5 7.5v291h-97l23 -11q5 -2 5 -7v-456v-2l9 -15q2 -2 2.5 -3t2.5 -2v-1h1q0 -1 0.5 -1t0.5 -1q1 0 2 -1t1.5 -1t1.5 -1h1q0 -1 1 -1t2 -1h3h4q1 0 2 1h1h2l1 1v-1q0 -1 -0.5 -1t-0.5 -1
l-3 -3q-2 -2 -4 -3q-2 -2 -3 -2q-1 -1 -4 -1q-3 -1 -9 -1q-9 0 -19 7q-5 2 -9 5.5t-9 7.5q-4 5 -8 8.5t-8 8.5q-8 9 -14.5 18.5t-13.5 19.5q-4 5 -7 9.5t-7 9.5q-2 2 -3 4q-1 1 -1.5 2t-1.5 2t-1.5 2t-1.5 2l-2 2l-2 2q-3 4 -6 7l-6 6q-4 2 -7 4t-7 4q-5 2 -13 4q-4 1 -12 1
q-3 -1 -8 -1h-3v1l2 1q0 1 2 3q2 1 4 3q1 1 1.5 1t1.5 1t1.5 1t1.5 1q1 0 3 2q1 0 2 0.5t2 0.5q10 4 19 4q5 0 13 -2v657q0 1 -0.5 7.5t-2.5 14.5t-7 15t-15 9l-2 12h157l-2 -12q-10 -2 -15 -9t-7.5 -15t-2.5 -14.5v-7.5v-218h69h27l-18 9q-9 3 -9 14v195q0 1 -0.5 7.5
t-3 14.5t-7.5 15t-15 9l-2 12h157l-2 -12q-10 -2 -15 -9t-7.5 -15t-2.5 -14.5v-7.5v-580v0z" />
    <glyph glyph-name="I" unicode="I" horiz-adv-x="205" 
d="M197 -155h2l1 1l-1 -1q0 -1 -0.5 -1t-0.5 -1q-1 -1 -1 -1.5t-2 -1.5q-2 -2 -4 -3q-2 -2 -3 -2q-1 -1 -4 -1q-2 -1 -9 -1q-9 0 -19 7q-5 2 -9 5.5t-9 7.5q-4 5 -7.5 8.5l-8.5 8.5q-8 9 -14.5 18.5t-13.5 19.5q-3 5 -6.5 9.5t-6.5 9.5l-4 4q-1 1 -1.5 2t-1.5 2t-1.5 2
t-1.5 2l-2 2q0 1 -0.5 1t-0.5 1l-13 13q-4 2 -7 4l-6 4q-6 2 -14 4q-4 1 -12 1q-3 -1 -8 -1h-3l2 2l3 3q2 2 4 3l2 2q1 1 1.5 1t1.5 1q1 0 3 2q2 0 2.5 0.5t1.5 0.5q10 4 20 4q3 0 6 -0.5t7 -1.5v657q0 1 -0.5 7.5t-3 14.5t-7.5 15t-14 9l-3 12h157l-2 -12q-10 -2 -15 -9
t-7.5 -15t-2.5 -14.5v-7.5v-768v-2q3 -4 5.5 -7.5t4.5 -7.5q1 -2 4 -5l1 -1q1 -1 1 -2q1 0 1.5 -0.5t1.5 -0.5l2 -2h1q0 -1 1 -1q2 0 2 -1h3h4q1 0 2 1h2z" />
    <glyph glyph-name="J" unicode="J" 
d="M306 57v-7.5t2.5 -14.5t7.5 -15t15 -9l2 -12h-328l2 12q10 2 15 9t7 15t2.5 14.5t0.5 7.5v94q21 -1 39 9q15 8 30 27.5t22 58.5l12 -3v-169h69h27l-18 9q-9 3 -9 15v527h-97l18 -9q10 -5 10 -15v-9v-8.5t2.5 -14.5t7.5 -15t15 -9l2 -11h-157l2 11q10 2 15 9t7 15
t2.5 14.5t0.5 8.5v50q0 1 -0.5 7.5t-2.5 14.5t-7 15t-15 9l-2 12h328l-2 -12q-10 -2 -15 -9t-7.5 -15t-2.5 -14.5v-7.5v-585v0z" />
    <glyph glyph-name="K" unicode="K" horiz-adv-x="350" 
d="M344 -155l1 1l-1 -1q0 -1 -0.5 -1t-0.5 -1t-2 -3q-1 -1 -2 -1.5t-3 -2.5l-1 -1h-2q-1 -1 -3 -1q-6 -2 -9 -1q-10 0 -20 7q-8 4 -17 13q-5 4 -8.5 8t-7.5 9q-16 19 -29 38q-7 10 -13 18q-1 2 -1.5 2.5t-1.5 2.5q-1 1 -1.5 2t-1.5 2q-2 1 -2.5 2t-1.5 2q0 1 -0.5 1t-0.5 1
l-2 2q-3 4 -6.5 7t-6.5 6q-6 4 -13 8q-3 2 -6.5 2.5t-6.5 1.5q-5 1 -12 1q-4 -1 -9 -1h-3l2 2l3 3q2 2 4 3l2 2q1 1 1.5 1t1.5 1l4 2q1 0 1.5 0.5t1.5 0.5q5 2 9.5 3t10.5 1q3 0 6 -0.5t7 -1.5v340q0 4 4 4l12 -2l-85 40v-310v-7.5t2.5 -14.5t7.5 -15t15 -9l2 -12h-157l2 12
q10 2 15 9t7.5 15t3 14.5t0.5 7.5v585q0 1 -0.5 7.5t-3 14.5t-7.5 15t-15 9l-2 12h157l-2 -12q-10 -2 -15 -9t-7.5 -15t-2.5 -14.5v-7.5v-182l69 32v150q0 1 -0.5 7.5t-2.5 14.5t-7 15t-15 9l-2 12h157l-3 -12q-9 -2 -14 -9t-7.5 -15t-3 -14.5t-0.5 -7.5v-157q0 -6 2.5 -8.5
t6.5 -4.5t9 -2v-6l-108 -50l108 -51v-6q-5 0 -9 -2q-9 -4 -9 -13v-468l1 -2l9 -15q2 -2 2.5 -3t1.5 -2l1 -1h1q0 -1 1 -2l2 -1l2 -2h1l1 -1q2 0 3 -1h2h5l1 1h2h2z" />
    <glyph glyph-name="L" unicode="L" 
d="M333 -1h-328l2 12q10 2 15 9t7 15t2.5 14.5t0.5 7.5v585q0 1 -0.5 7.5t-2.5 14.5t-7 15t-15 9l-2 12h156l-2 -12q-10 -2 -15 -9t-7.5 -15t-2.5 -14.5v-7.5l1 -568h96l-18 9q-9 3 -9 15v145l12 3q6 -39 21 -58.5t30 -27.5q18 -10 39 -9v-94v-7.5t2.5 -14.5t7.5 -15t15 -9z
" />
    <glyph glyph-name="M" unicode="M" horiz-adv-x="536" 
d="M503 62q0 -13 3 -24q2 -9 7.5 -17t15.5 -10l2 -12h-157l2 12q10 2 15 9t7 15t2.5 14.5t0.5 7.5v535l-89 -88l17 6q3 3 3 -2v-446q0 -13 3 -24q2 -9 7 -17t15 -10l3 -12h-158l3 12q10 2 15 9t7 15t2.5 14.5t0.5 7.5v535l-91 -88l17 6q5 2 5 -3v-633v-2q3 -4 5.5 -7.5
t4.5 -7.5q1 -2 4 -5l1 -1q1 -1 1 -2q1 0 1.5 -0.5t1.5 -0.5l2 -2h1q0 -1 1 -1q2 0 2 -1h3h4q1 0 2 1h2h2l1 1l-1 -1q0 -1 -0.5 -1t-0.5 -1q-1 -1 -1 -1.5t-2 -1.5l-4 -4q-1 0 -1.5 -0.5t-1.5 -0.5q-1 -1 -4 -1q-2 -1 -9 -1q-9 0 -19 7q-5 2 -9 5.5t-9 7.5q-4 5 -7.5 8.5
l-8.5 8.5q-8 9 -14.5 18.5t-13.5 19.5t-13 18q-1 2 -4 5q-1 1 -1.5 2t-1.5 2t-1.5 2t-1.5 2l-2 2q0 1 -0.5 1t-0.5 1l-13 13q-4 2 -7 4l-6 4q-6 2 -14 4q-4 1 -12 1q-3 -1 -8 -1h-3l2 2l3 3q2 2 4 3l2 2q1 1 1.5 1t1.5 1q1 0 3 2q2 0 2.5 0.5t1.5 0.5q10 4 20 4q3 0 6 -0.5
t7 -1.5v657q0 1 -0.5 7.5t-3 14.5t-7.5 15t-14 9l-3 12h157l-2 -12q-10 -2 -15 -9t-7.5 -15t-2.5 -14.5v-7.5v-11l48 48q19 21 50 21h101l-3 -12q-9 -2 -14.5 -9t-7.5 -15t-2.5 -14.5t-0.5 -7.5v-11l48 48q21 21 50 21h101l-2 -12q-10 -2 -15 -9t-7.5 -15t-3 -14.5
t-0.5 -7.5v-580v0z" />
    <glyph glyph-name="N" unicode="N" horiz-adv-x="365" 
d="M332 62q0 -13 3 -24q2 -9 7 -17t15 -10l3 -12h-158l3 12q10 2 15 9t7 15t2.5 14.5t0.5 7.5v535l-91 -88l17 6q5 2 5 -3v-633v-2q3 -4 5.5 -7.5t4.5 -7.5q1 -2 4 -5l1 -1q1 -1 1 -2q1 0 1.5 -0.5t1.5 -0.5l2 -2h1q0 -1 1 -1q2 0 2 -1h3h4q1 0 2 1h2h2l1 1l-1 -1
q0 -1 -0.5 -1t-0.5 -1q-1 -1 -1 -1.5t-2 -1.5l-4 -4q-1 0 -1.5 -0.5t-1.5 -0.5q-1 -1 -4 -1q-2 -1 -9 -1q-9 0 -19 7q-5 2 -9 5.5t-9 7.5q-4 5 -7.5 8.5l-8.5 8.5q-8 9 -14.5 18.5t-13.5 19.5t-13 18q-1 2 -4 5q-1 1 -1.5 2t-1.5 2t-1.5 2t-1.5 2l-2 2q0 1 -0.5 1t-0.5 1
l-13 13q-4 2 -7 4l-6 4q-6 2 -14 4q-4 1 -12 1q-3 -1 -8 -1h-3l2 2l3 3q2 2 4 3l2 2q1 1 1.5 1t1.5 1q1 0 3 2q2 0 2.5 0.5t1.5 0.5q10 4 20 4q3 0 6 -0.5t7 -1.5v657q0 1 -0.5 7.5t-3 14.5t-7.5 15t-14 9l-3 12h157l-2 -12q-10 -2 -15 -9t-7.5 -15t-2.5 -14.5v-7.5v-11
l48 48q19 21 50 21h101l-3 -12q-9 -2 -14.5 -9t-7.5 -15t-2.5 -14.5t-0.5 -7.5v-580v0z" />
    <glyph glyph-name="O" unicode="O" 
d="M306 57v-7.5t2.5 -14.5t7.5 -15t15 -9l2 -12h-328l2 12q10 2 15 9t7 15t2.5 14.5t0.5 7.5v585q0 1 -0.5 7.5t-2.5 14.5t-7 15t-15 9l-2 12h328l-2 -12q-10 -2 -15 -9t-7.5 -15t-2.5 -14.5v-7.5v-585zM231 74l-18 9q-9 3 -9 15v527h-97l18 -9q10 -5 10 -15v-527h96z" />
    <glyph glyph-name="P" unicode="P" horiz-adv-x="365" 
d="M161 246v-372v-2q3 -4 5.5 -7.5t4.5 -7.5q1 -2 4 -5l1 -1q1 -1 1 -2q1 0 1.5 -0.5t1.5 -0.5l2 -2h1q0 -1 1 -1q2 0 2 -1h3h4q1 0 2 1h2h2l1 1l-1 -1q0 -1 -0.5 -1t-0.5 -1q-1 -1 -1 -1.5t-2 -1.5l-4 -4q-1 0 -1.5 -0.5t-1.5 -0.5q-1 -1 -4 -1q-2 -1 -9 -1q-9 0 -19 7
q-5 2 -9 5.5t-9 7.5q-4 5 -7.5 8.5l-8.5 8.5q-8 9 -14.5 18.5t-13.5 19.5t-13 18q-1 2 -4 5q-1 1 -1.5 2t-1.5 2t-1.5 2t-1.5 2l-2 2q0 1 -0.5 1t-0.5 1l-13 13q-4 2 -7 4l-6 4q-6 2 -14 4q-4 1 -12 1q-3 -1 -8 -1h-3l2 2l3 3q2 2 4 3l2 2q1 1 1.5 1t1.5 1q1 0 3 2
q2 0 2.5 0.5t1.5 0.5q10 4 20 4q3 0 6 -0.5t7 -1.5v20v637q0 1 -0.5 7.5t-3 14.5t-7.5 15t-15 9l-2 12h329l-3 -12q-9 -2 -14.5 -9t-7.5 -15t-2.5 -14.5t-0.5 -7.5v-338q0 -1 0.5 -7.5t2.5 -14.5t7.5 -15t14.5 -9l3 -12h-199zM133 625l18 -9q10 -5 10 -15v-279h97l-18 8
q-10 5 -10 17v278h-69h-28z" />
    <glyph glyph-name="Q" unicode="Q" horiz-adv-x="375" 
d="M563 -113q2 0 3 0.5t2 0.5t2 1l-6 -3q-2 -1 -3.5 -1.5t-3.5 -2.5q-6 -2 -10 -4q-5 -2 -12 -5t-15 -6q-15 -6 -36 -12l-22 -4t-23 -3t-25 -0.5t-27 2.5q-7 1 -13.5 2t-13.5 3q-1 0 -1.5 0.5t-1.5 0.5l-4 1q-2 1 -3 1t-3 1q-3 1 -7 3q-3 0 -7 2l-3 1l-4 2l-6 3
q-2 1 -3.5 1.5t-3.5 1.5l-6 3q-7 4 -13 7t-12 8q-13 8 -24 16.5t-22 17.5t-21 18t-20 17q-10 9 -19 17.5t-17 16.5q-2 1 -6 5h-106h-42l2 12q10 2 15 9t7 15t2.5 14.5t0.5 7.5v585q0 1 -0.5 7.5t-2.5 14.5t-7 15t-15 9l-2 12h328l-2 -12q-10 -2 -15 -9t-7.5 -15t-2.5 -14.5
v-7.5v-585v-7.5t2.5 -14.5t7.5 -15t15 -9l2 -12h-99v-1q8 -10 16.5 -19.5t17.5 -19.5t18 -19t19 -17q5 -5 10.5 -8.5t10.5 -7.5q1 -1 2 -1.5t3 -2.5q2 -1 2.5 -1.5t2.5 -1.5l6 -3l2 -2l3 -1q2 -1 3 -2t2 -1l6 -3l6 -3l3 -1l2 -1q6 -3 12 -5t11 -4q12 -3 24 -5t23 -2
q11 -1 21.5 -1t21.5 2q19 1 36 6q8 2 15 3.5t13 3.5q4 1 10 3q3 1 7 3zM107 625l18 -9q10 -5 10 -15v-499q1 -1 2 -1.5t2 -1.5q8 -5 14.5 -11.5t14.5 -13.5h63l-18 9q-9 3 -9 15v527h-97z" />
    <glyph glyph-name="R" unicode="R" horiz-adv-x="350" 
d="M344 -155l1 1l-1 -1q0 -1 -0.5 -1t-0.5 -1q-1 -1 -1 -1.5t-2 -1.5l-4 -4q-1 0 -1.5 -0.5t-1.5 -0.5q-1 -1 -4 -1q-2 -1 -9 -1q-9 0 -19 7q-5 2 -9 5.5t-9 7.5q-4 5 -7.5 8.5l-8.5 8.5q-8 9 -14.5 18.5t-13.5 19.5t-13 18q-1 2 -4 5q-1 1 -1.5 2t-1.5 2t-1.5 2t-1.5 2
l-2 2q0 1 -0.5 1t-0.5 1l-13 13q-4 2 -7 4l-6 4q-6 2 -14 4q-4 1 -12 1q-3 -1 -8 -1h-3l2 2l3 3q2 2 4 3l2 2q1 1 1.5 1t1.5 1q1 0 3 2q2 0 2.5 0.5t1.5 0.5q10 4 20 4q3 0 6 -0.5t7 -1.5v350l-69 32v-310v-7.5t2.5 -14.5t7.5 -15t15 -9l2 -12h-157l2 12q10 2 15 9t7 15
t2.5 14.5t0.5 7.5v585q0 1 -0.5 7.5t-2.5 14.5t-7 15t-15 9l-2 12h328l-2 -12q-10 -2 -15 -9t-7.5 -15t-2.5 -14.5v-7.5v-157q0 -6 2.5 -8.5t6.5 -4.5t9 -2v-6l-108 -50l108 -51v-6q-5 0 -9 -2q-9 -4 -9 -13v-468v-2q3 -4 5.5 -7.5t4.5 -7.5q1 -2 4 -5l1 -1q1 -1 1 -2
q1 0 1.5 -0.5t1.5 -0.5l2 -2h1q0 -1 1 -1q2 0 2 -1h3h4q1 0 2 1h2h2zM204 492v132h-69v-164z" />
    <glyph glyph-name="S" unicode="S" 
d="M306 57v-7.5t2.5 -14.5t7.5 -15t15 -9l2 -12h-328l2 12q10 2 15 9t7 15t2.5 14.5t0.5 7.5v94q21 -1 39 9q15 8 30 27.5t22 58.5l12 -3v-169h96l-18 9q-9 3 -9 15v248l-190 66l2 7q16 5 16 22v201q0 1 -0.5 7.5t-2.5 14.5t-7 15t-15 9l-2 12h328l-2 -12q-10 -2 -15 -9
t-7.5 -15t-2.5 -14.5v-7.5v-55q-21 0 -39 -9q-16 -8 -31 -24.5t-20 -48.5l-12 3v117h-97l18 -9q10 -5 10 -15v-151l189 -66l-3 -8q-15 -5 -15 -21v-298v0z" />
    <glyph glyph-name="T" unicode="T" horiz-adv-x="429" 
d="M424 700l-2 -12q-10 -2 -15 -9t-7.5 -15t-2.5 -14.5v-7.5v-55q-21 0 -39 -9q-16 -8 -31 -24.5t-20 -48.5l-12 2v118h-29h-28l18 -9q10 -5 10 -15v-727v-2q3 -4 5.5 -7.5t4.5 -7.5q1 -2 4 -5l1 -1q0 -1 0.5 -1t0.5 -1q1 0 2 -1t1.5 -1t1.5 -1h1q0 -1 1 -1t2 -1h3h4
q1 0 2 1h1h2l1 1v-1q0 -1 -0.5 -1t-0.5 -1l-3 -3l-4 -4q-1 0 -1.5 -0.5t-1.5 -0.5q-1 -1 -4 -1q-5 -2 -9 -1q-9 0 -19 7q-5 2 -9 5.5t-9 7.5l-8 8t-8 9q-8 9 -14.5 18.5t-13.5 19.5q-4 5 -7 9.5t-6 8.5q-3 3 -4 5q-1 1 -1.5 2t-1.5 2t-1.5 2t-1.5 2l-2 2q0 1 -0.5 1t-0.5 1
l-13 13q-4 2 -7 4l-6 4q-6 2 -14 4q-4 1 -12 1q-3 -1 -8 -1h-3v1l2 1q1 1 1 1.5t1 1.5q2 1 4 3q1 1 1.5 1t1.5 1t1.5 1t1.5 1q1 0 3 2q1 0 2 0.5t2 0.5q10 4 19 4q5 0 13 -2v640h-28v-118l-12 -2q-6 32 -21 48.5t-31 24.5q-18 9 -39 9v55q0 1 -0.5 7.5t-2.5 14.5t-7 15
t-15 9l-2 12h419z" />
    <glyph glyph-name="U" unicode="U" horiz-adv-x="365" 
d="M332 53l0.5 -5.5t2.5 -13t7.5 -14.5t14.5 -9l3 -12h-329l2 12q10 2 15.5 8.5t7.5 14.5q3 9 3 20v524v19q-5 -1 -13 -1q-13 0 -20 3q-2 2 -4 2q-1 1 -1.5 1t-1.5 1t-1.5 1t-1.5 1q-2 0 -2 2q-2 1 -4 3l-3 3l-2 2h3q2 -1 8 -1q8 0 12 1q4 0 7 1t7 3q3 2 6 3.5t7 4.5l13 13
l1 2l2 2t3 4q2 2 3 4q2 1 2.5 2t1.5 2q3 5 6.5 9.5t6.5 9.5q7 9 13.5 18.5t14.5 18.5q5 5 8.5 9t7.5 8q5 5 9 8t9 6q8 5 19 7q7 0 9 -1q2 0 2.5 -0.5t1.5 -0.5q1 -1 1.5 -1t1.5 -1q2 -1 4 -3q2 -1 2 -1.5t1 -1.5q0 -1 1 -2q0 -1 1 -1h-1q-1 0 -2 1h-2h-2q-1 0 -2 0.5t-2 0.5
t-1.5 -0.5t-1.5 -0.5h-2q0 -1 -1 -1l-1 -1q-2 0 -2 -1q-1 0 -3 -2l-1 -1l-1 -1q-1 -2 -2 -3t-2 -3q-2 -3 -4.5 -6.5t-5.5 -8.5v-2v-634h97l-21 10q-7 3 -7 11v547q0 1 -0.5 7.5t-2.5 14.5t-7.5 15t-14.5 9l-3 12h158l-3 -12q-10 -2 -15 -10.5t-7 -17.5q-3 -11 -3 -24v-583v0
z" />
    <glyph glyph-name="V" unicode="V" horiz-adv-x="365" 
d="M332 57q0 -1 0.5 -7.5t3 -14.5t7.5 -15t15 -9l2 -12h-117q-12 0 -22 8l-184 178l4 7q7 -3 12.5 1t5.5 11v393q-5 -1 -13 -1q-11 0 -20 3q-1 1 -1.5 1t-1.5 1l-4 2q-1 1 -1.5 1t-1.5 1l-2 2q-2 1 -4 3l-3 3l-2 2h3q2 -1 9 -1t12 1q5 0 13 4q3 2 6.5 3.5t6.5 4.5t6.5 6
t6.5 7l2 2l1 2q2 2 3 4q3 1 4 4q1 1 1.5 2t1.5 2q3 5 6.5 9.5t6.5 9.5q7 9 14 18.5t15 18.5q4 5 7.5 9t8.5 8q4 5 8 8t9 6q8 5 20 7q6 0 9 -1q1 0 1.5 -0.5t1.5 -0.5q3 -3 3 -2q4 -2 5 -3q2 -2 2 -3t1 -2q0 -1 1 -1h-1q-1 0 -2 1h-2h-2q-1 0 -1.5 0.5t-2.5 0.5q-1 0 -2 -1
h-3q0 -1 -1 -1l-1 -1q-1 0 -2 -1q-2 0 -2 -2q-1 0 -1 -1h-1l-1 -1q-1 -2 -2 -3t-2 -3q-5 -6 -9 -15q-1 0 -1 -2v-533l88 -90l-13 24q-6 10 -6 24v509q0 1 -0.5 7.5t-2.5 14.5t-7 15t-15 9l-2 12h157l-2 -12q-10 -2 -15.5 -10.5t-7.5 -17.5q-3 -11 -3 -23v-580v0z" />
    <glyph glyph-name="W" unicode="W" horiz-adv-x="536" 
d="M504 57v-7.5t2.5 -14.5t7.5 -15t15 -9l2 -12h-117q-12 0 -22 8l-60 58v-8q0 -1 0.5 -7.5t3 -14.5t7.5 -15t15 -9l2 -12h-117q-12 0 -22 8l-184 178l4 7q7 -3 12.5 1t5.5 11v393q-5 -1 -13 -1q-11 0 -20 3q-2 2 -3 2l-4 2q-1 1 -1.5 1t-1.5 1l-2 2q-2 1 -4 3l-3 3l-2 2h3
q2 -1 9 -1t12 1q5 0 13 4q3 2 6.5 3.5t6.5 4.5t6.5 6t6.5 7l2 2l1 2q2 2 3 4q3 1 4 4q1 1 1.5 2t1.5 2q3 5 6.5 9.5t6.5 9.5q7 9 14 18.5t15 18.5q4 5 7.5 9t8.5 8q4 5 8 8t9 6q8 5 20 7q6 0 9 -1q1 0 1.5 -0.5t1.5 -0.5q3 -3 3 -2q4 -2 5 -3q2 -2 2 -3t1 -2q0 -1 1 -1h-1
q-1 0 -2 1h-2h-2q-1 0 -1.5 0.5t-2.5 0.5q-1 0 -2 -1h-3q0 -1 -1 -1l-1 -1q-1 0 -2 -1q-2 0 -2 -2q-1 0 -1 -1h-1l-1 -1q-1 -2 -2 -3t-2 -3q-5 -6 -9 -15q-1 0 -1 -2v-533l88 -90l-13 24q-6 10 -6 24v509q0 1 -0.5 7.5t-2.5 14.5t-7 15t-15 9l-2 12h157l-2 -12
q-10 -2 -15.5 -10.5t-7.5 -17.5q-3 -11 -3 -23v-462l88 -90l-13 24q-6 10 -6 24v509q0 2 -1 12t-6 19l2 27h135l-2 -12q-10 -2 -15 -10.5t-7 -17.5q-3 -11 -3 -23v-580v0z" />
    <glyph glyph-name="X" unicode="X" horiz-adv-x="349" 
d="M343 -155l1 1v-1q0 -1 -0.5 -1t-0.5 -1l-3 -3q-2 -2 -4 -3q-2 -2 -3 -2q-1 -1 -4 -1q-3 -1 -9 -1q-9 0 -19 7q-5 2 -9 5.5t-9 7.5q-4 5 -8 8.5t-8 8.5q-8 9 -14.5 18.5t-13.5 19.5q-4 5 -7 9.5t-7 9.5q-2 2 -3 4q-1 1 -1.5 2t-1.5 2t-1.5 2t-1.5 2l-2 2l-2 2q-3 4 -6 7
l-6 6q-4 2 -7 4t-7 4q-3 2 -6.5 2.5t-6.5 1.5q-4 1 -12 1q-3 -1 -8 -1h-3v1l2 1q0 1 2 3q1 1 2 1.5t2 1.5t1.5 1t1.5 1t1.5 1t1.5 1q1 0 3 2q1 0 2 0.5t2 0.5q10 4 19 4q5 0 13 -2v321q0 2 3 2l17 -7l-54 47l-34 -30v-261v-7.5t2.5 -14.5t7.5 -15t15 -9l2 -12h-157l2 12
q10 2 15 9t7 15t2.5 14.5t0.5 7.5v242q0 7 -5.5 10.5t-11.5 1.5l-5 7l97 83l-97 83l5 8q6 -3 11.5 0.5t5.5 10.5v139q0 1 -0.5 7.5t-2.5 14.5t-7 15t-15 9l-2 12h157l-2 -12q-10 -2 -15 -9t-7.5 -15t-2.5 -14.5v-7.5v-144q0 -3 -4 -3l-13 5l49 -47l36 31v158q0 1 -0.5 7.5
t-2.5 14.5t-7 15t-15 9l-2 12h157l-2 -12q-10 -2 -15 -9t-7.5 -15t-2.5 -14.5v-7.5v-139q0 -7 5.5 -10.5t11.5 -0.5l5 -8l-98 -84l98 -82l-5 -7q-6 2 -11.5 -1.5t-5.5 -10.5v-425v-2l9 -15q2 -2 2.5 -3t2.5 -2v-1h1q0 -1 0.5 -1t0.5 -1q1 0 2 -1l2 -2h2q0 -1 1 -1t2 -1h3h4
q1 0 2 1h1h2z" />
    <glyph glyph-name="Y" unicode="Y" 
d="M331 688q-10 -2 -15 -9t-7.5 -15t-2.5 -14.5v-7.5v-34v-99v-8v-62q0 -7 5.5 -10.5t11.5 -1.5l5 -7l-107 -89v-457l1 -2l9 -15q2 -2 2.5 -3t2.5 -2v-1h1q0 -1 1 -2l2 -1l2 -2h1l1 -1q2 0 3 -1h2h5l1 1h2h2l1 1l-1 -1q0 -1 -0.5 -1t-0.5 -1t-2 -3q-1 -1 -2 -1.5t-2 -2.5
q-1 0 -1.5 -0.5t-1.5 -0.5q-2 -1 -4 -1q-3 -1 -9 -1q-10 0 -20 7q-8 4 -17 13l-8.5 8.5t-7.5 8.5q-16 19 -29 38q-3 5 -6 9.5t-7 8.5q-1 2 -1.5 2.5t-1.5 2.5q-1 1 -1.5 2t-1.5 2l-4 4q0 1 -0.5 1t-0.5 1l-2 2q-6 7 -13 13q-8 6 -13 8q-3 2 -6.5 2.5t-6.5 1.5q-5 1 -12 1
q-4 -1 -9 -1h-3l2 2l3 3q2 2 4 3q1 1 1.5 1t1.5 1l2 2q2 0 4 2q1 0 1.5 0.5t2.5 0.5q10 4 19 4q5 0 13 -2v344l-109 91l5 7q6 -2 11.5 1.5t5.5 10.5v62v25v82v34q0 1 -0.5 7.5t-2.5 14.5t-7 15t-15 9l-2 12h157l-2 -12q-10 -2 -15 -9t-7.5 -15t-2.5 -14.5v-7.5v-34v-172
q0 -6 -6 -4l-14 6l53 -51h2l33 32v189v34q0 1 -0.5 7.5t-2.5 14.5t-7 15t-15 9l-2 12h157l-2 -12v0z" />
    <glyph glyph-name="Z" unicode="Z" 
d="M306 57v-7.5t2.5 -14.5t7.5 -15t15 -9l2 -12h-328l2 12q10 2 15 9t7 15t2.5 14.5t0.5 7.5v295q0 16 -15 21l-2 11l189 66v175h-69h-28l25 -12q3 -3 3 -5v-100l-12 -3q-6 32 -21 48.5t-31 24.5q-18 9 -39 9v55q0 1 -0.5 7.5t-2.5 14.5t-7 15t-15 9l-2 12h42h286l-2 -12
q-10 -2 -15 -9t-7.5 -15t-2.5 -14.5v-7.5v-201q0 -17 17 -22l1 -7l-189 -66v-272h96l-22 11q-5 2 -5 8v150l12 3q6 -39 21 -58.5t30 -27.5q18 -10 39 -9v-94v0z" />
    <glyph glyph-name="bracketleft" unicode="[" horiz-adv-x="182" 
d="M108 653v-338v-49v-386h69l-21 -47h-151v433v53v381h151l21 -47h-69v0z" />
    <glyph glyph-name="backslash" unicode="\" horiz-adv-x="249" 
d="M82 700l70 -375l10 -52l82 -440h-76l-163 867h77v0z" />
    <glyph glyph-name="bracketright" unicode="]" horiz-adv-x="182" 
d="M74 653h-69l21 47h151v-867h-151l-21 47h69v773v0z" />
    <glyph glyph-name="asciicircum" unicode="^" horiz-adv-x="268" 
d="M263 545h-50l-79 113l-79 -113h-50l92 155h7h60h7l92 -155v0z" />
    <glyph glyph-name="underscore" unicode="_" horiz-adv-x="877" 
d="M872 -89v-78h-867v78h867v0z" />
    <glyph glyph-name="a" unicode="a" horiz-adv-x="325" 
d="M32 194q0 8 -5.5 13.5t-13.5 5.5l-1 5l178 130v77h-83l14 -7q14 -7 14 -22v-78l-12 -5q-4 14 -10.5 27.5t-17 23.5t-26 16t-37.5 6v56q0 1 -0.5 7.5t-2.5 14.5t-7 15t-15 9l-2 12h315l-2 -12q-10 -2 -15 -9t-7.5 -15t-3 -14.5t-0.5 -7.5v-385q0 -1 0.5 -7.5t3 -14.5
t7.5 -15t15 -9l2 -12h-315l2 12q10 2 15 9t7 15t2.5 14.5t0.5 7.5v137zM135 74h55h28l-18 9q-10 3 -10 15v5v7v144l-55 -40v-114v-26z" />
    <glyph glyph-name="b" unicode="b" horiz-adv-x="335" 
d="M303 57v-7.5t2.5 -14.5t7.5 -15t15 -9l2 -12h-315l3 12q10 2 15 9t7 15t2.5 14.5t0.5 7.5v555q-15 1 -23 5t-11 9q-2 1 -2 2t-1 2t-1 2q2 -1 7 -1q7 0 11 1q6 0 11 3q8 4 12 7l5.5 5.5t5.5 6.5q1 0 1 0.5t1 0.5q0 1 0.5 1t0.5 1l3 3q1 2 3 4q1 1 1.5 2t1.5 2q2 4 5 7.5
t6 8.5q6 8 12 16.5t13 16.5q3 4 6.5 7.5l7.5 7.5q4 3 7.5 6.5t7.5 5.5q9 4 17 6q6 0 8 -1q3 0 3 -1q1 0 1.5 -0.5t1.5 -0.5q2 -1 4 -3t2 -3t1 -2h1h-3l-1 1h-2h-4h-2q-1 0 -1 -0.5t-1 -0.5h-1q0 -1 -1 -1t-1 -0.5t-1 -0.5l-2 -2l-1 -1l-1 -1q-6 -6 -6 -16v-217h185l-2 -12
q-10 -2 -15 -9t-7.5 -15t-2.5 -14.5v-7.5v-385zM228 74l-19 9q-8 5 -8 13v329h-83l18 -9q9 -5 9 -15v-327h83z" />
    <glyph glyph-name="c" unicode="c" horiz-adv-x="325" 
d="M292 57q0 -1 0.5 -7.5t3 -14.5t7.5 -15t15 -9l2 -12h-315l2 12q10 2 15 9t7 15t2.5 14.5t0.5 7.5v385q0 1 -0.5 7.5t-2.5 14.5t-7 15t-15 9l-2 12h315l-2 -12q-10 -2 -15 -9t-7.5 -15t-3 -14.5t-0.5 -7.5v-49v-4q-43 0 -63 -22.5t-28 -51.5l-11 5v105h-83l18 -9
q10 -5 10 -15v-327h83l-28 13v94l11 5q8 -29 28 -51.5t63 -22.5v-9v-46v0z" />
    <glyph glyph-name="d" unicode="d" horiz-adv-x="325" 
d="M292 57q0 -1 0.5 -7.5t3 -14.5t7.5 -15t15 -9l2 -12h-315l2 12q10 2 15 9t7 15t2.5 14.5t0.5 7.5v385q0 1 -0.5 7.5t-2.5 14.5t-7 15t-15 9l-2 12h185v112q-15 1 -23 5t-11 9q-2 1 -2 2t-1 2t-1 2q2 -1 7 -1q7 0 11 1q6 0 12 3q2 2 5 3.5t6 3.5q3 3 6 5.5t5 6.5
q1 0 1 0.5t1 0.5q0 1 0.5 1t0.5 1l3 3q1 2 3 4q1 1 1.5 2t1.5 2q3 4 5.5 7.5t5.5 8.5q6 8 12 16.5t13 16.5q4 4 7 7.5t7 7.5q4 3 7.5 6.5t7.5 5.5q9 4 18 6q5 0 7 -1q3 0 4 -1q1 0 2 -1q2 -1 4 -3t2 -3t1 -2h1h-3l-1 1h-2h-4h-2l-2 -1h-1q0 -1 -1 -1t-1 -0.5t-1 -0.5l-2 -2
l-1 -1l-1 -1q-6 -6 -6 -16v-660zM200 82q-10 5 -10 16v327h-83l18 -9q10 -5 10 -15v-327h83z" />
    <glyph glyph-name="e" unicode="e" horiz-adv-x="325" 
d="M292 351q0 -8 6 -13.5t14 -5.5v-5l-177 -129v-124h83l-28 13v94l11 5q8 -29 28 -51.5t63 -22.5v-9v-46q0 -1 0.5 -7.5t3 -14.5t7.5 -15t15 -9l2 -12h-315l2 12q10 2 15 9t7 15t2.5 14.5t0.5 7.5v385q0 1 -0.5 7.5t-2.5 14.5t-7 15t-15 9l-2 12h315l-2 -12q-10 -2 -15 -9
t-7.5 -15t-3 -14.5t-0.5 -7.5v-91zM190 425h-83l18 -9q10 -5 10 -15v-110l55 40v94z" />
    <glyph glyph-name="f" unicode="f" horiz-adv-x="341" 
d="M336 700l-2 -12q-10 -2 -15 -9t-7.5 -15t-3 -14.5t-0.5 -7.5v-12v-4q-43 0 -63 -22.5t-28 -51.5l-11 5v68h-83l18 -9q10 -5 10 -15v-101h69l-27 -75h-42v-368v-7.5t2.5 -14.5t7.5 -15t15 -9l2 -12h-157l2 12q10 2 15 9t7 15t2.5 14.5t0.5 7.5v368h-43l27 75h16v142
q0 1 -0.5 7.5t-2.5 14.5t-7 15t-15 9l-2 12h315z" />
    <glyph glyph-name="g" unicode="g" horiz-adv-x="325" 
d="M292 -192q0 -1 0.5 -7.5t3 -14.5t7.5 -15t15 -9l2 -12h-315l2 12q10 2 15 9t7 15t2.5 14.5t0.5 7.5v57q43 0 63 22.5t28 51.5l12 -5v-109h83l-18 9q-10 5 -10 15v150h-185l2 12q10 2 15 9t7 15t2.5 14.5t0.5 7.5v385q0 1 -0.5 7.5t-2.5 14.5t-7 15t-15 9l-2 12h315
l-2 -12q-10 -2 -15 -9t-7.5 -15t-3 -14.5t-0.5 -7.5v-634zM218 74l-19 9q-9 4 -9 14v328h-83l18 -9q10 -5 10 -15v-327h83z" />
    <glyph glyph-name="h" unicode="h" horiz-adv-x="336" 
d="M331 -66l-2 -2q0 -1 -2 -3t-4 -3q-1 0 -1 -0.5t-1 -0.5q-1 -1 -4 -1q-2 -1 -8 -1q-8 2 -17 6q-8 4 -15 12q-4 4 -7 7.5t-7 7.5q-7 8 -13 16.5t-12 16.5q-3 5 -5.5 8.5t-5.5 7.5q-1 1 -1.5 2t-1.5 2q-2 2 -3 4l-3 3q0 1 -0.5 1t-0.5 1q-1 0 -1 0.5t-1 0.5q-2 4 -5 6.5
t-6 5.5q-3 2 -6 3.5t-5 3.5q-6 3 -12 3q-4 1 -11 1q-5 0 -7 -1q0 1 1 2t1 1.5t2 2.5q3 5 10.5 9t22.5 5l1 364h-83l18 -9q10 -5 10 -15v-344v-7.5t2.5 -14.5t7.5 -15t15 -9l2 -12h-157l2 12q10 2 15 9t7 15t2.5 14.5t0.5 7.5v555q-15 1 -23 5t-11 9q-2 1 -2 2t-1 2t-1 2
q2 -1 8 -1t10 1q6 0 12 3q5 2 11 7q3 3 6 5.5t5 6.5q1 0 1 0.5t1 0.5q0 1 0.5 1t0.5 1l3 3q1 2 3 4q1 1 1.5 2t1.5 2q3 4 6 7.5t5 8.5q6 8 12 16.5t13 16.5q4 4 7 7.5t7 7.5q4 3 7.5 6.5t8.5 5.5q7 4 17 6q5 0 8 -1q2 0 3 -1q1 0 2 -1q2 -1 4 -3t2 -3t1 -2h1h-3l-1 1h-2h-4
h-2l-2 -1h-1q0 -1 -1 -1l-2 -1l-2 -2l-1 -1l-1 -1q-5 -6 -5 -16v-217h185l-3 -12q-9 -2 -14 -9t-7.5 -15t-3 -14.5t-0.5 -7.5v-487q0 -9 6 -15l1 -1l1 -1l2 -2q1 0 1 -0.5t1 -0.5l1 -1h1q1 0 1 -0.5t1 -0.5h2h4h2l1 1h3z" />
    <glyph glyph-name="i" unicode="i" horiz-adv-x="167" 
d="M135 57v385v7.5t2.5 14.5t7.5 15t15 9l2 12h-157l2 -12q10 -2 15 -9t7 -15t2.5 -14.5t0.5 -7.5v-385q0 -1 -0.5 -7.5t-2.5 -14.5t-7 -15t-15 -9l-2 -12h157l-2 12q-10 2 -15 9t-7.5 15t-2.5 14.5v7.5zM83 562l-68 69l68 69l69 -69z" />
    <glyph glyph-name="j" unicode="j" horiz-adv-x="166" 
d="M133 -192v634q0 1 0.5 7.5t3 14.5t7.5 15t15 9l2 12h-157l2 -12q10 -2 15 -9t7 -15t2.5 -14.5t0.5 -7.5v-593q0 -10 10 -15l18 -9h-83v109l-12 5q-8 -29 -28 -51.5t-63 -22.5v-57q0 -1 -0.5 -7.5t-2.5 -14.5t-7 -15t-15 -9l-2 -12h315l-2 12q-10 2 -15 9t-7.5 15t-3 14.5
t-0.5 7.5zM79 562l-69 69l69 69l69 -69z" />
    <glyph glyph-name="k" unicode="k" horiz-adv-x="335" 
d="M326 -67q1 0 2 1h2l-1 -2q-1 -1 -1 -1.5t-1 -1.5q-2 -2 -4 -3q-1 0 -1.5 -0.5t-1.5 -0.5q-1 -1 -3 -1q-2 -1 -8 -1q-8 1 -17 6q-8 4 -15 12l-7.5 7.5t-6.5 7.5q-7 8 -13 16.5t-12 16.5q-3 5 -6 8.5t-6 7.5q-2 2 -2 4q-2 2 -3 4l-3 3l-2 2l-1 1q-3 4 -6 6.5t-5 5.5
q-4 3 -12 7q-6 3 -11 3q-4 1 -11 1q-5 0 -7 -1v2q0 1 3 4q4 5 12 9t23 5v207h-83l18 -8q9 -5 9 -15v-188q0 -1 0.5 -7.5t3 -14.5t7.5 -15t14 -9l3 -12h-158l3 12q10 2 15 9t7 15t2.5 14.5t0.5 7.5v555q-15 1 -23 5t-11 9q-2 1 -2 2t-1 2t-1 2q2 -1 7 -1q7 0 11 1q6 0 11 3
q8 4 12 7l5.5 5.5t5.5 6.5q1 0 1 0.5t1 0.5q0 1 0.5 1t0.5 1l3 3q1 2 3 4q1 1 1.5 2t1.5 2q2 4 5 7.5t6 8.5q6 8 12 16.5t13 16.5q3 4 6.5 7.5l7.5 7.5q4 3 7.5 6.5t7.5 5.5q9 4 17 6q6 0 8 -1q3 0 3 -1q1 0 1.5 -0.5t1.5 -0.5q2 -1 4 -3t2 -3t1 -2h1h-3l-1 1h-2h-4h-2
q-1 0 -1 -0.5t-1 -0.5h-1q0 -1 -1 -1t-1 -0.5t-1 -0.5l-2 -2l-1 -1l-1 -1q-6 -8 -6 -16v-373l56 67v31q0 1 -0.5 7.5t-3 14.5t-7.5 15t-15 9l-2 12h157l-2 -12q-10 -2 -15 -9t-7.5 -15t-2.5 -14.5v-7.5v-1q0 -10 10 -8l2 -6l-71 -83h86l-2 -12q-10 -2 -15 -9t-7.5 -15
t-2.5 -14.5v-7.5v-331q0 -9 6 -15v-1h1q0 -1 1 -1l2 -2l2 -1l1 -1h1l2 -1h2h4h1v0z" />
    <glyph glyph-name="l" unicode="l" horiz-adv-x="178" 
d="M145 57q0 -1 0.5 -7.5t3 -14.5t7.5 -15t14 -9l3 -12h-157l2 12q10 2 15 9t7 15t2.5 14.5t0.5 7.5v555q-15 1 -23 5t-11 9q-2 1 -2 2t-1 2t-1 2q2 -1 7 -1q7 0 11 1q6 0 11 3q8 4 12 7l5.5 5.5t5.5 6.5q1 0 1 0.5t1 0.5q0 1 0.5 1t0.5 1l3 3q1 2 3 4q1 1 1.5 2t1.5 2
q2 4 5 7.5t6 8.5q6 8 12 16.5t13 16.5q3 4 6.5 7.5l7.5 7.5q4 3 7.5 6.5t7.5 5.5q9 4 17 6q6 0 8 -1q3 0 3 -1q1 0 1.5 -0.5t1.5 -0.5q2 -1 4 -3t2 -3t1 -2h1h-3l-1 1h-2h-4h-2q-1 0 -1 -0.5t-1 -0.5h-1q0 -1 -1 -1t-1 -0.5t-1 -0.5l-2 -2l-1 -1l-1 -1q-6 -6 -6 -16v-660v0z
" />
    <glyph glyph-name="m" unicode="m" horiz-adv-x="483" 
d="M450 57q0 -1 0.5 -7.5t3 -14.5t7.5 -15t15 -9l2 -12h-157l2 12q10 2 15 9t7 15t2.5 14.5t0.5 7.5v368h-55h-28l17 -8q11 -6 11 -17v-444q0 -11 5 -16l1 -1l1 -1l2 -2q1 0 2 -1q1 0 1 -1h1q1 0 2 -1h2h4h2l1 1h3h-1l-1 -2q0 -1 -2 -3t-4 -3l-2 -1q-1 -1 -3 -1q-3 -1 -8 -1
q-10 2 -17 6q-5 2 -8.5 5.5t-7.5 6.5q-4 4 -7 7.5t-7 7.5q-7 8 -13 16.5t-12 16.5q-2 5 -5 8.5t-6 7.5q-1 1 -1.5 2t-1.5 2q-2 2 -3 4l-3 3q0 1 -0.5 1t-0.5 1q-1 0 -1 0.5t-1 0.5q-2 4 -5 6.5t-6 5.5q-6 4 -11 7q-6 3 -12 3q-4 1 -10 1t-8 -1q0 1 1 2t1 1.5t2 2.5q3 5 11 9
t23 5v364h-83l21 -10q7 -4 7 -11v-347v-7.5t2.5 -14.5t7.5 -15t15 -9l2 -12h-157l2 12q10 2 15 9t7 15t2.5 14.5t0.5 7.5v385q0 1 -0.5 7.5t-2.5 14.5t-7 15t-15 9l-2 12h473l-2 -12q-10 -2 -15 -9t-7.5 -15t-3 -14.5t-0.5 -7.5v-385v0z" />
    <glyph glyph-name="n" unicode="n" horiz-adv-x="325" 
d="M320 -66h-1l-1 -2q0 -1 -2 -3t-4 -3q-1 0 -1.5 -0.5t-1.5 -0.5q-1 -1 -3 -1q-2 -1 -8 -1q-8 2 -17 6q-4 2 -7.5 5.5t-7.5 6.5l-7.5 7.5t-6.5 7.5q-7 8 -13 16.5t-12 16.5q-3 5 -6 8.5t-5 7.5q-1 1 -1.5 2t-1.5 2q-2 2 -3 4l-3 3q-1 1 -1 2q-1 0 -1 0.5t-1 0.5
q-3 4 -5.5 6.5l-5.5 5.5q-4 3 -12 7q-5 3 -11 3q-4 1 -11 1q-5 0 -7 -1q0 1 1 2l2 4q4 5 12 9t23 5v364h-83l19 -9q8 -5 8 -13v-346q0 -1 0.5 -7.5t3 -14.5t7.5 -15t15 -9l2 -12h-157l2 12q10 2 15 9t7 15t2.5 14.5t0.5 7.5v385q0 1 -0.5 7.5t-2.5 14.5t-7 15t-15 9l-2 12
h314l-2 -12q-10 -2 -15 -9t-7.5 -15t-2.5 -14.5v-7.5v-486q0 -10 6 -16l1 -1q0 -1 1 -1l2 -2q1 0 1 -0.5t1 -0.5l1 -1h1q1 0 1 -0.5t1 -0.5h2h4h1q1 0 1 0.5t1 0.5h3z" />
    <glyph glyph-name="o" unicode="o" horiz-adv-x="325" 
d="M292 57q0 -1 0.5 -7.5t3 -14.5t7.5 -15t15 -9l2 -12h-315l2 12q10 2 15 9t7 15t2.5 14.5t0.5 7.5v385q0 1 -0.5 7.5t-2.5 14.5t-7 15t-15 9l-2 12h315l-2 -12q-10 -2 -15 -9t-7.5 -15t-3 -14.5t-0.5 -7.5v-385zM218 74l-18 9q-10 3 -10 15v327h-83l18 -9q10 -5 10 -15
v-327h83z" />
    <glyph glyph-name="p" unicode="p" horiz-adv-x="335" 
d="M145 -1v-217q0 -9 6 -15l1 -1l1 -1l2 -2q1 -1 2 -1l1 -1h1q1 0 1 -0.5t1 -0.5h2h4h2l1 1h3l-2 -2q0 -1 -2 -3t-4 -3q-1 0 -1 -0.5t-1 -0.5q-1 -1 -4 -1q-2 -1 -8 -1q-4 0 -8 2t-9 4q-8 4 -15 12q-4 4 -7 7.5t-7 7.5q-7 8 -13 16.5t-12 16.5q-6 7 -11 16q-1 1 -1.5 2
t-1.5 2l-3 3q-1 2 -3 4l-1 2q-1 0 -1 0.5t-1 0.5q-6 7 -11 11q-3 3 -6 4.5t-5 3.5q-6 3 -12 3q-4 1 -11 1q-5 0 -7 -1q0 1 1 2t1 1.5t2 2.5q3 5 11 9t23 5v554q0 1 -0.5 7.5t-2.5 14.5t-7 15t-15 9l-2 12h314l-2 -12q-10 -2 -15 -9t-7.5 -15t-2.5 -14.5v-7.5v-385v-7.5
t2.5 -14.5t7.5 -15t15 -9l2 -12h-185zM136 416q9 -5 9 -15v-310v-17h83l-18 9q-9 3 -9 15v327h-83z" />
    <glyph glyph-name="q" unicode="q" horiz-adv-x="335" 
d="M327 -126q1 -2 2 -2.5t1 -1.5v-2q-1 1 -7 1q-7 0 -11 -1q-5 0 -11 -3q-3 -2 -6 -3.5t-6 -4.5q-2 -2 -5 -4.5t-6 -6.5l-1 -1l-2 -2q-2 -2 -3 -4q-2 -2 -2 -3q-1 -1 -1.5 -2t-1.5 -2l-6 -8l-6 -8q-6 -8 -12 -16.5t-13 -16.5q-3 -4 -6.5 -7.5l-7.5 -7.5q-3 -4 -7 -7t-8 -5
l-8 -4t-9 -2q-6 0 -8 1q-2 0 -3 1q-1 0 -1.5 0.5t-1.5 0.5q-1 1 -2 1.5t-2 1.5t-1 1.5t-1 1.5t-1 2h2q1 -1 2 -1h1h4h2q1 0 2 1h1q1 0 1 1q2 0 2 1q2 0 2 2l1 1h1v1h1q5 7 5 15v217h-185l2 12q10 2 15 9t7 15t2.5 14.5t0.5 7.5v385q0 1 -0.5 7.5t-2.5 14.5t-7 15t-15 9
l-2 12h315l-2 -12q-10 -2 -15 -9t-7.5 -15t-3 -14.5t-0.5 -7.5v-554q15 -1 23 -5t12 -9zM199 82q-9 3 -9 13v303v27h-55h-28l18 -9q10 -5 10 -15v-5v-7v-315h80z" />
    <glyph glyph-name="r" unicode="r" horiz-adv-x="325" 
d="M320 500l-2 -12q-10 -2 -15 -9t-7.5 -15t-3 -14.5t-0.5 -7.5v-49v-4q-43 0 -63 -22.5t-28 -51.5l-11 5v105h-55h-28l18 -9q10 -5 10 -15v-344v-7.5t2.5 -14.5t7.5 -15t15 -9l2 -12h-157l2 12q10 2 15 9t7 15t2.5 14.5t0.5 7.5v385q0 1 -0.5 7.5t-2.5 14.5t-7 15t-15 9
l-2 12h315z" />
    <glyph glyph-name="s" unicode="s" horiz-adv-x="325" 
d="M293 57v-7.5t2.5 -14.5t7.5 -15t15 -9l2 -12h-315l2 12q10 2 15 9t7.5 15t3 14.5t0.5 7.5v53q21 0 36.5 6t26 16t17.5 23.5t11 27.5l11 -5v-104h83l-20 10q-8 3 -8 11v113l-157 67v167q0 1 -0.5 7.5t-3 14.5t-7.5 15t-15 9l-2 12h315l-2 -12q-10 -2 -15 -9t-7.5 -15
t-2.5 -14.5v-7.5v-49v-4q-22 0 -37.5 -6t-26 -16.5t-17 -24t-10.5 -27.5l-12 5v105h-83l18 -9q10 -5 10 -15v-87q21 -9 43 -18.5t43 -18.5t39.5 -16.5t32.5 -13.5v-190v0z" />
    <glyph glyph-name="t" unicode="t" horiz-adv-x="345" 
d="M28 10q10 2 15 9t7 15t2.5 14.5t0.5 7.5v369h-48l27 75h5q2 1 4 1t4 2q3 1 11 7q6 5 11 11l2 2l1 2l3 3q2 2 3 4l3 3q3 5 5.5 8.5t5.5 8.5q6 8 12 16.5t13 16.5q4 4 7 7.5t7 6.5q7 7 15 12q9 6 17 6q2 1 4 0.5t4 -0.5q2 -1 4 -1l2 -2q2 -1 4 -3l2 -2q0 -1 1 -2q0 -1 1 -1
h-1q-1 0 -2 1h-1h-2q-1 0 -1.5 0.5t-2.5 -0.5h-2h-2l-1 -1h-1l-2 -2q-1 0 -1 -0.5t-1 -0.5l-1 -1v-1h-1v-1q-6 -6 -6 -15v-85h65l-27 -75h-65l23 -11q4 -2 4 -7v-333h56h27l-27 13v14v4v4q43 0 63 22.5t28 51.5l11 -5v-122q0 -2 0.5 -8.5t2.5 -14t7.5 -14.5t14.5 -9l2 -12
h-314l2 12v0z" />
    <glyph glyph-name="u" unicode="u" horiz-adv-x="335" 
d="M303 56v-7.5t2.5 -14.5t7.5 -15t15 -9l2 -12h-314l2 12q10 2 15 9t7 15t2.5 14.5t0.5 7.5v382q-15 0 -23 4.5t-11 8.5q-2 1 -2 2t-1 2t-1 2q4 0 7 -1q7 0 11 1q8 2 11 3q4 2 12 8q3 2 5.5 5t5.5 6l2 2l1 1q1 1 1.5 2t1.5 2l3 3q1 2 3 4q5 9 11 16q6 8 12 16.5t13 16.5
q5 8 14 15q7 7 15 12q5 2 9 4t8 2h8q3 -3 3 -2q2 0 3 -1q2 -1 4 -3t2 -3l2 -2h-1q-1 0 -2 1h-1h-2h-4h-2q-1 0 -2 -1h-1h-1l-2 -2q-1 0 -1 -0.5t-1 -0.5q0 -1 -1 -1v-1h-1v-1q-6 -6 -6 -15v-469h83l-23 11q-4 1 -4 6v351q0 1 -0.5 7.5t-3 14.5t-7.5 15t-15 9l-2 12h157
l-2 -12q-10 -2 -15 -9t-7.5 -15t-2.5 -14.5v-7.5v-386v0z" />
    <glyph glyph-name="v" unicode="v" horiz-adv-x="335" 
d="M328 488q-10 -2 -15 -9t-7.5 -15t-2.5 -14.5v-7.5v-320q0 -22 14 -39l-144 -90l-145 90q15 16 15 39v316q-15 0 -23 4.5t-11 8.5q-2 1 -2 2t-1 2t-1 2q4 0 7 -1q7 0 11 1q8 2 11 3q4 2 12 8q3 2 5.5 5t5.5 6l2 2l1 1q1 1 1.5 2t1.5 2l3 3q1 2 3 4q5 9 11 16q6 8 12 16.5
t13 16.5q5 8 14 15q7 7 15 12q5 2 9 4t8 2h8q3 -3 3 -2q2 0 3 -1q2 -1 4 -3t2 -3l2 -2h-1q-1 0 -2 1h-1h-2h-4h-2q-1 0 -2 -1h-1h-1l-2 -2q-1 0 -1 -0.5t-1 -0.5q0 -1 -1 -1v-1h-1v-1q-6 -6 -6 -15v-441l28 -20l28 20v340q0 1 -0.5 7.5t-3 14.5t-7.5 15t-15 9l-2 12h157
l-2 -12v0z" />
    <glyph glyph-name="w" unicode="w" horiz-adv-x="483" 
d="M450 56q0 -1 0.5 -7.5t3 -14.5t7.5 -15t14 -9l3 -12h-315h-158l2 12q10 2 15 9t7 15t2.5 14.5t0.5 7.5v386q0 1 -0.5 7.5t-2.5 14.5t-7 15t-15 9l-2 12h157l-2 -12q-10 -2 -15 -9t-7.5 -15t-2.5 -14.5v-7.5v-368h83l-24 11q-4 2 -4 6v347q-15 0 -23 4.5t-11 8.5
q-2 1 -2 2t-1 2t-1 2q4 0 7 -1q7 0 11 1l12 3q3 2 5.5 4t5.5 4q6 5 11 11l2 2l1 1q1 1 1.5 2t1.5 2l3 3q1 2 3 4q3 4 5.5 8t5.5 8q6 8 12 16.5t13 16.5q4 5 7 8.5t7 6.5q7 7 15 12q5 2 9 4t9 2h7l4 -2q2 0 2 -1q2 -1 4 -3t2 -3l2 -2h-1q-1 0 -2 1h-1h-2h-4h-2l-2 -1h-1h-1
l-2 -2l-2 -1q0 -1 -1 -1v-1h-1v-1q-6 -6 -6 -15v-469h83l-23 11q-4 1 -4 6v351q0 1 -0.5 7.5t-2.5 14.5t-7 15t-15 9l-3 12h158l-3 -12q-9 -2 -14 -9t-7.5 -15t-3 -14.5t-0.5 -7.5v-386v0z" />
    <glyph glyph-name="x" unicode="x" horiz-adv-x="335" 
d="M328 -63q1 0 2 1v-1q0 -1 -0.5 -1t-0.5 -1l-2 -2q-1 -1 -2 -1.5t-2 -1.5t-1.5 -1t-1.5 -1q-1 0 -1.5 -0.5t-1.5 -0.5q-2 -1 -8 -1q-10 2 -17 6q-9 6 -15 12l-7.5 7.5t-6.5 7.5q-7 8 -13 16.5t-12 16.5q-3 5 -6 8.5t-6 7.5q-1 2 -3 4q-1 1 -1.5 2t-1.5 2q0 1 -2 3l-2 2
l-1 2l-6 6t-6 5q-3 3 -11 7q-4 2 -12 4h-10h-7v1q0 1 3 4q4 5 12 9t22 5l1 102q0 7 7 7l10 1l-45 28l-28 -18v-128q0 -1 0.5 -7.5t2.5 -14.5t7.5 -15t14.5 -9l3 -12h-158l3 12q10 2 15 9t7 15t2.5 14.5t0.5 7.5v108q0 23 -15 40l71 45l-71 45q15 16 15 40v104q-15 0 -23 4.5
t-11 8.5q-2 1 -2 2t-1 2t-1 2q4 0 7 -1q7 0 11 1q8 2 11 3q4 2 12 8q3 2 5.5 5t5.5 6l2 2l1 1q1 1 1.5 2t1.5 2l3 3q1 2 3 4q5 9 11 16q6 8 12 16.5t13 16.5q5 8 14 15q7 7 15 12q5 2 9 4t8 2h8q3 -3 3 -2q2 0 3 -1q2 -1 4 -3t2 -3l2 -2h-1q-1 0 -2 1h-1h-2h-4h-2
q-1 0 -2 -1h-1h-1l-2 -2q-1 0 -1 -0.5t-1 -0.5q0 -1 -1 -1v-1h-1v-1q-6 -6 -6 -15v-213q0 -5 -5 -5l-16 2l49 -31l28 18v128q0 1 -0.5 7.5t-3 14.5t-7.5 15t-15 9l-2 12h157l-2 -12q-10 -2 -15 -9t-7.5 -15t-2.5 -14.5v-7.5v-108q0 -23 14 -40l-70 -45l70 -45
q-14 -17 -14 -40v-20v-185q0 -8 5 -16h1v-1h1l1 -1l2 -2l2 -1h1q0 -1 1 -1h2q0 -1 2 -1h4l1 1h2z" />
    <glyph glyph-name="y" unicode="y" horiz-adv-x="335" 
d="M303 -192v-7.5t2.5 -14.5t7.5 -15t15 -9l2 -12h-314l2 12q10 2 15 9t7 15t2.5 14.5t0.5 7.5v57q43 0 63 22.5t28 51.5l11 -5v-109h83l-18 9q-9 4 -9 15v150h-185l2 12q10 2 15 9t7 15t2.5 14.5t0.5 7.5v386q-15 0 -23 4.5t-11 8.5q-2 2 -2 2.5t-1 1.5t-1 2h7q2 -1 5 -0.5
t6 0.5q8 2 11 4q4 1 12 7q3 2 5.5 5t5.5 6l2 2l1 2l3 3q2 2 3 4l3 3q2 5 5 8.5t6 8.5q6 8 12 16.5t13 16.5q6 8 14 14q7 7 15 12q9 6 17 6q2 1 4 0.5t4 -0.5q0 -1 2 -1h1q1 -1 1.5 -1t1.5 -1q2 -1 4 -3l2 -2q0 -1 1 -2q0 -1 1 -1h-1q-1 0 -2 1h-1h-2h-4h-2h-2l-1 -1h-1
l-2 -2q-1 0 -1 -0.5t-1 -0.5l-1 -1v-1h-1v-1q-6 -6 -6 -15v-474h83l-13 6q-14 6 -14 23v339q0 1 -0.5 7.5t-3 14.5t-7.5 15t-15 9l-2 12h157l-2 -12q-10 -2 -15 -9t-7.5 -15t-2.5 -14.5v-7.5v-634v0z" />
    <glyph glyph-name="z" unicode="z" horiz-adv-x="325" 
d="M320 -1h-315l2 12q10 2 15 9t7 15t2.5 14.5t0.5 7.5v190q13 6 31.5 13.5t39.5 16.5t43.5 18.5t43.5 18.5v111h-83l23 -11q4 -3 4 -7v-9v-78l-11 -5q-4 14 -10.5 27.5t-17 24t-26 16.5t-37.5 6v4v49q0 1 -0.5 7.5t-2.5 14.5t-7 15t-15 9l-2 12h315l-3 -12q-9 -2 -14.5 -9
t-7.5 -15t-2.5 -14.5t-0.5 -7.5v-167l-158 -67v-134h1h82l-19 9q-8 3 -8 12v83l11 6q7 -29 27.5 -51.5t63.5 -22.5v-53q0 -1 0.5 -7.5t2.5 -14.5t7.5 -15t14.5 -9z" />
    <glyph glyph-name="braceleft" unicode="{" horiz-adv-x="225" 
d="M151 -120h69l-20 -47h-151v381q0 12 -7 21.5t-15 16.5q-10 8 -22 14q12 6 22 14q8 7 15 17t7 22v381h151l20 -47h-69v-309q0 -20 -12 -34.5t-26 -24.5q-17 -11 -38 -19q21 -8 38 -19q14 -10 26 -24t12 -34v-309z" />
    <glyph glyph-name="bar" unicode="|" horiz-adv-x="88" 
d="M83 -167h-78v867h78v-867v0z" />
    <glyph glyph-name="braceright" unicode="}" horiz-adv-x="225" 
d="M74 189q0 20 12 34t26 24q17 11 38 19q-21 8 -38 19q-14 10 -26 24.5t-12 34.5v309h-69l21 47h151v-381q0 -12 6.5 -22t14.5 -17q10 -8 22 -14q-12 -6 -22 -14q-8 -7 -14.5 -16.5t-6.5 -21.5v-381h-151l-21 47h69v309z" />
    <glyph glyph-name="asciitilde" unicode="~" horiz-adv-x="348" 
d="M33 284q26 16 57 15t60 -6q32 -6 65 -13t66 -7q16 1 32 4.5t30 11.5q-1 -1 -2.5 -5.5t-1.5 -5.5q-2 -6 -4.5 -12t-5.5 -12q-2 -6 -4.5 -12t-5.5 -13q-1 -3 -2 -5q-1 -1 -1 -3q0 -1 -1 -2q-28 -16 -60 -15t-62 6q-32 5 -64 12.5t-65 6.5q-34 0 -59 -15q1 1 2.5 5.5
t1.5 5.5q2 6 4.5 12t5.5 12q2 6 5 12.5t5 12.5q0 1 1.5 5t2.5 5z" />
    <glyph glyph-name="exclamdown" unicode="&#xa1;" horiz-adv-x="205" 
d="M8 543q-1 -1 -2 -1h-1v1l2 1q0 1 2 3q1 2 2 2.5t2 1.5t1.5 1t1.5 1q3 0 4 1q3 1 9 1q5 -1 10 -3l10 -4q9 -6 17 -14q5 -4 8.5 -8t7.5 -9q16 -19 29 -38q3 -5 6 -9t7 -9q1 -2 3 -4q1 -2 1.5 -2.5t1.5 -2.5q1 -1 2 -1.5t2 -2.5l1 -2q1 0 1 -0.5t1 -0.5q3 -4 6 -7.5t7 -5.5
q6 -6 13 -9q3 -2 6.5 -2.5t6.5 -1.5h12h9q1 0 1 0.5t1 0.5h1l-1 -1q0 -1 -0.5 -1t-0.5 -1q-1 0 -3 -2q-1 -1 -1.5 -2t-2.5 -2q-1 0 -3 -2l-2 -1q-2 -2 -4 -2l-4 -2t-9 -3t-10 0h-6.5t-6.5 1v-512v-8.5t2.5 -14.5t7.5 -15t15 -9l2 -12h-157l2 12q10 2 15 9t7 15t2.5 14.5
t0.5 8.5l1 623q0 1 -1 2q-5 9 -9 15q-2 2 -2.5 3t-2.5 3l-1 1l-1 1l-2 2q-1 0 -1 0.5t-1 0.5t-1 1h-1q-1 1 -3 1h-2h-5h-1h-2zM90 562l-69 69l69 69l69 -69z" />
    <glyph glyph-name="cent" unicode="&#xa2;" horiz-adv-x="325" 
d="M320 -1h-148v-56l-20 -8v64h-147l2 12q10 2 15 9t7 15t2.5 14.5t0.5 7.5v386q0 1 -0.5 7.5t-2.5 14.5t-7 15t-15 9l-2 12h147v56l20 8v-64h148l-2 -12q-10 -2 -15 -9t-7.5 -15t-3 -14.5t-0.5 -7.5v-49v-4q-43 0 -63 -22.5t-28 -51.5l-11 5v104h-18v-350h46l-28 13v93
l11 6q8 -29 28 -51.5t63 -22.5v-10v-46q0 -1 0.5 -7.5t3 -14.5t7.5 -15t15 -9zM152 75v350h-45l18 -8q10 -5 10 -15v-327h17z" />
    <glyph glyph-name="sterling" unicode="&#xa3;" horiz-adv-x="401" 
d="M396 700l-2 -12q-10 -2 -15 -9t-7.5 -15t-2.5 -14.5v-7.5v-94q-21 1 -39 -9q-16 -8 -31 -28t-21 -58l-12 3v145q0 10 10 15l18 9h-97v-238h103v-79h-103l-1 -251v-1q29 -7 58 -13.5t58 -6.5q17 1 33 5t30 14q-1 -1 -2.5 -6.5t-1.5 -6.5q-3 -7 -5.5 -14t-4.5 -15
q-3 -7 -5.5 -14t-4.5 -15q-6 -13 -18 -19q-26 -12 -53.5 -11t-54.5 7q-32 7 -64 15.5t-64 7.5q-34 0 -59 -17q1 0 2.5 5.5t1.5 6.5q2 7 4.5 14t5.5 15q5 16 10 29v1q0 1 1 2q3 10 12 15l10 4l10 4v245h-90v79h90v255q0 1 -0.5 7.5t-2.5 14.5t-7 15t-15 9l-2 12h328z" />
    <glyph glyph-name="yen" unicode="&#xa5;" 
d="M331 688q-10 -2 -15 -9t-7.5 -15t-2.5 -14.5v-7.5v-34v-99v-8v-62q0 -7 5.5 -10.5t11.5 -1.5l5 -7l-107 -89v-22h103v-78h-103v-21h103v-79h-103v-171q0 -1 1 -2v-1q2 -4 4.5 -7.5t4.5 -6.5q2 -2 2.5 -3t2.5 -3v-1h1q0 -1 1 -1q0 -2 2 -2l2 -2h1q1 0 1 -1h3q1 0 1 -0.5
t1 -0.5q3 0 5 1h1h2q1 0 1 0.5t1 0.5h1l-1 -1q0 -1 -0.5 -1t-0.5 -1t-2 -3q-1 -1 -2 -1.5t-2 -1.5t-1.5 -1t-1.5 -1q-2 0 -2.5 -0.5t-1.5 -0.5q-3 -1 -9 -1q-12 2 -20 7q-5 3 -9 6t-8 8q-5 4 -8.5 8t-7.5 9q-8 9 -15 18.5t-14 18.5q-6 11 -13 19q-1 1 -1.5 2t-1.5 2
q-1 2 -3 4q-1 2 -2 2.5t-2 1.5q0 1 -1 2l-2 2q-3 4 -6.5 7t-6.5 6q-8 6 -13 8q-8 4 -13 4q-5 1 -12 1t-9 -1h-3l2 2l3 3q2 2 4 3q2 2 3 2l2 2q1 1 2 1t2 1l4 2q7 3 19 3h6.5t6.5 -1v60h-99v79h99v21h-99v78h99v20l-109 91l5 7q6 -2 11.5 1.5t5.5 10.5v62v25v82v34
q0 1 -0.5 7.5t-2.5 14.5t-7 15t-15 9l-2 12h157l-2 -12q-10 -2 -15 -9t-7.5 -15t-2.5 -14.5v-7.5v-34v-172q0 -6 -6 -4l-14 6l53 -51h2l33 32v189v34q0 1 -0.5 7.5t-2.5 14.5t-7 15t-15 9l-2 12h157l-2 -12v0z" />
    <glyph glyph-name="section" unicode="&#xa7;" horiz-adv-x="325" 
d="M292 57q0 -1 0.5 -7.5t3 -14.5t7.5 -15t15 -9l2 -12h-315l2 12q10 2 15 9t7 15t2.5 14.5t0.5 7.5v53q43 0 63 22t28 51l12 -5v-104h83l-21 9q-7 5 -7 12v113l-158 67v177v27v163q0 1 -0.5 7.5t-2.5 14.5t-7 15t-15 9l-2 12h315l-2 -12q-10 -2 -15 -9t-7.5 -15t-3 -14.5
t-0.5 -7.5v-49v-4q-43 0 -63 -22.5t-28 -51.5l-11 5v105h-83l18 -9q10 -5 10 -15v-110q21 -9 43 -18.5t43 -18.5t39.5 -16.5t31.5 -13.5v-367zM135 314q14 -6 27.5 -12t27.5 -12v95l-71 30q4 -3 8 -7q3 -3 5.5 -6.5t2.5 -5.5v-82zM88 303l47 -17v69l-12 5q-5 -17 -13 -31.5
t-22 -25.5z" />
    <glyph glyph-name="copyright" unicode="&#xa9;" horiz-adv-x="403" 
d="M254 392v36q-8 -1 -15 3q-6 3 -12 11t-8 23l-4 -1v-56q0 -5 3 -6l7 -3h-37v203q0 5 -4 6l-7 3h38v-45l4 -1q2 12 8 18.5t12 9.5q7 4 15 4v21q0 1 1 8.5t9 9.5l1 5h-127l1 -5q8 -2 8.5 -9.5t1.5 -8.5v-226q-1 -1 -1.5 -8.5t-8.5 -9.5l-1 -5h127l-1 5q-8 2 -9 9.5t-1 8.5z
M201 307q-41 0 -76.5 15.5t-62 42t-42 62t-15.5 76.5t15.5 77t42 62.5t62 42t76.5 15.5t77 -15.5t62.5 -42t42 -62.5t15.5 -77t-15.5 -76.5t-42 -62t-62.5 -42t-77 -15.5zM201 687q-38 0 -71.5 -14.5t-58.5 -39.5t-39.5 -58.5t-14.5 -71.5t14.5 -71.5t39.5 -58.5t58.5 -39.5
t71.5 -14.5t71.5 14.5t58.5 39.5t39.5 58.5t14.5 71.5t-14.5 71.5t-39.5 58.5t-58.5 39.5t-71.5 14.5z" />
    <glyph glyph-name="ordfeminine" unicode="&#xaa;" horiz-adv-x="132" 
d="M16 582q0 7 -8 7v2l69 50v30h-33l6 -3q5 -2 5 -8v-30l-4 -2q-3 11 -10.5 19.5t-24.5 8.5v21q-1 2 -1.5 9t-8.5 9l-1 5h122l-1 -5q-8 -2 -9 -9t-1 -9v-148q0 -2 1 -9t9 -9l1 -5h-122l1 5q8 2 8.5 9t1.5 9v53zM55 535h22h10l-7 4q-3 1 -3 5v2v3v56l-22 -16v-44v-10z" />
    <glyph glyph-name="guillemotleft" unicode="&#xab;" horiz-adv-x="450" 
d="M298 500l-197 -251l197 -250h-96l-197 250l197 251h96zM445 500l-198 -251l198 -250h-96l-197 250l197 251h96z" />
    <glyph glyph-name="registered" unicode="&#xae;" horiz-adv-x="403" 
d="M266 348q0 -1 -1 -1h-2h-1l-1 1h-1l-1 1l-1 1l-2 2q-2 4 -4 6v1v150q0 3 3 5q2 1 4 1v2l-42 20l42 19v2q-2 0 -4 1q-3 1 -3 5v61q0 1 1 8.5t9 9.5l1 4h-127l1 -4q8 -2 8.5 -9.5t0.5 -8.5v-226q0 -2 -0.5 -9t-8.5 -9l-1 -5h60v5q-8 2 -9 9t-1 9v120l27 -13v-104
q-2 0 -3 0.5t-2 0.5q-4 0 -8 -2q-1 0 -1 -1h-2l-1 -1q-1 0 -1 -1l-1 -1l-1 -1l-1 -1h1h3h5q2 0 2.5 -0.5t2.5 -0.5q2 -1 5 -4q2 -1 2.5 -2t2.5 -3h1v-1l2 -2q0 -1 1 -1q0 -1 0.5 -1t0.5 -1q3 -3 5 -7q3 -4 5.5 -7.5t5.5 -7.5l6 -6q2 -2 3.5 -3t3.5 -2q4 -3 8 -3h3q1 0 2 1h1
q1 1 1 2l1 1l1 1h-1zM186 554v64h27v-51zM201 307q-41 0 -76.5 15.5t-62 42t-42 62t-15.5 76.5t15.5 77t42 62.5t62 42t76.5 15.5t77 -15.5t62.5 -42t42 -62.5t15.5 -77t-15.5 -76.5t-42 -62t-62.5 -42t-77 -15.5zM201 687q-38 0 -71.5 -14.5t-58.5 -39.5t-39.5 -58.5
t-14.5 -71.5t14.5 -71.5t39.5 -58.5t58.5 -39.5t71.5 -14.5t71.5 14.5t58.5 39.5t39.5 58.5t14.5 71.5t-14.5 71.5t-39.5 58.5t-58.5 39.5t-71.5 14.5z" />
    <glyph glyph-name="degree" unicode="&#xb0;" horiz-adv-x="137" 
d="M121 451q0 -1 1 -8.5t9 -9.5l1 -4h-127l1 4q8 2 8.5 9.5t1.5 8.5v226q-1 2 -1.5 9t-8.5 9l-1 5h127l-1 -5q-8 -2 -9 -9t-1 -9v-226zM92 458l-7 3q-3 1 -3 6v204h-38l7 -4q4 -1 4 -5v-204h37z" />
    <glyph glyph-name="twosuperior" unicode="&#xb2;" horiz-adv-x="137" 
d="M121 451q0 -1 1 -8.5t9 -9.5l1 -5h-16h-111l1 5q8 2 8.5 9.5t1.5 8.5v114q0 6 -6 8l-1 4l73 26v67h-38l7 -3q4 -1 4 -6v-36l-5 -1q-2 12 -7.5 18.5t-11.5 9.5q-7 4 -15 4v21q-1 1 -1.5 8.5t-8.5 9.5l-1 5h127l-1 -5q-8 -2 -9 -9.5t-1 -8.5v-78q0 -6 7 -8v-3l-73 -25v-105
h38l-8 3q-3 1 -3 6v56l4 1q2 -15 8 -23t12 -11q7 -4 15 -3v-36v0z" />
    <glyph glyph-name="threesuperior" unicode="&#xb3;" horiz-adv-x="137" 
d="M121 451q0 -1 1 -8.5t9 -9.5l1 -4h-127l1 4q8 2 8.5 9.5t1.5 8.5v30v6q8 0 15 4q6 3 11.5 10.5t7.5 22.5l5 -1v-65h37l-7 3q-3 1 -3 6v92l-16 8q-3 2 -6 -1q-2 -1 -2 -2l-3 1v35q0 6 6 10l21 10v51h-38l7 -4q4 -1 4 -5v-36l-5 -1q-2 14 -7.5 22t-11.5 11q-7 4 -15 3v16
q-1 2 -1.5 9t-8.5 9l-1 5h127l-1 -5q-8 -2 -9 -9t-1 -9v-60q0 -4 3 -5q2 -1 4 -1v-2l-42 -20l42 -19v-3q-2 0 -4 -1q-3 -2 -3 -5v-110v0z" />
    <glyph glyph-name="onesuperior" unicode="&#xb9;" horiz-adv-x="71" 
d="M16 649q0 7 -5 10q-3 1 -5 1l-1 4q13 4 21.5 10t13.5 12q6 7 10 14h5v-249q0 -1 1 -8.5t9 -9.5l1 -4h-61l1 4q8 2 8.5 9.5t1.5 8.5v198z" />
    <glyph glyph-name="ordmasculine" unicode="&#xba;" horiz-adv-x="132" 
d="M116 529q0 -2 1 -9t9 -9l1 -5h-122l1 5q8 2 8.5 9t1.5 9v148q-1 2 -1.5 9t-8.5 9l-1 5h122l-1 -5q-8 -2 -9 -9t-1 -9v-148zM87 535l-7 4q-3 1 -3 5v127h-33l7 -4q4 -1 4 -5v-127h32z" />
    <glyph glyph-name="guillemotright" unicode="&#xbb;" horiz-adv-x="450" 
d="M152 500h95l198 -251l-198 -250h-95l197 250l-197 251v0zM5 500h96l197 -251l-197 -250h-96l197 250l-197 251v0z" />
    <glyph glyph-name="questiondown" unicode="&#xbf;" 
d="M169 562l-69 69l69 69l69 -69zM7 -157q10 2 15 9t7 15t2.5 14.5t0.5 8.5v201q0 17 -16 22l-2 6l104 37v357q0 2 -1 2q-5 9 -9 15q-1 2 -2 3t-2 3h-1v1q-1 0 -1 1q-1 1 -1.5 1t-1.5 1l-2 1l-1 1h-1q-1 1 -3 1h-2h-4h-2h-2q-1 -1 -2 -1h-1l2 2q0 1 2 3q3 3 5 4q1 1 1.5 1
t1.5 1q2 0 4 1t9 1q5 -1 9.5 -3t9.5 -4q5 -3 9 -6.5t9 -7.5q4 -4 7.5 -8t7.5 -9q8 -9 15 -18.5t14 -19.5q3 -5 6.5 -9t6.5 -9q1 -2 3 -4q3 -3 4 -5q2 -2 3 -4l2 -2l1 -1q6 -8 13 -13q5 -5 13 -9q5 -2 13 -4h12h9q1 0 1 0.5t1 0.5h1l-1 -1q0 -1 -0.5 -1t-0.5 -1q-1 0 -3 -2
q-1 -1 -1.5 -2t-2.5 -2l-2 -2q-1 0 -1.5 -0.5t-1.5 -0.5q-2 -2 -3 -2l-4 -2q-5 -2 -9.5 -3t-10.5 0q-7 0 -11 1l-1 -255q0 -12 9 -17q4 -3 9 -4l4 -7l-108 -37v-152q0 -10 -10 -15l-18 -8h28h69v117l12 3q5 -32 20 -48.5t31 -24.5q18 -9 39 -9v-55v-8.5t2.5 -14.5t7.5 -15
t15 -9l2 -12h-42h-286z" />
    <glyph glyph-name="Agrave" unicode="&#xc0;" horiz-adv-x="365" 
d="M223 750l-94 109h68l69 -109h-43zM332 61q0 -12 3 -23q2 -9 7 -17t15 -10l3 -12h-158l3 12q10 2 15 9t7 15t2.5 14.5t0.5 7.5v291h-69h-28l21 -10q7 -4 7 -11v-278v-175v-2q3 -4 5.5 -7.5t4.5 -7.5q1 -2 4 -5l1 -1q1 -1 1 -2q1 0 1.5 -0.5t1.5 -0.5l2 -2h1q0 -1 1 -1
q2 0 2 -1h3h4q1 0 2 1h2h2l1 1l-1 -1q0 -1 -0.5 -1t-0.5 -1q-1 -1 -1 -1.5t-2 -1.5l-4 -4q-1 0 -1.5 -0.5t-1.5 -0.5q-1 -1 -4 -1q-4 -2 -9 -1q-9 0 -19 7q-5 2 -9 5.5t-9 7.5q-4 4 -7.5 8t-8.5 9q-8 9 -14.5 18.5t-13.5 19.5t-13 18q-1 2 -4 5q-1 1 -1.5 2t-1.5 2t-1.5 2
t-1.5 2l-2 2q0 1 -0.5 1t-0.5 1l-13 13q-4 2 -7 4l-6 4q-6 2 -14 4q-4 1 -12 1q-3 -1 -8 -1h-3l2 2l3 3q2 2 4 3l2 2q1 1 1.5 1t1.5 1q1 0 3 2q2 0 2.5 0.5t1.5 0.5q10 4 20 4q3 0 6 -0.5t7 -1.5v660q0 10 -3 19q-2 8 -7.5 15t-15.5 9l-2 12h329l-3 -12q-9 -2 -14.5 -9
t-7.5 -14.5t-2.5 -13l-0.5 -5.5v-585zM258 424l-28 13v188h-69h-28l18 -9q10 -5 10 -15v-177h69h28z" />
    <glyph glyph-name="Aacute" unicode="&#xc1;" horiz-adv-x="365" 
d="M120 750l68 109h69l-94 -109h-43zM332 61v585l0.5 5.5t2.5 13t7.5 14.5t14.5 9l3 12h-329l2 -12q10 -2 15.5 -9t7.5 -15q3 -9 3 -19v-660q-4 1 -7 1.5t-6 0.5q-10 0 -20 -4q-1 0 -1.5 -0.5t-2.5 -0.5q-2 -2 -3 -2q-1 -1 -1.5 -1t-1.5 -1l-2 -2q-2 -1 -4 -3l-3 -3l-2 -2h3
q5 0 8 1q8 0 12 -1q8 -2 14 -4l6 -4t7 -4l13 -13q0 -1 0.5 -1t0.5 -1l2 -2q1 -1 1.5 -2t1.5 -2t1.5 -2t1.5 -2q3 -3 4 -5q6 -8 13 -18t13.5 -19.5t14.5 -18.5q5 -5 8.5 -9t7.5 -8q5 -4 9 -7.5t9 -5.5q10 -7 19 -7q5 -1 9 1q3 0 4 1q1 0 1.5 0.5t1.5 0.5l4 4q2 1 2 1.5t1 1.5
q0 1 0.5 1t0.5 1l1 1l-1 -1h-2h-2q-1 -1 -2 -1h-4h-3q0 1 -2 1q-1 0 -1 1h-1l-2 2q-1 0 -1.5 0.5t-1.5 0.5q0 1 -1 2l-1 1q-3 3 -4 5q-2 4 -4.5 7.5t-5.5 7.5v2v175v278q0 7 -7 11l-21 10h28h69v-291q0 -1 -0.5 -7.5t-2.5 -14.5t-7 -15t-15 -9l-3 -12h158l-3 12
q-10 2 -15 10t-7 17q-3 11 -3 23zM230 424h-69v177q0 10 -10 15l-18 9h28h69v-188l28 -13h-28z" />
    <glyph glyph-name="Acircumflex" unicode="&#xc2;" horiz-adv-x="365" 
d="M129 859h68l-94 -109h-43zM334 750h-43l-94 109h69zM332 61q0 -12 3 -23q2 -9 7 -17t15 -10l3 -12h-158l3 12q10 2 15 9t7 15t2.5 14.5t0.5 7.5v291h-69h-28l21 -10q7 -4 7 -11v-278v-175v-2q3 -4 5.5 -7.5t4.5 -7.5q1 -2 4 -5l1 -1q1 -1 1 -2q1 0 1.5 -0.5t1.5 -0.5
l2 -2h1q0 -1 1 -1q2 0 2 -1h3h4q1 0 2 1h2h2l1 1l-1 -1q0 -1 -0.5 -1t-0.5 -1q-1 -1 -1 -1.5t-2 -1.5l-4 -4q-1 0 -1.5 -0.5t-1.5 -0.5q-1 -1 -4 -1q-4 -2 -9 -1q-9 0 -19 7q-5 2 -9 5.5t-9 7.5q-4 4 -7.5 8t-8.5 9q-8 9 -14.5 18.5t-13.5 19.5t-13 18q-1 2 -4 5
q-1 1 -1.5 2t-1.5 2t-1.5 2t-1.5 2l-2 2q0 1 -0.5 1t-0.5 1l-13 13q-4 2 -7 4l-6 4q-6 2 -14 4q-4 1 -12 1q-3 -1 -8 -1h-3l2 2l3 3q2 2 4 3l2 2q1 1 1.5 1t1.5 1q1 0 3 2q2 0 2.5 0.5t1.5 0.5q10 4 20 4q3 0 6 -0.5t7 -1.5v660q0 10 -3 19q-2 8 -7.5 15t-15.5 9l-2 12h329
l-3 -12q-9 -2 -14.5 -9t-7.5 -14.5t-2.5 -13l-0.5 -5.5v-585zM258 424l-28 13v188h-69h-28l18 -9q10 -5 10 -15v-177h69h28z" />
    <glyph glyph-name="Atilde" unicode="&#xc3;" horiz-adv-x="365" 
d="M295 818q-2 -2 -2 -5v-1q-2 -3 -2.5 -6.5t-2.5 -8.5q-2 -3 -3 -7t-3 -8v-1l-2 -6q-13 -13 -33 -13q-12 0 -25 4t-24 9l-3 1l-22 8t-22 4q-17 0 -28 -13l-3 3v2q0 1 0.5 1t0.5 1t1 1q1 4 2 7t3 8t3 8.5t2 6.5q0 1 1 2q0 3 2 5q11 14 31 14q11 0 22.5 -3.5t22.5 -8.5l4 -1
q11 -5 23 -9t24 -4q18 0 30 12l1 -1l1 -2zM332 61q0 -12 3 -23q2 -9 7 -17t15 -10l3 -12h-158l3 12q10 2 15 9t7 15t2.5 14.5t0.5 7.5v291h-69h-28l21 -10q7 -4 7 -11v-278v-175v-2q3 -4 5.5 -7.5t4.5 -7.5q1 -2 4 -5l1 -1q1 -1 1 -2q1 0 1.5 -0.5t1.5 -0.5l2 -2h1
q0 -1 1 -1q2 0 2 -1h3h4q1 0 2 1h2h2l1 1l-1 -1q0 -1 -0.5 -1t-0.5 -1q-1 -1 -1 -1.5t-2 -1.5l-4 -4q-1 0 -1.5 -0.5t-1.5 -0.5q-1 -1 -4 -1q-4 -2 -9 -1q-9 0 -19 7q-5 2 -9 5.5t-9 7.5q-4 4 -7.5 8t-8.5 9q-8 9 -14.5 18.5t-13.5 19.5t-13 18q-1 2 -4 5q-1 1 -1.5 2
t-1.5 2t-1.5 2t-1.5 2l-2 2q0 1 -0.5 1t-0.5 1l-13 13q-4 2 -7 4l-6 4q-6 2 -14 4q-4 1 -12 1q-3 -1 -8 -1h-3l2 2l3 3q2 2 4 3l2 2q1 1 1.5 1t1.5 1q1 0 3 2q2 0 2.5 0.5t1.5 0.5q10 4 20 4q3 0 6 -0.5t7 -1.5v660q0 10 -3 19q-2 8 -7.5 15t-15.5 9l-2 12h329l-3 -12
q-9 -2 -14.5 -9t-7.5 -14.5t-2.5 -13l-0.5 -5.5v-585zM258 424l-28 13v188h-69h-28l18 -9q10 -5 10 -15v-177h69h28z" />
    <glyph glyph-name="Adieresis" unicode="&#xc4;" horiz-adv-x="365" 
d="M133 860l55 -55l-55 -55l-55 55zM302 805l-55 -55l-55 55l55 55zM332 61q0 -12 3 -23q2 -9 7 -17t15 -10l3 -12h-158l3 12q10 2 15 9t7 15t2.5 14.5t0.5 7.5v291h-69h-28l21 -10q7 -4 7 -11v-278v-175v-2q3 -4 5.5 -7.5t4.5 -7.5q1 -2 4 -5l1 -1q1 -1 1 -2q1 0 1.5 -0.5
t1.5 -0.5l2 -2h1q0 -1 1 -1q2 0 2 -1h3h4q1 0 2 1h2h2l1 1l-1 -1q0 -1 -0.5 -1t-0.5 -1q-1 -1 -1 -1.5t-2 -1.5l-4 -4q-1 0 -1.5 -0.5t-1.5 -0.5q-1 -1 -4 -1q-4 -2 -9 -1q-9 0 -19 7q-5 2 -9 5.5t-9 7.5q-4 4 -7.5 8t-8.5 9q-8 9 -14.5 18.5t-13.5 19.5t-13 18q-1 2 -4 5
q-1 1 -1.5 2t-1.5 2t-1.5 2t-1.5 2l-2 2q0 1 -0.5 1t-0.5 1l-13 13q-4 2 -7 4l-6 4q-6 2 -14 4q-4 1 -12 1q-3 -1 -8 -1h-3l2 2l3 3q2 2 4 3l2 2q1 1 1.5 1t1.5 1q1 0 3 2q2 0 2.5 0.5t1.5 0.5q10 4 20 4q3 0 6 -0.5t7 -1.5v660q0 10 -3 19q-2 8 -7.5 15t-15.5 9l-2 12h329
l-3 -12q-9 -2 -14.5 -9t-7.5 -14.5t-2.5 -13l-0.5 -5.5v-585zM258 424l-28 13v188h-69h-28l18 -9q10 -5 10 -15v-177h69h28z" />
    <glyph glyph-name="Aring" unicode="&#xc5;" horiz-adv-x="365" 
d="M246 804l-54 -55l-56 56l55 54zM212 804l-21 20l-20 -20l21 -20zM332 61q0 -12 3 -23q2 -9 7 -17t15 -10l3 -12h-158l3 12q10 2 15 9t7 15t2.5 14.5t0.5 7.5v291h-69h-28l21 -10q7 -4 7 -11v-278v-175v-2q3 -4 5.5 -7.5t4.5 -7.5q1 -2 4 -5l1 -1q1 -1 1 -2q1 0 1.5 -0.5
t1.5 -0.5l2 -2h1q0 -1 1 -1q2 0 2 -1h3h4q1 0 2 1h2h2l1 1l-1 -1q0 -1 -0.5 -1t-0.5 -1q-1 -1 -1 -1.5t-2 -1.5l-4 -4q-1 0 -1.5 -0.5t-1.5 -0.5q-1 -1 -4 -1q-4 -2 -9 -1q-9 0 -19 7q-5 2 -9 5.5t-9 7.5q-4 4 -7.5 8t-8.5 9q-8 9 -14.5 18.5t-13.5 19.5t-13 18q-1 2 -4 5
q-1 1 -1.5 2t-1.5 2t-1.5 2t-1.5 2l-2 2q0 1 -0.5 1t-0.5 1l-13 13q-4 2 -7 4l-6 4q-6 2 -14 4q-4 1 -12 1q-3 -1 -8 -1h-3l2 2l3 3q2 2 4 3l2 2q1 1 1.5 1t1.5 1q1 0 3 2q2 0 2.5 0.5t1.5 0.5q10 4 20 4q3 0 6 -0.5t7 -1.5v660q0 10 -3 19q-2 8 -7.5 15t-15.5 9l-2 12h329
l-3 -12q-9 -2 -14.5 -9t-7.5 -14.5t-2.5 -13l-0.5 -5.5v-585zM258 424l-28 13v188h-69h-28l18 -9q10 -5 10 -15v-177h69h28z" />
    <glyph glyph-name="AE" unicode="&#xc6;" horiz-adv-x="536" 
d="M531 -1h-329l3 12q9 2 14.5 9t7.5 15t2.5 14.5t0.5 7.5v291h-69h-28l20 -10q8 -3 8 -11v-453v-2q3 -4 5.5 -7.5t4.5 -7.5q1 -2 4 -5l1 -1q1 -1 1 -2q1 0 1.5 -0.5t1.5 -0.5l2 -2h1q0 -1 1 -1q2 0 2 -1h3h4q1 0 2 1h2h2l1 1l-1 -1q0 -1 -0.5 -1t-0.5 -1q-1 -1 -1 -1.5
t-2 -1.5l-4 -4q-1 0 -1.5 -0.5t-1.5 -0.5q-1 -1 -4 -1q-4 -2 -9 -1q-9 0 -19 7q-5 2 -9 5.5t-9 7.5q-4 4 -7.5 8t-8.5 9q-8 9 -14.5 18.5t-13.5 19.5t-13 18q-1 2 -4 5q-1 1 -1.5 2t-1.5 2t-1.5 2t-1.5 2l-2 2q0 1 -0.5 1t-0.5 1l-13 13q-4 2 -7 4l-6 4q-6 2 -14 4
q-4 1 -12 1q-3 -1 -8 -1h-3l2 2l3 3q2 2 4 3l2 2q1 1 1.5 1t1.5 1q1 0 3 2q2 0 2.5 0.5t1.5 0.5q10 4 20 4q3 0 6 -0.5t7 -1.5v660q0 10 -3 19q-2 8 -7.5 15t-15.5 9l-2 12h458h42l-2 -12q-10 -2 -15 -9t-7.5 -15t-3 -14.5t-0.5 -7.5v-55q-21 0 -39 -9q-16 -8 -30.5 -24.5
t-20.5 -48.5l-12 2v118h-97l19 -9q9 -5 9 -15v-40v-138h115l3 -9q-20 -3 -38.5 -24t-27.5 -42h-79l20 -10q7 -3 7 -11v-22v-231h69h28l-18 9q-10 3 -10 15v145l12 2q6 -38 21 -57.5t30 -27.5q18 -10 39 -9v-25v-69q0 -1 0.5 -7.5t3 -14.5t7.5 -15t15 -9zM230 424v201h-69
h-28l18 -9q10 -5 10 -15v-177h69z" />
    <glyph glyph-name="Ccedilla" unicode="&#xc7;" 
d="M192 -1v-23q12 -2 27.5 -7t26.5 -17q18 -17 18 -43q0 -30 -32 -49q-24 -13 -56 -13q-30 0 -53 13q-30 19 -30 50h40q0 -4 1.5 -7.5t8.5 -7.5q13 -8 33 -8q19 0 33.5 6.5t14.5 15.5t-6 15q-8 8 -23 11t-23 3h-20v61h-147l2 12q10 2 15 9t7 15t2.5 14.5t0.5 7.5v585
q0 1 -0.5 7.5t-2.5 14.5t-7 15t-15 9l-2 12h328l-2 -12q-10 -2 -15 -9t-7.5 -15t-2.5 -14.5v-7.5v-55q-21 0 -39 -9q-16 -8 -31 -24.5t-20 -48.5l-12 2v118h-97l18 -9q10 -5 10 -15v-527h96l-18 9q-9 3 -9 15v145l12 2q6 -38 21 -57.5t30 -27.5q18 -10 39 -9v-94v-7.5
t2.5 -14.5t7.5 -15t15 -9l2 -12h-141z" />
    <glyph glyph-name="Egrave" unicode="&#xc8;" 
d="M190 750l-94 109h68l69 -109h-43zM306 57v-7.5t2.5 -14.5t7.5 -15t15 -9l2 -12h-286h-42l2 12q10 2 15 9t7 15t2.5 14.5t0.5 7.5v585q0 1 -0.5 7.5t-2.5 14.5t-7 15t-15 9l-2 12h286h42l-2 -12q-10 -2 -15 -9t-7.5 -15t-2.5 -14.5v-7.5v-55q-21 0 -39 -9
q-16 -8 -31 -24.5t-20 -48.5l-12 3v117h-69h-28l18 -9q10 -5 10 -15v-178h114l3 -9q-20 -3 -38.5 -24t-27.5 -42h-79l21 -10q7 -4 7 -11v-253h69h27l-18 9q-9 3 -9 15v28v117l12 3q6 -39 21 -58.5t30 -27.5q18 -10 39 -9v-25v-69z" />
    <glyph glyph-name="Eacute" unicode="&#xc9;" 
d="M96 750l68 109h69l-94 -109h-43zM306 57v69v25q-21 -1 -39 9q-15 8 -30 27.5t-21 58.5l-12 -3v-117v-28q0 -12 9 -15l18 -9h-27h-69v253q0 7 -7 11l-21 10h79q9 21 27.5 42t38.5 24l-3 9h-114v178q0 10 -10 15l-18 9h28h69v-117l12 -3q5 32 20 48.5t31 24.5q18 9 39 9v55
v7.5t2.5 14.5t7.5 15t15 9l2 12h-42h-286l2 -12q10 -2 15 -9t7 -15t2.5 -14.5t0.5 -7.5v-585q0 -1 -0.5 -7.5t-2.5 -14.5t-7 -15t-15 -9l-2 -12h42h286l-2 12q-10 2 -15 9t-7.5 15t-2.5 14.5v7.5z" />
    <glyph glyph-name="Ecircumflex" unicode="&#xca;" 
d="M96 859h68l-94 -109h-43zM301 750h-43l-94 109h69zM306 57v-7.5t2.5 -14.5t7.5 -15t15 -9l2 -12h-286h-42l2 12q10 2 15 9t7 15t2.5 14.5t0.5 7.5v585q0 1 -0.5 7.5t-2.5 14.5t-7 15t-15 9l-2 12h286h42l-2 -12q-10 -2 -15 -9t-7.5 -15t-2.5 -14.5v-7.5v-55q-21 0 -39 -9
q-16 -8 -31 -24.5t-20 -48.5l-12 3v117h-69h-28l18 -9q10 -5 10 -15v-178h114l3 -9q-20 -3 -38.5 -24t-27.5 -42h-79l21 -10q7 -4 7 -11v-253h69h27l-18 9q-9 3 -9 15v28v117l12 3q6 -39 21 -58.5t30 -27.5q18 -10 39 -9v-25v-69z" />
    <glyph glyph-name="Edieresis" unicode="&#xcb;" 
d="M107 860l55 -55l-55 -55l-55 55zM276 805l-55 -55l-55 55l55 55zM306 57v-7.5t2.5 -14.5t7.5 -15t15 -9l2 -12h-286h-42l2 12q10 2 15 9t7 15t2.5 14.5t0.5 7.5v585q0 1 -0.5 7.5t-2.5 14.5t-7 15t-15 9l-2 12h286h42l-2 -12q-10 -2 -15 -9t-7.5 -15t-2.5 -14.5v-7.5v-55
q-21 0 -39 -9q-16 -8 -31 -24.5t-20 -48.5l-12 3v117h-69h-28l18 -9q10 -5 10 -15v-178h114l3 -9q-20 -3 -38.5 -24t-27.5 -42h-79l21 -10q7 -4 7 -11v-253h69h27l-18 9q-9 3 -9 15v28v117l12 3q6 -39 21 -58.5t30 -27.5q18 -10 39 -9v-25v-69z" />
    <glyph glyph-name="Igrave" unicode="&#xcc;" horiz-adv-x="205" 
d="M134 750l-94 109h69l68 -109h-43zM197 -155h2l1 1l-1 -1q0 -1 -0.5 -1t-0.5 -1q-1 -1 -1 -1.5t-2 -1.5q-2 -2 -4 -3q-2 -2 -3 -2q-1 -1 -4 -1q-2 -1 -9 -1q-9 0 -19 7q-5 2 -9 5.5t-9 7.5q-4 5 -7.5 8.5l-8.5 8.5q-8 9 -14.5 18.5t-13.5 19.5q-3 5 -6.5 9.5t-6.5 9.5
l-4 4q-1 1 -1.5 2t-1.5 2t-1.5 2t-1.5 2l-2 2q0 1 -0.5 1t-0.5 1l-13 13q-4 2 -7 4l-6 4q-6 2 -14 4q-4 1 -12 1q-3 -1 -8 -1h-3l2 2l3 3q2 2 4 3l2 2q1 1 1.5 1t1.5 1q1 0 3 2q2 0 2.5 0.5t1.5 0.5q10 4 20 4q3 0 6 -0.5t7 -1.5v657q0 1 -0.5 7.5t-3 14.5t-7.5 15t-14 9
l-3 12h157l-2 -12q-10 -2 -15 -9t-7.5 -15t-2.5 -14.5v-7.5v-768v-2q3 -4 5.5 -7.5t4.5 -7.5q1 -2 4 -5l1 -1q1 -1 1 -2q1 0 1.5 -0.5t1.5 -0.5l2 -2h1q0 -1 1 -1q2 0 2 -1h3h4q1 0 2 1h2z" />
    <glyph glyph-name="Iacute" unicode="&#xcd;" horiz-adv-x="205" 
d="M37 750l69 109h68l-94 -109h-43zM195 -155q-1 -1 -2 -1h-4h-3q0 1 -2 1q-1 0 -1 1h-1l-2 2q-1 0 -1.5 0.5t-1.5 0.5q0 1 -1 2l-1 1q-3 3 -4 5q-2 4 -4.5 7.5t-5.5 7.5v2v768v7.5t2.5 14.5t7.5 15t15 9l2 12h-157l3 -12q9 -2 14 -9t7.5 -15t3 -14.5t0.5 -7.5v-657
q-4 1 -7 1.5t-6 0.5q-10 0 -20 -4q-1 0 -1.5 -0.5t-2.5 -0.5q-2 -2 -3 -2q-1 -1 -1.5 -1t-1.5 -1l-2 -2q-2 -1 -4 -3l-3 -3l-2 -2h3q5 0 8 1q8 0 12 -1q8 -2 14 -4l6 -4t7 -4l13 -13q0 -1 0.5 -1t0.5 -1l2 -2q1 -1 1.5 -2t1.5 -2t1.5 -2t1.5 -2l4 -4q3 -5 6.5 -9.5t6.5 -9.5
q7 -10 13.5 -19.5t14.5 -18.5l8.5 -8.5t7.5 -8.5q5 -4 9 -7.5t9 -5.5q10 -7 19 -7q7 0 9 1q3 0 4 1q1 0 3 2q2 1 4 3q2 1 2 1.5t1 1.5q0 1 0.5 1t0.5 1l1 1l-1 -1h-2h-2z" />
    <glyph glyph-name="Icircumflex" unicode="&#xce;" horiz-adv-x="284" 
d="M73 859h69l-94 -109h-43zM279 750h-43l-94 109h68zM236 -155h2l1 1v-1q0 -1 -0.5 -1t-0.5 -1l-3 -3l-4 -4q-1 0 -1.5 -0.5t-1.5 -0.5q-1 -1 -4 -1q-3 -1 -9 -1q-8 0 -20 7q-8 4 -17 13l-8.5 8.5t-7.5 8.5q-8 9 -14.5 18.5t-13.5 19.5q-4 5 -7 9.5t-7 8.5q-1 2 -1.5 2.5
t-1.5 2.5q-1 1 -1.5 2t-1.5 2t-1.5 2t-1.5 2l-2 2l-2 2q-6 7 -13 13q-8 6 -13 8q-3 2 -6.5 2.5t-6.5 1.5q-4 1 -12 1q-3 -1 -8 -1h-3v1l2 1q0 1 2 3q1 1 2 1.5t2 1.5t1.5 1t1.5 1t1.5 1t1.5 1q1 0 3 2q1 0 1.5 0.5t2.5 0.5q10 4 19 4q5 0 13 -2v657q0 1 -0.5 7.5t-2.5 14.5
t-7 15t-15 9l-2 12h157l-2 -12q-10 -2 -15 -9t-7.5 -15t-2.5 -14.5v-7.5v-768v-2l9 -15q2 -2 2.5 -3t2.5 -2v-1h1q0 -1 0.5 -1t0.5 -1q1 0 1 -0.5t1 -0.5l2 -2h2q0 -1 1 -1l2 -1h2h5l2 1h1z" />
    <glyph glyph-name="Idieresis" unicode="&#xcf;" horiz-adv-x="234" 
d="M60 860l55 -55l-55 -55l-55 55zM229 805l-55 -55l-55 55l55 55zM197 -155h2l1 1l-1 -1q0 -1 -0.5 -1t-0.5 -1q-1 -1 -1 -1.5t-2 -1.5l-4 -4q-1 0 -1.5 -0.5t-1.5 -0.5q-1 -1 -4 -1q-2 -1 -9 -1q-9 0 -19 7q-5 2 -9 5.5t-9 7.5q-4 5 -7.5 8.5l-8.5 8.5q-8 9 -14.5 18.5
t-13.5 19.5t-13 18q-1 2 -4 5q-1 1 -1.5 2t-1.5 2t-1.5 2t-1.5 2l-2 2q0 1 -0.5 1t-0.5 1l-13 13q-4 2 -7 4l-6 4q-6 2 -14 4q-4 1 -12 1q-3 -1 -8 -1h-3l2 2l3 3q2 2 4 3l2 2q1 1 1.5 1t1.5 1q1 0 3 2q2 0 2.5 0.5t1.5 0.5q10 4 20 4q3 0 6 -0.5t7 -1.5v657q0 1 -0.5 7.5
t-3 14.5t-7.5 15t-14 9l-3 12h157l-2 -12q-10 -2 -15 -9t-7.5 -15t-2.5 -14.5v-7.5v-768v-2q3 -4 5.5 -7.5t4.5 -7.5q1 -2 4 -5l1 -1q1 -1 1 -2q1 0 1.5 -0.5t1.5 -0.5l2 -2h1q0 -1 1 -1q2 0 2 -1h3h4q1 0 2 1h2z" />
    <glyph glyph-name="Ntilde" unicode="&#xd1;" horiz-adv-x="365" 
d="M292 818q-2 -2 -2 -5v-1q-2 -3 -2.5 -6.5t-2.5 -8.5q-2 -3 -3 -7t-3 -8v-1l-2 -6q-13 -13 -33 -13q-12 0 -24.5 4t-24.5 9l-3 1l-22 8t-22 4q-17 0 -28 -13l-3 3v2q0 1 0.5 1t0.5 1t1 1q1 4 2 7t3 8t3 8.5t2 6.5q0 1 1 2q0 3 2 5q11 14 31 14q11 0 22.5 -3.5t22.5 -8.5
l4 -1q11 -5 23 -9t24 -4q18 0 30 12l1 -1l1 -2zM332 62q0 -13 3 -24q2 -9 7 -17t15 -10l3 -12h-158l3 12q10 2 15 9t7 15t2.5 14.5t0.5 7.5v535l-91 -88l17 6q5 2 5 -3v-633v-2q3 -4 5.5 -7.5t4.5 -7.5q1 -2 4 -5l1 -1q1 -1 1 -2q1 0 1.5 -0.5t1.5 -0.5l2 -2h1q0 -1 1 -1
q2 0 2 -1h3h4q1 0 2 1h2h2l1 1l-1 -1q0 -1 -0.5 -1t-0.5 -1q-1 -1 -1 -1.5t-2 -1.5l-4 -4q-1 0 -1.5 -0.5t-1.5 -0.5q-1 -1 -4 -1q-2 -1 -9 -1q-9 0 -19 7q-5 2 -9 5.5t-9 7.5q-4 5 -7.5 8.5l-8.5 8.5q-8 9 -14.5 18.5t-13.5 19.5t-13 18q-1 2 -4 5q-1 1 -1.5 2t-1.5 2
t-1.5 2t-1.5 2l-2 2q0 1 -0.5 1t-0.5 1l-13 13q-4 2 -7 4l-6 4q-6 2 -14 4q-4 1 -12 1q-3 -1 -8 -1h-3l2 2l3 3q2 2 4 3l2 2q1 1 1.5 1t1.5 1q1 0 3 2q2 0 2.5 0.5t1.5 0.5q10 4 20 4q3 0 6 -0.5t7 -1.5v657q0 1 -0.5 7.5t-3 14.5t-7.5 15t-14 9l-3 12h157l-2 -12
q-10 -2 -15 -9t-7.5 -15t-2.5 -14.5v-7.5v-11l48 48q19 21 50 21h101l-3 -12q-9 -2 -14.5 -9t-7.5 -15t-2.5 -14.5t-0.5 -7.5v-580z" />
    <glyph glyph-name="Ograve" unicode="&#xd2;" 
d="M190 750l-94 109h68l69 -109h-43zM306 57v-7.5t2.5 -14.5t7.5 -15t15 -9l2 -12h-328l2 12q10 2 15 9t7 15t2.5 14.5t0.5 7.5v585q0 1 -0.5 7.5t-2.5 14.5t-7 15t-15 9l-2 12h328l-2 -12q-10 -2 -15 -9t-7.5 -15t-2.5 -14.5v-7.5v-585zM231 74l-18 9q-9 3 -9 15v527h-97
l18 -9q10 -5 10 -15v-527h96z" />
    <glyph glyph-name="Oacute" unicode="&#xd3;" 
d="M96 750l68 109h69l-94 -109h-43zM306 57v585v7.5t2.5 14.5t7.5 15t15 9l2 12h-328l2 -12q10 -2 15 -9t7 -15t2.5 -14.5t0.5 -7.5v-585q0 -1 -0.5 -7.5t-2.5 -14.5t-7 -15t-15 -9l-2 -12h328l-2 12q-10 2 -15 9t-7.5 15t-2.5 14.5v7.5zM135 74v527q0 10 -10 15l-18 9h97
v-527q0 -12 9 -15l18 -9h-96z" />
    <glyph glyph-name="Ocircumflex" unicode="&#xd4;" 
d="M96 859h68l-94 -109h-43zM301 750h-43l-94 109h69zM306 57v-7.5t2.5 -14.5t7.5 -15t15 -9l2 -12h-328l2 12q10 2 15 9t7 15t2.5 14.5t0.5 7.5v585q0 1 -0.5 7.5t-2.5 14.5t-7 15t-15 9l-2 12h328l-2 -12q-10 -2 -15 -9t-7.5 -15t-2.5 -14.5v-7.5v-585zM231 74l-18 9
q-9 3 -9 15v527h-97l18 -9q10 -5 10 -15v-527h96z" />
    <glyph glyph-name="Otilde" unicode="&#xd5;" 
d="M251 818q0 -1 -0.5 -2.5t-0.5 -2.5v-1q-2 -3 -2.5 -6.5t-2.5 -8.5q-2 -3 -3 -7t-3 -8v-1q-2 -5 -3 -6q-12 -13 -32 -13q-13 0 -25.5 4t-23.5 9l-3 1l-22 8t-22 4q-17 0 -28 -13l-3 3v2q0 1 0.5 1t0.5 1v1q2 4 3 7t3 8t2.5 8.5t2.5 6.5v2q2 4 3 5q11 14 31 14
q11 0 22.5 -3.5t22.5 -8.5l4 -1q11 -5 23 -9t24 -4q17 0 29 12l2 -1l1 -2v1zM306 57v-7.5t2.5 -14.5t7.5 -15t15 -9l2 -12h-328l2 12q10 2 15 9t7 15t2.5 14.5t0.5 7.5v585q0 1 -0.5 7.5t-2.5 14.5t-7 15t-15 9l-2 12h328l-2 -12q-10 -2 -15 -9t-7.5 -15t-2.5 -14.5v-7.5
v-585zM231 74l-18 9q-9 3 -9 15v527h-97l18 -9q10 -5 10 -15v-527h96z" />
    <glyph glyph-name="Odieresis" unicode="&#xd6;" 
d="M107 860l55 -55l-55 -55l-55 55zM276 805l-55 -55l-55 55l55 55zM306 57v-7.5t2.5 -14.5t7.5 -15t15 -9l2 -12h-328l2 12q10 2 15 9t7 15t2.5 14.5t0.5 7.5v585q0 1 -0.5 7.5t-2.5 14.5t-7 15t-15 9l-2 12h328l-2 -12q-10 -2 -15 -9t-7.5 -15t-2.5 -14.5v-7.5v-585z
M231 74l-18 9q-9 3 -9 15v527h-97l18 -9q10 -5 10 -15v-527h96z" />
    <glyph glyph-name="Oslash" unicode="&#xd8;" 
d="M333 -1h-249l-21 -70h-41l21 70h-38l2 12q10 2 15 9t7 15t2.5 14.5t0.5 7.5v585q0 1 -0.5 7.5t-2.5 14.5t-7 15t-15 9l-2 12h248l22 74h42l-23 -74h39l-2 -12q-10 -2 -15 -9t-7.5 -15t-2.5 -14.5v-7.5v-585v-7.5t2.5 -14.5t7.5 -15t15 -9zM125 616q10 -5 10 -15v-295
l69 230v89h-97zM231 74l-18 9q-9 3 -9 15v298l-69 -230v-92h96z" />
    <glyph glyph-name="Ugrave" unicode="&#xd9;" horiz-adv-x="365" 
d="M239 750l-94 109h68l69 -109h-43zM332 53l0.5 -5.5t2.5 -13t7.5 -14.5t14.5 -9l3 -12h-329l2 12q10 2 15.5 8.5t7.5 14.5q3 9 3 20v524v19q-5 -1 -13 -1q-13 0 -20 3q-2 2 -4 2q-1 1 -1.5 1t-1.5 1t-1.5 1t-1.5 1q-2 0 -2 2q-2 1 -4 3l-3 3l-2 2h3q2 -1 8 -1q8 0 12 1
q4 0 7 1t7 3q3 2 6 3.5t7 4.5l13 13l1 2l2 2t3 4q2 2 3 4q2 1 2.5 2t1.5 2q3 5 6.5 9.5t6.5 9.5q7 9 13.5 18.5t14.5 18.5q5 5 8.5 9t7.5 8q5 5 9 8t9 6q8 5 19 7q7 0 9 -1q2 0 2.5 -0.5t1.5 -0.5q1 -1 1.5 -1t1.5 -1q2 -1 4 -3q2 -1 2 -1.5t1 -1.5q0 -1 1 -2q0 -1 1 -1h-1
q-1 0 -2 1h-2h-2q-1 0 -2 0.5t-2 0.5t-1.5 -0.5t-1.5 -0.5h-2q0 -1 -1 -1l-1 -1q-2 0 -2 -1q-1 0 -3 -2l-1 -1l-1 -1q-1 -2 -2 -3t-2 -3q-2 -3 -4.5 -6.5t-5.5 -8.5v-2v-634h97l-21 10q-7 3 -7 11v547q0 1 -0.5 7.5t-2.5 14.5t-7.5 15t-14.5 9l-3 12h158l-3 -12
q-10 -2 -15 -10.5t-7 -17.5q-3 -11 -3 -24v-583z" />
    <glyph glyph-name="Uacute" unicode="&#xda;" horiz-adv-x="365" 
d="M120 750l68 109h69l-94 -109h-43zM332 53v583q0 13 3 24q2 9 7 17.5t15 10.5l3 12h-158l3 -12q9 -2 14.5 -9t7.5 -15t2.5 -14.5t0.5 -7.5v-547q0 -8 7 -11l21 -10h-97v634v2q3 5 5.5 8.5t4.5 6.5q1 2 2 3t2 3l1 1l1 1q2 2 3 2q0 1 2 1l1 1q1 0 1 1h2q1 0 1.5 0.5t1.5 0.5
t2 -0.5t2 -0.5h2h2q1 -1 2 -1h1q-1 0 -1 1q-1 1 -1 2q-1 1 -1 1.5t-2 1.5q-2 2 -4 3q-1 1 -1.5 1t-1.5 1q-1 0 -1.5 0.5t-2.5 0.5q-2 1 -9 1q-11 -2 -19 -7q-5 -3 -9 -6t-9 -8q-4 -4 -7.5 -8t-8.5 -9q-8 -9 -14.5 -18.5t-13.5 -18.5q-3 -5 -6.5 -9.5t-6.5 -9.5
q-1 -1 -1.5 -2t-2.5 -2q-1 -2 -3 -4q-1 -2 -3 -4l-2 -2l-1 -2l-13 -13q-4 -3 -7 -4.5t-6 -3.5q-4 -2 -7 -3t-7 -1q-4 -1 -12 -1q-6 0 -8 1h-3l2 -2l3 -3q2 -2 4 -3q0 -2 2 -2q1 -1 1.5 -1t1.5 -1t1.5 -1t1.5 -1q2 0 4 -2q7 -3 20 -3q8 0 13 1v-19v-524q0 -11 -3 -20
q-2 -8 -7.5 -14.5t-15.5 -8.5l-2 -12h329l-3 12q-9 2 -14.5 9t-7.5 14.5t-2.5 13z" />
    <glyph glyph-name="Ucircumflex" unicode="&#xdb;" horiz-adv-x="365" 
d="M120 859h68l-94 -109h-43zM325 750h-43l-94 109h69zM332 53l0.5 -5.5t2.5 -13t7.5 -14.5t14.5 -9l3 -12h-329l2 12q10 2 15.5 8.5t7.5 14.5q3 9 3 20v524v19q-5 -1 -13 -1q-13 0 -20 3q-2 2 -4 2q-1 1 -1.5 1t-1.5 1t-1.5 1t-1.5 1q-2 0 -2 2q-2 1 -4 3l-3 3l-2 2h3
q2 -1 8 -1q8 0 12 1q4 0 7 1t7 3q3 2 6 3.5t7 4.5l13 13l1 2l2 2t3 4q2 2 3 4q2 1 2.5 2t1.5 2q3 5 6.5 9.5t6.5 9.5q7 9 13.5 18.5t14.5 18.5q5 5 8.5 9t7.5 8q5 5 9 8t9 6q8 5 19 7q7 0 9 -1q2 0 2.5 -0.5t1.5 -0.5q1 -1 1.5 -1t1.5 -1q2 -1 4 -3q2 -1 2 -1.5t1 -1.5
q0 -1 1 -2q0 -1 1 -1h-1q-1 0 -2 1h-2h-2q-1 0 -2 0.5t-2 0.5t-1.5 -0.5t-1.5 -0.5h-2q0 -1 -1 -1l-1 -1q-2 0 -2 -1q-1 0 -3 -2l-1 -1l-1 -1q-1 -2 -2 -3t-2 -3q-2 -3 -4.5 -6.5t-5.5 -8.5v-2v-634h97l-21 10q-7 3 -7 11v547q0 1 -0.5 7.5t-2.5 14.5t-7.5 15t-14.5 9l-3 12
h158l-3 -12q-10 -2 -15 -10.5t-7 -17.5q-3 -11 -3 -24v-583z" />
    <glyph glyph-name="Udieresis" unicode="&#xdc;" horiz-adv-x="365" 
d="M135 860l55 -55l-55 -55l-55 55zM304 805l-55 -55l-55 55l55 55zM332 53l0.5 -5.5t2.5 -13t7.5 -14.5t14.5 -9l3 -12h-329l2 12q10 2 15.5 8.5t7.5 14.5q3 9 3 20v524v19q-5 -1 -13 -1q-13 0 -20 3q-2 2 -4 2q-1 1 -1.5 1t-1.5 1t-1.5 1t-1.5 1q-2 0 -2 2q-2 1 -4 3l-3 3
l-2 2h3q2 -1 8 -1q8 0 12 1q4 0 7 1t7 3q3 2 6 3.5t7 4.5l13 13l1 2l2 2t3 4q2 2 3 4q2 1 2.5 2t1.5 2q3 5 6.5 9.5t6.5 9.5q7 9 13.5 18.5t14.5 18.5q5 5 8.5 9t7.5 8q5 5 9 8t9 6q8 5 19 7q7 0 9 -1q2 0 2.5 -0.5t1.5 -0.5q1 -1 1.5 -1t1.5 -1q2 -1 4 -3q2 -1 2 -1.5
t1 -1.5q0 -1 1 -2q0 -1 1 -1h-1q-1 0 -2 1h-2h-2q-1 0 -2 0.5t-2 0.5t-1.5 -0.5t-1.5 -0.5h-2q0 -1 -1 -1l-1 -1q-2 0 -2 -1q-1 0 -3 -2l-1 -1l-1 -1q-1 -2 -2 -3t-2 -3q-2 -3 -4.5 -6.5t-5.5 -8.5v-2v-634h97l-21 10q-7 3 -7 11v547q0 1 -0.5 7.5t-2.5 14.5t-7.5 15
t-14.5 9l-3 12h158l-3 -12q-10 -2 -15 -10.5t-7 -17.5q-3 -11 -3 -24v-583z" />
    <glyph glyph-name="Yacute" unicode="&#xdd;" 
d="M96 750l68 109h69l-94 -109h-43zM331 688l2 12h-157l2 -12q10 -2 15 -9t7 -15t2.5 -14.5t0.5 -7.5v-34v-189l-33 -32h-2l-53 51l14 -6q6 -2 6 4v172v34v7.5t2.5 14.5t7.5 15t15 9l2 12h-157l2 -12q10 -2 15 -9t7 -15t2.5 -14.5t0.5 -7.5v-34v-82v-25v-62q0 -7 -5.5 -10.5
t-11.5 -1.5l-5 -7l109 -91v-344q-8 2 -13 2q-9 0 -19 -4q-2 0 -2.5 -0.5t-1.5 -0.5q-2 -2 -4 -2l-2 -2q-1 -1 -1.5 -1t-1.5 -1q-2 -1 -4 -3l-3 -3l-2 -2h3q5 0 9 1q7 0 12 -1q3 -1 6.5 -1.5t6.5 -2.5q5 -2 13 -8q7 -6 13 -13l2 -2q0 -1 0.5 -1t0.5 -1l4 -4q1 -1 1.5 -2
t1.5 -2q1 -2 1.5 -2.5t1.5 -2.5q4 -4 7 -8.5t6 -9.5q13 -19 29 -38q4 -5 7.5 -8.5l8.5 -8.5q9 -9 17 -13q10 -7 20 -7q6 0 9 1q2 0 4 1q1 0 1.5 0.5t1.5 0.5q1 2 2 2.5t2 1.5q2 2 2 3t0.5 1t0.5 1l1 1l-1 -1h-2h-2l-1 -1h-5h-2q-1 1 -3 1l-1 1h-1l-2 2l-2 1q-1 1 -1 2h-1v1
q-2 1 -2.5 2t-2.5 3l-9 15l-1 2v457l107 89l-5 7q-6 -2 -11.5 1.5t-5.5 10.5v62v8v99v34v7.5t2.5 14.5t7.5 15t15 9z" />
    <glyph glyph-name="germandbls" unicode="&#xdf;" 
d="M306 57v-7.5t2.5 -14.5t7.5 -15t15 -9l2 -12h-177l25 75h50l-18 9q-9 3 -9 15v237l-69 32v-248v-120h-130l2 12q10 2 15 9t7 15t2.5 14.5t0.5 7.5v585q0 1 -0.5 7.5t-2.5 14.5t-7 15t-15 9l-2 12h328l-2 -12q-10 -2 -15 -9t-7.5 -15t-2.5 -14.5v-7.5v-157q0 -6 2.5 -8.5
t6.5 -4.5t9 -2v-6l-108 -50l108 -51v-6q-5 0 -9 -2q-9 -4 -9 -13v-285zM204 625h-97l18 -9q10 -5 10 -15v-141l69 32v133z" />
    <glyph glyph-name="agrave" unicode="&#xe0;" horiz-adv-x="325" 
d="M183 525l-94 109h68l69 -109h-43zM32 194q0 8 -5.5 13.5t-13.5 5.5l-1 5l178 130v77h-83l14 -7q14 -7 14 -22v-78l-12 -5q-4 14 -10.5 27.5t-17 23.5t-26 16t-37.5 6v56q0 1 -0.5 7.5t-2.5 14.5t-7 15t-15 9l-2 12h315l-2 -12q-10 -2 -15 -9t-7.5 -15t-3 -14.5t-0.5 -7.5
v-385q0 -1 0.5 -7.5t3 -14.5t7.5 -15t15 -9l2 -12h-315l2 12q10 2 15 9t7 15t2.5 14.5t0.5 7.5v137zM135 74h55h28l-18 9q-10 3 -10 15v5v7v144l-55 -40v-114v-26z" />
    <glyph glyph-name="aacute" unicode="&#xe1;" horiz-adv-x="325" 
d="M89 525l68 109h69l-94 -109h-43zM32 57q0 -1 -0.5 -7.5t-2.5 -14.5t-7 -15t-15 -9l-2 -12h315l-2 12q-10 2 -15 9t-7.5 15t-3 14.5t-0.5 7.5v385q0 1 0.5 7.5t3 14.5t7.5 15t15 9l2 12h-315l2 -12q10 -2 15 -9t7 -15t2.5 -14.5t0.5 -7.5v-56q22 0 37.5 -6t26 -16
t17 -23.5t10.5 -27.5l12 5v78q0 15 -14 22l-14 7h83v-77l-178 -130l1 -5q8 0 13.5 -5.5t5.5 -13.5v-137zM135 100v114l55 40v-144v-7v-5q0 -12 10 -15l18 -9h-28h-55v26z" />
    <glyph glyph-name="acircumflex" unicode="&#xe2;" horiz-adv-x="325" 
d="M217 525l-60 69l-59 -69h-43l68 109h69l68 -109h-43zM32 194q0 8 -5.5 13.5t-13.5 5.5l-1 5l178 130v77h-83l14 -7q14 -7 14 -22v-78l-12 -5q-4 14 -10.5 27.5t-17 23.5t-26 16t-37.5 6v56q0 1 -0.5 7.5t-2.5 14.5t-7 15t-15 9l-2 12h315l-2 -12q-10 -2 -15 -9t-7.5 -15
t-3 -14.5t-0.5 -7.5v-385q0 -1 0.5 -7.5t3 -14.5t7.5 -15t15 -9l2 -12h-315l2 12q10 2 15 9t7 15t2.5 14.5t0.5 7.5v137zM135 74h55h28l-18 9q-10 3 -10 15v5v7v144l-55 -40v-114v-26z" />
    <glyph glyph-name="atilde" unicode="&#xe3;" horiz-adv-x="325" 
d="M245 593q-2 -2 -2 -5v-1q-2 -3 -2.5 -6.5t-2.5 -8.5q-2 -3 -3 -7t-3 -8v-1l-2 -6q-13 -13 -33 -13q-12 0 -24.5 4t-24.5 9l-3 1l-22 8t-22 4q-17 0 -28 -13l-3 3v2q0 1 0.5 1t0.5 1l1 1q1 4 2 7t3 8t3 8.5t2 6.5q0 1 1 2q0 3 2 5q12 14 31 14q11 0 22.5 -3.5t22.5 -8.5
l4 -1q11 -5 23 -9t24 -4q18 0 30 12l1 -1l1 -2zM32 194q0 8 -5.5 13.5t-13.5 5.5l-1 5l178 130v77h-83l14 -7q14 -7 14 -22v-78l-12 -5q-4 14 -10.5 27.5t-17 23.5t-26 16t-37.5 6v56q0 1 -0.5 7.5t-2.5 14.5t-7 15t-15 9l-2 12h315l-2 -12q-10 -2 -15 -9t-7.5 -15t-3 -14.5
t-0.5 -7.5v-385q0 -1 0.5 -7.5t3 -14.5t7.5 -15t15 -9l2 -12h-315l2 12q10 2 15 9t7 15t2.5 14.5t0.5 7.5v137zM135 74h55h28l-18 9q-10 3 -10 15v5v7v144l-55 -40v-114v-26z" />
    <glyph glyph-name="adieresis" unicode="&#xe4;" horiz-adv-x="325" 
d="M100 635l55 -55l-55 -55l-55 55zM270 580l-55 -55l-56 55l55 55zM32 194q0 8 -5.5 13.5t-13.5 5.5l-1 5l178 130v77h-83l14 -7q14 -7 14 -22v-78l-12 -5q-4 14 -10.5 27.5t-17 23.5t-26 16t-37.5 6v56q0 1 -0.5 7.5t-2.5 14.5t-7 15t-15 9l-2 12h315l-2 -12
q-10 -2 -15 -9t-7.5 -15t-3 -14.5t-0.5 -7.5v-385q0 -1 0.5 -7.5t3 -14.5t7.5 -15t15 -9l2 -12h-315l2 12q10 2 15 9t7 15t2.5 14.5t0.5 7.5v137zM135 74h55h28l-18 9q-10 3 -10 15v5v7v144l-55 -40v-114v-26z" />
    <glyph glyph-name="aring" unicode="&#xe5;" horiz-adv-x="325" 
d="M212 580l-55 -55l-55 55l55 55zM177 579l-20 20l-20 -20l20 -20zM32 194q0 8 -5.5 13.5t-13.5 5.5l-1 5l178 130v77h-83l14 -7q14 -7 14 -22v-78l-12 -5q-4 14 -10.5 27.5t-17 23.5t-26 16t-37.5 6v56q0 1 -0.5 7.5t-2.5 14.5t-7 15t-15 9l-2 12h315l-2 -12
q-10 -2 -15 -9t-7.5 -15t-3 -14.5t-0.5 -7.5v-385q0 -1 0.5 -7.5t3 -14.5t7.5 -15t15 -9l2 -12h-315l2 12q10 2 15 9t7 15t2.5 14.5t0.5 7.5v137zM135 74h55h28l-18 9q-10 3 -10 15v5v7v144l-55 -40v-114v-26z" />
    <glyph glyph-name="ae" unicode="&#xe6;" horiz-adv-x="482" 
d="M450 57v-7.5t2.5 -14.5t7.5 -15t15 -9l2 -12h-157h-157h-158l2 12q10 2 15 9t7 15t2.5 14.5t0.5 7.5v137q0 8 -5.5 13.5t-13.5 5.5l-1 5l178 130v77h-83l14 -7q14 -7 14 -22v-78l-12 -5q-4 14 -10.5 27.5t-17 23.5t-26 16t-37.5 6v56q0 1 -0.5 7.5t-2.5 14.5t-7 15t-15 9
l-2 12h158h157h157l-2 -12q-10 -2 -15 -9t-7.5 -15t-2.5 -14.5v-7.5v-91q0 -8 6 -13.5t14 -5.5v-5l-178 -129v-124h83l-27 13v94l11 5q4 -14 10.5 -27.5t17 -24t26 -16.5t37.5 -6v-9v-46zM265 425l18 -9q9 -5 9 -15v-110l56 40v94h-83zM190 74v23v1v5v7v144l-55 -40v-114
v-26h55z" />
    <glyph glyph-name="ccedilla" unicode="&#xe7;" horiz-adv-x="325" 
d="M183 -1v-23q12 -2 27.5 -7t26.5 -17q18 -17 18 -43q0 -30 -32 -49q-24 -13 -56 -13q-30 0 -53 13q-30 19 -30 50h40q0 -4 1.5 -7.5t8.5 -7.5q13 -8 33 -8q19 0 33.5 6.5t14.5 15.5t-6 15q-8 8 -23 11t-23 3h-20v61h-138l2 12q10 2 15 9t7 15t2.5 14.5t0.5 7.5v385
q0 1 -0.5 7.5t-2.5 14.5t-7 15t-15 9l-2 12h315l-2 -12q-10 -2 -15 -9t-7.5 -15t-3 -14.5t-0.5 -7.5v-49v-4q-43 0 -63 -22.5t-28 -51.5l-11 5v105h-83l18 -9q10 -5 10 -15v-327h83l-28 13v94l11 5q8 -29 28 -51.5t63 -22.5v-9v-46q0 -1 0.5 -7.5t3 -14.5t7.5 -15t15 -9
l2 -12h-137z" />
    <glyph glyph-name="egrave" unicode="&#xe8;" horiz-adv-x="325" 
d="M183 525l-94 109h68l69 -109h-43zM292 351q0 -8 6 -13.5t14 -5.5v-5l-177 -129v-124h83l-28 13v94l11 5q8 -29 28 -51.5t63 -22.5v-9v-46q0 -1 0.5 -7.5t3 -14.5t7.5 -15t15 -9l2 -12h-315l2 12q10 2 15 9t7 15t2.5 14.5t0.5 7.5v385q0 1 -0.5 7.5t-2.5 14.5t-7 15t-15 9
l-2 12h315l-2 -12q-10 -2 -15 -9t-7.5 -15t-3 -14.5t-0.5 -7.5v-91zM190 425h-83l18 -9q10 -5 10 -15v-110l55 40v94z" />
    <glyph glyph-name="eacute" unicode="&#xe9;" horiz-adv-x="325" 
d="M89 525l68 109h69l-94 -109h-43zM292 442q0 1 0.5 7.5t3 14.5t7.5 15t15 9l2 12h-315l2 -12q10 -2 15 -9t7 -15t2.5 -14.5t0.5 -7.5v-385q0 -1 -0.5 -7.5t-2.5 -14.5t-7 -15t-15 -9l-2 -12h315l-2 12q-10 2 -15 9t-7.5 15t-3 14.5t-0.5 7.5v46v9q-43 0 -63 22.5t-28 51.5
l-11 -5v-94l28 -13h-83v124l177 129v5q-8 0 -14 5.5t-6 13.5v91zM190 331l-55 -40v110q0 10 -10 15l-18 9h83v-94z" />
    <glyph glyph-name="ecircumflex" unicode="&#xea;" horiz-adv-x="325" 
d="M217 525l-60 69l-59 -69h-43l68 109h69l68 -109h-43zM292 351q0 -8 6 -13.5t14 -5.5v-5l-177 -129v-124h83l-28 13v94l11 5q8 -29 28 -51.5t63 -22.5v-9v-46q0 -1 0.5 -7.5t3 -14.5t7.5 -15t15 -9l2 -12h-315l2 12q10 2 15 9t7 15t2.5 14.5t0.5 7.5v385q0 1 -0.5 7.5
t-2.5 14.5t-7 15t-15 9l-2 12h315l-2 -12q-10 -2 -15 -9t-7.5 -15t-3 -14.5t-0.5 -7.5v-91zM190 425h-83l18 -9q10 -5 10 -15v-110l55 40v94z" />
    <glyph glyph-name="edieresis" unicode="&#xeb;" horiz-adv-x="325" 
d="M100 635l55 -55l-55 -55l-55 55zM270 580l-55 -55l-56 55l55 55zM292 351q0 -8 6 -13.5t14 -5.5v-5l-177 -129v-124h83l-28 13v94l11 5q8 -29 28 -51.5t63 -22.5v-9v-46q0 -1 0.5 -7.5t3 -14.5t7.5 -15t15 -9l2 -12h-315l2 12q10 2 15 9t7 15t2.5 14.5t0.5 7.5v385
q0 1 -0.5 7.5t-2.5 14.5t-7 15t-15 9l-2 12h315l-2 -12q-10 -2 -15 -9t-7.5 -15t-3 -14.5t-0.5 -7.5v-91zM190 425h-83l18 -9q10 -5 10 -15v-110l55 40v94z" />
    <glyph glyph-name="igrave" unicode="&#xec;" horiz-adv-x="167" 
d="M109 525l-94 109h68l69 -109h-43zM135 57v-7.5t2.5 -14.5t7.5 -15t15 -9l2 -12h-157l2 12q10 2 15 9t7 15t2.5 14.5t0.5 7.5v385q0 1 -0.5 7.5t-2.5 14.5t-7 15t-15 9l-2 12h157l-2 -12q-10 -2 -15 -9t-7.5 -15t-2.5 -14.5v-7.5v-385z" />
    <glyph glyph-name="iacute" unicode="&#xed;" horiz-adv-x="167" 
d="M15 525l68 109h69l-94 -109h-43zM135 57v385v7.5t2.5 14.5t7.5 15t15 9l2 12h-157l2 -12q10 -2 15 -9t7 -15t2.5 -14.5t0.5 -7.5v-385q0 -1 -0.5 -7.5t-2.5 -14.5t-7 -15t-15 -9l-2 -12h157l-2 12q-10 2 -15 9t-7.5 15t-2.5 14.5v7.5z" />
    <glyph glyph-name="icircumflex" unicode="&#xee;" horiz-adv-x="215" 
d="M167 525l-59 69l-60 -69h-43l68 109h69l68 -109h-43zM159 57v-7.5t2.5 -14.5t7.5 -15t15 -9l2 -12h-157l2 12q10 2 15 9t7.5 15t3 14.5t0.5 7.5v385q0 1 -0.5 7.5t-3 14.5t-7.5 15t-15 9l-2 12h157l-2 -12q-10 -2 -15 -9t-7.5 -15t-2.5 -14.5v-7.5v-385z" />
    <glyph glyph-name="idieresis" unicode="&#xef;" horiz-adv-x="234" 
d="M60 635l55 -55l-55 -55l-55 55zM229 580l-55 -55l-55 55l55 55zM166 57q0 -1 0.5 -7.5t2.5 -14.5t7.5 -15t14.5 -9l3 -12h-158l3 12q10 2 15 9t7 15t2.5 14.5t0.5 7.5v385q0 1 -0.5 7.5t-2.5 14.5t-7 15t-15 9l-3 12h158l-3 -12q-9 -2 -14.5 -9t-7.5 -15t-2.5 -14.5
t-0.5 -7.5v-385z" />
    <glyph glyph-name="ntilde" unicode="&#xf1;" horiz-adv-x="325" 
d="M244 593q0 -1 -0.5 -2.5t-0.5 -2.5v-1q-2 -3 -3 -6.5t-3 -8.5q-2 -7 -5 -15v-1q-2 -5 -3 -6q-12 -13 -32 -13q-13 0 -25.5 4t-23.5 9l-3 1l-22 8t-22 4q-17 0 -28 -13l-3 3v2q0 1 0.5 1t0.5 1v1q2 4 3 7t3 8t2.5 8.5t2.5 6.5v2q2 4 3 5q12 14 31 14q11 0 22.5 -3.5
t22.5 -8.5l4 -1q11 -5 23 -9t24 -4q17 0 29 12l2 -1l1 -2v1zM320 -66h-1l-1 -2q0 -1 -2 -3t-4 -3q-1 0 -1.5 -0.5t-1.5 -0.5q-1 -1 -3 -1q-2 -1 -8 -1q-8 2 -17 6q-4 2 -7.5 5.5t-7.5 6.5l-7.5 7.5t-6.5 7.5q-7 8 -13 16.5t-12 16.5q-3 5 -6 8.5t-5 7.5q-1 1 -1.5 2t-1.5 2
q-2 2 -3 4l-3 3q-1 1 -1 2q-1 0 -1 0.5t-1 0.5q-3 4 -5.5 6.5l-5.5 5.5q-4 3 -12 7q-5 3 -11 3q-4 1 -11 1q-5 0 -7 -1q0 1 1 2l2 4q4 5 12 9t23 5v364h-83l19 -9q8 -5 8 -13v-346q0 -1 0.5 -7.5t3 -14.5t7.5 -15t15 -9l2 -12h-157l2 12q10 2 15 9t7 15t2.5 14.5t0.5 7.5
v385q0 1 -0.5 7.5t-2.5 14.5t-7 15t-15 9l-2 12h314l-2 -12q-10 -2 -15 -9t-7.5 -15t-2.5 -14.5v-7.5v-486q0 -10 6 -16l1 -1q0 -1 1 -1l2 -2q1 0 1 -0.5t1 -0.5l1 -1h1q1 0 1 -0.5t1 -0.5h2h4h1q1 0 1 0.5t1 0.5h3z" />
    <glyph glyph-name="ograve" unicode="&#xf2;" horiz-adv-x="325" 
d="M183 525l-94 109h68l69 -109h-43zM292 57q0 -1 0.5 -7.5t3 -14.5t7.5 -15t15 -9l2 -12h-315l2 12q10 2 15 9t7 15t2.5 14.5t0.5 7.5v385q0 1 -0.5 7.5t-2.5 14.5t-7 15t-15 9l-2 12h315l-2 -12q-10 -2 -15 -9t-7.5 -15t-3 -14.5t-0.5 -7.5v-385zM218 74l-18 9
q-10 3 -10 15v327h-83l18 -9q10 -5 10 -15v-327h83z" />
    <glyph glyph-name="oacute" unicode="&#xf3;" horiz-adv-x="325" 
d="M89 525l68 109h69l-94 -109h-43zM292 57v385q0 1 0.5 7.5t3 14.5t7.5 15t15 9l2 12h-315l2 -12q10 -2 15 -9t7 -15t2.5 -14.5t0.5 -7.5v-385q0 -1 -0.5 -7.5t-2.5 -14.5t-7 -15t-15 -9l-2 -12h315l-2 12q-10 2 -15 9t-7.5 15t-3 14.5t-0.5 7.5zM135 74v327q0 10 -10 15
l-18 9h83v-327q0 -12 10 -15l18 -9h-83z" />
    <glyph glyph-name="ocircumflex" unicode="&#xf4;" horiz-adv-x="325" 
d="M217 525l-60 69l-59 -69h-43l68 109h69l68 -109h-43zM292 57q0 -1 0.5 -7.5t3 -14.5t7.5 -15t15 -9l2 -12h-315l2 12q10 2 15 9t7 15t2.5 14.5t0.5 7.5v385q0 1 -0.5 7.5t-2.5 14.5t-7 15t-15 9l-2 12h315l-2 -12q-10 -2 -15 -9t-7.5 -15t-3 -14.5t-0.5 -7.5v-385z
M218 74l-18 9q-10 3 -10 15v327h-83l18 -9q10 -5 10 -15v-327h83z" />
    <glyph glyph-name="otilde" unicode="&#xf5;" horiz-adv-x="325" 
d="M244 595q0 -1 -0.5 -2.5t-0.5 -2.5v-1q-2 -3 -3 -6.5t-3 -8.5q-2 -7 -5 -15v-1q-2 -5 -3 -6q-12 -13 -32 -13q-13 0 -25.5 4t-23.5 9l-3 1l-22 8t-22 4q-17 0 -28 -13l-3 3v2q0 1 0.5 1t0.5 1v1q2 4 3 7t3 8t2.5 8.5t2.5 6.5v2q2 4 3 5q12 14 31 14q11 0 22.5 -3.5
t22.5 -8.5l4 -1q11 -5 23 -9t24 -4q17 0 29 12l2 -1l1 -2v1zM292 57q0 -1 0.5 -7.5t3 -14.5t7.5 -15t15 -9l2 -12h-315l2 12q10 2 15 9t7 15t2.5 14.5t0.5 7.5v385q0 1 -0.5 7.5t-2.5 14.5t-7 15t-15 9l-2 12h315l-2 -12q-10 -2 -15 -9t-7.5 -15t-3 -14.5t-0.5 -7.5v-385z
M218 74l-18 9q-10 3 -10 15v327h-83l18 -9q10 -5 10 -15v-327h83z" />
    <glyph glyph-name="odieresis" unicode="&#xf6;" horiz-adv-x="325" 
d="M100 635l55 -55l-55 -55l-55 55zM270 580l-55 -55l-56 55l55 55zM292 57q0 -1 0.5 -7.5t3 -14.5t7.5 -15t15 -9l2 -12h-315l2 12q10 2 15 9t7 15t2.5 14.5t0.5 7.5v385q0 1 -0.5 7.5t-2.5 14.5t-7 15t-15 9l-2 12h315l-2 -12q-10 -2 -15 -9t-7.5 -15t-3 -14.5t-0.5 -7.5
v-385zM218 74l-18 9q-10 3 -10 15v327h-83l18 -9q10 -5 10 -15v-327h83z" />
    <glyph glyph-name="oslash" unicode="&#xf8;" horiz-adv-x="325" 
d="M320 -1h-213l-21 -70h-41l21 70h-61l2 12q10 2 15 9t7 15t2.5 14.5t0.5 7.5v385q0 1 -0.5 7.5t-2.5 14.5t-7 15t-15 9l-2 12h211l22 75h42l-22 -75h62l-2 -12q-10 -2 -15 -9t-7.5 -15t-3 -14.5t-0.5 -7.5v-385q0 -1 0.5 -7.5t3 -14.5t7.5 -15t15 -9zM125 416
q10 -5 10 -15v-172l55 185v11h-83zM218 74l-18 9q-10 3 -10 15v176l-55 -184v-16h83z" />
    <glyph glyph-name="ugrave" unicode="&#xf9;" horiz-adv-x="335" 
d="M188 537l-94 108h68l69 -108h-43zM303 56v-7.5t2.5 -14.5t7.5 -15t15 -9l2 -12h-314l2 12q10 2 15 9t7 15t2.5 14.5t0.5 7.5v316q-15 1 -23 5t-11 9q-2 1 -2 2t-1 2l-1 1h7q7 0 11 1q6 0 11 3q8 4 12 7q3 2 5.5 5t5.5 7q1 0 1 0.5t1 0.5q0 1 0.5 1t0.5 1l3 3q1 2 3 4
q1 1 1.5 2t1.5 2q2 4 5 7.5t6 8.5q6 8 12 16.5t13 16.5q3 4 6.5 7.5l7.5 7.5q4 3 7.5 6.5t7.5 5.5q9 4 17 6q6 0 8 -1l2 -1h1q1 0 1.5 -0.5t1.5 -0.5q2 -1 2.5 -2t1.5 -1q2 -4 2 -3q0 -1 1 -2h1h-3l-1 1h-2h-4h-2q-1 0 -1 -0.5t-1 -0.5h-1q0 -1 -1 -1t-1 -0.5t-1 -0.5l-2 -2
l-1 -1l-1 -1q-6 -8 -6 -16v-403h83l-23 11q-4 1 -4 6v351q0 1 -0.5 7.5t-3 14.5t-7.5 15t-15 9l-2 12h157l-2 -12q-10 -2 -15 -9t-7.5 -15t-2.5 -14.5v-7.5v-386z" />
    <glyph glyph-name="uacute" unicode="&#xfa;" horiz-adv-x="335" 
d="M99 525l69 109h68l-94 -109h-43zM303 56v386v7.5t2.5 14.5t7.5 15t15 9l2 12h-157l2 -12q10 -2 15 -9t7.5 -15t3 -14.5t0.5 -7.5v-351q0 -5 4 -6l23 -11h-83v403q0 8 6 16l1 1l1 1l2 2q1 0 1 0.5t1 0.5t1 1h1q1 0 1 0.5t1 0.5h2h4h2l1 -1h3h-1q-1 1 -1 2q0 -1 -2 3
q-1 0 -1.5 1t-2.5 2q-1 0 -1.5 0.5t-1.5 0.5h-1l-2 1q-2 1 -8 1q-8 -2 -17 -6q-4 -2 -7.5 -5.5t-7.5 -6.5l-7.5 -7.5t-6.5 -7.5q-7 -8 -13 -16.5t-12 -16.5q-3 -5 -6 -8.5t-5 -7.5q-1 -1 -1.5 -2t-1.5 -2q-2 -2 -3 -4l-3 -3q0 -1 -0.5 -1t-0.5 -1q-1 0 -1 -0.5t-1 -0.5
q-3 -4 -5.5 -7t-5.5 -5q-4 -3 -12 -7q-5 -3 -11 -3q-4 -1 -11 -1h-7l1 -1q1 -1 1 -2t2 -2q3 -5 11 -9t23 -5v-316q0 -1 -0.5 -7.5t-2.5 -14.5t-7 -15t-15 -9l-2 -12h314l-2 12q-10 2 -15 9t-7.5 15t-2.5 14.5v7.5z" />
    <glyph glyph-name="ucircumflex" unicode="&#xfb;" horiz-adv-x="335" 
d="M227 525l-59 69l-60 -69h-43l68 109h69l68 -109h-43zM303 56v-7.5t2.5 -14.5t7.5 -15t15 -9l2 -12h-314l2 12q10 2 15 9t7 15t2.5 14.5t0.5 7.5v316q-15 1 -23 5t-11 9q-2 1 -2 2t-1 2l-1 1h7q7 0 11 1q6 0 11 3q8 4 12 7q3 2 5.5 5t5.5 7q1 0 1 0.5t1 0.5q0 1 0.5 1
t0.5 1l3 3q1 2 3 4q1 1 1.5 2t1.5 2q2 4 5 7.5t6 8.5q6 8 12 16.5t13 16.5q3 4 6.5 7.5l7.5 7.5q4 3 7.5 6.5t7.5 5.5q9 4 17 6q6 0 8 -1l2 -1h1q1 0 1.5 -0.5t1.5 -0.5q2 -1 2.5 -2t1.5 -1q2 -4 2 -3q0 -1 1 -2h1h-3l-1 1h-2h-4h-2q-1 0 -1 -0.5t-1 -0.5h-1q0 -1 -1 -1
t-1 -0.5t-1 -0.5l-2 -2l-1 -1l-1 -1q-6 -8 -6 -16v-403h83l-23 11q-4 1 -4 6v351q0 1 -0.5 7.5t-3 14.5t-7.5 15t-15 9l-2 12h157l-2 -12q-10 -2 -15 -9t-7.5 -15t-2.5 -14.5v-7.5v-386z" />
    <glyph glyph-name="udieresis" unicode="&#xfc;" horiz-adv-x="335" 
d="M110 635l56 -55l-55 -55l-56 55zM280 580l-55 -55l-55 55l55 55zM303 56v-7.5t2.5 -14.5t7.5 -15t15 -9l2 -12h-314l2 12q10 2 15 9t7 15t2.5 14.5t0.5 7.5v316q-15 1 -23 5t-11 9q-2 1 -2 2t-1 2l-1 1h7q7 0 11 1q6 0 11 3q8 4 12 7q3 2 5.5 5t5.5 7q1 0 1 0.5t1 0.5
q0 1 0.5 1t0.5 1l3 3q1 2 3 4q1 1 1.5 2t1.5 2q2 4 5 7.5t6 8.5q6 8 12 16.5t13 16.5q3 4 6.5 7.5l7.5 7.5q4 3 7.5 6.5t7.5 5.5q9 4 17 6q6 0 8 -1l2 -1h1q1 0 1.5 -0.5t1.5 -0.5q2 -1 2.5 -2t1.5 -1q2 -4 2 -3q0 -1 1 -2h1h-3l-1 1h-2h-4h-2q-1 0 -1 -0.5t-1 -0.5h-1
q0 -1 -1 -1t-1 -0.5t-1 -0.5l-2 -2l-1 -1l-1 -1q-6 -8 -6 -16v-403h83l-23 11q-4 1 -4 6v351q0 1 -0.5 7.5t-3 14.5t-7.5 15t-15 9l-2 12h157l-2 -12q-10 -2 -15 -9t-7.5 -15t-2.5 -14.5v-7.5v-386z" />
    <glyph glyph-name="yacute" unicode="&#xfd;" horiz-adv-x="335" 
d="M99 525l69 109h68l-94 -109h-43zM303 -192v634v7.5t2.5 14.5t7.5 15t15 9l2 12h-157l2 -12q10 -2 15 -9t7.5 -15t3 -14.5t0.5 -7.5v-339q0 -17 14 -23l13 -6h-83v403q0 8 6 16l1 1l1 1l2 2q1 0 1 0.5t1 0.5t1 1h1q1 0 1 0.5t1 0.5h2h4h2l1 -1h3h-1q-1 1 -1 2q0 -1 -2 3
q-1 0 -1.5 1t-2.5 2q-1 0 -1.5 0.5t-1.5 0.5h-1l-2 1q-2 1 -8 1q-8 -2 -17 -6l-15 -12l-7.5 -7.5t-6.5 -7.5q-7 -8 -13 -16.5t-12 -16.5q-3 -5 -6 -8.5t-5 -7.5q-1 -2 -3 -4t-3 -4l-3 -3q0 -1 -0.5 -1t-0.5 -1q-1 0 -1 -0.5t-1 -0.5q-3 -4 -5.5 -7t-5.5 -5q-4 -3 -12 -7
q-5 -3 -11 -3q-4 -1 -11 -1h-7l1 -1q1 -1 1 -2t2 -2q3 -5 11 -9t23 -5v-315q0 -1 -0.5 -7.5t-2.5 -14.5t-7 -15t-15 -9l-2 -12h185v-150q0 -11 9 -15l18 -9h-83v109l-11 5q-8 -29 -28 -51.5t-63 -22.5v-57q0 -1 -0.5 -7.5t-2.5 -14.5t-7 -15t-15 -9l-2 -12h314l-2 12
q-10 2 -15 9t-7.5 15t-2.5 14.5v7.5z" />
    <glyph glyph-name="ydieresis" unicode="&#xff;" horiz-adv-x="335" 
d="M110 635l56 -55l-55 -55l-56 55zM280 580l-55 -55l-55 55l55 55zM303 -192v-7.5t2.5 -14.5t7.5 -15t15 -9l2 -12h-314l2 12q10 2 15 9t7 15t2.5 14.5t0.5 7.5v57q43 0 63 22.5t28 51.5l11 -5v-109h83l-18 9q-9 4 -9 15v150h-185l2 12q10 2 15 9t7 15t2.5 14.5t0.5 7.5
v315q-15 1 -23 5t-11 9q-2 1 -2 2t-1 2l-1 1h7q7 0 11 1q6 0 11 3q8 4 12 7q3 2 5.5 5t5.5 7q1 0 1 0.5t1 0.5q0 1 0.5 1t0.5 1l3 3q1 2 3 4t3 4q2 4 5 7.5t6 8.5q6 8 12 16.5t13 16.5q3 4 6.5 7.5l7.5 7.5l15 12q9 4 17 6q6 0 8 -1l2 -1h1q1 0 1.5 -0.5t1.5 -0.5
q2 -1 2.5 -2t1.5 -1q2 -4 2 -3q0 -1 1 -2h1h-3l-1 1h-2h-4h-2q-1 0 -1 -0.5t-1 -0.5h-1q0 -1 -1 -1t-1 -0.5t-1 -0.5l-2 -2l-1 -1l-1 -1q-6 -8 -6 -16v-403h83l-13 6q-14 6 -14 23v339q0 1 -0.5 7.5t-3 14.5t-7.5 15t-15 9l-2 12h157l-2 -12q-10 -2 -15 -9t-7.5 -15
t-2.5 -14.5v-7.5v-634z" />
    <glyph glyph-name="OE" unicode="&#x152;" horiz-adv-x="509" 
d="M477 57v-7.5t2.5 -14.5t7.5 -15t15 -9l2 -12h-499l2 12q10 2 15 9t7 15t2.5 14.5t0.5 7.5v585q0 1 -0.5 7.5t-2.5 14.5t-7 15t-15 9l-2 12h499l-2 -12q-10 -2 -15 -9t-7.5 -15t-2.5 -14.5v-7.5v-55q-21 0 -39 -9q-16 -8 -31 -24.5t-20 -48.5l-12 2v118h-69h-28l18 -9
q10 -5 10 -15v-28v-150h115l2 -9q-10 -2 -19.5 -8.5t-18.5 -15.5t-16 -20.5t-11 -21.5h-80l21 -10q7 -4 7 -11v-49v-204h96l-18 9q-9 3 -9 15v28v117l12 2q6 -38 21 -57.5t30 -27.5q18 -10 39 -9v-25v-69zM203 74v551h-96l18 -9q10 -5 10 -15v-527h68z" />
    <glyph glyph-name="oe" unicode="&#x153;" horiz-adv-x="482" 
d="M450 57v-7.5t2.5 -14.5t7.5 -15t15 -9l2 -12h-472l2 12q10 2 15 9t7 15t2.5 14.5t0.5 7.5v385q0 1 -0.5 7.5t-2.5 14.5t-7 15t-15 9l-2 12h472l-2 -12q-10 -2 -15 -9t-7.5 -15t-2.5 -14.5v-7.5v-91q0 -8 6 -13.5t14 -5.5v-5l-178 -129v-124h83l-27 13v94l11 5
q8 -29 28 -51.5t63 -22.5v-9v-46zM348 425h-83l18 -9q9 -5 9 -15v-110l56 40v94zM218 74l-18 9q-10 3 -10 15v327h-83l18 -9q10 -5 10 -15v-327h83z" />
    <glyph glyph-name="Scaron" unicode="&#x160;" 
d="M267 859l-69 -109h-68l-69 109h43l60 -69l60 69h43zM306 57v298q0 16 15 21l3 8l-189 66v151q0 10 -10 15l-18 9h97v-117l12 -3q5 32 20 48.5t31 24.5q18 9 39 9v55v7.5t2.5 14.5t7.5 15t15 9l2 12h-328l2 -12q10 -2 15 -9t7 -15t2.5 -14.5t0.5 -7.5v-201q0 -17 -16 -22
l-2 -7l190 -66v-248q0 -12 9 -15l18 -9h-96v169l-12 3q-7 -39 -22 -58.5t-30 -27.5q-18 -10 -39 -9v-94q0 -1 -0.5 -7.5t-2.5 -14.5t-7 -15t-15 -9l-2 -12h328l-2 12q-10 2 -15 9t-7.5 15t-2.5 14.5v7.5z" />
    <glyph glyph-name="scaron" unicode="&#x161;" horiz-adv-x="325" 
d="M260 634l-69 -109h-68l-69 109h43l60 -69l60 69h43zM293 57v190q-14 6 -32.5 13.5t-39.5 16.5t-43 18.5t-43 18.5v87q0 10 -10 15l-18 9h83v-105l12 -5q4 14 10.5 27.5t17 24t26 16.5t37.5 6v4v49v7.5t2.5 14.5t7.5 15t15 9l2 12h-315l2 -12q10 -2 15 -9t7.5 -15t3 -14.5
t0.5 -7.5v-167l157 -67v-113q0 -8 8 -11l20 -10h-83v104l-11 5q-4 -14 -11 -27.5t-17.5 -23.5t-26 -16t-36.5 -6v-53q0 -1 -0.5 -7.5t-3 -14.5t-7.5 -15t-15 -9l-2 -12h315l-2 12q-10 2 -15 9t-7.5 15t-2.5 14.5v7.5z" />
    <glyph glyph-name="Ydieresis" unicode="&#x178;" 
d="M107 860l55 -55l-55 -55l-55 55zM276 805l-55 -55l-55 55l55 55zM331 688q-10 -2 -15 -9t-7.5 -15t-2.5 -14.5v-7.5v-34v-99v-8v-62q0 -7 5.5 -10.5t11.5 -1.5l5 -7l-107 -89v-457l1 -2l9 -15q2 -2 2.5 -3t2.5 -2v-1h1q0 -1 1 -2l2 -1l2 -2h1l1 -1q2 0 3 -1h2h5l1 1h2h2
l1 1l-1 -1q0 -1 -0.5 -1t-0.5 -1t-2 -3q-1 -1 -2 -1.5t-2 -2.5q-1 0 -1.5 -0.5t-1.5 -0.5q-2 -1 -4 -1q-3 -1 -9 -1q-10 0 -20 7q-8 4 -17 13l-8.5 8.5t-7.5 8.5q-16 19 -29 38q-3 5 -6 9.5t-7 8.5q-1 2 -1.5 2.5t-1.5 2.5q-1 1 -1.5 2t-1.5 2l-4 4q0 1 -0.5 1t-0.5 1l-2 2
q-6 7 -13 13q-8 6 -13 8q-3 2 -6.5 2.5t-6.5 1.5q-5 1 -12 1q-4 -1 -9 -1h-3l2 2l3 3q2 2 4 3q1 1 1.5 1t1.5 1l2 2q2 0 4 2q1 0 1.5 0.5t2.5 0.5q10 4 19 4q5 0 13 -2v344l-109 91l5 7q6 -2 11.5 1.5t5.5 10.5v62v25v82v34q0 1 -0.5 7.5t-2.5 14.5t-7 15t-15 9l-2 12h157
l-2 -12q-10 -2 -15 -9t-7.5 -15t-2.5 -14.5v-7.5v-34v-172q0 -6 -6 -4l-14 6l53 -51h2l33 32v189v34q0 1 -0.5 7.5t-2.5 14.5t-7 15t-15 9l-2 12h157z" />
    <glyph glyph-name="Zcaron" unicode="&#x17d;" 
d="M267 859l-69 -109h-68l-69 109h43l60 -69l60 69h43zM306 57v94q-21 -1 -39 9q-15 8 -30 27.5t-21 58.5l-12 -3v-150q0 -6 5 -8l22 -11h-96v272l189 66l-1 7q-17 5 -17 22v201v7.5t2.5 14.5t7.5 15t15 9l2 12h-286h-42l2 -12q10 -2 15 -9t7 -15t2.5 -14.5t0.5 -7.5v-55
q21 0 39 -9q16 -8 31 -24.5t21 -48.5l12 3v100q0 2 -3 5l-25 12h28h69v-175l-189 -66l2 -11q15 -5 15 -21v-295q0 -1 -0.5 -7.5t-2.5 -14.5t-7 -15t-15 -9l-2 -12h328l-2 12q-10 2 -15 9t-7.5 15t-2.5 14.5v7.5z" />
    <glyph glyph-name="zcaron" unicode="&#x17e;" horiz-adv-x="325" 
d="M260 634l-69 -109h-68l-69 109h43l60 -69l60 69h43zM317 11q-9 2 -14.5 9t-7.5 15t-2.5 14.5t-0.5 7.5v53q-43 0 -63.5 22.5t-27.5 51.5l-11 -6v-83q0 -9 8 -12l19 -9h-82h-1v134l158 67v167q0 1 0.5 7.5t2.5 14.5t7.5 15t14.5 9l3 12h-315l2 -12q10 -2 15 -9t7 -15
t2.5 -14.5t0.5 -7.5v-49v-4q22 0 37.5 -6t26 -16.5t17 -24t10.5 -27.5l11 5v78v9q0 4 -4 7l-23 11h83v-111q-21 -9 -43.5 -18.5t-43.5 -18.5t-39.5 -16.5t-31.5 -13.5v-190q0 -1 -0.5 -7.5t-2.5 -14.5t-7 -15t-15 -9l-2 -12h315z" />
    <glyph glyph-name="endash" unicode="&#x2013;" horiz-adv-x="389" 
d="M5 288h379v-78h-379v78v0z" />
    <glyph glyph-name="emdash" unicode="&#x2014;" horiz-adv-x="723" 
d="M5 288h713v-78h-713v78v0z" />
    <glyph glyph-name="quoteleft" unicode="&#x2018;" horiz-adv-x="148" 
d="M100 700q-5 -18 -9 -33q-3 -13 -3.5 -25.5t4.5 -18.5l51 -51l-69 -69l-69 69l95 128v0z" />
    <glyph glyph-name="quoteright" unicode="&#x2019;" horiz-adv-x="148" 
d="M48 503q5 18 9 33q3 13 3.5 25.5t-4.5 18.5l-51 51l69 69l69 -69l-95 -128v0z" />
    <glyph glyph-name="quotesinglbase" unicode="&#x201a;" horiz-adv-x="148" 
d="M48 -60q5 17 9 32q3 13 3.5 26t-4.5 19l-51 51l69 69l69 -69l-95 -128v0z" />
    <glyph glyph-name="quotedblleft" unicode="&#x201c;" horiz-adv-x="295" 
d="M247 700q-5 -18 -9 -33q-3 -13 -3.5 -25.5t4.5 -18.5l51 -51l-69 -69l-69 69zM100 700q-5 -18 -9 -33q-3 -13 -3.5 -25.5t4.5 -18.5l51 -51l-69 -69l-69 69z" />
    <glyph glyph-name="quotedblright" unicode="&#x201d;" horiz-adv-x="295" 
d="M48 503q5 18 9 33q3 13 3.5 25.5t-4.5 18.5l-51 51l69 69l69 -69zM195 503q5 18 9 33q3 13 3.5 25.5t-4.5 18.5l-51 51l69 69l69 -69z" />
    <glyph glyph-name="quotedblbase" unicode="&#x201e;" horiz-adv-x="295" 
d="M48 -60q5 17 9 32q3 13 3.5 26t-4.5 19l-51 51l69 69l69 -69zM195 -60q5 17 9 32q3 13 3.5 26t-4.5 19l-51 51l69 69l69 -69z" />
    <glyph glyph-name="bullet" unicode="&#x2022;" horiz-adv-x="246" 
d="M123 210l-118 118l118 118l118 -118l-118 -118v0z" />
    <glyph glyph-name="Euro" unicode="&#x20ac;" horiz-adv-x="413" 
d="M380 57q0 -1 0.5 -7.5t3 -14.5t7.5 -15t15 -9l2 -12h-329l3 12q9 2 14 9t7.5 15t3 14.5t0.5 7.5v212h-78l-24 64h102v57h-78l-24 64h102v188q0 1 -0.5 7.5t-3 14.5t-7.5 15t-14 9l-3 12h329l-2 -12q-10 -2 -15 -9t-7.5 -15t-3 -14.5t-0.5 -7.5v-55q-21 0 -39 -9
q-16 -8 -30.5 -24.5t-20.5 -48.5l-12 2v118h-97l19 -9q9 -5 9 -15v-147h76l25 -64h-101v-57h76l25 -64h-101v-195h97l-18 9q-10 3 -10 15v145l12 2q6 -38 21 -57.5t30 -27.5q18 -10 39 -9v-94v0z" />
    <glyph glyph-name="a_alt" horiz-adv-x="325" 
d="M978 581q0 -7 -1 -9v-3v3v9q-1 6 -2 14t-5 18q-2 5 -4.5 10.5t-5.5 11.5q-2 2 -4 5t-4 5q-6 8 -9 11l-11 11q-3 2 -6 4.5t-7 4.5q-7 5 -14.5 9t-15.5 7q-18 7 -36 12q-2 1 -5 1.5t-5 1.5q-2 0 -10 2q-2 0 -4.5 0.5t-5.5 0.5q-2 1 -4.5 1t-5.5 1q-21 3 -42 3q-2 0 -3 0.5
t-3 0.5h-5h-11h-12h-5h-3l-3 -1q-23 -1 -46 -3.5t-46 -7.5q-47 -11 -93 -27q-23 -8 -45 -17t-44 -20q-22 -10 -42.5 -21t-40.5 -22q-41 -22 -77 -43.5t-68 -41.5l-10 -6l-10 -6h111l-2 -12q-10 -2 -15 -9t-7.5 -15t-3 -14.5t-0.5 -7.5v-385q0 -1 0.5 -7.5t3 -14.5t7.5 -15
t15 -9l2 -12h-315l2 12q10 2 15 9t7 15t2.5 14.5t0.5 7.5v137q0 8 -5.5 13.5t-13.5 5.5l-1 5l178 130v77h-83l14 -7q14 -7 14 -22v-78l-12 -5q-4 14 -10.5 27.5t-17 23.5t-26 16t-37.5 6v56q0 1 -0.5 7.5t-2.5 14.5t-7 15t-15 9l-2 12h61h1h3h1h3q4 1 10.5 2.5t15.5 4.5
q10 3 21 8t24 11q14 7 28.5 14.5t30.5 15.5q33 17 71 37.5t80 40.5q44 22 88 39q23 10 46.5 18t47.5 15q50 16 97 23q49 7 97 6h3h3h5q3 0 6 -0.5t6 -0.5q8 0 11 -1h6q4 0 6 -1q21 -1 44 -6q4 0 10 -2t10 -2q4 -1 10 -3q4 -1 10 -3q18 -6 37 -15q8 -4 15.5 -9t14.5 -10
q4 -2 7 -5t6 -5q8 -8 11 -12l9 -12q2 -3 3.5 -6t3.5 -5q6 -11 9 -23q4 -11 5 -19t1 -14zM213 74l-18 9q-10 3 -10 15v5v7v144l-55 -40v-114v-26h55h28z" />
    <glyph glyph-name="b_alt" horiz-adv-x="335" 
d="M821 678q4 -12 4 -27t-4 -24q-2 -5 -4 -9.5t-4 -9.5q-8 -13 -17 -22q-1 -1 -2 -1.5t-2 -1.5l-2 -2q-1 -1 -2 -1h1l1 2l2 2l3 3q8 7 16 22q5 9 6 19q3 12 2 23q0 10 -5 25q-7 14 -16 23q-11 10 -24 18q-8 3 -16 5.5t-16 4.5q-4 1 -8 1t-9 1h-9h-4h-5q-8 0 -17.5 -1
t-18.5 -2q-19 -3 -38 -7.5t-39 -9.5q-20 -6 -39.5 -12t-39.5 -12l-78 -26t-77 -24q-20 -5 -38.5 -9.5t-36.5 -7.5q-35 -7 -72 -7q-19 0 -34 4q-17 3 -31 9q-4 3 -8 4v-128h185l-2 -12q-10 -2 -15 -9t-7.5 -15t-2.5 -14.5v-7.5v-385v-7.5t2.5 -14.5t7.5 -15t15 -9l2 -12h-315
l3 12q10 2 15 9t7 15t2.5 14.5t0.5 7.5v555q-15 1 -23 5t-11 9q-2 1 -2 2t-1 2t-1 2q2 -1 7 -1q7 0 11 1q6 0 11 3q8 4 12 7l5.5 5.5t5.5 6.5q1 0 1 0.5t1 0.5q0 1 0.5 1t0.5 1l3 3q1 2 3 4q1 1 1.5 2t1.5 2q2 4 5 7.5t6 8.5q6 8 12 16.5t13 16.5q3 4 6.5 7.5l7.5 7.5
q4 3 7.5 6.5t7.5 5.5q9 4 17 6q6 0 8 -1q3 0 3 -1q1 0 1.5 -0.5t1.5 -0.5q2 -1 4 -3t2 -3t1 -2h1h-3l-1 1h-2h-4h-2q-1 0 -1 -0.5t-1 -0.5h-1q0 -1 -1 -1t-1 -0.5t-1 -0.5l-2 -2l-1 -1l-1 -1l-1 -1q-6 -9 -3 -20v-1q2 -7 8 -18q7 -12 22 -19q8 -5 19 -8q5 -2 11.5 -2.5
t13.5 -1.5q14 -2 29.5 -1t32.5 3q34 3 72 12q39 8 77 18l40 10l40 10t40.5 10t40.5 9q40 9 80 12q11 1 20.5 1.5t19.5 -0.5h4h5q4 -1 10 -1q5 -1 9 -2t9 -2q10 -2 18 -5.5t16 -7.5q15 -8 27 -22q11 -14 15 -28zM113 425l18 -9q9 -5 9 -15v-327h83l-19 9q-8 3 -8 13v329h-83z
" />
    <glyph glyph-name="d_alt" horiz-adv-x="325" 
d="M968 678q4 -12 4 -27q0 -14 -3 -24q-2 -5 -4 -9.5t-4 -9.5q-9 -13 -18 -22l-3 -3q-1 0 -3 -2q-1 -1 -2 -1h1l1 2l2 2l3 3q8 7 16 22q4 7 7 19q1 5 1.5 11t-0.5 12q0 10 -5 25q-7 14 -16 23q-5 5 -11 9.5t-13 8.5q-8 3 -15.5 5.5t-16.5 4.5q-4 1 -8 1t-9 1h-8h-5h-4
q-9 0 -18.5 -1t-18.5 -2q-19 -3 -38 -7.5t-39 -9.5l-78 -24q-40 -13 -79 -26t-77 -24q-20 -5 -38.5 -9.5t-36.5 -7.5q-34 -7 -71 -7q-19 0 -34 4q-17 3 -32 9q-2 2 -8 4v-571q0 -1 0.5 -7.5t3 -14.5t7.5 -15t15 -9l2 -12h-315l2 12q10 2 15 9t7 15t2.5 14.5t0.5 7.5v385
q0 1 -0.5 7.5t-2.5 14.5t-7 15t-15 9l-2 12h185v112q-15 1 -23 5t-11 9q-2 1 -2 2t-1 2t-1 2q2 -1 7 -1q7 0 11 1q6 0 12 3q2 2 5 3.5t6 3.5q3 3 6 5.5t5 6.5q1 0 1 0.5t1 0.5q0 1 0.5 1t0.5 1l3 3q1 2 3 4q1 1 1.5 2t1.5 2q3 4 5.5 7.5t5.5 8.5q6 8 12 16.5t13 16.5
q4 4 7 7.5t7 7.5q4 3 7.5 6.5t7.5 5.5q9 4 17 6q6 0 8 -1q3 0 4 -1q1 0 2 -1q2 -1 4 -3t2 -3t1 -2h1h-3l-1 1h-2h-4h-2l-2 -1h-1q0 -1 -1 -1t-1 -0.5t-1 -0.5l-2 -2l-1 -1l-1 -1q0 -1 -1 -1q-6 -9 -3 -20v-1q2 -7 8 -18q4 -5 9 -10t13 -9q8 -5 19 -8q6 -2 12 -2.5t13 -1.5
q27 -3 62 2q34 3 72 12q39 8 77 18l40 10l40 10t40.5 10t40.5 9q40 9 81 12q10 1 19.5 1.5t19.5 -0.5h5h4q4 -1 10 -1q5 -1 9.5 -2t9.5 -2q9 -2 17 -5.5t16 -7.5q15 -8 27 -22q11 -14 15 -28zM213 74l-18 8q-10 5 -10 16v327h-83l18 -9q10 -5 10 -15v-327h83z" />
    <glyph glyph-name="h_alt" horiz-adv-x="336" 
d="M978 -114q2 -5 3 -11t1 -13q0 -12 -5 -27q-4 -14 -15 -28q-10 -11 -26 -21q-16 -9 -34 -14q-5 -1 -9.5 -2t-9.5 -1q-3 -1 -9 -1q-2 -1 -5 -1h-5q-10 -1 -19.5 -0.5t-19.5 1.5q-20 2 -40.5 5t-40.5 7q-20 5 -40.5 9.5t-40.5 9.5l-40 10l-40 10t-39 9.5t-38 9.5
q-36 7 -71 12q-17 2 -32.5 2.5t-29.5 -1.5q-17 -2 -25 -4q-12 -3 -20 -7q-8 -5 -13 -10t-9 -10q-3 -5 -4.5 -9.5t-3.5 -8.5v-3v-12q0 -9 6 -16v-1h1q0 -1 1 -1l2 -2l2 -1l1 -1h1l2 -1h2h4h1q1 1 2 1h2l-1 -2q-1 -1 -1 -1.5t-1 -1.5q-2 -2 -4 -3q-1 0 -1.5 -0.5t-1.5 -0.5
q-1 -1 -3 -1q-2 -1 -8 -1q-8 1 -17 6q-4 2 -7.5 5.5t-7.5 6.5l-7.5 7.5t-6.5 7.5q-7 8 -13 16.5t-12 16.5q-3 5 -6 8.5t-6 7.5q-2 2 -2 4q-2 2 -3 4l-3 3l-2 2l-1 1q-3 4 -6 6.5t-5 5.5q-4 3 -12 7q-6 3 -11 3q-4 1 -11 1q-6 0 -7 -1v2q0 1 3 4q4 5 11.5 9t22.5 5l1 533h-83
l18 -9q9 -5 9 -15v-344q0 -1 0.5 -7.5t3 -14.5t7.5 -15t14 -9l3 -12h-158l3 12q10 2 15 9t7 15t2.5 14.5t0.5 7.5v555q-15 1 -23 5t-11 9q-2 1 -2 2t-1 2t-1 2q2 -1 7 -1q7 0 11 1q6 0 11 3q8 4 12 7l5.5 5.5t5.5 6.5q1 0 1 0.5t1 0.5q0 1 0.5 1t0.5 1l3 3q1 2 3 4
q1 1 1.5 2t1.5 2q2 4 5 7.5t6 8.5q6 8 12 16.5t13 16.5q3 4 6.5 7.5l7.5 7.5q4 3 7.5 6.5t7.5 5.5q9 4 17 6q6 0 8 -1q3 0 3 -1q1 0 1.5 -0.5t1.5 -0.5q2 -1 4 -3t2 -3t1 -2h1h-3l-1 1h-2h-4h-2q-1 0 -1 -0.5t-1 -0.5h-1q0 -1 -1 -1t-1 -0.5t-1 -0.5l-2 -2l-1 -1l-1 -1
q-6 -8 -6 -16v-217h185l-2 -12q-10 -2 -15 -9t-7.5 -15t-2.5 -14.5v-7.5v-556q4 2 7 3q7 3 15 5.5t16 4.5q16 3 34 3q17 1 35 -1t36 -5q37 -8 75 -18q38 -11 77 -24t79 -26q20 -6 39 -12t39 -11q41 -13 77 -17q10 -2 19 -2.5t18 -1.5h5h4q6 0 9 1q5 0 8.5 0.5t8.5 1.5
q18 3 31 9q7 4 13.5 8.5t11.5 9.5t9 11t6 12q3 7 4 13l2 12q0 6 -0.5 12t-1.5 11q-3 12 -7 19q-7 14 -15 22q-1 2 -3 4q-1 0 -3 2l-1 1l2 -1l2 -2l3 -3q4 -3 8.5 -8.5t9.5 -13.5t8 -19z" />
    <glyph glyph-name="k_alt" horiz-adv-x="335" 
d="M978 -114q3 -11 3 -24q0 -6 -1 -13t-3 -14q-4 -14 -15 -28q-11 -12 -27 -21q-16 -10 -33 -14q-5 -1 -9.5 -2t-9.5 -1q-3 -1 -9 -1q-2 -1 -5 -1h-5q-10 -1 -19.5 -0.5t-19.5 1.5q-20 2 -40.5 5t-40.5 7q-20 5 -40.5 9.5t-40.5 9.5l-40 10l-40 10t-39 9.5t-38 9.5
q-38 7 -72 12q-17 2 -32.5 2.5t-29.5 -1.5q-7 -1 -13 -1.5t-12 -2.5q-5 -2 -10 -3.5t-9 -3.5q-8 -5 -13 -10t-9 -10q-3 -5 -4.5 -9.5t-3.5 -8.5v-2q0 -9 6 -16v-1h1l1 -1l2 -2l2 -1h1q0 -1 1 -1h2q1 0 1 -0.5t1 -0.5h4q0 1 1 1h2q1 0 2 1v-1q0 -1 -0.5 -1t-0.5 -1l-2 -2
t-4 -3q-1 -1 -1.5 -1t-1.5 -1q-1 0 -1.5 -0.5t-1.5 -0.5q-2 -1 -8 -1q-8 1 -17 6l-15 12l-7.5 7.5t-6.5 7.5q-7 8 -13 16.5t-12 16.5q-3 5 -6 8.5t-6 7.5l-2 4q-1 1 -1.5 2t-1.5 2l-3 3l-2 2q0 1 -0.5 1t-0.5 1l-11 11q-4 3 -12 7q-3 2 -6 2.5t-5 1.5h-11h-7v1q0 1 3 4
q4 5 12 9t23 5v363h-83l18 -8q9 -5 9 -15v-188q0 -1 0.5 -7.5t3 -14.5t7.5 -15t14 -9l3 -12h-158l3 12q10 2 15 9t7 15t2.5 14.5t0.5 7.5v555q-15 1 -23 5t-11 9q-2 1 -2 2t-1 2t-1 2q2 -1 7 -1q7 0 11 1q6 0 11 3q8 4 12 7l5.5 5.5t5.5 6.5q1 0 1 0.5t1 0.5q0 1 0.5 1
t0.5 1l3 3q1 2 3 4q1 1 1.5 2t1.5 2q2 4 5 7.5t6 8.5q6 8 12 16.5t13 16.5q3 4 6.5 7.5l7.5 7.5q4 3 7.5 6.5t7.5 5.5q9 4 17 6q6 0 8 -1q3 0 3 -1q1 0 1.5 -0.5t1.5 -0.5q2 -1 4 -3t2 -3t1 -2h1h-3l-1 1h-2h-4h-2q-1 0 -1 -0.5t-1 -0.5h-1q0 -1 -1 -1t-1 -0.5t-1 -0.5
l-2 -2l-1 -1l-1 -1q-6 -8 -6 -16v-373l56 67v31q0 1 -0.5 7.5t-3 14.5t-7.5 15t-15 9l-2 12h157l-2 -12q-10 -2 -15 -9t-7.5 -15t-2.5 -14.5v-7.5v-1q0 -10 10 -8l2 -6l-71 -83h86l-2 -12q-10 -2 -15 -9t-7.5 -15t-2.5 -14.5v-7.5v-400l6 3q8 3 16 5.5t16 4.5q16 3 34 3
q17 1 35 -1t36 -5q36 -8 75 -18q38 -11 77 -24t79 -26q20 -6 39 -12t39 -11q41 -13 77 -17q9 -2 18.5 -2.5t18.5 -1.5h4h5q6 0 8 1q5 0 9 0.5t9 1.5q16 3 31 9q7 4 13 8.5t11 9.5q9 9 16 23q5 15 5 25q1 6 0.5 12t-1.5 11q-3 12 -7 19q-8 15 -16 22q-1 2 -3 4l-2 2
q-1 1 -2 1l2 -1q1 -1 1.5 -1t1.5 -1l3 -3q8 -7 18 -22q2 -4 4 -9z" />
    <glyph glyph-name="k_alt2" horiz-adv-x="335" 
d="M821 678q5 -16 4 -27q0 -14 -3 -24q-2 -5 -4 -9.5t-4 -9.5q-5 -8 -9.5 -13t-8.5 -9l-3 -3q-1 0 -3 -2q-1 -1 -2 -1h1l1 2q2 0 2 2l3 3q8 7 16 22q4 7 7 19q1 5 1.5 11t0.5 12q-1 11 -6 25q-7 14 -16 23q-5 5 -11 9.5t-13 8.5q-8 3 -15.5 5.5t-15.5 4.5q-5 1 -9 1t-8 1h-9
h-5h-4q-9 0 -18.5 -1t-18.5 -2q-19 -3 -38 -7.5t-39 -9.5l-78 -24q-40 -13 -79 -26t-77 -24q-19 -5 -37.5 -9.5t-37.5 -7.5q-34 -7 -71 -7q-19 0 -34 4q-17 3 -32 9q-2 2 -8 4v-284l56 67v31q0 1 -0.5 7.5t-3 14.5t-7.5 15t-15 9l-2 12h157l-2 -12q-10 -2 -15 -9t-7.5 -15
t-2.5 -14.5v-7.5v-1q0 -10 10 -8l2 -6l-71 -83h86l-2 -12q-10 -2 -15 -9t-7.5 -15t-2.5 -14.5v-7.5v-331q0 -9 6 -15v-1h1q0 -1 1 -1l2 -2l2 -1l1 -1h1l2 -1h2h4h1q1 0 2 1h2l-1 -2q-1 -1 -1 -1.5t-1 -1.5q-2 -2 -4 -3q-1 0 -1.5 -0.5t-1.5 -0.5q-1 -1 -3 -1q-2 -1 -8 -1
q-8 1 -17 6q-8 4 -15 12l-7.5 7.5t-6.5 7.5q-7 8 -13 16.5t-12 16.5q-3 5 -6 8.5t-6 7.5q-2 2 -2 4l-3 3q-1 2 -3 4l-2 2l-1 1q-3 4 -6 6.5t-5 5.5q-4 3 -12 7q-6 3 -11 3q-4 1 -11 1q-6 0 -7 -1v2q0 1 3 4q4 5 12 9t23 5v207h-83l18 -8q9 -5 9 -15v-188q0 -1 0.5 -7.5
t3 -14.5t7.5 -15t14 -9l3 -12h-158l3 12q10 2 15 9t7 15t2.5 14.5t0.5 7.5v555q-15 1 -23 5t-11 9q-2 1 -2 2t-1 2t-1 2q2 -1 7 -1q7 0 11 1q6 0 11 3q8 4 12 7l5.5 5.5t5.5 6.5q1 0 1 0.5t1 0.5q0 1 0.5 1t0.5 1l3 3q1 2 3 4q1 1 1.5 2t1.5 2q2 4 5 7.5t6 8.5q6 8 12 16.5
t13 16.5q3 4 6.5 7.5l7.5 7.5q4 3 7.5 6.5t7.5 5.5q9 4 17 6q6 0 8 -1q3 0 3 -1q1 0 1.5 -0.5t1.5 -0.5q2 -1 4 -3t2 -3t1 -2h1h-3l-1 1h-2h-4h-2q-1 0 -1 -0.5t-1 -0.5h-1q0 -1 -1 -1t-1 -0.5t-1 -0.5l-2 -2l-1 -1l-1 -1q-4 -4 -6 -14q1 -2 1 -4t1 -4q2 -3 3.5 -8t4.5 -10
q4 -5 9 -10t13 -9q8 -5 19 -8q6 -2 12 -2.5t13 -1.5q27 -3 62 2q34 3 72 12q39 8 77 18l40 10l40 10t40.5 10t40.5 9q40 9 81 12q10 1 19.5 1.5t19.5 -0.5h5h5q3 -1 9 -1q5 -1 9.5 -2t9.5 -2q9 -2 17.5 -5.5t16.5 -7.5q14 -9 26 -22q11 -14 15 -28z" />
    <glyph glyph-name="l_alt" horiz-adv-x="178" 
d="M819 678q4 -12 4 -27q0 -14 -3 -24q-2 -5 -4 -9.5t-4 -9.5q-9 -13 -18 -22l-3 -3q-1 0 -3 -2q-1 -1 -2 -1h1l1 2l2 2l3 3q8 7 16 22q4 7 7 19q1 5 1.5 11t-0.5 12q0 10 -5 25q-7 14 -16 23q-5 5 -11 9.5t-13 8.5q-8 3 -15.5 5.5t-16.5 4.5q-4 1 -8 1t-9 1h-8h-5h-4
q-9 0 -18.5 -1t-18.5 -2q-19 -3 -38 -7.5t-39 -9.5l-78 -24q-40 -13 -79 -26t-77 -24q-20 -5 -38.5 -9.5t-36.5 -7.5q-34 -7 -71 -7q-19 0 -34 4q-17 3 -32 9l-6 3v-570q0 -1 0.5 -7.5t3 -14.5t7.5 -15t14 -9l3 -12h-158l3 12q10 2 15 9t7 15t2.5 14.5t0.5 7.5v555
q-15 1 -23 5t-11 9q-2 1 -2 2t-1 2t-1 2q2 -1 7 -1q7 0 11 1q6 0 11 3q8 4 12 7l5.5 5.5t5.5 6.5q1 0 1 0.5t1 0.5q0 1 0.5 1t0.5 1l3 3q1 2 3 4q1 1 1.5 2t1.5 2q2 4 5 7.5t6 8.5q6 8 12 16.5t13 16.5q3 4 6.5 7.5l7.5 7.5q4 3 7.5 6.5t7.5 5.5q9 4 17 6q6 0 8 -1q3 0 3 -1
q1 0 1.5 -0.5t1.5 -0.5q2 -1 4 -3t2 -3t1 -2h1h-3l-1 1h-2h-4h-2q-1 0 -1 -0.5t-1 -0.5h-1q0 -1 -1 -1t-1 -0.5t-1 -0.5l-2 -2l-1 -1l-1 -1q-6 -6 -6 -16q0 -8 4 -15q2 -6 4 -9q4 -5 9 -10t13 -9q8 -5 19 -8q6 -2 12 -2.5t13 -1.5q27 -3 62 2q34 3 72 12q39 8 77 18l40 10
l40 10t40.5 10t40.5 9q40 9 80 12q11 1 20.5 1.5t19.5 -0.5h5h4q4 -1 10 -1q5 -1 9.5 -2t9.5 -2q9 -2 17 -5.5t16 -7.5q15 -8 27 -22q11 -14 15 -28z" />
    <glyph glyph-name="o_alt" horiz-adv-x="325" 
d="M965 579q0 -3 -0.5 -5t-0.5 -4v-3v3v9q-1 5 -2 13.5t-5 18.5q-2 5 -4.5 10.5t-5.5 10.5q-2 3 -4 5.5t-4 5.5t-4.5 5.5t-4.5 5.5q-3 2 -5.5 5t-5.5 5q-3 3 -6.5 5.5t-6.5 4.5q-12 8 -31 16q-16 7 -35 12q-6 2 -10 2q-6 2 -10 2q-6 2 -10 2q-2 1 -4.5 1t-5.5 1
q-11 1 -21.5 2t-21.5 1h-5h-6q-2 0 -5 0.5t-6 -0.5h-11h-6h-2h-3q-23 -1 -46 -3.5t-46 -7.5q-48 -11 -93 -27q-23 -8 -45 -17t-44 -20t-42.5 -21.5t-40.5 -21.5q-41 -22 -77 -44t-68 -41q-4 -3 -8 -5.5t-8 -4.5h120l-2 -12q-10 -2 -15 -9t-7.5 -15t-3 -14.5t-0.5 -7.5v-385
q0 -1 0.5 -7.5t3 -14.5t7.5 -15t15 -9l2 -12h-315l2 12q10 2 15 9t7 15t2.5 14.5t0.5 7.5v385q0 1 -0.5 7.5t-2.5 14.5t-7 15t-15 9l-2 12h66q4 1 7.5 2t8.5 3q10 3 21 7.5t24 11.5q29 13 59 30q33 17 71 37.5t80 40.5q21 10 43 20t45 19t46.5 17.5t47.5 15.5q24 8 48 13
t49 9t49 6t48 1h3h3q3 0 5 -1h12q3 0 6 -0.5t5 -0.5h6q2 -1 6 -1q22 -1 43 -6q3 -1 5.5 -1.5t5.5 -0.5q2 -1 5 -1.5t5 -1.5q8 -2 10 -2q4 -1 10 -3q10 -4 19 -7t17 -8q18 -9 31 -19q4 -2 7 -5l6 -6t6 -5.5t5 -5.5l9 -12q3 -4 7 -12q6 -13 9 -22q4 -11 4.5 -19t1.5 -14z
M213 74l-18 9q-10 3 -10 15v327h-83l18 -9q10 -5 10 -15v-327h83z" />
    <glyph glyph-name="o_alt2" horiz-adv-x="320" 
d="M315 -1h-56q-21 0 -39 -7q-9 -3 -20 -8t-25 -11q-13 -6 -27.5 -14t-31.5 -16q-32 -17 -70 -37.5t-80 -40.5q-21 -11 -43 -20.5t-45 -18.5t-46.5 -17.5t-47.5 -15.5q-24 -8 -48.5 -13t-49.5 -9q-24 -4 -48.5 -6t-47.5 -1h-3h-3h-6q-3 0 -6 0.5t-5 0.5q-8 0 -12 1h-6
q-1 0 -2 0.5t-3 0.5q-23 2 -44 6q-2 1 -5 1t-5 1q-3 1 -5.5 1.5t-5.5 1.5q-2 0 -10 2q-6 2 -10 3q-9 3 -18.5 6.5t-17.5 8.5q-16 7 -31 19q-8 6 -13 11q-3 2 -5.5 5t-5.5 6l-9 12q-2 3 -3.5 6t-3.5 6q-5 9 -9 22q-3 11 -4 19t-1 14v9v2l1 1l-1 -1v-2q0 -5 1 -9q0 -14 7 -32
q3 -12 10 -21q2 -3 3.5 -6t3.5 -5q6 -8 10 -11q3 -4 11 -10q5 -6 13 -10q7 -5 14.5 -9t15.5 -7q16 -8 36 -12q6 -2 9 -2q4 -1 10 -3q2 0 5 -0.5t5 -0.5q3 -1 5.5 -1t4.5 -1q21 -3 43 -3h5q2 -1 6 -1h11h11q2 0 3 0.5t3 0.5h3h3q23 1 46 3.5t46 7.5q48 11 92 27q23 8 45.5 17
t43.5 20q22 10 43 21t41 22q40 22 76 43.5t68 41.5l10 6l10 6h-111l2 12q10 2 15 9t7 15t2.5 14.5t0.5 7.5v385q0 1 -0.5 7.5t-2.5 14.5t-7 15t-15 9l-2 12h315l-2 -12q-10 -2 -15 -9t-7.5 -15t-2.5 -14.5v-7.5v-385v-7.5t2.5 -14.5t7.5 -15t15 -9zM102 425l18 -9
q10 -5 10 -15v-327h83l-18 9q-10 3 -10 15v327h-83z" />
    <glyph glyph-name="s_alt" horiz-adv-x="325" 
d="M1024 572q0 -1 -1 -2v-1v1l1 2q0 5 -1 9q0 14 -7 32q-3 11 -10 22q-2 2 -3.5 5t-3.5 5q-6 8 -10 11q-2 3 -5 5.5t-6 5.5q-3 2 -6 4.5t-7 4.5q-7 5 -14.5 9t-15.5 7q-17 7 -36 12l-9 3q-4 0 -10 2q-2 0 -5 0.5t-5 0.5q-3 1 -5.5 1t-4.5 1q-21 3 -43 3q-2 0 -3 0.5t-2 0.5
h-6h-11h-11h-6h-3l-3 -1q-23 -1 -46 -3.5t-46 -7.5q-48 -11 -92 -27q-23 -8 -45.5 -17t-43.5 -20q-22 -10 -43 -21t-41 -22q-40 -22 -76 -43.5t-68 -41.5l-21 -12h66l-2 -12q-10 -2 -15 -9t-7.5 -15t-2.5 -14.5v-7.5v-49v-4q-22 0 -37.5 -6t-26 -16.5t-17 -24t-10.5 -27.5
l-11 5v105h-83l18 -9q9 -5 9 -15v-87q21 -9 43 -18.5t43 -18.5t39.5 -16.5t32.5 -13.5v-190v-7.5t2.5 -14.5t7.5 -15t15 -9l2 -12h-314l2 12q10 2 15 9t7 15t2.5 14.5t0.5 7.5v53q43 0 63 22t28 51l11 -5v-104h83l-20 9q-7 4 -7 12v113l-158 67v167q0 1 -0.5 7.5t-2.5 14.5
t-7 15t-15 9l-2 12h106h2h1h1h4q4 1 10.5 2.5t15.5 4.5t20 8t25 11q13 7 27.5 14.5t31.5 15.5q32 17 70 37.5t80 40.5q21 11 43 20.5t45 18.5q48 20 94 33q24 8 48.5 13.5t49.5 9.5q48 8 96 6h3h3h6q3 0 6 -0.5t5 -0.5q8 0 12 -1h6q3 0 5 -1q23 -2 44 -6q4 0 10 -2
q3 -1 5.5 -1.5t5.5 -0.5q6 -2 10 -3q6 -2 10 -3q9 -3 18.5 -6.5t17.5 -8.5q16 -7 31 -19q3 -2 6.5 -5t6.5 -5q3 -3 5.5 -6t5.5 -6l9 -12q2 -3 3.5 -6t3.5 -5q6 -11 9 -23q3 -11 4 -19t1 -14v-9z" />
    <glyph glyph-name="s_alt2" horiz-adv-x="325" 
d="M966 -81q0 -6 -1 -14t-4 -19q-4 -13 -9 -22q-2 -3 -3.5 -6t-3.5 -6l-9 -12q-3 -3 -5.5 -6t-5.5 -5q-5 -5 -13 -11q-15 -12 -31 -19q-8 -5 -17.5 -8.5t-18.5 -6.5q-4 -1 -10 -3q-3 -1 -5.5 -1t-4.5 -1q-3 -1 -5.5 -1.5t-5.5 -1.5q-2 -1 -5 -1t-5 -1q-21 -4 -44 -6
q-2 0 -3 -0.5t-3 -0.5h-5q-4 -1 -12 -1q-7 0 -11 -1h-6h-3h-3q-23 -1 -47.5 1t-48.5 6q-25 4 -49.5 9t-48.5 13q-24 7 -47.5 15.5t-46.5 17.5t-45 19t-43 20q-42 20 -80 40.5t-70 37.5q-17 8 -31.5 16t-27.5 14q-14 6 -25 11t-20 8q-13 5 -19 6h-65l2 12q10 2 15 9t7 15
t2.5 14.5t0.5 7.5v53q43 0 63 22t28 51l12 -5v-104h83l-21 9q-7 5 -7 12v113l-158 67v167q0 1 -0.5 7.5t-2.5 14.5t-7 15t-15 9l-2 12h315l-2 -12q-10 -2 -15 -9t-7.5 -15t-3 -14.5t-0.5 -7.5v-49v-4q-43 0 -63 -22.5t-28 -51.5l-11 5v105h-83l18 -9q10 -5 10 -15v-87
q21 -9 43 -18.5t43 -18.5t39.5 -16.5t31.5 -13.5v-190q0 -1 0.5 -7.5t3 -14.5t7.5 -15t15 -9l2 -12h-120q5 -3 9 -5.5t9 -5.5q32 -19 68 -41t76 -44q20 -11 41 -21.5t42 -21.5q22 -11 44.5 -20t45.5 -17q44 -16 92 -27q23 -5 46 -7.5t46 -3.5h3h3q4 0 6 -1h11h11q2 1 5 1h6
q11 0 21.5 1t21.5 2q2 1 4.5 1t5.5 1q2 0 10 2q2 0 10 2q3 0 9 2q19 4 36 12q8 3 15.5 7t14.5 9q7 4 13 10q8 6 11 10q4 3 10 11q2 2 3.5 5t3.5 6q3 5 5.5 10.5t4.5 10.5q7 18 7 32q1 4 1 9q-1 1 -1 2v1v-1q0 -1 0.5 -1t0.5 -1v-9z" />
    </font>
</defs>
</svg>
